G75*
G70*
%OFA0B0*%
%FSLAX24Y24*%
%IPPOS*%
%LPD*%
%AMOC8*
5,1,8,0,0,1.08239X$1,22.5*
%
%ADD10C,0.0100*%
%ADD11C,0.0080*%
%ADD12C,0.0000*%
%ADD13OC8,0.0694*%
%ADD14C,0.0655*%
%ADD15R,0.0674X0.0674*%
%ADD16C,0.0674*%
%ADD17C,0.0740*%
%ADD18OC8,0.0640*%
%ADD19C,0.0640*%
%ADD20C,0.0240*%
%ADD21C,0.0120*%
%ADD22C,0.0515*%
%ADD23R,0.0436X0.0436*%
D10*
X000584Y000580D02*
X025796Y000580D01*
X025835Y000582D01*
X025873Y000588D01*
X025910Y000597D01*
X025947Y000610D01*
X025982Y000627D01*
X026015Y000646D01*
X026046Y000669D01*
X026075Y000695D01*
X026101Y000724D01*
X026124Y000755D01*
X026143Y000788D01*
X026160Y000823D01*
X026173Y000860D01*
X026182Y000897D01*
X026188Y000935D01*
X026190Y000974D01*
X026190Y001580D01*
X027190Y002580D01*
X027190Y015480D01*
X026190Y016480D01*
X026190Y020980D01*
X025590Y021580D01*
X000584Y021580D01*
X000545Y021578D01*
X000507Y021572D01*
X000470Y021563D01*
X000433Y021550D01*
X000398Y021533D01*
X000365Y021514D01*
X000334Y021491D01*
X000305Y021465D01*
X000279Y021436D01*
X000256Y021405D01*
X000237Y021372D01*
X000220Y021337D01*
X000207Y021300D01*
X000198Y021263D01*
X000192Y021225D01*
X000190Y021186D01*
X000190Y000974D01*
X000192Y000935D01*
X000198Y000897D01*
X000207Y000860D01*
X000220Y000823D01*
X000237Y000788D01*
X000256Y000755D01*
X000279Y000724D01*
X000305Y000695D01*
X000334Y000669D01*
X000365Y000646D01*
X000398Y000627D01*
X000433Y000610D01*
X000470Y000597D01*
X000507Y000588D01*
X000545Y000582D01*
X000584Y000580D01*
X025190Y011580D02*
X025240Y011580D01*
X025240Y012580D02*
X025190Y012580D01*
X011680Y015080D02*
X011590Y015080D01*
X011690Y016080D02*
X011680Y016080D01*
D11*
X012179Y016280D02*
X012181Y016280D01*
X012180Y016277D02*
X012135Y016384D01*
X011984Y016535D01*
X011950Y016550D01*
X011950Y016722D01*
X012048Y016820D01*
X024682Y016820D01*
X024930Y016572D01*
X024930Y013044D01*
X024700Y012814D01*
X024700Y015882D01*
X024660Y015977D01*
X024160Y016477D01*
X024160Y016477D01*
X024087Y016550D01*
X023992Y016590D01*
X019138Y016590D01*
X019043Y016550D01*
X017082Y014590D01*
X014901Y014590D01*
X014984Y014625D01*
X015135Y014776D01*
X015217Y014973D01*
X015217Y015187D01*
X015135Y015384D01*
X014984Y015535D01*
X014821Y015603D01*
X015036Y015603D01*
X015071Y015612D01*
X015103Y015631D01*
X015129Y015657D01*
X015148Y015689D01*
X015157Y015724D01*
X015157Y016040D01*
X014720Y016040D01*
X014720Y016120D01*
X014640Y016120D01*
X014640Y016557D01*
X014324Y016557D01*
X014289Y016548D01*
X014257Y016529D01*
X014231Y016503D01*
X014212Y016471D01*
X014203Y016436D01*
X014203Y016221D01*
X014135Y016384D01*
X013984Y016535D01*
X013787Y016617D01*
X013573Y016617D01*
X013376Y016535D01*
X013225Y016384D01*
X013180Y016277D01*
X013135Y016384D01*
X012984Y016535D01*
X012787Y016617D01*
X012573Y016617D01*
X012376Y016535D01*
X012225Y016384D01*
X012180Y016277D01*
X012146Y016359D02*
X012214Y016359D01*
X012277Y016437D02*
X012083Y016437D01*
X012004Y016516D02*
X012356Y016516D01*
X012517Y016594D02*
X011950Y016594D01*
X011950Y016673D02*
X024830Y016673D01*
X024751Y016751D02*
X011979Y016751D01*
X012843Y016594D02*
X013517Y016594D01*
X013356Y016516D02*
X013004Y016516D01*
X013083Y016437D02*
X013277Y016437D01*
X013214Y016359D02*
X013146Y016359D01*
X013179Y016280D02*
X013181Y016280D01*
X013843Y016594D02*
X015942Y016594D01*
X015867Y016563D02*
X016077Y016650D01*
X016303Y016650D01*
X016513Y016563D01*
X016673Y016403D01*
X016760Y016193D01*
X016760Y015967D01*
X016673Y015757D01*
X016513Y015597D01*
X016303Y015510D01*
X016077Y015510D01*
X015867Y015597D01*
X015707Y015757D01*
X015620Y015967D01*
X015620Y016193D01*
X015707Y016403D01*
X015867Y016563D01*
X015819Y016516D02*
X015117Y016516D01*
X015129Y016503D02*
X015103Y016529D01*
X015071Y016548D01*
X015036Y016557D01*
X014720Y016557D01*
X014720Y016120D01*
X015157Y016120D01*
X015157Y016436D01*
X015148Y016471D01*
X015129Y016503D01*
X015157Y016437D02*
X015741Y016437D01*
X015688Y016359D02*
X015157Y016359D01*
X015157Y016280D02*
X015656Y016280D01*
X015623Y016202D02*
X015157Y016202D01*
X015157Y016123D02*
X015620Y016123D01*
X015620Y016045D02*
X014720Y016045D01*
X014720Y016040D02*
X014720Y015617D01*
X014640Y015617D01*
X014640Y016040D01*
X014217Y016040D01*
X014217Y016120D01*
X014640Y016120D01*
X014640Y016040D01*
X014720Y016040D01*
X014720Y015966D02*
X014640Y015966D01*
X014640Y015888D02*
X014720Y015888D01*
X014720Y015809D02*
X014640Y015809D01*
X014640Y015731D02*
X014720Y015731D01*
X014720Y015652D02*
X014640Y015652D01*
X014892Y015574D02*
X015923Y015574D01*
X015812Y015652D02*
X015124Y015652D01*
X015157Y015731D02*
X015733Y015731D01*
X015685Y015809D02*
X015157Y015809D01*
X015157Y015888D02*
X015653Y015888D01*
X015620Y015966D02*
X015157Y015966D01*
X014720Y016123D02*
X014640Y016123D01*
X014640Y016045D02*
X014217Y016045D01*
X014203Y016280D02*
X014179Y016280D01*
X014203Y016359D02*
X014146Y016359D01*
X014203Y016437D02*
X014083Y016437D01*
X014004Y016516D02*
X014243Y016516D01*
X014640Y016516D02*
X014720Y016516D01*
X014720Y016437D02*
X014640Y016437D01*
X014640Y016359D02*
X014720Y016359D01*
X014720Y016280D02*
X014640Y016280D01*
X014640Y016202D02*
X014720Y016202D01*
X015025Y015495D02*
X017987Y015495D01*
X017909Y015417D02*
X015103Y015417D01*
X015155Y015338D02*
X017830Y015338D01*
X017752Y015260D02*
X015187Y015260D01*
X015217Y015181D02*
X017673Y015181D01*
X017595Y015103D02*
X015217Y015103D01*
X015217Y015024D02*
X017516Y015024D01*
X017438Y014946D02*
X015206Y014946D01*
X015173Y014867D02*
X017359Y014867D01*
X017281Y014789D02*
X015141Y014789D01*
X015070Y014710D02*
X017202Y014710D01*
X017124Y014632D02*
X014991Y014632D01*
X016457Y015574D02*
X017173Y015574D01*
X017117Y015597D02*
X017327Y015510D01*
X017553Y015510D01*
X017763Y015597D01*
X017923Y015757D01*
X018010Y015967D01*
X018010Y016193D01*
X017923Y016403D01*
X017763Y016563D01*
X017553Y016650D01*
X017327Y016650D01*
X017117Y016563D01*
X016957Y016403D01*
X016870Y016193D01*
X016870Y015967D01*
X016957Y015757D01*
X017117Y015597D01*
X017062Y015652D02*
X016568Y015652D01*
X016647Y015731D02*
X016983Y015731D01*
X016935Y015809D02*
X016695Y015809D01*
X016727Y015888D02*
X016903Y015888D01*
X016870Y015966D02*
X016760Y015966D01*
X016760Y016045D02*
X016870Y016045D01*
X016870Y016123D02*
X016760Y016123D01*
X016757Y016202D02*
X016873Y016202D01*
X016906Y016280D02*
X016724Y016280D01*
X016692Y016359D02*
X016938Y016359D01*
X016991Y016437D02*
X016639Y016437D01*
X016561Y016516D02*
X017069Y016516D01*
X017192Y016594D02*
X016438Y016594D01*
X017688Y016594D02*
X024908Y016594D01*
X024930Y016516D02*
X024122Y016516D01*
X024201Y016437D02*
X024930Y016437D01*
X024930Y016359D02*
X024279Y016359D01*
X024358Y016280D02*
X024930Y016280D01*
X024930Y016202D02*
X024436Y016202D01*
X024515Y016123D02*
X024930Y016123D01*
X024930Y016045D02*
X024593Y016045D01*
X024665Y015966D02*
X024930Y015966D01*
X024930Y015888D02*
X024698Y015888D01*
X024700Y015809D02*
X024930Y015809D01*
X024930Y015731D02*
X024700Y015731D01*
X024700Y015652D02*
X024930Y015652D01*
X024930Y015574D02*
X024700Y015574D01*
X024700Y015495D02*
X024930Y015495D01*
X024930Y015417D02*
X024700Y015417D01*
X024700Y015338D02*
X024930Y015338D01*
X024930Y015260D02*
X024700Y015260D01*
X024700Y015181D02*
X024930Y015181D01*
X024930Y015103D02*
X024700Y015103D01*
X024700Y015024D02*
X024930Y015024D01*
X024930Y014946D02*
X024700Y014946D01*
X024700Y014867D02*
X024930Y014867D01*
X024930Y014789D02*
X024700Y014789D01*
X024700Y014710D02*
X024930Y014710D01*
X024930Y014632D02*
X024700Y014632D01*
X024700Y014553D02*
X024930Y014553D01*
X024930Y014475D02*
X024700Y014475D01*
X024700Y014396D02*
X024930Y014396D01*
X024930Y014318D02*
X024700Y014318D01*
X024700Y014239D02*
X024930Y014239D01*
X024930Y014161D02*
X024700Y014161D01*
X024700Y014082D02*
X024930Y014082D01*
X024930Y014004D02*
X024700Y014004D01*
X024700Y013925D02*
X024930Y013925D01*
X024930Y013847D02*
X024700Y013847D01*
X024700Y013768D02*
X024930Y013768D01*
X024930Y013690D02*
X024700Y013690D01*
X024700Y013611D02*
X024930Y013611D01*
X024930Y013533D02*
X024700Y013533D01*
X024700Y013454D02*
X024930Y013454D01*
X024930Y013376D02*
X024700Y013376D01*
X024700Y013297D02*
X024930Y013297D01*
X024930Y013219D02*
X024700Y013219D01*
X024700Y013140D02*
X024930Y013140D01*
X024930Y013062D02*
X024700Y013062D01*
X024700Y012983D02*
X024869Y012983D01*
X024791Y012905D02*
X024700Y012905D01*
X024700Y012826D02*
X024712Y012826D01*
X024180Y012826D02*
X018554Y012826D01*
X018632Y012905D02*
X024180Y012905D01*
X024180Y012983D02*
X018711Y012983D01*
X018789Y013062D02*
X019452Y013062D01*
X019367Y013097D02*
X019207Y013257D01*
X019181Y013320D01*
X019048Y013320D01*
X017984Y012256D01*
X018010Y012193D01*
X018010Y011967D01*
X017923Y011757D01*
X017763Y011597D01*
X017747Y011590D01*
X018082Y011590D01*
X018293Y011800D01*
X018388Y011840D01*
X024590Y011840D01*
X024543Y011860D01*
X024470Y011933D01*
X024470Y011933D01*
X024293Y012110D01*
X024293Y012110D01*
X024220Y012183D01*
X024180Y012278D01*
X024180Y015722D01*
X023832Y016070D01*
X019298Y016070D01*
X017337Y014110D01*
X017242Y014070D01*
X012888Y014070D01*
X012793Y014110D01*
X012543Y014360D01*
X012470Y014433D01*
X012450Y014480D01*
X012450Y011938D01*
X012798Y011590D01*
X015883Y011590D01*
X015867Y011597D01*
X015707Y011757D01*
X015620Y011967D01*
X015620Y012193D01*
X015707Y012403D01*
X015867Y012563D01*
X016077Y012650D01*
X016142Y012650D01*
X019220Y015727D01*
X019293Y015800D01*
X019388Y015840D01*
X021492Y015840D01*
X021587Y015800D01*
X021910Y015477D01*
X021950Y015382D01*
X021950Y014188D01*
X022221Y013917D01*
X022367Y014063D01*
X022485Y014112D01*
X022423Y014144D01*
X022358Y014191D01*
X022301Y014248D01*
X022254Y014313D01*
X022217Y014384D01*
X022193Y014461D01*
X022180Y014540D01*
X022180Y014540D01*
X022650Y014540D01*
X022650Y014620D01*
X022650Y015090D01*
X022650Y015090D01*
X022571Y015077D01*
X022494Y015053D01*
X022423Y015016D01*
X022358Y014969D01*
X022301Y014912D01*
X022254Y014847D01*
X022217Y014776D01*
X022193Y014699D01*
X022180Y014620D01*
X022650Y014620D01*
X022730Y014620D01*
X022730Y015090D01*
X022730Y015090D01*
X022809Y015077D01*
X022886Y015053D01*
X022957Y015016D01*
X023022Y014969D01*
X023079Y014912D01*
X023126Y014847D01*
X023163Y014776D01*
X023187Y014699D01*
X023200Y014620D01*
X023200Y014620D01*
X022730Y014620D01*
X022730Y014540D01*
X023200Y014540D01*
X023200Y014540D01*
X023187Y014461D01*
X023163Y014384D01*
X023126Y014313D01*
X023079Y014248D01*
X023022Y014191D01*
X022957Y014144D01*
X022895Y014112D01*
X023013Y014063D01*
X023173Y013903D01*
X023260Y013693D01*
X023260Y013467D01*
X023173Y013257D01*
X023013Y013097D01*
X022803Y013010D01*
X022577Y013010D01*
X022367Y013097D01*
X022207Y013257D01*
X022181Y013320D01*
X022138Y013320D01*
X022043Y013360D01*
X021543Y013860D01*
X021543Y013860D01*
X021470Y013933D01*
X021430Y014028D01*
X021430Y015222D01*
X021332Y015320D01*
X019548Y015320D01*
X016652Y012424D01*
X016673Y012403D01*
X016760Y012193D01*
X016760Y011967D01*
X016673Y011757D01*
X016513Y011597D01*
X016497Y011590D01*
X017133Y011590D01*
X017117Y011597D01*
X016957Y011757D01*
X016870Y011967D01*
X016870Y012193D01*
X016957Y012403D01*
X017117Y012563D01*
X017327Y012650D01*
X017553Y012650D01*
X017616Y012624D01*
X018720Y013727D01*
X018793Y013800D01*
X018888Y013840D01*
X019181Y013840D01*
X019207Y013903D01*
X019367Y014063D01*
X019485Y014112D01*
X019423Y014144D01*
X019358Y014191D01*
X019301Y014248D01*
X019254Y014313D01*
X019217Y014384D01*
X019193Y014461D01*
X019180Y014540D01*
X019180Y014540D01*
X019650Y014540D01*
X019650Y014620D01*
X019650Y015090D01*
X019650Y015090D01*
X019571Y015077D01*
X019494Y015053D01*
X019423Y015016D01*
X019358Y014969D01*
X019301Y014912D01*
X019254Y014847D01*
X019217Y014776D01*
X019193Y014699D01*
X019180Y014620D01*
X019650Y014620D01*
X019730Y014620D01*
X020200Y014620D01*
X020200Y014620D01*
X020187Y014699D01*
X020163Y014776D01*
X020126Y014847D01*
X020079Y014912D01*
X020022Y014969D01*
X019957Y015016D01*
X019886Y015053D01*
X019809Y015077D01*
X019730Y015090D01*
X019730Y014620D01*
X019730Y014540D01*
X020200Y014540D01*
X020200Y014540D01*
X020187Y014461D01*
X020163Y014384D01*
X020126Y014313D01*
X020079Y014248D01*
X020022Y014191D01*
X019957Y014144D01*
X019895Y014112D01*
X020013Y014063D01*
X020173Y013903D01*
X020260Y013693D01*
X020260Y013467D01*
X020173Y013257D01*
X020013Y013097D01*
X019803Y013010D01*
X019577Y013010D01*
X019367Y013097D01*
X019324Y013140D02*
X018868Y013140D01*
X018946Y013219D02*
X019245Y013219D01*
X019190Y013297D02*
X019025Y013297D01*
X018682Y013690D02*
X017917Y013690D01*
X017996Y013768D02*
X018760Y013768D01*
X018603Y013611D02*
X017839Y013611D01*
X017760Y013533D02*
X018525Y013533D01*
X018446Y013454D02*
X017682Y013454D01*
X017603Y013376D02*
X018368Y013376D01*
X018289Y013297D02*
X017525Y013297D01*
X017446Y013219D02*
X018211Y013219D01*
X018132Y013140D02*
X017368Y013140D01*
X017289Y013062D02*
X018054Y013062D01*
X017975Y012983D02*
X017211Y012983D01*
X017132Y012905D02*
X017897Y012905D01*
X017818Y012826D02*
X017054Y012826D01*
X016975Y012748D02*
X017740Y012748D01*
X017661Y012669D02*
X016897Y012669D01*
X016818Y012591D02*
X017183Y012591D01*
X017066Y012512D02*
X016740Y012512D01*
X016661Y012434D02*
X016987Y012434D01*
X016937Y012355D02*
X016693Y012355D01*
X016726Y012277D02*
X016904Y012277D01*
X016872Y012198D02*
X016758Y012198D01*
X016760Y012120D02*
X016870Y012120D01*
X016870Y012041D02*
X016760Y012041D01*
X016758Y011963D02*
X016872Y011963D01*
X016904Y011884D02*
X016726Y011884D01*
X016693Y011806D02*
X016937Y011806D01*
X016987Y011727D02*
X016643Y011727D01*
X016565Y011649D02*
X017065Y011649D01*
X017815Y011649D02*
X018141Y011649D01*
X018219Y011727D02*
X017893Y011727D01*
X017943Y011806D02*
X018305Y011806D01*
X018008Y011963D02*
X024440Y011963D01*
X024361Y012041D02*
X018010Y012041D01*
X018010Y012120D02*
X024283Y012120D01*
X024213Y012198D02*
X018008Y012198D01*
X018004Y012277D02*
X024181Y012277D01*
X024180Y012355D02*
X018083Y012355D01*
X018161Y012434D02*
X024180Y012434D01*
X024180Y012512D02*
X018240Y012512D01*
X018318Y012591D02*
X024180Y012591D01*
X024180Y012669D02*
X018397Y012669D01*
X018475Y012748D02*
X024180Y012748D01*
X024180Y013062D02*
X022928Y013062D01*
X023056Y013140D02*
X024180Y013140D01*
X024180Y013219D02*
X023135Y013219D01*
X023190Y013297D02*
X024180Y013297D01*
X024180Y013376D02*
X023222Y013376D01*
X023255Y013454D02*
X024180Y013454D01*
X024180Y013533D02*
X023260Y013533D01*
X023260Y013611D02*
X024180Y013611D01*
X024180Y013690D02*
X023260Y013690D01*
X023229Y013768D02*
X024180Y013768D01*
X024180Y013847D02*
X023197Y013847D01*
X023151Y013925D02*
X024180Y013925D01*
X024180Y014004D02*
X023073Y014004D01*
X022967Y014082D02*
X024180Y014082D01*
X024180Y014161D02*
X022980Y014161D01*
X023070Y014239D02*
X024180Y014239D01*
X024180Y014318D02*
X023129Y014318D01*
X023166Y014396D02*
X024180Y014396D01*
X024180Y014475D02*
X023190Y014475D01*
X023198Y014632D02*
X024180Y014632D01*
X024180Y014710D02*
X023184Y014710D01*
X023156Y014789D02*
X024180Y014789D01*
X024180Y014867D02*
X023112Y014867D01*
X023046Y014946D02*
X024180Y014946D01*
X024180Y015024D02*
X022942Y015024D01*
X022730Y015024D02*
X022650Y015024D01*
X022650Y014946D02*
X022730Y014946D01*
X022730Y014867D02*
X022650Y014867D01*
X022650Y014789D02*
X022730Y014789D01*
X022730Y014710D02*
X022650Y014710D01*
X022650Y014632D02*
X022730Y014632D01*
X022730Y014553D02*
X024180Y014553D01*
X024180Y015103D02*
X021950Y015103D01*
X021950Y015181D02*
X024180Y015181D01*
X024180Y015260D02*
X021950Y015260D01*
X021950Y015338D02*
X024180Y015338D01*
X024180Y015417D02*
X021936Y015417D01*
X021893Y015495D02*
X024180Y015495D01*
X024180Y015574D02*
X021814Y015574D01*
X021736Y015652D02*
X024180Y015652D01*
X024172Y015731D02*
X021657Y015731D01*
X021566Y015809D02*
X024093Y015809D01*
X024015Y015888D02*
X019115Y015888D01*
X019194Y015966D02*
X023936Y015966D01*
X023858Y016045D02*
X019272Y016045D01*
X019314Y015809D02*
X019037Y015809D01*
X018958Y015731D02*
X019223Y015731D01*
X019144Y015652D02*
X018880Y015652D01*
X018801Y015574D02*
X019066Y015574D01*
X018987Y015495D02*
X018723Y015495D01*
X018644Y015417D02*
X018909Y015417D01*
X018830Y015338D02*
X018566Y015338D01*
X018487Y015260D02*
X018752Y015260D01*
X018673Y015181D02*
X018409Y015181D01*
X018330Y015103D02*
X018595Y015103D01*
X018516Y015024D02*
X018252Y015024D01*
X018173Y014946D02*
X018438Y014946D01*
X018359Y014867D02*
X018095Y014867D01*
X018016Y014789D02*
X018281Y014789D01*
X018202Y014710D02*
X017938Y014710D01*
X017859Y014632D02*
X018124Y014632D01*
X018045Y014553D02*
X017781Y014553D01*
X017702Y014475D02*
X017967Y014475D01*
X017888Y014396D02*
X017624Y014396D01*
X017545Y014318D02*
X017810Y014318D01*
X017731Y014239D02*
X017467Y014239D01*
X017388Y014161D02*
X017653Y014161D01*
X017574Y014082D02*
X017271Y014082D01*
X017417Y013925D02*
X012450Y013925D01*
X012450Y013847D02*
X017339Y013847D01*
X017260Y013768D02*
X012450Y013768D01*
X012450Y013690D02*
X017182Y013690D01*
X017103Y013611D02*
X012450Y013611D01*
X012450Y013533D02*
X017025Y013533D01*
X016946Y013454D02*
X012450Y013454D01*
X012450Y013376D02*
X016868Y013376D01*
X016789Y013297D02*
X012450Y013297D01*
X012450Y013219D02*
X016711Y013219D01*
X016632Y013140D02*
X012450Y013140D01*
X012450Y013062D02*
X016554Y013062D01*
X016475Y012983D02*
X012450Y012983D01*
X012450Y012905D02*
X016397Y012905D01*
X016318Y012826D02*
X012450Y012826D01*
X012450Y012748D02*
X016240Y012748D01*
X016161Y012669D02*
X012450Y012669D01*
X012450Y012591D02*
X015933Y012591D01*
X015816Y012512D02*
X012450Y012512D01*
X012450Y012434D02*
X015737Y012434D01*
X015687Y012355D02*
X012450Y012355D01*
X012450Y012277D02*
X015654Y012277D01*
X015622Y012198D02*
X012450Y012198D01*
X012450Y012120D02*
X015620Y012120D01*
X015620Y012041D02*
X012450Y012041D01*
X012450Y011963D02*
X015622Y011963D01*
X015654Y011884D02*
X012504Y011884D01*
X012582Y011806D02*
X015687Y011806D01*
X015737Y011727D02*
X012661Y011727D01*
X012739Y011649D02*
X015815Y011649D01*
X016974Y010987D02*
X016937Y010916D01*
X016913Y010839D01*
X016900Y010760D01*
X017370Y010760D01*
X017370Y010680D01*
X017450Y010680D01*
X017450Y010760D01*
X017920Y010760D01*
X017920Y010760D01*
X017907Y010839D01*
X017883Y010916D01*
X017846Y010987D01*
X017799Y011052D01*
X017781Y011070D01*
X018242Y011070D01*
X018337Y011110D01*
X018410Y011183D01*
X018548Y011320D01*
X024726Y011320D01*
X024966Y011080D01*
X024693Y010807D01*
X024693Y010353D01*
X024930Y010116D01*
X024930Y010090D01*
X010798Y010090D01*
X010450Y010438D01*
X010450Y018132D01*
X010410Y018227D01*
X009910Y018727D01*
X009837Y018800D01*
X009742Y018840D01*
X005040Y018840D01*
X005040Y019053D01*
X004953Y019263D01*
X007083Y019263D01*
X007063Y019311D02*
X007143Y019118D01*
X007291Y018969D01*
X007485Y018889D01*
X007695Y018889D01*
X007889Y018969D01*
X008037Y019118D01*
X008090Y019245D01*
X008143Y019118D01*
X008291Y018969D01*
X008485Y018889D01*
X008695Y018889D01*
X008889Y018969D01*
X009037Y019118D01*
X009090Y019245D01*
X009143Y019118D01*
X009291Y018969D01*
X009485Y018889D01*
X009695Y018889D01*
X009889Y018969D01*
X010037Y019118D01*
X010117Y019311D01*
X010117Y019849D01*
X010037Y020042D01*
X009999Y020080D01*
X010037Y020118D01*
X010117Y020311D01*
X010117Y020849D01*
X010037Y021042D01*
X009889Y021191D01*
X009794Y021230D01*
X011386Y021230D01*
X011291Y021191D01*
X011143Y021042D01*
X011063Y020849D01*
X011063Y020311D01*
X011143Y020118D01*
X011181Y020080D01*
X011143Y020042D01*
X011063Y019849D01*
X011063Y019311D01*
X011143Y019118D01*
X011291Y018969D01*
X011485Y018889D01*
X011695Y018889D01*
X011889Y018969D01*
X012037Y019118D01*
X012090Y019245D01*
X012143Y019118D01*
X012291Y018969D01*
X012485Y018889D01*
X012695Y018889D01*
X012889Y018969D01*
X013037Y019118D01*
X013090Y019245D01*
X013143Y019118D01*
X013291Y018969D01*
X013485Y018889D01*
X013695Y018889D01*
X013889Y018969D01*
X014037Y019118D01*
X014090Y019245D01*
X014143Y019118D01*
X014291Y018969D01*
X014485Y018889D01*
X014695Y018889D01*
X014889Y018969D01*
X015037Y019118D01*
X015090Y019245D01*
X015143Y019118D01*
X015291Y018969D01*
X015485Y018889D01*
X015695Y018889D01*
X015889Y018969D01*
X016037Y019118D01*
X016090Y019245D01*
X016143Y019118D01*
X016291Y018969D01*
X016485Y018889D01*
X016695Y018889D01*
X016889Y018969D01*
X017037Y019118D01*
X017117Y019311D01*
X017117Y019849D01*
X017037Y020042D01*
X016999Y020080D01*
X017037Y020118D01*
X017117Y020311D01*
X017117Y020849D01*
X017037Y021042D01*
X016889Y021191D01*
X016794Y021230D01*
X017986Y021230D01*
X017891Y021191D01*
X017743Y021042D01*
X017663Y020849D01*
X017663Y020311D01*
X017743Y020118D01*
X017781Y020080D01*
X017743Y020042D01*
X017663Y019849D01*
X017663Y019311D01*
X017743Y019118D01*
X017891Y018969D01*
X018085Y018889D01*
X018295Y018889D01*
X018489Y018969D01*
X018637Y019118D01*
X018690Y019245D01*
X018743Y019118D01*
X018891Y018969D01*
X019085Y018889D01*
X019295Y018889D01*
X019489Y018969D01*
X019637Y019118D01*
X019690Y019245D01*
X019743Y019118D01*
X019891Y018969D01*
X020085Y018889D01*
X020295Y018889D01*
X020489Y018969D01*
X020637Y019118D01*
X020690Y019245D01*
X020743Y019118D01*
X020891Y018969D01*
X021085Y018889D01*
X021295Y018889D01*
X021489Y018969D01*
X021637Y019118D01*
X021690Y019245D01*
X021743Y019118D01*
X021891Y018969D01*
X022085Y018889D01*
X022131Y018889D01*
X021832Y018590D01*
X011388Y018590D01*
X011293Y018550D01*
X010793Y018050D01*
X010720Y017977D01*
X010680Y017882D01*
X010680Y015678D01*
X010720Y015583D01*
X010793Y015510D01*
X011143Y015159D01*
X011143Y014973D01*
X011225Y014776D01*
X011376Y014625D01*
X011573Y014543D01*
X011787Y014543D01*
X011930Y014602D01*
X011930Y011778D01*
X011970Y011683D01*
X012470Y011183D01*
X012543Y011110D01*
X012638Y011070D01*
X017039Y011070D01*
X017021Y011052D01*
X016974Y010987D01*
X016998Y011021D02*
X010450Y011021D01*
X010450Y011099D02*
X012568Y011099D01*
X012475Y011178D02*
X010450Y011178D01*
X010450Y011256D02*
X012396Y011256D01*
X012318Y011335D02*
X010450Y011335D01*
X010450Y011413D02*
X012239Y011413D01*
X012161Y011492D02*
X010450Y011492D01*
X010450Y011570D02*
X012082Y011570D01*
X012004Y011649D02*
X010450Y011649D01*
X010450Y011727D02*
X011951Y011727D01*
X011930Y011806D02*
X010450Y011806D01*
X010450Y011884D02*
X011930Y011884D01*
X011930Y011963D02*
X010450Y011963D01*
X010450Y012041D02*
X011930Y012041D01*
X011930Y012120D02*
X010450Y012120D01*
X010450Y012198D02*
X011930Y012198D01*
X011930Y012277D02*
X010450Y012277D01*
X010450Y012355D02*
X011930Y012355D01*
X011930Y012434D02*
X010450Y012434D01*
X010450Y012512D02*
X011930Y012512D01*
X011930Y012591D02*
X010450Y012591D01*
X010450Y012669D02*
X011930Y012669D01*
X011930Y012748D02*
X010450Y012748D01*
X010450Y012826D02*
X011930Y012826D01*
X011930Y012905D02*
X010450Y012905D01*
X010450Y012983D02*
X011930Y012983D01*
X011930Y013062D02*
X010450Y013062D01*
X010450Y013140D02*
X011930Y013140D01*
X011930Y013219D02*
X010450Y013219D01*
X010450Y013297D02*
X011930Y013297D01*
X011930Y013376D02*
X010450Y013376D01*
X010450Y013454D02*
X011930Y013454D01*
X011930Y013533D02*
X010450Y013533D01*
X010450Y013611D02*
X011930Y013611D01*
X011930Y013690D02*
X010450Y013690D01*
X010450Y013768D02*
X011930Y013768D01*
X011930Y013847D02*
X010450Y013847D01*
X010450Y013925D02*
X011930Y013925D01*
X011930Y014004D02*
X010450Y014004D01*
X010450Y014082D02*
X011930Y014082D01*
X011930Y014161D02*
X010450Y014161D01*
X010450Y014239D02*
X011930Y014239D01*
X011930Y014318D02*
X010450Y014318D01*
X010450Y014396D02*
X011930Y014396D01*
X011930Y014475D02*
X010450Y014475D01*
X010450Y014553D02*
X011549Y014553D01*
X011369Y014632D02*
X010450Y014632D01*
X010450Y014710D02*
X011290Y014710D01*
X011219Y014789D02*
X010450Y014789D01*
X010450Y014867D02*
X011187Y014867D01*
X011154Y014946D02*
X010450Y014946D01*
X010450Y015024D02*
X011143Y015024D01*
X011143Y015103D02*
X010450Y015103D01*
X010450Y015181D02*
X011121Y015181D01*
X011043Y015260D02*
X010450Y015260D01*
X010450Y015338D02*
X010964Y015338D01*
X010886Y015417D02*
X010450Y015417D01*
X010450Y015495D02*
X010807Y015495D01*
X010793Y015510D02*
X010793Y015510D01*
X010729Y015574D02*
X010450Y015574D01*
X010450Y015652D02*
X010691Y015652D01*
X010680Y015731D02*
X010450Y015731D01*
X010450Y015809D02*
X010680Y015809D01*
X010680Y015888D02*
X010450Y015888D01*
X010450Y015966D02*
X010680Y015966D01*
X010680Y016045D02*
X010450Y016045D01*
X010450Y016123D02*
X010680Y016123D01*
X010680Y016202D02*
X010450Y016202D01*
X010450Y016280D02*
X010680Y016280D01*
X010680Y016359D02*
X010450Y016359D01*
X010450Y016437D02*
X010680Y016437D01*
X010680Y016516D02*
X010450Y016516D01*
X010450Y016594D02*
X010680Y016594D01*
X010680Y016673D02*
X010450Y016673D01*
X010450Y016751D02*
X010680Y016751D01*
X010680Y016830D02*
X010450Y016830D01*
X010450Y016908D02*
X010680Y016908D01*
X010680Y016987D02*
X010450Y016987D01*
X010450Y017065D02*
X010680Y017065D01*
X010680Y017144D02*
X010450Y017144D01*
X010450Y017222D02*
X010680Y017222D01*
X010680Y017301D02*
X010450Y017301D01*
X010450Y017379D02*
X010680Y017379D01*
X010680Y017458D02*
X010450Y017458D01*
X010450Y017536D02*
X010680Y017536D01*
X010680Y017615D02*
X010450Y017615D01*
X010450Y017693D02*
X010680Y017693D01*
X010680Y017772D02*
X010450Y017772D01*
X010450Y017850D02*
X010680Y017850D01*
X010699Y017929D02*
X010450Y017929D01*
X010450Y018007D02*
X010749Y018007D01*
X010828Y018086D02*
X010450Y018086D01*
X010437Y018164D02*
X010906Y018164D01*
X010985Y018243D02*
X010395Y018243D01*
X010317Y018321D02*
X011063Y018321D01*
X011142Y018400D02*
X010238Y018400D01*
X010160Y018478D02*
X011220Y018478D01*
X011308Y018557D02*
X010081Y018557D01*
X010003Y018635D02*
X021877Y018635D01*
X021956Y018714D02*
X009924Y018714D01*
X009846Y018792D02*
X022034Y018792D01*
X022113Y018871D02*
X005040Y018871D01*
X005040Y018949D02*
X007340Y018949D01*
X007233Y019028D02*
X005040Y019028D01*
X005018Y019106D02*
X007155Y019106D01*
X007115Y019185D02*
X004986Y019185D01*
X004953Y019263D02*
X004793Y019423D01*
X004583Y019510D01*
X004357Y019510D01*
X004147Y019423D01*
X003987Y019263D01*
X002393Y019263D01*
X002233Y019423D01*
X002023Y019510D01*
X001797Y019510D01*
X001587Y019423D01*
X001427Y019263D01*
X000540Y019263D01*
X000540Y019185D02*
X001394Y019185D01*
X001427Y019263D02*
X001340Y019053D01*
X001340Y018827D01*
X001427Y018617D01*
X001587Y018457D01*
X001797Y018370D01*
X002023Y018370D01*
X002233Y018457D01*
X002393Y018617D01*
X002419Y018680D01*
X003961Y018680D01*
X003987Y018617D01*
X004147Y018457D01*
X004357Y018370D01*
X004583Y018370D01*
X004708Y018422D01*
X004775Y018378D01*
X004793Y018360D01*
X004818Y018349D01*
X004840Y018335D01*
X004865Y018330D01*
X004888Y018320D01*
X004915Y018320D01*
X004942Y018315D01*
X004966Y018320D01*
X009582Y018320D01*
X009930Y017972D01*
X009930Y010278D01*
X009970Y010183D01*
X010043Y010110D01*
X010543Y009610D01*
X010638Y009570D01*
X024930Y009570D01*
X024930Y006188D01*
X023543Y004800D01*
X023470Y004727D01*
X023430Y004632D01*
X023430Y004498D01*
X023389Y004498D01*
X023272Y004381D01*
X023272Y003779D01*
X023389Y003662D01*
X023991Y003662D01*
X024108Y003779D01*
X024108Y004381D01*
X023991Y004498D01*
X023976Y004498D01*
X025410Y005933D01*
X025450Y006028D01*
X025450Y010033D01*
X025467Y010033D01*
X025782Y010349D01*
X026038Y010093D01*
X026200Y010093D01*
X026200Y010540D01*
X026280Y010540D01*
X026280Y010093D01*
X026442Y010093D01*
X026520Y010171D01*
X026520Y005824D01*
X024069Y003650D01*
X023323Y003650D01*
X022961Y004011D01*
X022871Y004101D01*
X022754Y004150D01*
X010126Y004150D01*
X010009Y004101D01*
X009557Y003650D01*
X008260Y003650D01*
X008260Y003693D01*
X008173Y003903D01*
X008013Y004063D01*
X007972Y004080D01*
X008013Y004097D01*
X008173Y004257D01*
X008260Y004467D01*
X008260Y004693D01*
X008173Y004903D01*
X008013Y005063D01*
X007972Y005080D01*
X008013Y005097D01*
X008173Y005257D01*
X008260Y005467D01*
X008260Y005693D01*
X008173Y005903D01*
X008013Y006063D01*
X007972Y006080D01*
X008013Y006097D01*
X008173Y006257D01*
X008260Y006467D01*
X008260Y006693D01*
X008173Y006903D01*
X008013Y007063D01*
X007972Y007080D01*
X008013Y007097D01*
X008173Y007257D01*
X008260Y007467D01*
X008260Y007693D01*
X008173Y007903D01*
X008013Y008063D01*
X007972Y008080D01*
X008013Y008097D01*
X008173Y008257D01*
X008260Y008467D01*
X008260Y008693D01*
X008173Y008903D01*
X008013Y009063D01*
X007803Y009150D01*
X007577Y009150D01*
X007367Y009063D01*
X007207Y008903D01*
X007190Y008862D01*
X007173Y008903D01*
X007013Y009063D01*
X006803Y009150D01*
X006577Y009150D01*
X006367Y009063D01*
X006207Y008903D01*
X006190Y008862D01*
X006173Y008903D01*
X006013Y009063D01*
X006010Y009064D01*
X006010Y009197D01*
X006323Y009510D01*
X008004Y009510D01*
X008121Y009559D01*
X008621Y010059D01*
X008711Y010149D01*
X008760Y010266D01*
X008760Y012644D01*
X008711Y012761D01*
X007960Y013513D01*
X007960Y013683D01*
X007881Y013875D01*
X007735Y014021D01*
X007543Y014100D01*
X007337Y014100D01*
X007145Y014021D01*
X006999Y013875D01*
X006920Y013683D01*
X006920Y013477D01*
X006999Y013285D01*
X007145Y013139D01*
X007337Y013060D01*
X007507Y013060D01*
X008120Y012447D01*
X008120Y010463D01*
X007807Y010150D01*
X006126Y010150D01*
X006009Y010101D01*
X005919Y010011D01*
X005419Y009511D01*
X005370Y009394D01*
X005370Y009064D01*
X005367Y009063D01*
X005207Y008903D01*
X005120Y008693D01*
X005120Y008467D01*
X005172Y008340D01*
X003708Y008340D01*
X003760Y008467D01*
X003760Y008693D01*
X003673Y008903D01*
X003513Y009063D01*
X003303Y009150D01*
X003077Y009150D01*
X002867Y009063D01*
X002707Y008903D01*
X002690Y008862D01*
X002673Y008903D01*
X002513Y009063D01*
X002303Y009150D01*
X002077Y009150D01*
X001867Y009063D01*
X001707Y008903D01*
X001658Y008785D01*
X001626Y008847D01*
X001579Y008912D01*
X001522Y008969D01*
X001457Y009016D01*
X001386Y009053D01*
X001309Y009077D01*
X001230Y009090D01*
X001230Y008620D01*
X001150Y008620D01*
X001150Y009090D01*
X001150Y009090D01*
X001071Y009077D01*
X000994Y009053D01*
X000923Y009016D01*
X000858Y008969D01*
X000801Y008912D01*
X000754Y008847D01*
X000717Y008776D01*
X000693Y008699D01*
X000680Y008620D01*
X001150Y008620D01*
X001150Y008540D01*
X000680Y008540D01*
X000680Y008540D01*
X000693Y008461D01*
X000717Y008384D01*
X000754Y008313D01*
X000801Y008248D01*
X000858Y008191D01*
X000923Y008144D01*
X000994Y008107D01*
X001071Y008083D01*
X001087Y008080D01*
X001071Y008077D01*
X000994Y008053D01*
X000923Y008016D01*
X000858Y007969D01*
X000801Y007912D01*
X000754Y007847D01*
X000717Y007776D01*
X000693Y007699D01*
X000680Y007620D01*
X001150Y007620D01*
X001150Y008090D01*
X001150Y008540D01*
X001230Y008540D01*
X001230Y007620D01*
X001150Y007620D01*
X001150Y007540D01*
X000680Y007540D01*
X000680Y007540D01*
X000693Y007461D01*
X000717Y007384D01*
X000754Y007313D01*
X000801Y007248D01*
X000858Y007191D01*
X000923Y007144D01*
X000994Y007107D01*
X001071Y007083D01*
X001087Y007080D01*
X001071Y007077D01*
X000994Y007053D01*
X000923Y007016D01*
X000858Y006969D01*
X000801Y006912D01*
X000754Y006847D01*
X000717Y006776D01*
X000693Y006699D01*
X000680Y006620D01*
X001150Y006620D01*
X001150Y007090D01*
X001150Y007540D01*
X001230Y007540D01*
X001230Y006620D01*
X001150Y006620D01*
X001150Y006540D01*
X000680Y006540D01*
X000680Y006540D01*
X000693Y006461D01*
X000717Y006384D01*
X000754Y006313D01*
X000801Y006248D01*
X000858Y006191D01*
X000923Y006144D01*
X000994Y006107D01*
X001071Y006083D01*
X001087Y006080D01*
X001071Y006077D01*
X000994Y006053D01*
X000923Y006016D01*
X000858Y005969D01*
X000801Y005912D01*
X000754Y005847D01*
X000717Y005776D01*
X000693Y005699D01*
X000680Y005620D01*
X001150Y005620D01*
X001150Y006090D01*
X001150Y006540D01*
X001230Y006540D01*
X001230Y005620D01*
X001150Y005620D01*
X001150Y005540D01*
X000680Y005540D01*
X000680Y005540D01*
X000693Y005461D01*
X000717Y005384D01*
X000754Y005313D01*
X000801Y005248D01*
X000858Y005191D01*
X000923Y005144D01*
X000994Y005107D01*
X001071Y005083D01*
X001087Y005080D01*
X001071Y005077D01*
X000994Y005053D01*
X000923Y005016D01*
X000858Y004969D01*
X000801Y004912D01*
X000754Y004847D01*
X000717Y004776D01*
X000693Y004699D01*
X000680Y004620D01*
X001150Y004620D01*
X001150Y005090D01*
X001150Y005540D01*
X001230Y005540D01*
X001230Y004620D01*
X001150Y004620D01*
X001150Y004540D01*
X000680Y004540D01*
X000680Y004540D01*
X000693Y004461D01*
X000717Y004384D01*
X000754Y004313D01*
X000801Y004248D01*
X000858Y004191D01*
X000923Y004144D01*
X000994Y004107D01*
X001071Y004083D01*
X001087Y004080D01*
X001071Y004077D01*
X000994Y004053D01*
X000923Y004016D01*
X000858Y003969D01*
X000801Y003912D01*
X000754Y003847D01*
X000717Y003776D01*
X000693Y003699D01*
X000680Y003620D01*
X001150Y003620D01*
X001150Y004090D01*
X001150Y004540D01*
X001230Y004540D01*
X001230Y003620D01*
X001150Y003620D01*
X001150Y003540D01*
X001230Y003540D01*
X001230Y003070D01*
X001230Y003070D01*
X001309Y003083D01*
X001386Y003107D01*
X001457Y003144D01*
X001522Y003191D01*
X001579Y003248D01*
X001626Y003313D01*
X001658Y003375D01*
X001707Y003257D01*
X001867Y003097D01*
X002077Y003010D01*
X002303Y003010D01*
X002513Y003097D01*
X002673Y003257D01*
X002690Y003298D01*
X002707Y003257D01*
X002867Y003097D01*
X003077Y003010D01*
X003303Y003010D01*
X003513Y003097D01*
X003673Y003257D01*
X003760Y003467D01*
X003760Y003693D01*
X003708Y003820D01*
X005172Y003820D01*
X005120Y003693D01*
X005120Y003467D01*
X005207Y003257D01*
X005367Y003097D01*
X005577Y003010D01*
X005803Y003010D01*
X005806Y003011D01*
X006169Y002649D01*
X006259Y002559D01*
X006376Y002510D01*
X010254Y002510D01*
X010371Y002559D01*
X010664Y002851D01*
X010663Y002849D01*
X010663Y002311D01*
X010743Y002118D01*
X010781Y002080D01*
X010743Y002042D01*
X010663Y001849D01*
X010663Y001311D01*
X010743Y001118D01*
X010891Y000969D01*
X010986Y000930D01*
X006355Y000930D01*
X006478Y001053D01*
X006620Y001395D01*
X006620Y001765D01*
X006478Y002107D01*
X006217Y002368D01*
X005875Y002510D01*
X005505Y002510D01*
X005163Y002368D01*
X004902Y002107D01*
X004760Y001765D01*
X004760Y001395D01*
X004902Y001053D01*
X005025Y000930D01*
X000584Y000930D01*
X000575Y000931D01*
X000559Y000937D01*
X000547Y000949D01*
X000541Y000965D01*
X000540Y000974D01*
X000540Y021186D01*
X000541Y021195D01*
X000547Y021211D01*
X000559Y021223D01*
X000575Y021229D01*
X000584Y021230D01*
X005525Y021230D01*
X005402Y021107D01*
X005260Y020765D01*
X005260Y020395D01*
X005402Y020053D01*
X005663Y019792D01*
X006005Y019650D01*
X006375Y019650D01*
X006717Y019792D01*
X006978Y020053D01*
X007074Y020284D01*
X007143Y020118D01*
X007181Y020080D01*
X007143Y020042D01*
X007063Y019849D01*
X007063Y019311D01*
X007063Y019342D02*
X004875Y019342D01*
X004796Y019420D02*
X007063Y019420D01*
X007063Y019499D02*
X004611Y019499D01*
X004329Y019499D02*
X002051Y019499D01*
X002236Y019420D02*
X004144Y019420D01*
X004065Y019342D02*
X002315Y019342D01*
X002393Y019263D02*
X002419Y019200D01*
X003961Y019200D01*
X003987Y019263D01*
X003979Y018635D02*
X002401Y018635D01*
X002333Y018557D02*
X004047Y018557D01*
X004126Y018478D02*
X002254Y018478D01*
X002095Y018400D02*
X004285Y018400D01*
X004655Y018400D02*
X004741Y018400D01*
X004886Y018321D02*
X000540Y018321D01*
X000540Y018243D02*
X009660Y018243D01*
X009738Y018164D02*
X000540Y018164D01*
X000540Y018086D02*
X009817Y018086D01*
X009895Y018007D02*
X000540Y018007D01*
X000540Y017929D02*
X009930Y017929D01*
X009930Y017850D02*
X000540Y017850D01*
X000540Y017772D02*
X009930Y017772D01*
X009930Y017693D02*
X000540Y017693D01*
X000540Y017615D02*
X009930Y017615D01*
X009930Y017536D02*
X000540Y017536D01*
X000540Y017458D02*
X009930Y017458D01*
X009930Y017379D02*
X000540Y017379D01*
X000540Y017301D02*
X009930Y017301D01*
X009930Y017222D02*
X000540Y017222D01*
X000540Y017144D02*
X001311Y017144D01*
X001327Y017150D02*
X001117Y017063D01*
X000957Y016903D01*
X000870Y016693D01*
X000870Y016467D01*
X000957Y016257D01*
X001117Y016097D01*
X001327Y016010D01*
X001553Y016010D01*
X001763Y016097D01*
X001923Y016257D01*
X001940Y016298D01*
X001957Y016257D01*
X002117Y016097D01*
X002327Y016010D01*
X002553Y016010D01*
X002763Y016097D01*
X002923Y016257D01*
X002940Y016298D01*
X002957Y016257D01*
X003117Y016097D01*
X003327Y016010D01*
X003553Y016010D01*
X003763Y016097D01*
X003923Y016257D01*
X003940Y016298D01*
X003957Y016257D01*
X004117Y016097D01*
X004327Y016010D01*
X004553Y016010D01*
X004763Y016097D01*
X004923Y016257D01*
X004940Y016298D01*
X004957Y016257D01*
X005117Y016097D01*
X005327Y016010D01*
X005553Y016010D01*
X005763Y016097D01*
X005923Y016257D01*
X005940Y016298D01*
X005957Y016257D01*
X006117Y016097D01*
X006327Y016010D01*
X006553Y016010D01*
X006763Y016097D01*
X006923Y016257D01*
X006940Y016298D01*
X006957Y016257D01*
X007117Y016097D01*
X007327Y016010D01*
X007553Y016010D01*
X007763Y016097D01*
X007923Y016257D01*
X008010Y016467D01*
X008010Y016693D01*
X007923Y016903D01*
X007763Y017063D01*
X007553Y017150D01*
X007327Y017150D01*
X007117Y017063D01*
X006957Y016903D01*
X006940Y016862D01*
X006923Y016903D01*
X006763Y017063D01*
X006553Y017150D01*
X006327Y017150D01*
X006117Y017063D01*
X005957Y016903D01*
X005940Y016862D01*
X005923Y016903D01*
X005763Y017063D01*
X005553Y017150D01*
X005327Y017150D01*
X005117Y017063D01*
X004957Y016903D01*
X004940Y016862D01*
X004923Y016903D01*
X004763Y017063D01*
X004553Y017150D01*
X004327Y017150D01*
X004117Y017063D01*
X003957Y016903D01*
X003940Y016862D01*
X003923Y016903D01*
X003763Y017063D01*
X003553Y017150D01*
X003327Y017150D01*
X003117Y017063D01*
X002957Y016903D01*
X002940Y016862D01*
X002923Y016903D01*
X002763Y017063D01*
X002553Y017150D01*
X002327Y017150D01*
X002117Y017063D01*
X001957Y016903D01*
X001940Y016862D01*
X001923Y016903D01*
X001763Y017063D01*
X001553Y017150D01*
X001327Y017150D01*
X001122Y017065D02*
X000540Y017065D01*
X000540Y016987D02*
X001040Y016987D01*
X000962Y016908D02*
X000540Y016908D01*
X000540Y016830D02*
X000926Y016830D01*
X000894Y016751D02*
X000540Y016751D01*
X000540Y016673D02*
X000870Y016673D01*
X000870Y016594D02*
X000540Y016594D01*
X000540Y016516D02*
X000870Y016516D01*
X000882Y016437D02*
X000540Y016437D01*
X000540Y016359D02*
X000915Y016359D01*
X000947Y016280D02*
X000540Y016280D01*
X000540Y016202D02*
X001012Y016202D01*
X001091Y016123D02*
X000540Y016123D01*
X000540Y016045D02*
X001243Y016045D01*
X001637Y016045D02*
X002243Y016045D01*
X002091Y016123D02*
X001789Y016123D01*
X001868Y016202D02*
X002012Y016202D01*
X001947Y016280D02*
X001933Y016280D01*
X002637Y016045D02*
X003243Y016045D01*
X003091Y016123D02*
X002789Y016123D01*
X002868Y016202D02*
X003012Y016202D01*
X002947Y016280D02*
X002933Y016280D01*
X003637Y016045D02*
X004243Y016045D01*
X004091Y016123D02*
X003789Y016123D01*
X003868Y016202D02*
X004012Y016202D01*
X003947Y016280D02*
X003933Y016280D01*
X004637Y016045D02*
X005243Y016045D01*
X005091Y016123D02*
X004789Y016123D01*
X004868Y016202D02*
X005012Y016202D01*
X004947Y016280D02*
X004933Y016280D01*
X005637Y016045D02*
X006243Y016045D01*
X006091Y016123D02*
X005789Y016123D01*
X005868Y016202D02*
X006012Y016202D01*
X005947Y016280D02*
X005933Y016280D01*
X006637Y016045D02*
X007243Y016045D01*
X007091Y016123D02*
X006789Y016123D01*
X006868Y016202D02*
X007012Y016202D01*
X006947Y016280D02*
X006933Y016280D01*
X007637Y016045D02*
X009930Y016045D01*
X009930Y016123D02*
X007789Y016123D01*
X007868Y016202D02*
X009930Y016202D01*
X009930Y016280D02*
X007933Y016280D01*
X007965Y016359D02*
X009930Y016359D01*
X009930Y016437D02*
X007998Y016437D01*
X008010Y016516D02*
X009930Y016516D01*
X009930Y016594D02*
X008010Y016594D01*
X008010Y016673D02*
X009930Y016673D01*
X009930Y016751D02*
X007986Y016751D01*
X007954Y016830D02*
X009930Y016830D01*
X009930Y016908D02*
X007918Y016908D01*
X007840Y016987D02*
X009930Y016987D01*
X009930Y017065D02*
X007758Y017065D01*
X007569Y017144D02*
X009930Y017144D01*
X009930Y015966D02*
X000540Y015966D01*
X000540Y015888D02*
X009930Y015888D01*
X009930Y015809D02*
X000540Y015809D01*
X000540Y015731D02*
X009930Y015731D01*
X009930Y015652D02*
X000540Y015652D01*
X000540Y015574D02*
X009930Y015574D01*
X009930Y015495D02*
X006109Y015495D01*
X006112Y015494D02*
X006024Y015530D01*
X005768Y015530D01*
X005731Y015515D01*
X005680Y015494D01*
X005678Y015492D01*
X005638Y015452D01*
X005597Y015494D01*
X005508Y015530D01*
X005253Y015530D01*
X005217Y015516D01*
X005165Y015494D01*
X005085Y015414D01*
X005085Y015414D01*
X005083Y015412D01*
X005068Y015426D01*
X005001Y015494D01*
X004913Y015530D01*
X004817Y015530D01*
X004729Y015494D01*
X004662Y015426D01*
X004653Y015406D01*
X004633Y015426D01*
X004565Y015494D01*
X004477Y015530D01*
X004222Y015530D01*
X004186Y015516D01*
X004133Y015494D01*
X004053Y015414D01*
X003986Y015346D01*
X003970Y015309D01*
X003963Y015290D01*
X003705Y015290D01*
X003682Y015346D01*
X003602Y015426D01*
X003534Y015494D01*
X003446Y015530D01*
X003190Y015530D01*
X003155Y015516D01*
X003102Y015494D01*
X003022Y015414D01*
X002980Y015372D01*
X002978Y015374D01*
X002952Y015404D01*
X002945Y015408D01*
X002938Y015414D01*
X002902Y015429D01*
X002707Y015526D01*
X002612Y015533D01*
X002521Y015503D01*
X002449Y015440D01*
X002406Y015355D01*
X002402Y015290D01*
X002158Y015290D01*
X002135Y015346D01*
X002055Y015426D01*
X001987Y015494D01*
X001899Y015530D01*
X001643Y015530D01*
X001608Y015516D01*
X001555Y015494D01*
X001513Y015452D01*
X001472Y015494D01*
X001383Y015530D01*
X001128Y015530D01*
X001090Y015515D01*
X001039Y015494D01*
X001037Y015492D01*
X000959Y015414D01*
X000894Y015349D01*
X000892Y015346D01*
X000877Y015310D01*
X000855Y015258D01*
X000855Y014842D01*
X000876Y014791D01*
X000892Y014754D01*
X000959Y014687D01*
X000959Y014687D01*
X001039Y014607D01*
X001092Y014585D01*
X001128Y014570D01*
X001383Y014570D01*
X001472Y014607D01*
X001513Y014648D01*
X001553Y014609D01*
X001555Y014607D01*
X001555Y014607D01*
X001606Y014586D01*
X001643Y014570D01*
X001899Y014570D01*
X001987Y014607D01*
X002067Y014687D01*
X002135Y014754D01*
X002158Y014810D01*
X002416Y014810D01*
X002423Y014791D01*
X002439Y014754D01*
X002506Y014687D01*
X002506Y014687D01*
X002586Y014607D01*
X002639Y014585D01*
X002675Y014570D01*
X002930Y014570D01*
X003018Y014607D01*
X003060Y014648D01*
X003100Y014609D01*
X003102Y014607D01*
X003102Y014607D01*
X003153Y014586D01*
X003190Y014570D01*
X003446Y014570D01*
X003534Y014607D01*
X003614Y014687D01*
X003682Y014754D01*
X003705Y014810D01*
X003963Y014810D01*
X003971Y014790D01*
X003986Y014754D01*
X003988Y014752D01*
X004053Y014687D01*
X004131Y014609D01*
X004133Y014607D01*
X004133Y014607D01*
X004184Y014586D01*
X004222Y014570D01*
X004477Y014570D01*
X004565Y014607D01*
X004567Y014608D01*
X004569Y014607D01*
X004657Y014570D01*
X005073Y014570D01*
X005161Y014607D01*
X005163Y014608D01*
X005165Y014607D01*
X005215Y014586D01*
X005253Y014570D01*
X005508Y014570D01*
X005597Y014607D01*
X005598Y014608D01*
X005600Y014607D01*
X005688Y014570D01*
X006104Y014570D01*
X006192Y014607D01*
X006260Y014674D01*
X006296Y014762D01*
X006296Y014858D01*
X006260Y014946D01*
X006196Y015010D01*
X006260Y015074D01*
X006296Y015163D01*
X006296Y015258D01*
X006260Y015346D01*
X006112Y015494D01*
X006190Y015417D02*
X009930Y015417D01*
X009930Y015338D02*
X006263Y015338D01*
X006296Y015260D02*
X009930Y015260D01*
X009930Y015181D02*
X006296Y015181D01*
X006272Y015103D02*
X009930Y015103D01*
X009930Y015024D02*
X007646Y015024D01*
X007631Y015040D02*
X007480Y015040D01*
X007480Y014620D01*
X007400Y014620D01*
X007400Y015040D01*
X007249Y015040D01*
X006980Y014771D01*
X006980Y014620D01*
X007400Y014620D01*
X007400Y014540D01*
X006980Y014540D01*
X006980Y014389D01*
X007249Y014120D01*
X007400Y014120D01*
X007400Y014540D01*
X007480Y014540D01*
X007480Y014620D01*
X007900Y014620D01*
X007900Y014771D01*
X007631Y015040D01*
X007725Y014946D02*
X009930Y014946D01*
X009930Y014867D02*
X007803Y014867D01*
X007882Y014789D02*
X009930Y014789D01*
X009930Y014710D02*
X007900Y014710D01*
X007900Y014632D02*
X009930Y014632D01*
X009930Y014553D02*
X007480Y014553D01*
X007480Y014540D02*
X007900Y014540D01*
X007900Y014389D01*
X007631Y014120D01*
X007480Y014120D01*
X007480Y014540D01*
X007480Y014475D02*
X007400Y014475D01*
X007400Y014553D02*
X000540Y014553D01*
X000540Y014475D02*
X006980Y014475D01*
X006980Y014396D02*
X000540Y014396D01*
X000540Y014318D02*
X007052Y014318D01*
X007130Y014239D02*
X000540Y014239D01*
X000540Y014161D02*
X007209Y014161D01*
X007293Y014082D02*
X000540Y014082D01*
X000540Y014004D02*
X007128Y014004D01*
X007050Y013925D02*
X000540Y013925D01*
X000540Y013847D02*
X006988Y013847D01*
X006955Y013768D02*
X000540Y013768D01*
X000540Y013690D02*
X006923Y013690D01*
X006920Y013611D02*
X000540Y013611D01*
X000540Y013533D02*
X006920Y013533D01*
X006929Y013454D02*
X000540Y013454D01*
X000540Y013376D02*
X006962Y013376D01*
X006994Y013297D02*
X000540Y013297D01*
X000540Y013219D02*
X007066Y013219D01*
X007145Y013140D02*
X000540Y013140D01*
X000540Y013062D02*
X007333Y013062D01*
X007584Y012983D02*
X000540Y012983D01*
X000540Y012905D02*
X007663Y012905D01*
X007741Y012826D02*
X000540Y012826D01*
X000540Y012748D02*
X007820Y012748D01*
X007898Y012669D02*
X000540Y012669D01*
X000540Y012591D02*
X007977Y012591D01*
X008055Y012512D02*
X000540Y012512D01*
X000540Y012434D02*
X008120Y012434D01*
X008120Y012355D02*
X000540Y012355D01*
X000540Y012277D02*
X008120Y012277D01*
X008120Y012198D02*
X000540Y012198D01*
X000540Y012120D02*
X008120Y012120D01*
X008120Y012041D02*
X000540Y012041D01*
X000540Y011963D02*
X008120Y011963D01*
X008120Y011884D02*
X000540Y011884D01*
X000540Y011806D02*
X008120Y011806D01*
X008120Y011727D02*
X000540Y011727D01*
X000540Y011649D02*
X001323Y011649D01*
X001327Y011650D02*
X001117Y011563D01*
X000957Y011403D01*
X000870Y011193D01*
X000870Y010967D01*
X000957Y010757D01*
X001117Y010597D01*
X001327Y010510D01*
X001553Y010510D01*
X001763Y010597D01*
X001923Y010757D01*
X001940Y010798D01*
X001957Y010757D01*
X002117Y010597D01*
X002327Y010510D01*
X002553Y010510D01*
X002763Y010597D01*
X002923Y010757D01*
X002940Y010798D01*
X002957Y010757D01*
X003117Y010597D01*
X003327Y010510D01*
X003553Y010510D01*
X003763Y010597D01*
X003923Y010757D01*
X003940Y010798D01*
X003957Y010757D01*
X004117Y010597D01*
X004327Y010510D01*
X004553Y010510D01*
X004763Y010597D01*
X004923Y010757D01*
X004940Y010798D01*
X004957Y010757D01*
X005117Y010597D01*
X005327Y010510D01*
X005553Y010510D01*
X005763Y010597D01*
X005923Y010757D01*
X005940Y010798D01*
X005957Y010757D01*
X006117Y010597D01*
X006327Y010510D01*
X006553Y010510D01*
X006763Y010597D01*
X006923Y010757D01*
X006940Y010798D01*
X006957Y010757D01*
X007117Y010597D01*
X007327Y010510D01*
X007553Y010510D01*
X007763Y010597D01*
X007923Y010757D01*
X008010Y010967D01*
X008010Y011193D01*
X007923Y011403D01*
X007763Y011563D01*
X007553Y011650D01*
X007327Y011650D01*
X007117Y011563D01*
X006957Y011403D01*
X006940Y011362D01*
X006923Y011403D01*
X006763Y011563D01*
X006553Y011650D01*
X006327Y011650D01*
X006117Y011563D01*
X005957Y011403D01*
X005940Y011362D01*
X005923Y011403D01*
X005763Y011563D01*
X005553Y011650D01*
X005327Y011650D01*
X005117Y011563D01*
X004957Y011403D01*
X004940Y011362D01*
X004923Y011403D01*
X004763Y011563D01*
X004553Y011650D01*
X004327Y011650D01*
X004117Y011563D01*
X003957Y011403D01*
X003940Y011362D01*
X003923Y011403D01*
X003763Y011563D01*
X003553Y011650D01*
X003327Y011650D01*
X003117Y011563D01*
X002957Y011403D01*
X002940Y011362D01*
X002923Y011403D01*
X002763Y011563D01*
X002553Y011650D01*
X002327Y011650D01*
X002117Y011563D01*
X001957Y011403D01*
X001940Y011362D01*
X001923Y011403D01*
X001763Y011563D01*
X001553Y011650D01*
X001327Y011650D01*
X001134Y011570D02*
X000540Y011570D01*
X000540Y011492D02*
X001045Y011492D01*
X000967Y011413D02*
X000540Y011413D01*
X000540Y011335D02*
X000928Y011335D01*
X000896Y011256D02*
X000540Y011256D01*
X000540Y011178D02*
X000870Y011178D01*
X000870Y011099D02*
X000540Y011099D01*
X000540Y011021D02*
X000870Y011021D01*
X000880Y010942D02*
X000540Y010942D01*
X000540Y010864D02*
X000913Y010864D01*
X000945Y010785D02*
X000540Y010785D01*
X000540Y010707D02*
X001007Y010707D01*
X001086Y010628D02*
X000540Y010628D01*
X000540Y010550D02*
X001231Y010550D01*
X001649Y010550D02*
X002231Y010550D01*
X002086Y010628D02*
X001794Y010628D01*
X001873Y010707D02*
X002007Y010707D01*
X001945Y010785D02*
X001935Y010785D01*
X002649Y010550D02*
X003231Y010550D01*
X003086Y010628D02*
X002794Y010628D01*
X002873Y010707D02*
X003007Y010707D01*
X002945Y010785D02*
X002935Y010785D01*
X003649Y010550D02*
X004231Y010550D01*
X004086Y010628D02*
X003794Y010628D01*
X003873Y010707D02*
X004007Y010707D01*
X003945Y010785D02*
X003935Y010785D01*
X004649Y010550D02*
X005231Y010550D01*
X005086Y010628D02*
X004794Y010628D01*
X004873Y010707D02*
X005007Y010707D01*
X004945Y010785D02*
X004935Y010785D01*
X005649Y010550D02*
X006231Y010550D01*
X006086Y010628D02*
X005794Y010628D01*
X005873Y010707D02*
X006007Y010707D01*
X005945Y010785D02*
X005935Y010785D01*
X006649Y010550D02*
X007231Y010550D01*
X007086Y010628D02*
X006794Y010628D01*
X006873Y010707D02*
X007007Y010707D01*
X006945Y010785D02*
X006935Y010785D01*
X007649Y010550D02*
X008120Y010550D01*
X008120Y010628D02*
X007794Y010628D01*
X007873Y010707D02*
X008120Y010707D01*
X008120Y010785D02*
X007935Y010785D01*
X007967Y010864D02*
X008120Y010864D01*
X008120Y010942D02*
X008000Y010942D01*
X008010Y011021D02*
X008120Y011021D01*
X008120Y011099D02*
X008010Y011099D01*
X008010Y011178D02*
X008120Y011178D01*
X008120Y011256D02*
X007984Y011256D01*
X007952Y011335D02*
X008120Y011335D01*
X008120Y011413D02*
X007913Y011413D01*
X007835Y011492D02*
X008120Y011492D01*
X008120Y011570D02*
X007746Y011570D01*
X007557Y011649D02*
X008120Y011649D01*
X008760Y011649D02*
X009930Y011649D01*
X009930Y011727D02*
X008760Y011727D01*
X008760Y011806D02*
X009930Y011806D01*
X009930Y011884D02*
X008760Y011884D01*
X008760Y011963D02*
X009930Y011963D01*
X009930Y012041D02*
X008760Y012041D01*
X008760Y012120D02*
X009930Y012120D01*
X009930Y012198D02*
X008760Y012198D01*
X008760Y012277D02*
X009930Y012277D01*
X009930Y012355D02*
X008760Y012355D01*
X008760Y012434D02*
X009930Y012434D01*
X009930Y012512D02*
X008760Y012512D01*
X008760Y012591D02*
X009930Y012591D01*
X009930Y012669D02*
X008749Y012669D01*
X008717Y012748D02*
X009930Y012748D01*
X009930Y012826D02*
X008647Y012826D01*
X008568Y012905D02*
X009930Y012905D01*
X009930Y012983D02*
X008490Y012983D01*
X008411Y013062D02*
X009930Y013062D01*
X009930Y013140D02*
X008333Y013140D01*
X008254Y013219D02*
X009930Y013219D01*
X009930Y013297D02*
X008176Y013297D01*
X008097Y013376D02*
X009930Y013376D01*
X009930Y013454D02*
X008019Y013454D01*
X007960Y013533D02*
X009930Y013533D01*
X009930Y013611D02*
X007960Y013611D01*
X007957Y013690D02*
X009930Y013690D01*
X009930Y013768D02*
X007925Y013768D01*
X007892Y013847D02*
X009930Y013847D01*
X009930Y013925D02*
X007830Y013925D01*
X007752Y014004D02*
X009930Y014004D01*
X009930Y014082D02*
X007587Y014082D01*
X007671Y014161D02*
X009930Y014161D01*
X009930Y014239D02*
X007750Y014239D01*
X007828Y014318D02*
X009930Y014318D01*
X009930Y014396D02*
X007900Y014396D01*
X007900Y014475D02*
X009930Y014475D01*
X011811Y014553D02*
X011930Y014553D01*
X012450Y014475D02*
X012452Y014475D01*
X012450Y014396D02*
X012506Y014396D01*
X012450Y014318D02*
X012585Y014318D01*
X012663Y014239D02*
X012450Y014239D01*
X012450Y014161D02*
X012742Y014161D01*
X012859Y014082D02*
X012450Y014082D01*
X012450Y014004D02*
X017496Y014004D01*
X018074Y013847D02*
X019183Y013847D01*
X019229Y013925D02*
X018153Y013925D01*
X018231Y014004D02*
X019307Y014004D01*
X019413Y014082D02*
X018310Y014082D01*
X018388Y014161D02*
X019400Y014161D01*
X019310Y014239D02*
X018467Y014239D01*
X018545Y014318D02*
X019251Y014318D01*
X019214Y014396D02*
X018624Y014396D01*
X018702Y014475D02*
X019190Y014475D01*
X019180Y014620D02*
X019180Y014620D01*
X019182Y014632D02*
X018859Y014632D01*
X018938Y014710D02*
X019196Y014710D01*
X019224Y014789D02*
X019016Y014789D01*
X019095Y014867D02*
X019268Y014867D01*
X019334Y014946D02*
X019173Y014946D01*
X019252Y015024D02*
X019438Y015024D01*
X019330Y015103D02*
X021430Y015103D01*
X021430Y015181D02*
X019409Y015181D01*
X019487Y015260D02*
X021393Y015260D01*
X021430Y015024D02*
X019942Y015024D01*
X020046Y014946D02*
X021430Y014946D01*
X021430Y014867D02*
X020112Y014867D01*
X020156Y014789D02*
X021430Y014789D01*
X021430Y014710D02*
X020184Y014710D01*
X020198Y014632D02*
X021430Y014632D01*
X021430Y014553D02*
X019730Y014553D01*
X019730Y014632D02*
X019650Y014632D01*
X019650Y014710D02*
X019730Y014710D01*
X019730Y014789D02*
X019650Y014789D01*
X019650Y014867D02*
X019730Y014867D01*
X019730Y014946D02*
X019650Y014946D01*
X019650Y015024D02*
X019730Y015024D01*
X019730Y015090D02*
X019730Y015090D01*
X019650Y014553D02*
X018781Y014553D01*
X019980Y014161D02*
X021430Y014161D01*
X021430Y014239D02*
X020070Y014239D01*
X020129Y014318D02*
X021430Y014318D01*
X021430Y014396D02*
X020166Y014396D01*
X020190Y014475D02*
X021430Y014475D01*
X021950Y014475D02*
X022190Y014475D01*
X022214Y014396D02*
X021950Y014396D01*
X021950Y014318D02*
X022251Y014318D01*
X022310Y014239D02*
X021950Y014239D01*
X021977Y014161D02*
X022400Y014161D01*
X022413Y014082D02*
X022056Y014082D01*
X022134Y014004D02*
X022307Y014004D01*
X022229Y013925D02*
X022213Y013925D01*
X021870Y013533D02*
X020260Y013533D01*
X020260Y013611D02*
X021791Y013611D01*
X021713Y013690D02*
X020260Y013690D01*
X020229Y013768D02*
X021634Y013768D01*
X021556Y013847D02*
X020197Y013847D01*
X020151Y013925D02*
X021477Y013925D01*
X021440Y014004D02*
X020073Y014004D01*
X019967Y014082D02*
X021430Y014082D01*
X021950Y014553D02*
X022650Y014553D01*
X022182Y014632D02*
X021950Y014632D01*
X021950Y014710D02*
X022196Y014710D01*
X022224Y014789D02*
X021950Y014789D01*
X021950Y014867D02*
X022268Y014867D01*
X022334Y014946D02*
X021950Y014946D01*
X021950Y015024D02*
X022438Y015024D01*
X022180Y014620D02*
X022180Y014620D01*
X021948Y013454D02*
X020255Y013454D01*
X020222Y013376D02*
X022027Y013376D01*
X022190Y013297D02*
X020190Y013297D01*
X020135Y013219D02*
X022245Y013219D01*
X022324Y013140D02*
X020056Y013140D01*
X019928Y013062D02*
X022452Y013062D01*
X024518Y011884D02*
X017976Y011884D01*
X018484Y011256D02*
X024790Y011256D01*
X024869Y011178D02*
X023945Y011178D01*
X023916Y011193D02*
X023839Y011217D01*
X023760Y011230D01*
X023760Y011230D01*
X023760Y010760D01*
X024230Y010760D01*
X024230Y010760D01*
X024217Y010839D01*
X024193Y010916D01*
X024156Y010987D01*
X024109Y011052D01*
X024052Y011109D01*
X023987Y011156D01*
X023916Y011193D01*
X023760Y011178D02*
X023680Y011178D01*
X023680Y011230D02*
X023601Y011217D01*
X023524Y011193D01*
X023453Y011156D01*
X023388Y011109D01*
X023331Y011052D01*
X023284Y010987D01*
X023247Y010916D01*
X023223Y010839D01*
X023210Y010760D01*
X023680Y010760D01*
X023680Y011230D01*
X023680Y011230D01*
X023680Y011099D02*
X023760Y011099D01*
X023760Y011021D02*
X023680Y011021D01*
X023680Y010942D02*
X023760Y010942D01*
X023760Y010864D02*
X023680Y010864D01*
X023680Y010785D02*
X023760Y010785D01*
X023760Y010760D02*
X023680Y010760D01*
X023680Y010680D01*
X023760Y010680D01*
X023760Y010760D01*
X023760Y010707D02*
X024693Y010707D01*
X024693Y010785D02*
X024226Y010785D01*
X024210Y010864D02*
X024750Y010864D01*
X024828Y010942D02*
X024179Y010942D01*
X024132Y011021D02*
X024907Y011021D01*
X024947Y011099D02*
X024062Y011099D01*
X024230Y010680D02*
X023760Y010680D01*
X023760Y010210D01*
X023760Y010210D01*
X023839Y010223D01*
X023916Y010247D01*
X023987Y010284D01*
X024052Y010331D01*
X024109Y010388D01*
X024156Y010453D01*
X024193Y010524D01*
X024217Y010601D01*
X024230Y010680D01*
X024230Y010680D01*
X024222Y010628D02*
X024693Y010628D01*
X024693Y010550D02*
X024201Y010550D01*
X024166Y010471D02*
X024693Y010471D01*
X024693Y010393D02*
X024112Y010393D01*
X024029Y010314D02*
X024732Y010314D01*
X024811Y010236D02*
X023879Y010236D01*
X023760Y010236D02*
X023680Y010236D01*
X023680Y010210D02*
X023680Y010680D01*
X023210Y010680D01*
X023210Y010680D01*
X023223Y010601D01*
X023247Y010524D01*
X023284Y010453D01*
X023331Y010388D01*
X023388Y010331D01*
X023453Y010284D01*
X023524Y010247D01*
X023601Y010223D01*
X023680Y010210D01*
X023680Y010210D01*
X023680Y010314D02*
X023760Y010314D01*
X023760Y010393D02*
X023680Y010393D01*
X023680Y010471D02*
X023760Y010471D01*
X023760Y010550D02*
X023680Y010550D01*
X023680Y010628D02*
X023760Y010628D01*
X023680Y010707D02*
X021200Y010707D01*
X021200Y010680D02*
X021200Y010760D01*
X021670Y010760D01*
X021670Y010760D01*
X021657Y010839D01*
X021633Y010916D01*
X021596Y010987D01*
X021549Y011052D01*
X021492Y011109D01*
X021427Y011156D01*
X021356Y011193D01*
X021279Y011217D01*
X021200Y011230D01*
X021200Y011230D01*
X021200Y010760D01*
X021120Y010760D01*
X021120Y011230D01*
X021120Y011230D01*
X021041Y011217D01*
X020964Y011193D01*
X020893Y011156D01*
X020828Y011109D01*
X020771Y011052D01*
X020724Y010987D01*
X020687Y010916D01*
X020663Y010839D01*
X020650Y010760D01*
X021120Y010760D01*
X021120Y010680D01*
X021200Y010680D01*
X021670Y010680D01*
X021670Y010680D01*
X021657Y010601D01*
X021633Y010524D01*
X021596Y010453D01*
X021549Y010388D01*
X021492Y010331D01*
X021427Y010284D01*
X021356Y010247D01*
X021279Y010223D01*
X021200Y010210D01*
X021200Y010210D01*
X021200Y010680D01*
X021200Y010628D02*
X021120Y010628D01*
X021120Y010680D02*
X021120Y010210D01*
X021120Y010210D01*
X021041Y010223D01*
X020964Y010247D01*
X020893Y010284D01*
X020828Y010331D01*
X020771Y010388D01*
X020724Y010453D01*
X020687Y010524D01*
X020663Y010601D01*
X020650Y010680D01*
X020650Y010680D01*
X021120Y010680D01*
X021120Y010707D02*
X020010Y010707D01*
X020010Y010680D02*
X020010Y010760D01*
X020480Y010760D01*
X020480Y010760D01*
X020467Y010839D01*
X020443Y010916D01*
X020406Y010987D01*
X020359Y011052D01*
X020302Y011109D01*
X020237Y011156D01*
X020166Y011193D01*
X020089Y011217D01*
X020010Y011230D01*
X020010Y011230D01*
X020010Y010760D01*
X019930Y010760D01*
X019930Y011230D01*
X019930Y011230D01*
X019851Y011217D01*
X019774Y011193D01*
X019703Y011156D01*
X019638Y011109D01*
X019581Y011052D01*
X019534Y010987D01*
X019497Y010916D01*
X019473Y010839D01*
X019460Y010760D01*
X019930Y010760D01*
X019930Y010680D01*
X020010Y010680D01*
X020480Y010680D01*
X020480Y010680D01*
X020467Y010601D01*
X020443Y010524D01*
X020406Y010453D01*
X020359Y010388D01*
X020302Y010331D01*
X020237Y010284D01*
X020166Y010247D01*
X020089Y010223D01*
X020010Y010210D01*
X020010Y010210D01*
X020010Y010680D01*
X020010Y010628D02*
X019930Y010628D01*
X019930Y010680D02*
X019930Y010210D01*
X019930Y010210D01*
X019851Y010223D01*
X019774Y010247D01*
X019703Y010284D01*
X019638Y010331D01*
X019581Y010388D01*
X019534Y010453D01*
X019497Y010524D01*
X019473Y010601D01*
X019460Y010680D01*
X019460Y010680D01*
X019930Y010680D01*
X019930Y010707D02*
X017450Y010707D01*
X017450Y010680D02*
X017920Y010680D01*
X017920Y010680D01*
X017907Y010601D01*
X017883Y010524D01*
X017846Y010453D01*
X017799Y010388D01*
X017742Y010331D01*
X017677Y010284D01*
X017606Y010247D01*
X017529Y010223D01*
X017450Y010210D01*
X017450Y010210D01*
X017450Y010680D01*
X017450Y010628D02*
X017370Y010628D01*
X017370Y010680D02*
X017370Y010210D01*
X017370Y010210D01*
X017291Y010223D01*
X017214Y010247D01*
X017143Y010284D01*
X017078Y010331D01*
X017021Y010388D01*
X016974Y010453D01*
X016937Y010524D01*
X016913Y010601D01*
X016900Y010680D01*
X016900Y010680D01*
X017370Y010680D01*
X017370Y010707D02*
X010450Y010707D01*
X010450Y010785D02*
X016904Y010785D01*
X016900Y010760D02*
X016900Y010760D01*
X016920Y010864D02*
X010450Y010864D01*
X010450Y010942D02*
X016951Y010942D01*
X016908Y010628D02*
X010450Y010628D01*
X010450Y010550D02*
X016929Y010550D01*
X016964Y010471D02*
X010450Y010471D01*
X010495Y010393D02*
X017018Y010393D01*
X017101Y010314D02*
X010574Y010314D01*
X010652Y010236D02*
X017251Y010236D01*
X017370Y010236D02*
X017450Y010236D01*
X017450Y010314D02*
X017370Y010314D01*
X017370Y010393D02*
X017450Y010393D01*
X017450Y010471D02*
X017370Y010471D01*
X017370Y010550D02*
X017450Y010550D01*
X017569Y010236D02*
X019811Y010236D01*
X019930Y010236D02*
X020010Y010236D01*
X020010Y010314D02*
X019930Y010314D01*
X019930Y010393D02*
X020010Y010393D01*
X020010Y010471D02*
X019930Y010471D01*
X019930Y010550D02*
X020010Y010550D01*
X020010Y010785D02*
X019930Y010785D01*
X019930Y010864D02*
X020010Y010864D01*
X020010Y010942D02*
X019930Y010942D01*
X019930Y011021D02*
X020010Y011021D01*
X020010Y011099D02*
X019930Y011099D01*
X019930Y011178D02*
X020010Y011178D01*
X020195Y011178D02*
X020935Y011178D01*
X020818Y011099D02*
X020312Y011099D01*
X020382Y011021D02*
X020748Y011021D01*
X020701Y010942D02*
X020429Y010942D01*
X020460Y010864D02*
X020670Y010864D01*
X020654Y010785D02*
X020476Y010785D01*
X020472Y010628D02*
X020658Y010628D01*
X020679Y010550D02*
X020451Y010550D01*
X020416Y010471D02*
X020714Y010471D01*
X020768Y010393D02*
X020362Y010393D01*
X020279Y010314D02*
X020851Y010314D01*
X021001Y010236D02*
X020129Y010236D01*
X019661Y010314D02*
X017719Y010314D01*
X017802Y010393D02*
X019578Y010393D01*
X019524Y010471D02*
X017856Y010471D01*
X017891Y010550D02*
X019489Y010550D01*
X019468Y010628D02*
X017912Y010628D01*
X017916Y010785D02*
X019464Y010785D01*
X019460Y010760D02*
X019460Y010760D01*
X019480Y010864D02*
X017900Y010864D01*
X017869Y010942D02*
X019511Y010942D01*
X019558Y011021D02*
X017822Y011021D01*
X018312Y011099D02*
X019628Y011099D01*
X019745Y011178D02*
X018405Y011178D01*
X020650Y010760D02*
X020650Y010760D01*
X021120Y010785D02*
X021200Y010785D01*
X021200Y010864D02*
X021120Y010864D01*
X021120Y010942D02*
X021200Y010942D01*
X021200Y011021D02*
X021120Y011021D01*
X021120Y011099D02*
X021200Y011099D01*
X021200Y011178D02*
X021120Y011178D01*
X021385Y011178D02*
X023495Y011178D01*
X023378Y011099D02*
X021502Y011099D01*
X021572Y011021D02*
X023308Y011021D01*
X023261Y010942D02*
X021619Y010942D01*
X021650Y010864D02*
X023230Y010864D01*
X023214Y010785D02*
X021666Y010785D01*
X021662Y010628D02*
X023218Y010628D01*
X023239Y010550D02*
X021641Y010550D01*
X021606Y010471D02*
X023274Y010471D01*
X023328Y010393D02*
X021552Y010393D01*
X021469Y010314D02*
X023411Y010314D01*
X023561Y010236D02*
X021319Y010236D01*
X021200Y010236D02*
X021120Y010236D01*
X021120Y010314D02*
X021200Y010314D01*
X021200Y010393D02*
X021120Y010393D01*
X021120Y010471D02*
X021200Y010471D01*
X021200Y010550D02*
X021120Y010550D01*
X021047Y009510D02*
X020837Y009423D01*
X020677Y009263D01*
X020590Y009053D01*
X020590Y008827D01*
X020677Y008617D01*
X020837Y008457D01*
X021047Y008370D01*
X021273Y008370D01*
X021483Y008457D01*
X021643Y008617D01*
X021730Y008827D01*
X021730Y009053D01*
X021643Y009263D01*
X021483Y009423D01*
X021273Y009510D01*
X021047Y009510D01*
X020903Y009451D02*
X020227Y009451D01*
X020293Y009423D02*
X020083Y009510D01*
X019857Y009510D01*
X019647Y009423D01*
X019487Y009263D01*
X019400Y009053D01*
X019400Y008827D01*
X019487Y008617D01*
X019647Y008457D01*
X019857Y008370D01*
X020083Y008370D01*
X020293Y008457D01*
X020453Y008617D01*
X020540Y008827D01*
X020540Y009053D01*
X020453Y009263D01*
X020293Y009423D01*
X020344Y009372D02*
X020786Y009372D01*
X020707Y009294D02*
X020423Y009294D01*
X020473Y009215D02*
X020657Y009215D01*
X020624Y009137D02*
X020506Y009137D01*
X020538Y009058D02*
X020592Y009058D01*
X020590Y008980D02*
X020540Y008980D01*
X020540Y008901D02*
X020590Y008901D01*
X020592Y008823D02*
X020538Y008823D01*
X020506Y008744D02*
X020624Y008744D01*
X020657Y008666D02*
X020473Y008666D01*
X020423Y008587D02*
X020707Y008587D01*
X020785Y008509D02*
X020345Y008509D01*
X020228Y008430D02*
X020902Y008430D01*
X020970Y008195D02*
X020160Y008195D01*
X020166Y008193D02*
X020089Y008217D01*
X020010Y008230D01*
X020010Y008230D01*
X020010Y007760D01*
X020480Y007760D01*
X020480Y007760D01*
X020467Y007839D01*
X020443Y007916D01*
X020406Y007987D01*
X020359Y008052D01*
X020302Y008109D01*
X020237Y008156D01*
X020166Y008193D01*
X020293Y008116D02*
X020837Y008116D01*
X020828Y008109D02*
X020771Y008052D01*
X020724Y007987D01*
X020687Y007916D01*
X020663Y007839D01*
X020650Y007760D01*
X021120Y007760D01*
X021120Y008230D01*
X021120Y008230D01*
X021041Y008217D01*
X020964Y008193D01*
X020893Y008156D01*
X020828Y008109D01*
X020760Y008038D02*
X020370Y008038D01*
X020421Y007959D02*
X020709Y007959D01*
X020676Y007881D02*
X020454Y007881D01*
X020473Y007802D02*
X020657Y007802D01*
X020650Y007760D02*
X020650Y007760D01*
X020650Y007680D02*
X020650Y007680D01*
X021120Y007680D01*
X021200Y007680D01*
X021200Y007760D01*
X021670Y007760D01*
X021670Y007760D01*
X021657Y007839D01*
X021633Y007916D01*
X021596Y007987D01*
X021549Y008052D01*
X021492Y008109D01*
X021427Y008156D01*
X021356Y008193D01*
X021279Y008217D01*
X021200Y008230D01*
X021200Y008230D01*
X021200Y007760D01*
X021120Y007760D01*
X021120Y007680D01*
X021120Y007210D01*
X021120Y007210D01*
X021041Y007223D01*
X020964Y007247D01*
X020893Y007284D01*
X020828Y007331D01*
X020771Y007388D01*
X020724Y007453D01*
X020687Y007524D01*
X020663Y007601D01*
X020650Y007680D01*
X020656Y007645D02*
X020474Y007645D01*
X020480Y007680D02*
X020480Y007680D01*
X020010Y007680D01*
X020010Y007760D01*
X019930Y007760D01*
X019930Y008230D01*
X019930Y008230D01*
X019851Y008217D01*
X019774Y008193D01*
X019703Y008156D01*
X019638Y008109D01*
X019581Y008052D01*
X019534Y007987D01*
X019497Y007916D01*
X019473Y007839D01*
X019460Y007760D01*
X019930Y007760D01*
X019930Y007680D01*
X020010Y007680D01*
X020010Y007210D01*
X020010Y007210D01*
X020089Y007223D01*
X020166Y007247D01*
X020237Y007284D01*
X020302Y007331D01*
X020359Y007388D01*
X020406Y007453D01*
X020443Y007524D01*
X020467Y007601D01*
X020480Y007680D01*
X020456Y007567D02*
X020674Y007567D01*
X020706Y007488D02*
X020424Y007488D01*
X020375Y007410D02*
X020755Y007410D01*
X020828Y007331D02*
X020302Y007331D01*
X020176Y007253D02*
X020954Y007253D01*
X021120Y007253D02*
X021200Y007253D01*
X021200Y007210D02*
X021279Y007223D01*
X021356Y007247D01*
X021427Y007284D01*
X021492Y007331D01*
X021549Y007388D01*
X021596Y007453D01*
X021633Y007524D01*
X021657Y007601D01*
X021670Y007680D01*
X021200Y007680D01*
X021200Y007210D01*
X021200Y007210D01*
X021200Y007331D02*
X021120Y007331D01*
X021120Y007410D02*
X021200Y007410D01*
X021200Y007488D02*
X021120Y007488D01*
X021120Y007567D02*
X021200Y007567D01*
X021200Y007645D02*
X021120Y007645D01*
X021120Y007724D02*
X020010Y007724D01*
X020010Y007802D02*
X019930Y007802D01*
X019930Y007724D02*
X017450Y007724D01*
X017450Y007760D02*
X017920Y007760D01*
X017920Y007760D01*
X017907Y007839D01*
X017883Y007916D01*
X017846Y007987D01*
X017799Y008052D01*
X017742Y008109D01*
X017677Y008156D01*
X017606Y008193D01*
X017529Y008217D01*
X017450Y008230D01*
X017450Y008230D01*
X017450Y007760D01*
X017450Y007680D01*
X017920Y007680D01*
X017920Y007680D01*
X017907Y007601D01*
X017883Y007524D01*
X017846Y007453D01*
X017799Y007388D01*
X017742Y007331D01*
X017677Y007284D01*
X017606Y007247D01*
X017529Y007223D01*
X017450Y007210D01*
X017450Y007210D01*
X017450Y007680D01*
X017370Y007680D01*
X017370Y007210D01*
X017370Y007210D01*
X017291Y007223D01*
X017214Y007247D01*
X017143Y007284D01*
X017078Y007331D01*
X017021Y007388D01*
X016974Y007453D01*
X016937Y007524D01*
X016913Y007601D01*
X016900Y007680D01*
X016900Y007680D01*
X017370Y007680D01*
X017370Y007760D01*
X017370Y008230D01*
X017370Y008230D01*
X017291Y008217D01*
X017214Y008193D01*
X017143Y008156D01*
X017078Y008109D01*
X017021Y008052D01*
X016974Y007987D01*
X016937Y007916D01*
X016913Y007839D01*
X016900Y007760D01*
X017370Y007760D01*
X017450Y007760D01*
X017450Y007802D02*
X017370Y007802D01*
X017370Y007724D02*
X008248Y007724D01*
X008260Y007645D02*
X016906Y007645D01*
X016924Y007567D02*
X008260Y007567D01*
X008260Y007488D02*
X016956Y007488D01*
X017005Y007410D02*
X008236Y007410D01*
X008204Y007331D02*
X017078Y007331D01*
X017204Y007253D02*
X008169Y007253D01*
X008090Y007174D02*
X024930Y007174D01*
X024930Y007096D02*
X008010Y007096D01*
X008059Y007017D02*
X024930Y007017D01*
X024930Y006939D02*
X008138Y006939D01*
X008191Y006860D02*
X024930Y006860D01*
X024930Y006782D02*
X008223Y006782D01*
X008256Y006703D02*
X024930Y006703D01*
X024930Y006625D02*
X008260Y006625D01*
X008260Y006546D02*
X024930Y006546D01*
X024930Y006468D02*
X023936Y006468D01*
X023833Y006510D02*
X023607Y006510D01*
X023397Y006423D01*
X023237Y006263D01*
X023150Y006053D01*
X023150Y005827D01*
X023237Y005617D01*
X023397Y005457D01*
X023607Y005370D01*
X023833Y005370D01*
X024043Y005457D01*
X024203Y005617D01*
X024290Y005827D01*
X024290Y006053D01*
X024203Y006263D01*
X024043Y006423D01*
X023833Y006510D01*
X024077Y006389D02*
X024930Y006389D01*
X024930Y006311D02*
X024156Y006311D01*
X024216Y006232D02*
X024930Y006232D01*
X024896Y006154D02*
X024249Y006154D01*
X024281Y006075D02*
X024817Y006075D01*
X024739Y005997D02*
X024290Y005997D01*
X024290Y005918D02*
X024660Y005918D01*
X024582Y005840D02*
X024290Y005840D01*
X024263Y005761D02*
X024503Y005761D01*
X024425Y005683D02*
X024230Y005683D01*
X024190Y005604D02*
X024346Y005604D01*
X024268Y005526D02*
X024112Y005526D01*
X024189Y005447D02*
X024019Y005447D01*
X024111Y005369D02*
X008219Y005369D01*
X008252Y005447D02*
X017111Y005447D01*
X017087Y005457D02*
X017297Y005370D01*
X017523Y005370D01*
X017733Y005457D01*
X017893Y005617D01*
X017980Y005827D01*
X017980Y006053D01*
X017893Y006263D01*
X017733Y006423D01*
X017523Y006510D01*
X017297Y006510D01*
X017087Y006423D01*
X016927Y006263D01*
X016840Y006053D01*
X016840Y005827D01*
X016927Y005617D01*
X017087Y005457D01*
X017018Y005526D02*
X008260Y005526D01*
X008260Y005604D02*
X016940Y005604D01*
X016900Y005683D02*
X008260Y005683D01*
X008232Y005761D02*
X016867Y005761D01*
X016840Y005840D02*
X008199Y005840D01*
X008158Y005918D02*
X016840Y005918D01*
X016840Y005997D02*
X008080Y005997D01*
X007984Y006075D02*
X016849Y006075D01*
X016881Y006154D02*
X008070Y006154D01*
X008148Y006232D02*
X016914Y006232D01*
X016974Y006311D02*
X008195Y006311D01*
X008228Y006389D02*
X017053Y006389D01*
X017194Y006468D02*
X008260Y006468D01*
X008187Y005290D02*
X024032Y005290D01*
X023954Y005212D02*
X008128Y005212D01*
X008049Y005133D02*
X023875Y005133D01*
X023797Y005055D02*
X008022Y005055D01*
X008100Y004976D02*
X023718Y004976D01*
X023640Y004898D02*
X008175Y004898D01*
X008208Y004819D02*
X023561Y004819D01*
X023483Y004741D02*
X008240Y004741D01*
X008260Y004662D02*
X023443Y004662D01*
X023430Y004584D02*
X008260Y004584D01*
X008260Y004505D02*
X023430Y004505D01*
X023317Y004427D02*
X008243Y004427D01*
X008211Y004348D02*
X023272Y004348D01*
X023272Y004270D02*
X008178Y004270D01*
X008107Y004191D02*
X023272Y004191D01*
X023272Y004113D02*
X022844Y004113D01*
X022939Y004034D02*
X023272Y004034D01*
X023272Y003956D02*
X023017Y003956D01*
X023096Y003877D02*
X023272Y003877D01*
X023272Y003799D02*
X023174Y003799D01*
X023253Y003720D02*
X023331Y003720D01*
X022884Y003183D02*
X022557Y003510D01*
X015510Y003510D01*
X015510Y003169D01*
X015637Y003042D01*
X015717Y002849D01*
X015717Y002311D01*
X015637Y002118D01*
X015599Y002080D01*
X015637Y002042D01*
X015717Y001849D01*
X015717Y001311D01*
X015637Y001118D01*
X015489Y000969D01*
X015394Y000930D01*
X017986Y000930D01*
X017891Y000969D01*
X017743Y001118D01*
X017663Y001311D01*
X017663Y001849D01*
X017743Y002042D01*
X017781Y002080D01*
X017743Y002118D01*
X017663Y002311D01*
X017663Y002849D01*
X017743Y003042D01*
X017891Y003191D01*
X018085Y003271D01*
X018295Y003271D01*
X018489Y003191D01*
X018637Y003042D01*
X018717Y002849D01*
X018717Y002311D01*
X018637Y002118D01*
X018599Y002080D01*
X018637Y002042D01*
X018717Y001849D01*
X018717Y001311D01*
X018637Y001118D01*
X018489Y000969D01*
X018394Y000930D01*
X019986Y000930D01*
X019891Y000969D01*
X019743Y001118D01*
X019663Y001311D01*
X019663Y001849D01*
X019743Y002042D01*
X019781Y002080D01*
X019743Y002118D01*
X019663Y002311D01*
X019663Y002849D01*
X019743Y003042D01*
X019891Y003191D01*
X020085Y003271D01*
X020295Y003271D01*
X020489Y003191D01*
X020637Y003042D01*
X020690Y002915D01*
X020743Y003042D01*
X020891Y003191D01*
X021085Y003271D01*
X021295Y003271D01*
X021489Y003191D01*
X021637Y003042D01*
X021690Y002915D01*
X021743Y003042D01*
X021891Y003191D01*
X022085Y003271D01*
X022295Y003271D01*
X022489Y003191D01*
X022637Y003042D01*
X022690Y002915D01*
X022743Y003042D01*
X022884Y003183D01*
X022871Y003171D02*
X022509Y003171D01*
X022587Y003092D02*
X022793Y003092D01*
X022731Y003014D02*
X022649Y003014D01*
X022682Y002935D02*
X022698Y002935D01*
X022818Y003249D02*
X022348Y003249D01*
X022032Y003249D02*
X021348Y003249D01*
X021509Y003171D02*
X021871Y003171D01*
X021793Y003092D02*
X021587Y003092D01*
X021649Y003014D02*
X021731Y003014D01*
X021698Y002935D02*
X021682Y002935D01*
X021032Y003249D02*
X020348Y003249D01*
X020509Y003171D02*
X020871Y003171D01*
X020793Y003092D02*
X020587Y003092D01*
X020649Y003014D02*
X020731Y003014D01*
X020698Y002935D02*
X020682Y002935D01*
X020032Y003249D02*
X018348Y003249D01*
X018509Y003171D02*
X019871Y003171D01*
X019793Y003092D02*
X018587Y003092D01*
X018649Y003014D02*
X019731Y003014D01*
X019698Y002935D02*
X018682Y002935D01*
X018714Y002857D02*
X019666Y002857D01*
X019663Y002778D02*
X018717Y002778D01*
X018717Y002700D02*
X019663Y002700D01*
X019663Y002621D02*
X018717Y002621D01*
X018717Y002543D02*
X019663Y002543D01*
X019663Y002464D02*
X018717Y002464D01*
X018717Y002386D02*
X019663Y002386D01*
X019665Y002307D02*
X018715Y002307D01*
X018683Y002229D02*
X019697Y002229D01*
X019730Y002150D02*
X018650Y002150D01*
X018608Y002072D02*
X019772Y002072D01*
X019723Y001993D02*
X018657Y001993D01*
X018690Y001915D02*
X019690Y001915D01*
X019663Y001836D02*
X018717Y001836D01*
X018717Y001758D02*
X019663Y001758D01*
X019663Y001679D02*
X018717Y001679D01*
X018717Y001601D02*
X019663Y001601D01*
X019663Y001522D02*
X018717Y001522D01*
X018717Y001444D02*
X019663Y001444D01*
X019663Y001365D02*
X018717Y001365D01*
X018707Y001287D02*
X019673Y001287D01*
X019706Y001208D02*
X018674Y001208D01*
X018642Y001130D02*
X019738Y001130D01*
X019810Y001051D02*
X018570Y001051D01*
X018492Y000973D02*
X019888Y000973D01*
X017888Y000973D02*
X017336Y000973D01*
X017369Y000983D02*
X017435Y001017D01*
X017494Y001060D01*
X017546Y001112D01*
X017590Y001171D01*
X017623Y001237D01*
X017646Y001307D01*
X017657Y001380D01*
X017657Y001540D01*
X017230Y001540D01*
X017230Y001620D01*
X017657Y001620D01*
X017657Y001780D01*
X017646Y001853D01*
X017623Y001923D01*
X017590Y001989D01*
X017546Y002048D01*
X017515Y002080D01*
X017546Y002112D01*
X017590Y002171D01*
X017623Y002237D01*
X017646Y002307D01*
X017665Y002307D01*
X017646Y002307D02*
X017657Y002380D01*
X017657Y002540D01*
X017230Y002540D01*
X017230Y002620D01*
X017657Y002620D01*
X017657Y002780D01*
X017646Y002853D01*
X017623Y002923D01*
X017590Y002989D01*
X017546Y003048D01*
X017494Y003100D01*
X017435Y003143D01*
X017369Y003177D01*
X017299Y003199D01*
X017230Y003210D01*
X017230Y002620D01*
X017150Y002620D01*
X017150Y003210D01*
X017081Y003199D01*
X017011Y003177D01*
X016945Y003143D01*
X016886Y003100D01*
X016834Y003048D01*
X016790Y002989D01*
X016757Y002923D01*
X016734Y002853D01*
X016723Y002780D01*
X016723Y002620D01*
X017150Y002620D01*
X017150Y002540D01*
X016723Y002540D01*
X016723Y002380D01*
X016734Y002307D01*
X016646Y002307D01*
X016657Y002380D01*
X016657Y002540D01*
X016230Y002540D01*
X016230Y002620D01*
X016657Y002620D01*
X016657Y002780D01*
X016646Y002853D01*
X016623Y002923D01*
X016590Y002989D01*
X016546Y003048D01*
X016494Y003100D01*
X016435Y003143D01*
X016369Y003177D01*
X016299Y003199D01*
X016230Y003210D01*
X016230Y002620D01*
X016150Y002620D01*
X016150Y003210D01*
X016081Y003199D01*
X016011Y003177D01*
X015945Y003143D01*
X015886Y003100D01*
X015834Y003048D01*
X015790Y002989D01*
X015757Y002923D01*
X015734Y002853D01*
X015723Y002780D01*
X015723Y002620D01*
X016150Y002620D01*
X016150Y002540D01*
X015723Y002540D01*
X015723Y002380D01*
X015734Y002307D01*
X015715Y002307D01*
X015734Y002307D02*
X015757Y002237D01*
X015790Y002171D01*
X015834Y002112D01*
X015865Y002080D01*
X015834Y002048D01*
X015790Y001989D01*
X015757Y001923D01*
X015734Y001853D01*
X015723Y001780D01*
X015723Y001620D01*
X016150Y001620D01*
X016150Y002540D01*
X016230Y002540D01*
X016230Y001950D01*
X016230Y001620D01*
X016657Y001620D01*
X016657Y001780D01*
X016646Y001853D01*
X016623Y001923D01*
X016590Y001989D01*
X016546Y002048D01*
X016515Y002080D01*
X016546Y002112D01*
X016590Y002171D01*
X016623Y002237D01*
X016646Y002307D01*
X016657Y002386D02*
X016723Y002386D01*
X016723Y002464D02*
X016657Y002464D01*
X016657Y002621D02*
X016723Y002621D01*
X016723Y002700D02*
X016657Y002700D01*
X016657Y002778D02*
X016723Y002778D01*
X016735Y002857D02*
X016645Y002857D01*
X016617Y002935D02*
X016763Y002935D01*
X016808Y003014D02*
X016572Y003014D01*
X016503Y003092D02*
X016877Y003092D01*
X016998Y003171D02*
X016382Y003171D01*
X016230Y003171D02*
X016150Y003171D01*
X016150Y003092D02*
X016230Y003092D01*
X016230Y003014D02*
X016150Y003014D01*
X016150Y002935D02*
X016230Y002935D01*
X016230Y002857D02*
X016150Y002857D01*
X016150Y002778D02*
X016230Y002778D01*
X016230Y002700D02*
X016150Y002700D01*
X016150Y002621D02*
X016230Y002621D01*
X016230Y002543D02*
X017150Y002543D01*
X017150Y002540D02*
X017230Y002540D01*
X017230Y002210D01*
X017230Y001620D01*
X017150Y001620D01*
X017150Y002540D01*
X017150Y002464D02*
X017230Y002464D01*
X017230Y002386D02*
X017150Y002386D01*
X017150Y002307D02*
X017230Y002307D01*
X017230Y002229D02*
X017150Y002229D01*
X017150Y002150D02*
X017230Y002150D01*
X017230Y002072D02*
X017150Y002072D01*
X017150Y001993D02*
X017230Y001993D01*
X017230Y001915D02*
X017150Y001915D01*
X017150Y001836D02*
X017230Y001836D01*
X017230Y001758D02*
X017150Y001758D01*
X017150Y001679D02*
X017230Y001679D01*
X017230Y001601D02*
X017663Y001601D01*
X017657Y001679D02*
X017663Y001679D01*
X017657Y001758D02*
X017663Y001758D01*
X017663Y001836D02*
X017649Y001836D01*
X017626Y001915D02*
X017690Y001915D01*
X017723Y001993D02*
X017586Y001993D01*
X017523Y002072D02*
X017772Y002072D01*
X017730Y002150D02*
X017574Y002150D01*
X017619Y002229D02*
X017697Y002229D01*
X017663Y002386D02*
X017657Y002386D01*
X017657Y002464D02*
X017663Y002464D01*
X017663Y002543D02*
X017230Y002543D01*
X017230Y002621D02*
X017150Y002621D01*
X017150Y002700D02*
X017230Y002700D01*
X017230Y002778D02*
X017150Y002778D01*
X017150Y002857D02*
X017230Y002857D01*
X017230Y002935D02*
X017150Y002935D01*
X017150Y003014D02*
X017230Y003014D01*
X017230Y003092D02*
X017150Y003092D01*
X017150Y003171D02*
X017230Y003171D01*
X017382Y003171D02*
X017871Y003171D01*
X017793Y003092D02*
X017503Y003092D01*
X017572Y003014D02*
X017731Y003014D01*
X017698Y002935D02*
X017617Y002935D01*
X017645Y002857D02*
X017666Y002857D01*
X017657Y002778D02*
X017663Y002778D01*
X017657Y002700D02*
X017663Y002700D01*
X017657Y002621D02*
X017663Y002621D01*
X018032Y003249D02*
X015510Y003249D01*
X015510Y003171D02*
X015998Y003171D01*
X015877Y003092D02*
X015587Y003092D01*
X015649Y003014D02*
X015808Y003014D01*
X015763Y002935D02*
X015682Y002935D01*
X015714Y002857D02*
X015735Y002857D01*
X015723Y002778D02*
X015717Y002778D01*
X015717Y002700D02*
X015723Y002700D01*
X015717Y002621D02*
X015723Y002621D01*
X015717Y002543D02*
X016150Y002543D01*
X016150Y002464D02*
X016230Y002464D01*
X016230Y002386D02*
X016150Y002386D01*
X016150Y002307D02*
X016230Y002307D01*
X016230Y002229D02*
X016150Y002229D01*
X016150Y002150D02*
X016230Y002150D01*
X016230Y002072D02*
X016150Y002072D01*
X016150Y001993D02*
X016230Y001993D01*
X016230Y001915D02*
X016150Y001915D01*
X016150Y001836D02*
X016230Y001836D01*
X016230Y001758D02*
X016150Y001758D01*
X016150Y001679D02*
X016230Y001679D01*
X016230Y001620D02*
X016150Y001620D01*
X016150Y001540D01*
X016230Y001540D01*
X016230Y001620D01*
X016230Y001601D02*
X017150Y001601D01*
X017150Y001620D02*
X017150Y001540D01*
X017230Y001540D01*
X017230Y000950D01*
X017299Y000961D01*
X017369Y000983D01*
X017482Y001051D02*
X017810Y001051D01*
X017738Y001130D02*
X017559Y001130D01*
X017608Y001208D02*
X017706Y001208D01*
X017673Y001287D02*
X017639Y001287D01*
X017655Y001365D02*
X017663Y001365D01*
X017657Y001444D02*
X017663Y001444D01*
X017657Y001522D02*
X017663Y001522D01*
X017230Y001522D02*
X017150Y001522D01*
X017150Y001540D02*
X017150Y000950D01*
X017081Y000961D01*
X017011Y000983D01*
X016945Y001017D01*
X016886Y001060D01*
X016834Y001112D01*
X016790Y001171D01*
X016757Y001237D01*
X016734Y001307D01*
X016723Y001380D01*
X016723Y001540D01*
X017150Y001540D01*
X017150Y001620D02*
X016723Y001620D01*
X016723Y001780D01*
X016734Y001853D01*
X016757Y001923D01*
X016790Y001989D01*
X016834Y002048D01*
X016865Y002080D01*
X016834Y002112D01*
X016790Y002171D01*
X016757Y002237D01*
X016734Y002307D01*
X016761Y002229D02*
X016619Y002229D01*
X016574Y002150D02*
X016806Y002150D01*
X016857Y002072D02*
X016523Y002072D01*
X016586Y001993D02*
X016794Y001993D01*
X016754Y001915D02*
X016626Y001915D01*
X016649Y001836D02*
X016731Y001836D01*
X016723Y001758D02*
X016657Y001758D01*
X016657Y001679D02*
X016723Y001679D01*
X016657Y001540D02*
X016657Y001380D01*
X016646Y001307D01*
X016623Y001237D01*
X016590Y001171D01*
X016546Y001112D01*
X016494Y001060D01*
X016435Y001017D01*
X016369Y000983D01*
X016299Y000961D01*
X016230Y000950D01*
X016230Y001540D01*
X016657Y001540D01*
X016657Y001522D02*
X016723Y001522D01*
X016723Y001444D02*
X016657Y001444D01*
X016655Y001365D02*
X016725Y001365D01*
X016741Y001287D02*
X016639Y001287D01*
X016608Y001208D02*
X016772Y001208D01*
X016821Y001130D02*
X016559Y001130D01*
X016482Y001051D02*
X016898Y001051D01*
X017044Y000973D02*
X016336Y000973D01*
X016230Y000973D02*
X016150Y000973D01*
X016150Y000950D02*
X016150Y001540D01*
X015723Y001540D01*
X015723Y001380D01*
X015734Y001307D01*
X015757Y001237D01*
X015790Y001171D01*
X015834Y001112D01*
X015886Y001060D01*
X015945Y001017D01*
X016011Y000983D01*
X016081Y000961D01*
X016150Y000950D01*
X016150Y001051D02*
X016230Y001051D01*
X016230Y001130D02*
X016150Y001130D01*
X016150Y001208D02*
X016230Y001208D01*
X016230Y001287D02*
X016150Y001287D01*
X016150Y001365D02*
X016230Y001365D01*
X016230Y001444D02*
X016150Y001444D01*
X016150Y001522D02*
X016230Y001522D01*
X016150Y001601D02*
X015717Y001601D01*
X015717Y001679D02*
X015723Y001679D01*
X015717Y001758D02*
X015723Y001758D01*
X015717Y001836D02*
X015731Y001836D01*
X015754Y001915D02*
X015690Y001915D01*
X015657Y001993D02*
X015794Y001993D01*
X015857Y002072D02*
X015608Y002072D01*
X015650Y002150D02*
X015806Y002150D01*
X015761Y002229D02*
X015683Y002229D01*
X015717Y002386D02*
X015723Y002386D01*
X015717Y002464D02*
X015723Y002464D01*
X015510Y003328D02*
X022740Y003328D01*
X022661Y003406D02*
X015510Y003406D01*
X015510Y003485D02*
X022583Y003485D01*
X024049Y003720D02*
X024148Y003720D01*
X024108Y003799D02*
X024236Y003799D01*
X024325Y003877D02*
X024108Y003877D01*
X024108Y003956D02*
X024413Y003956D01*
X024502Y004034D02*
X024108Y004034D01*
X024108Y004113D02*
X024590Y004113D01*
X024679Y004191D02*
X024108Y004191D01*
X024108Y004270D02*
X024767Y004270D01*
X024856Y004348D02*
X024108Y004348D01*
X024063Y004427D02*
X024944Y004427D01*
X025033Y004505D02*
X023983Y004505D01*
X024061Y004584D02*
X025121Y004584D01*
X025210Y004662D02*
X024140Y004662D01*
X024218Y004741D02*
X025298Y004741D01*
X025387Y004819D02*
X024297Y004819D01*
X024375Y004898D02*
X025475Y004898D01*
X025564Y004976D02*
X024454Y004976D01*
X024532Y005055D02*
X025652Y005055D01*
X025741Y005133D02*
X024611Y005133D01*
X024689Y005212D02*
X025829Y005212D01*
X025918Y005290D02*
X024768Y005290D01*
X024846Y005369D02*
X026006Y005369D01*
X026095Y005447D02*
X024925Y005447D01*
X025003Y005526D02*
X026183Y005526D01*
X026272Y005604D02*
X025082Y005604D01*
X025160Y005683D02*
X026361Y005683D01*
X026449Y005761D02*
X025239Y005761D01*
X025317Y005840D02*
X026520Y005840D01*
X026520Y005918D02*
X025396Y005918D01*
X025437Y005997D02*
X026520Y005997D01*
X026520Y006075D02*
X025450Y006075D01*
X025450Y006154D02*
X026520Y006154D01*
X026520Y006232D02*
X025450Y006232D01*
X025450Y006311D02*
X026520Y006311D01*
X026520Y006389D02*
X025450Y006389D01*
X025450Y006468D02*
X026520Y006468D01*
X026520Y006546D02*
X025450Y006546D01*
X025450Y006625D02*
X026520Y006625D01*
X026520Y006703D02*
X025450Y006703D01*
X025450Y006782D02*
X026520Y006782D01*
X026520Y006860D02*
X025450Y006860D01*
X025450Y006939D02*
X026520Y006939D01*
X026520Y007017D02*
X025450Y007017D01*
X025450Y007096D02*
X026520Y007096D01*
X026520Y007174D02*
X025450Y007174D01*
X025450Y007253D02*
X026520Y007253D01*
X026520Y007331D02*
X025450Y007331D01*
X025450Y007410D02*
X026520Y007410D01*
X026520Y007488D02*
X025450Y007488D01*
X025450Y007567D02*
X026520Y007567D01*
X026520Y007645D02*
X025450Y007645D01*
X025450Y007724D02*
X026520Y007724D01*
X026520Y007802D02*
X025450Y007802D01*
X025450Y007881D02*
X026520Y007881D01*
X026520Y007959D02*
X025450Y007959D01*
X025450Y008038D02*
X026520Y008038D01*
X026520Y008116D02*
X025450Y008116D01*
X025450Y008195D02*
X026520Y008195D01*
X026520Y008273D02*
X025450Y008273D01*
X025450Y008352D02*
X026520Y008352D01*
X026520Y008430D02*
X025450Y008430D01*
X025450Y008509D02*
X026520Y008509D01*
X026520Y008587D02*
X025450Y008587D01*
X025450Y008666D02*
X026520Y008666D01*
X026520Y008744D02*
X025450Y008744D01*
X025450Y008823D02*
X026520Y008823D01*
X026520Y008901D02*
X025450Y008901D01*
X025450Y008980D02*
X026520Y008980D01*
X026520Y009058D02*
X025450Y009058D01*
X025450Y009137D02*
X026520Y009137D01*
X026520Y009215D02*
X025450Y009215D01*
X025450Y009294D02*
X026520Y009294D01*
X026520Y009372D02*
X025450Y009372D01*
X025450Y009451D02*
X026520Y009451D01*
X026520Y009529D02*
X025450Y009529D01*
X025450Y009608D02*
X026520Y009608D01*
X026520Y009686D02*
X025450Y009686D01*
X025450Y009765D02*
X026520Y009765D01*
X026520Y009843D02*
X025450Y009843D01*
X025450Y009922D02*
X026520Y009922D01*
X026520Y010000D02*
X025450Y010000D01*
X025512Y010079D02*
X026520Y010079D01*
X026520Y010157D02*
X026506Y010157D01*
X026280Y010157D02*
X026200Y010157D01*
X026200Y010236D02*
X026280Y010236D01*
X026280Y010314D02*
X026200Y010314D01*
X026200Y010393D02*
X026280Y010393D01*
X026280Y010471D02*
X026200Y010471D01*
X025896Y010236D02*
X025669Y010236D01*
X025748Y010314D02*
X025817Y010314D01*
X025974Y010157D02*
X025591Y010157D01*
X024889Y010157D02*
X010731Y010157D01*
X010309Y009843D02*
X008406Y009843D01*
X008484Y009922D02*
X010231Y009922D01*
X010152Y010000D02*
X008563Y010000D01*
X008641Y010079D02*
X010074Y010079D01*
X009995Y010157D02*
X008715Y010157D01*
X008747Y010236D02*
X009948Y010236D01*
X009930Y010314D02*
X008760Y010314D01*
X008760Y010393D02*
X009930Y010393D01*
X009930Y010471D02*
X008760Y010471D01*
X008760Y010550D02*
X009930Y010550D01*
X009930Y010628D02*
X008760Y010628D01*
X008760Y010707D02*
X009930Y010707D01*
X009930Y010785D02*
X008760Y010785D01*
X008760Y010864D02*
X009930Y010864D01*
X009930Y010942D02*
X008760Y010942D01*
X008760Y011021D02*
X009930Y011021D01*
X009930Y011099D02*
X008760Y011099D01*
X008760Y011178D02*
X009930Y011178D01*
X009930Y011256D02*
X008760Y011256D01*
X008760Y011335D02*
X009930Y011335D01*
X009930Y011413D02*
X008760Y011413D01*
X008760Y011492D02*
X009930Y011492D01*
X009930Y011570D02*
X008760Y011570D01*
X007323Y011649D02*
X006557Y011649D01*
X006746Y011570D02*
X007134Y011570D01*
X007045Y011492D02*
X006835Y011492D01*
X006913Y011413D02*
X006967Y011413D01*
X006323Y011649D02*
X005557Y011649D01*
X005746Y011570D02*
X006134Y011570D01*
X006045Y011492D02*
X005835Y011492D01*
X005913Y011413D02*
X005967Y011413D01*
X005323Y011649D02*
X004557Y011649D01*
X004746Y011570D02*
X005134Y011570D01*
X005045Y011492D02*
X004835Y011492D01*
X004913Y011413D02*
X004967Y011413D01*
X004323Y011649D02*
X003557Y011649D01*
X003746Y011570D02*
X004134Y011570D01*
X004045Y011492D02*
X003835Y011492D01*
X003913Y011413D02*
X003967Y011413D01*
X003323Y011649D02*
X002557Y011649D01*
X002746Y011570D02*
X003134Y011570D01*
X003045Y011492D02*
X002835Y011492D01*
X002913Y011413D02*
X002967Y011413D01*
X002323Y011649D02*
X001557Y011649D01*
X001746Y011570D02*
X002134Y011570D01*
X002045Y011492D02*
X001835Y011492D01*
X001913Y011413D02*
X001967Y011413D01*
X000540Y010471D02*
X008120Y010471D01*
X008050Y010393D02*
X000540Y010393D01*
X000540Y010314D02*
X007971Y010314D01*
X007893Y010236D02*
X000540Y010236D01*
X000540Y010157D02*
X007814Y010157D01*
X008249Y009686D02*
X010466Y009686D01*
X010388Y009765D02*
X008327Y009765D01*
X008170Y009608D02*
X010548Y009608D01*
X008239Y008744D02*
X016874Y008744D01*
X016842Y008823D02*
X008207Y008823D01*
X008174Y008901D02*
X016840Y008901D01*
X016840Y008827D02*
X016927Y008617D01*
X017087Y008457D01*
X017297Y008370D01*
X017523Y008370D01*
X017733Y008457D01*
X017893Y008617D01*
X017980Y008827D01*
X017980Y009053D01*
X017893Y009263D01*
X017733Y009423D01*
X017523Y009510D01*
X017297Y009510D01*
X017087Y009423D01*
X016927Y009263D01*
X016840Y009053D01*
X016840Y008827D01*
X016840Y008980D02*
X008097Y008980D01*
X008018Y009058D02*
X016842Y009058D01*
X016874Y009137D02*
X007836Y009137D01*
X007544Y009137D02*
X006836Y009137D01*
X007018Y009058D02*
X007362Y009058D01*
X007283Y008980D02*
X007097Y008980D01*
X007174Y008901D02*
X007206Y008901D01*
X006544Y009137D02*
X006010Y009137D01*
X006018Y009058D02*
X006362Y009058D01*
X006283Y008980D02*
X006097Y008980D01*
X006174Y008901D02*
X006206Y008901D01*
X006028Y009215D02*
X016907Y009215D01*
X016957Y009294D02*
X006106Y009294D01*
X006185Y009372D02*
X017036Y009372D01*
X017153Y009451D02*
X006263Y009451D01*
X005829Y009922D02*
X000540Y009922D01*
X000540Y010000D02*
X005907Y010000D01*
X005986Y010079D02*
X000540Y010079D01*
X000540Y009843D02*
X005750Y009843D01*
X005672Y009765D02*
X000540Y009765D01*
X000540Y009686D02*
X005593Y009686D01*
X005515Y009608D02*
X000540Y009608D01*
X000540Y009529D02*
X005436Y009529D01*
X005394Y009451D02*
X000540Y009451D01*
X000540Y009372D02*
X005370Y009372D01*
X005370Y009294D02*
X000540Y009294D01*
X000540Y009215D02*
X005370Y009215D01*
X005370Y009137D02*
X003336Y009137D01*
X003518Y009058D02*
X005362Y009058D01*
X005283Y008980D02*
X003597Y008980D01*
X003674Y008901D02*
X005206Y008901D01*
X005173Y008823D02*
X003707Y008823D01*
X003739Y008744D02*
X005141Y008744D01*
X005120Y008666D02*
X003760Y008666D01*
X003760Y008587D02*
X005120Y008587D01*
X005120Y008509D02*
X003760Y008509D01*
X003745Y008430D02*
X005135Y008430D01*
X005168Y008352D02*
X003712Y008352D01*
X002862Y009058D02*
X002518Y009058D01*
X002597Y008980D02*
X002783Y008980D01*
X002706Y008901D02*
X002674Y008901D01*
X002336Y009137D02*
X003044Y009137D01*
X002044Y009137D02*
X000540Y009137D01*
X000540Y009058D02*
X001011Y009058D01*
X001150Y009058D02*
X001230Y009058D01*
X001230Y009090D02*
X001230Y009090D01*
X001230Y008980D02*
X001150Y008980D01*
X001150Y008901D02*
X001230Y008901D01*
X001230Y008823D02*
X001150Y008823D01*
X001150Y008744D02*
X001230Y008744D01*
X001230Y008666D02*
X001150Y008666D01*
X001150Y008587D02*
X000540Y008587D01*
X000540Y008509D02*
X000685Y008509D01*
X000702Y008430D02*
X000540Y008430D01*
X000540Y008352D02*
X000734Y008352D01*
X000783Y008273D02*
X000540Y008273D01*
X000540Y008195D02*
X000854Y008195D01*
X000977Y008116D02*
X000540Y008116D01*
X000540Y008038D02*
X000965Y008038D01*
X000848Y007959D02*
X000540Y007959D01*
X000540Y007881D02*
X000778Y007881D01*
X000731Y007802D02*
X000540Y007802D01*
X000540Y007724D02*
X000700Y007724D01*
X000684Y007645D02*
X000540Y007645D01*
X000540Y007567D02*
X001150Y007567D01*
X001150Y007645D02*
X001230Y007645D01*
X001230Y007724D02*
X001150Y007724D01*
X001150Y007802D02*
X001230Y007802D01*
X001230Y007881D02*
X001150Y007881D01*
X001150Y007959D02*
X001230Y007959D01*
X001230Y008038D02*
X001150Y008038D01*
X001150Y008116D02*
X001230Y008116D01*
X001230Y008195D02*
X001150Y008195D01*
X001150Y008273D02*
X001230Y008273D01*
X001230Y008352D02*
X001150Y008352D01*
X001150Y008430D02*
X001230Y008430D01*
X001230Y008509D02*
X001150Y008509D01*
X000680Y008620D02*
X000680Y008620D01*
X000687Y008666D02*
X000540Y008666D01*
X000540Y008744D02*
X000707Y008744D01*
X000741Y008823D02*
X000540Y008823D01*
X000540Y008901D02*
X000793Y008901D01*
X000872Y008980D02*
X000540Y008980D01*
X001369Y009058D02*
X001862Y009058D01*
X001783Y008980D02*
X001508Y008980D01*
X001587Y008901D02*
X001706Y008901D01*
X001673Y008823D02*
X001639Y008823D01*
X000680Y007620D02*
X000680Y007620D01*
X000688Y007488D02*
X000540Y007488D01*
X000540Y007410D02*
X000709Y007410D01*
X000744Y007331D02*
X000540Y007331D01*
X000540Y007253D02*
X000798Y007253D01*
X000881Y007174D02*
X000540Y007174D01*
X000540Y007096D02*
X001031Y007096D01*
X001150Y007096D02*
X001230Y007096D01*
X001230Y007174D02*
X001150Y007174D01*
X001150Y007253D02*
X001230Y007253D01*
X001230Y007331D02*
X001150Y007331D01*
X001150Y007410D02*
X001230Y007410D01*
X001230Y007488D02*
X001150Y007488D01*
X001150Y007017D02*
X001230Y007017D01*
X001230Y006939D02*
X001150Y006939D01*
X001150Y006860D02*
X001230Y006860D01*
X001230Y006782D02*
X001150Y006782D01*
X001150Y006703D02*
X001230Y006703D01*
X001230Y006625D02*
X001150Y006625D01*
X001150Y006546D02*
X000540Y006546D01*
X000540Y006468D02*
X000691Y006468D01*
X000716Y006389D02*
X000540Y006389D01*
X000540Y006311D02*
X000755Y006311D01*
X000817Y006232D02*
X000540Y006232D01*
X000540Y006154D02*
X000909Y006154D01*
X000896Y005997D02*
X000540Y005997D01*
X000540Y006075D02*
X001063Y006075D01*
X001150Y006075D02*
X001230Y006075D01*
X001230Y005997D02*
X001150Y005997D01*
X001150Y005918D02*
X001230Y005918D01*
X001230Y005840D02*
X001150Y005840D01*
X001150Y005761D02*
X001230Y005761D01*
X001230Y005683D02*
X001150Y005683D01*
X001150Y005604D02*
X000540Y005604D01*
X000540Y005526D02*
X000682Y005526D01*
X000697Y005447D02*
X000540Y005447D01*
X000540Y005369D02*
X000725Y005369D01*
X000770Y005290D02*
X000540Y005290D01*
X000540Y005212D02*
X000837Y005212D01*
X000944Y005133D02*
X000540Y005133D01*
X000540Y005055D02*
X001000Y005055D01*
X001150Y005055D02*
X001230Y005055D01*
X001230Y005133D02*
X001150Y005133D01*
X001150Y005212D02*
X001230Y005212D01*
X001230Y005290D02*
X001150Y005290D01*
X001150Y005369D02*
X001230Y005369D01*
X001230Y005447D02*
X001150Y005447D01*
X001150Y005526D02*
X001230Y005526D01*
X000680Y005620D02*
X000680Y005620D01*
X000690Y005683D02*
X000540Y005683D01*
X000540Y005761D02*
X000713Y005761D01*
X000750Y005840D02*
X000540Y005840D01*
X000540Y005918D02*
X000807Y005918D01*
X001150Y006154D02*
X001230Y006154D01*
X001230Y006232D02*
X001150Y006232D01*
X001150Y006311D02*
X001230Y006311D01*
X001230Y006389D02*
X001150Y006389D01*
X001150Y006468D02*
X001230Y006468D01*
X000680Y006620D02*
X000680Y006620D01*
X000681Y006625D02*
X000540Y006625D01*
X000540Y006703D02*
X000694Y006703D01*
X000720Y006782D02*
X000540Y006782D01*
X000540Y006860D02*
X000763Y006860D01*
X000827Y006939D02*
X000540Y006939D01*
X000540Y007017D02*
X000924Y007017D01*
X000867Y004976D02*
X000540Y004976D01*
X000540Y004898D02*
X000790Y004898D01*
X000739Y004819D02*
X000540Y004819D01*
X000540Y004741D02*
X000706Y004741D01*
X000687Y004662D02*
X000540Y004662D01*
X000540Y004584D02*
X001150Y004584D01*
X001150Y004662D02*
X001230Y004662D01*
X001230Y004741D02*
X001150Y004741D01*
X001150Y004819D02*
X001230Y004819D01*
X001230Y004898D02*
X001150Y004898D01*
X001150Y004976D02*
X001230Y004976D01*
X001230Y004505D02*
X001150Y004505D01*
X001150Y004427D02*
X001230Y004427D01*
X001230Y004348D02*
X001150Y004348D01*
X001150Y004270D02*
X001230Y004270D01*
X001230Y004191D02*
X001150Y004191D01*
X001150Y004113D02*
X001230Y004113D01*
X001230Y004034D02*
X001150Y004034D01*
X001150Y003956D02*
X001230Y003956D01*
X001230Y003877D02*
X001150Y003877D01*
X001150Y003799D02*
X001230Y003799D01*
X001230Y003720D02*
X001150Y003720D01*
X001150Y003642D02*
X001230Y003642D01*
X001150Y003563D02*
X000540Y003563D01*
X000540Y003485D02*
X000689Y003485D01*
X000693Y003461D02*
X000680Y003540D01*
X000680Y003540D01*
X001150Y003540D01*
X001150Y003070D01*
X001150Y003070D01*
X001071Y003083D01*
X000994Y003107D01*
X000923Y003144D01*
X000858Y003191D01*
X000801Y003248D01*
X000754Y003313D01*
X000717Y003384D01*
X000693Y003461D01*
X000710Y003406D02*
X000540Y003406D01*
X000540Y003328D02*
X000746Y003328D01*
X000800Y003249D02*
X000540Y003249D01*
X000540Y003171D02*
X000886Y003171D01*
X001041Y003092D02*
X000540Y003092D01*
X000540Y003014D02*
X002068Y003014D01*
X001879Y003092D02*
X001339Y003092D01*
X001230Y003092D02*
X001150Y003092D01*
X001150Y003171D02*
X001230Y003171D01*
X001230Y003249D02*
X001150Y003249D01*
X001150Y003328D02*
X001230Y003328D01*
X001230Y003406D02*
X001150Y003406D01*
X001150Y003485D02*
X001230Y003485D01*
X001634Y003328D02*
X001678Y003328D01*
X001715Y003249D02*
X001580Y003249D01*
X001494Y003171D02*
X001793Y003171D01*
X002312Y003014D02*
X003068Y003014D01*
X002879Y003092D02*
X002501Y003092D01*
X002587Y003171D02*
X002793Y003171D01*
X002715Y003249D02*
X002665Y003249D01*
X003312Y003014D02*
X005568Y003014D01*
X005379Y003092D02*
X003501Y003092D01*
X003587Y003171D02*
X005293Y003171D01*
X005215Y003249D02*
X003665Y003249D01*
X003702Y003328D02*
X005178Y003328D01*
X005145Y003406D02*
X003735Y003406D01*
X003760Y003485D02*
X005120Y003485D01*
X005120Y003563D02*
X003760Y003563D01*
X003760Y003642D02*
X005120Y003642D01*
X005131Y003720D02*
X003749Y003720D01*
X003716Y003799D02*
X005164Y003799D01*
X005882Y002935D02*
X000540Y002935D01*
X000540Y002857D02*
X005961Y002857D01*
X006039Y002778D02*
X000540Y002778D01*
X000540Y002700D02*
X006118Y002700D01*
X006196Y002621D02*
X000540Y002621D01*
X000540Y002543D02*
X006298Y002543D01*
X006175Y002386D02*
X010663Y002386D01*
X010663Y002464D02*
X005986Y002464D01*
X006278Y002307D02*
X010665Y002307D01*
X010697Y002229D02*
X006357Y002229D01*
X006435Y002150D02*
X010730Y002150D01*
X010772Y002072D02*
X006493Y002072D01*
X006525Y001993D02*
X010723Y001993D01*
X010690Y001915D02*
X006558Y001915D01*
X006590Y001836D02*
X010663Y001836D01*
X010663Y001758D02*
X006620Y001758D01*
X006620Y001679D02*
X010663Y001679D01*
X010663Y001601D02*
X006620Y001601D01*
X006620Y001522D02*
X010663Y001522D01*
X010663Y001444D02*
X006620Y001444D01*
X006607Y001365D02*
X010663Y001365D01*
X010673Y001287D02*
X006575Y001287D01*
X006542Y001208D02*
X010706Y001208D01*
X010738Y001130D02*
X006510Y001130D01*
X006476Y001051D02*
X010810Y001051D01*
X010888Y000973D02*
X006398Y000973D01*
X004982Y000973D02*
X000540Y000973D01*
X000540Y001051D02*
X004904Y001051D01*
X004870Y001130D02*
X000540Y001130D01*
X000540Y001208D02*
X004838Y001208D01*
X004805Y001287D02*
X000540Y001287D01*
X000540Y001365D02*
X004773Y001365D01*
X004760Y001444D02*
X000540Y001444D01*
X000540Y001522D02*
X004760Y001522D01*
X004760Y001601D02*
X000540Y001601D01*
X000540Y001679D02*
X004760Y001679D01*
X004760Y001758D02*
X000540Y001758D01*
X000540Y001836D02*
X004790Y001836D01*
X004822Y001915D02*
X000540Y001915D01*
X000540Y001993D02*
X004855Y001993D01*
X004887Y002072D02*
X000540Y002072D01*
X000540Y002150D02*
X004945Y002150D01*
X005023Y002229D02*
X000540Y002229D01*
X000540Y002307D02*
X005102Y002307D01*
X005205Y002386D02*
X000540Y002386D01*
X000540Y002464D02*
X005394Y002464D01*
X008042Y004034D02*
X009941Y004034D01*
X009863Y003956D02*
X008121Y003956D01*
X008184Y003877D02*
X009784Y003877D01*
X009706Y003799D02*
X008216Y003799D01*
X008249Y003720D02*
X009627Y003720D01*
X010036Y004113D02*
X008029Y004113D01*
X010434Y002621D02*
X010663Y002621D01*
X010663Y002543D02*
X010332Y002543D01*
X010512Y002700D02*
X010663Y002700D01*
X010663Y002778D02*
X010591Y002778D01*
X015492Y000973D02*
X016044Y000973D01*
X015898Y001051D02*
X015570Y001051D01*
X015642Y001130D02*
X015821Y001130D01*
X015772Y001208D02*
X015674Y001208D01*
X015707Y001287D02*
X015741Y001287D01*
X015725Y001365D02*
X015717Y001365D01*
X015717Y001444D02*
X015723Y001444D01*
X015717Y001522D02*
X015723Y001522D01*
X017150Y001444D02*
X017230Y001444D01*
X017230Y001365D02*
X017150Y001365D01*
X017150Y001287D02*
X017230Y001287D01*
X017230Y001208D02*
X017150Y001208D01*
X017150Y001130D02*
X017230Y001130D01*
X017230Y001051D02*
X017150Y001051D01*
X017150Y000973D02*
X017230Y000973D01*
X019647Y005457D02*
X019857Y005370D01*
X020083Y005370D01*
X020293Y005457D01*
X020453Y005617D01*
X020540Y005827D01*
X020540Y006053D01*
X020453Y006263D01*
X020293Y006423D01*
X020083Y006510D01*
X019857Y006510D01*
X019647Y006423D01*
X019487Y006263D01*
X019400Y006053D01*
X019400Y005827D01*
X019487Y005617D01*
X019647Y005457D01*
X019671Y005447D02*
X017709Y005447D01*
X017802Y005526D02*
X019578Y005526D01*
X019500Y005604D02*
X017880Y005604D01*
X017920Y005683D02*
X019460Y005683D01*
X019427Y005761D02*
X017953Y005761D01*
X017980Y005840D02*
X019400Y005840D01*
X019400Y005918D02*
X017980Y005918D01*
X017980Y005997D02*
X019400Y005997D01*
X019409Y006075D02*
X017971Y006075D01*
X017939Y006154D02*
X019441Y006154D01*
X019474Y006232D02*
X017906Y006232D01*
X017846Y006311D02*
X019534Y006311D01*
X019613Y006389D02*
X017767Y006389D01*
X017626Y006468D02*
X019754Y006468D01*
X020186Y006468D02*
X020944Y006468D01*
X021047Y006510D02*
X020837Y006423D01*
X020677Y006263D01*
X020590Y006053D01*
X020590Y005827D01*
X020677Y005617D01*
X020837Y005457D01*
X021047Y005370D01*
X021273Y005370D01*
X021483Y005457D01*
X021643Y005617D01*
X021730Y005827D01*
X021730Y006053D01*
X021643Y006263D01*
X021483Y006423D01*
X021273Y006510D01*
X021047Y006510D01*
X020803Y006389D02*
X020327Y006389D01*
X020406Y006311D02*
X020724Y006311D01*
X020664Y006232D02*
X020466Y006232D01*
X020499Y006154D02*
X020631Y006154D01*
X020599Y006075D02*
X020531Y006075D01*
X020540Y005997D02*
X020590Y005997D01*
X020590Y005918D02*
X020540Y005918D01*
X020540Y005840D02*
X020590Y005840D01*
X020617Y005761D02*
X020513Y005761D01*
X020480Y005683D02*
X020650Y005683D01*
X020690Y005604D02*
X020440Y005604D01*
X020362Y005526D02*
X020768Y005526D01*
X020861Y005447D02*
X020269Y005447D01*
X021459Y005447D02*
X023421Y005447D01*
X023328Y005526D02*
X021552Y005526D01*
X021630Y005604D02*
X023250Y005604D01*
X023210Y005683D02*
X021670Y005683D01*
X021703Y005761D02*
X023177Y005761D01*
X023150Y005840D02*
X021730Y005840D01*
X021730Y005918D02*
X023150Y005918D01*
X023150Y005997D02*
X021730Y005997D01*
X021721Y006075D02*
X023159Y006075D01*
X023191Y006154D02*
X021689Y006154D01*
X021656Y006232D02*
X023224Y006232D01*
X023284Y006311D02*
X021596Y006311D01*
X021517Y006389D02*
X023363Y006389D01*
X023504Y006468D02*
X021376Y006468D01*
X021366Y007253D02*
X023514Y007253D01*
X023524Y007247D02*
X023601Y007223D01*
X023680Y007210D01*
X023680Y007680D01*
X023760Y007680D01*
X023760Y007760D01*
X024230Y007760D01*
X024230Y007760D01*
X024217Y007839D01*
X024193Y007916D01*
X024156Y007987D01*
X024109Y008052D01*
X024052Y008109D01*
X023987Y008156D01*
X023916Y008193D01*
X023839Y008217D01*
X023760Y008230D01*
X023760Y008230D01*
X023760Y007760D01*
X023680Y007760D01*
X023680Y008230D01*
X023680Y008230D01*
X023601Y008217D01*
X023524Y008193D01*
X023453Y008156D01*
X023388Y008109D01*
X023331Y008052D01*
X023284Y007987D01*
X023247Y007916D01*
X023223Y007839D01*
X023210Y007760D01*
X023680Y007760D01*
X023680Y007680D01*
X023210Y007680D01*
X023210Y007680D01*
X023223Y007601D01*
X023247Y007524D01*
X023284Y007453D01*
X023331Y007388D01*
X023388Y007331D01*
X023453Y007284D01*
X023524Y007247D01*
X023680Y007253D02*
X023760Y007253D01*
X023760Y007210D02*
X023839Y007223D01*
X023916Y007247D01*
X023987Y007284D01*
X024052Y007331D01*
X024109Y007388D01*
X024156Y007453D01*
X024193Y007524D01*
X024217Y007601D01*
X024230Y007680D01*
X023760Y007680D01*
X023760Y007210D01*
X023760Y007210D01*
X023680Y007210D02*
X023680Y007210D01*
X023680Y007331D02*
X023760Y007331D01*
X023760Y007410D02*
X023680Y007410D01*
X023680Y007488D02*
X023760Y007488D01*
X023760Y007567D02*
X023680Y007567D01*
X023680Y007645D02*
X023760Y007645D01*
X023760Y007724D02*
X024930Y007724D01*
X024930Y007802D02*
X024223Y007802D01*
X024204Y007881D02*
X024930Y007881D01*
X024930Y007959D02*
X024171Y007959D01*
X024120Y008038D02*
X024930Y008038D01*
X024930Y008116D02*
X024043Y008116D01*
X023910Y008195D02*
X024930Y008195D01*
X024930Y008273D02*
X008180Y008273D01*
X008212Y008352D02*
X024930Y008352D01*
X024930Y008430D02*
X023978Y008430D01*
X024043Y008457D02*
X023833Y008370D01*
X023607Y008370D01*
X023397Y008457D01*
X023237Y008617D01*
X023150Y008827D01*
X023150Y009053D01*
X023237Y009263D01*
X023397Y009423D01*
X023607Y009510D01*
X023833Y009510D01*
X024043Y009423D01*
X024203Y009263D01*
X024290Y009053D01*
X024290Y008827D01*
X024203Y008617D01*
X024043Y008457D01*
X024095Y008509D02*
X024930Y008509D01*
X024930Y008587D02*
X024173Y008587D01*
X024223Y008666D02*
X024930Y008666D01*
X024930Y008744D02*
X024256Y008744D01*
X024288Y008823D02*
X024930Y008823D01*
X024930Y008901D02*
X024290Y008901D01*
X024290Y008980D02*
X024930Y008980D01*
X024930Y009058D02*
X024288Y009058D01*
X024256Y009137D02*
X024930Y009137D01*
X024930Y009215D02*
X024223Y009215D01*
X024173Y009294D02*
X024930Y009294D01*
X024930Y009372D02*
X024094Y009372D01*
X023977Y009451D02*
X024930Y009451D01*
X024930Y009529D02*
X008050Y009529D01*
X008260Y008666D02*
X016907Y008666D01*
X016957Y008587D02*
X008260Y008587D01*
X008260Y008509D02*
X017035Y008509D01*
X017152Y008430D02*
X008245Y008430D01*
X008111Y008195D02*
X017220Y008195D01*
X017370Y008195D02*
X017450Y008195D01*
X017450Y008116D02*
X017370Y008116D01*
X017370Y008038D02*
X017450Y008038D01*
X017450Y007959D02*
X017370Y007959D01*
X017370Y007881D02*
X017450Y007881D01*
X017450Y007645D02*
X017370Y007645D01*
X017370Y007567D02*
X017450Y007567D01*
X017450Y007488D02*
X017370Y007488D01*
X017370Y007410D02*
X017450Y007410D01*
X017450Y007331D02*
X017370Y007331D01*
X017370Y007253D02*
X017450Y007253D01*
X017616Y007253D02*
X019764Y007253D01*
X019774Y007247D02*
X019851Y007223D01*
X019930Y007210D01*
X019930Y007680D01*
X019460Y007680D01*
X019460Y007680D01*
X019473Y007601D01*
X019497Y007524D01*
X019534Y007453D01*
X019581Y007388D01*
X019638Y007331D01*
X019703Y007284D01*
X019774Y007247D01*
X019930Y007253D02*
X020010Y007253D01*
X020010Y007331D02*
X019930Y007331D01*
X019930Y007410D02*
X020010Y007410D01*
X020010Y007488D02*
X019930Y007488D01*
X019930Y007567D02*
X020010Y007567D01*
X020010Y007645D02*
X019930Y007645D01*
X019930Y007881D02*
X020010Y007881D01*
X020010Y007959D02*
X019930Y007959D01*
X019930Y008038D02*
X020010Y008038D01*
X020010Y008116D02*
X019930Y008116D01*
X019930Y008195D02*
X020010Y008195D01*
X019780Y008195D02*
X017600Y008195D01*
X017733Y008116D02*
X019647Y008116D01*
X019570Y008038D02*
X017810Y008038D01*
X017861Y007959D02*
X019519Y007959D01*
X019486Y007881D02*
X017894Y007881D01*
X017913Y007802D02*
X019467Y007802D01*
X019460Y007760D02*
X019460Y007760D01*
X019466Y007645D02*
X017914Y007645D01*
X017896Y007567D02*
X019484Y007567D01*
X019516Y007488D02*
X017864Y007488D01*
X017815Y007410D02*
X019565Y007410D01*
X019638Y007331D02*
X017742Y007331D01*
X016900Y007760D02*
X016900Y007760D01*
X016907Y007802D02*
X008215Y007802D01*
X008182Y007881D02*
X016926Y007881D01*
X016959Y007959D02*
X008117Y007959D01*
X008039Y008038D02*
X017010Y008038D01*
X017087Y008116D02*
X008032Y008116D01*
X000858Y004191D02*
X000540Y004191D01*
X000540Y004113D02*
X000984Y004113D01*
X000958Y004034D02*
X000540Y004034D01*
X000540Y003956D02*
X000844Y003956D01*
X000775Y003877D02*
X000540Y003877D01*
X000540Y003799D02*
X000729Y003799D01*
X000699Y003720D02*
X000540Y003720D01*
X000540Y003642D02*
X000683Y003642D01*
X000680Y003620D02*
X000680Y003620D01*
X000785Y004270D02*
X000540Y004270D01*
X000540Y004348D02*
X000736Y004348D01*
X000704Y004427D02*
X000540Y004427D01*
X000540Y004505D02*
X000686Y004505D01*
X000680Y004620D02*
X000680Y004620D01*
X007400Y014161D02*
X007480Y014161D01*
X007480Y014239D02*
X007400Y014239D01*
X007400Y014318D02*
X007480Y014318D01*
X007480Y014396D02*
X007400Y014396D01*
X007400Y014632D02*
X007480Y014632D01*
X007480Y014710D02*
X007400Y014710D01*
X007400Y014789D02*
X007480Y014789D01*
X007480Y014867D02*
X007400Y014867D01*
X007400Y014946D02*
X007480Y014946D01*
X007480Y015024D02*
X007400Y015024D01*
X007234Y015024D02*
X006210Y015024D01*
X006260Y014946D02*
X007155Y014946D01*
X007077Y014867D02*
X006293Y014867D01*
X006296Y014789D02*
X006998Y014789D01*
X006980Y014710D02*
X006275Y014710D01*
X006217Y014632D02*
X006980Y014632D01*
X006056Y014810D02*
X005736Y015130D01*
X005736Y015210D01*
X005816Y015290D01*
X005976Y015290D01*
X006056Y015210D01*
X006056Y014810D02*
X005736Y014810D01*
X005541Y014890D02*
X005220Y015210D01*
X005220Y014890D01*
X005301Y014810D01*
X005461Y014810D01*
X005541Y014890D01*
X005541Y015210D01*
X005461Y015290D01*
X005301Y015290D01*
X005220Y015210D01*
X005025Y015130D02*
X004865Y015290D01*
X004865Y014810D01*
X005025Y014810D02*
X004705Y014810D01*
X004509Y014890D02*
X004429Y014810D01*
X004269Y014810D01*
X004189Y014890D01*
X004189Y014970D01*
X004269Y015050D01*
X004349Y015050D01*
X004269Y015050D02*
X004189Y015130D01*
X004189Y015210D01*
X004269Y015290D01*
X004429Y015290D01*
X004509Y015210D01*
X004643Y015417D02*
X004657Y015417D01*
X004732Y015495D02*
X004563Y015495D01*
X004136Y015495D02*
X003531Y015495D01*
X003611Y015417D02*
X004056Y015417D01*
X004053Y015414D02*
X004053Y015414D01*
X003982Y015338D02*
X003685Y015338D01*
X003478Y015210D02*
X003398Y015290D01*
X003238Y015290D01*
X003158Y015210D01*
X003478Y014890D01*
X003398Y014810D01*
X003238Y014810D01*
X003158Y014890D01*
X003158Y015210D01*
X003022Y015414D02*
X003022Y015414D01*
X003025Y015417D02*
X002932Y015417D01*
X002770Y015495D02*
X003105Y015495D01*
X002802Y015210D02*
X002963Y015050D01*
X002722Y015050D01*
X002642Y014970D01*
X002642Y014890D01*
X002722Y014810D01*
X002883Y014810D01*
X002963Y014890D01*
X002963Y015050D01*
X002802Y015210D02*
X002642Y015290D01*
X002437Y015417D02*
X002064Y015417D01*
X002138Y015338D02*
X002405Y015338D01*
X002512Y015495D02*
X001984Y015495D01*
X001851Y015290D02*
X001691Y015290D01*
X001611Y015210D01*
X001931Y014890D01*
X001851Y014810D01*
X001691Y014810D01*
X001611Y014890D01*
X001611Y015210D01*
X001416Y015210D02*
X001336Y015290D01*
X001175Y015290D01*
X001095Y015210D01*
X001095Y014890D01*
X001175Y014810D01*
X001336Y014810D01*
X001416Y014890D01*
X001336Y015050D02*
X001095Y015050D01*
X001336Y015050D02*
X001416Y015130D01*
X001416Y015210D01*
X001851Y015290D02*
X001931Y015210D01*
X001931Y014890D01*
X002149Y014789D02*
X002425Y014789D01*
X002483Y014710D02*
X002091Y014710D01*
X002012Y014632D02*
X002561Y014632D01*
X003043Y014632D02*
X003077Y014632D01*
X003478Y014890D02*
X003478Y015210D01*
X003674Y015050D02*
X003994Y015050D01*
X003971Y014789D02*
X003696Y014789D01*
X003638Y014710D02*
X004030Y014710D01*
X004053Y014687D02*
X004053Y014687D01*
X004108Y014632D02*
X003559Y014632D01*
X003986Y014754D02*
X003986Y014754D01*
X005165Y014607D02*
X005165Y014607D01*
X005087Y015417D02*
X005078Y015417D01*
X004998Y015495D02*
X005167Y015495D01*
X005594Y015495D02*
X005683Y015495D01*
X005680Y015494D02*
X005680Y015494D01*
X005918Y016908D02*
X005962Y016908D01*
X006040Y016987D02*
X005840Y016987D01*
X005758Y017065D02*
X006122Y017065D01*
X006311Y017144D02*
X005569Y017144D01*
X005311Y017144D02*
X004569Y017144D01*
X004758Y017065D02*
X005122Y017065D01*
X005040Y016987D02*
X004840Y016987D01*
X004918Y016908D02*
X004962Y016908D01*
X004311Y017144D02*
X003569Y017144D01*
X003758Y017065D02*
X004122Y017065D01*
X004040Y016987D02*
X003840Y016987D01*
X003918Y016908D02*
X003962Y016908D01*
X003311Y017144D02*
X002569Y017144D01*
X002758Y017065D02*
X003122Y017065D01*
X003040Y016987D02*
X002840Y016987D01*
X002918Y016908D02*
X002962Y016908D01*
X002311Y017144D02*
X001569Y017144D01*
X001758Y017065D02*
X002122Y017065D01*
X002040Y016987D02*
X001840Y016987D01*
X001918Y016908D02*
X001962Y016908D01*
X001558Y015495D02*
X001469Y015495D01*
X001042Y015495D02*
X000540Y015495D01*
X000540Y015417D02*
X000962Y015417D01*
X000959Y015414D02*
X000959Y015414D01*
X000892Y015346D02*
X000892Y015346D01*
X000888Y015338D02*
X000540Y015338D01*
X000540Y015260D02*
X000856Y015260D01*
X000855Y015181D02*
X000540Y015181D01*
X000540Y015103D02*
X000855Y015103D01*
X000855Y015024D02*
X000540Y015024D01*
X000540Y014946D02*
X000855Y014946D01*
X000855Y014867D02*
X000540Y014867D01*
X000540Y014789D02*
X000878Y014789D01*
X000936Y014710D02*
X000540Y014710D01*
X000540Y014632D02*
X001014Y014632D01*
X001497Y014632D02*
X001530Y014632D01*
X002127Y015050D02*
X002447Y015050D01*
X001039Y015494D02*
X001039Y015494D01*
X000540Y018400D02*
X001725Y018400D01*
X001566Y018478D02*
X000540Y018478D01*
X000540Y018557D02*
X001487Y018557D01*
X001419Y018635D02*
X000540Y018635D01*
X000540Y018714D02*
X001387Y018714D01*
X001354Y018792D02*
X000540Y018792D01*
X000540Y018871D02*
X001340Y018871D01*
X001340Y018949D02*
X000540Y018949D01*
X000540Y019028D02*
X001340Y019028D01*
X001362Y019106D02*
X000540Y019106D01*
X000540Y019342D02*
X001505Y019342D01*
X001584Y019420D02*
X000540Y019420D01*
X000540Y019499D02*
X001769Y019499D01*
X000540Y019577D02*
X007063Y019577D01*
X007063Y019656D02*
X006388Y019656D01*
X006578Y019734D02*
X007063Y019734D01*
X007063Y019813D02*
X006738Y019813D01*
X006816Y019891D02*
X007080Y019891D01*
X007113Y019970D02*
X006895Y019970D01*
X006973Y020048D02*
X007149Y020048D01*
X007139Y020127D02*
X007009Y020127D01*
X007041Y020205D02*
X007107Y020205D01*
X007074Y020284D02*
X007074Y020284D01*
X005992Y019656D02*
X000540Y019656D01*
X000540Y019734D02*
X005802Y019734D01*
X005642Y019813D02*
X000540Y019813D01*
X000540Y019891D02*
X005564Y019891D01*
X005485Y019970D02*
X000540Y019970D01*
X000540Y020048D02*
X005407Y020048D01*
X005371Y020127D02*
X000540Y020127D01*
X000540Y020205D02*
X005339Y020205D01*
X005306Y020284D02*
X004737Y020284D01*
X004802Y020331D01*
X004859Y020388D01*
X004906Y020453D01*
X004943Y020524D01*
X004967Y020601D01*
X004980Y020680D01*
X004510Y020680D01*
X004510Y020760D01*
X004980Y020760D01*
X004980Y020760D01*
X004967Y020839D01*
X004943Y020916D01*
X004906Y020987D01*
X004859Y021052D01*
X004802Y021109D01*
X004737Y021156D01*
X004666Y021193D01*
X004589Y021217D01*
X004510Y021230D01*
X004510Y021230D01*
X004510Y020760D01*
X004430Y020760D01*
X004430Y021230D01*
X004430Y021230D01*
X004351Y021217D01*
X004274Y021193D01*
X004203Y021156D01*
X004138Y021109D01*
X004081Y021052D01*
X004034Y020987D01*
X003997Y020916D01*
X003973Y020839D01*
X003960Y020760D01*
X004430Y020760D01*
X004430Y020680D01*
X004510Y020680D01*
X004510Y020210D01*
X004510Y020210D01*
X004589Y020223D01*
X004666Y020247D01*
X004737Y020284D01*
X004833Y020362D02*
X005274Y020362D01*
X005260Y020441D02*
X004897Y020441D01*
X004940Y020519D02*
X005260Y020519D01*
X005260Y020598D02*
X004966Y020598D01*
X004979Y020676D02*
X005260Y020676D01*
X005260Y020755D02*
X004510Y020755D01*
X004510Y020833D02*
X004430Y020833D01*
X004430Y020755D02*
X001950Y020755D01*
X001950Y020760D02*
X002420Y020760D01*
X002420Y020760D01*
X002407Y020839D01*
X002383Y020916D01*
X002346Y020987D01*
X002299Y021052D01*
X002242Y021109D01*
X002177Y021156D01*
X002106Y021193D01*
X002029Y021217D01*
X001950Y021230D01*
X001950Y021230D01*
X001950Y020760D01*
X001950Y020680D01*
X002420Y020680D01*
X002420Y020680D01*
X002407Y020601D01*
X002383Y020524D01*
X002346Y020453D01*
X002299Y020388D01*
X002242Y020331D01*
X002177Y020284D01*
X002106Y020247D01*
X002029Y020223D01*
X001950Y020210D01*
X001950Y020210D01*
X001950Y020680D01*
X001870Y020680D01*
X001870Y020210D01*
X001870Y020210D01*
X001791Y020223D01*
X001714Y020247D01*
X001643Y020284D01*
X001578Y020331D01*
X001521Y020388D01*
X001474Y020453D01*
X001437Y020524D01*
X001413Y020601D01*
X001400Y020680D01*
X001400Y020680D01*
X001870Y020680D01*
X001870Y020760D01*
X001870Y021230D01*
X001870Y021230D01*
X001791Y021217D01*
X001714Y021193D01*
X001643Y021156D01*
X001578Y021109D01*
X001521Y021052D01*
X001474Y020987D01*
X001437Y020916D01*
X001413Y020839D01*
X001400Y020760D01*
X001870Y020760D01*
X001950Y020760D01*
X001950Y020833D02*
X001870Y020833D01*
X001870Y020755D02*
X000540Y020755D01*
X000540Y020833D02*
X001412Y020833D01*
X001400Y020760D02*
X001400Y020760D01*
X001401Y020676D02*
X000540Y020676D01*
X000540Y020598D02*
X001414Y020598D01*
X001440Y020519D02*
X000540Y020519D01*
X000540Y020441D02*
X001483Y020441D01*
X001547Y020362D02*
X000540Y020362D01*
X000540Y020284D02*
X001643Y020284D01*
X001870Y020284D02*
X001950Y020284D01*
X001950Y020362D02*
X001870Y020362D01*
X001870Y020441D02*
X001950Y020441D01*
X001950Y020519D02*
X001870Y020519D01*
X001870Y020598D02*
X001950Y020598D01*
X001950Y020676D02*
X001870Y020676D01*
X001870Y020912D02*
X001950Y020912D01*
X001950Y020990D02*
X001870Y020990D01*
X001870Y021069D02*
X001950Y021069D01*
X001950Y021147D02*
X001870Y021147D01*
X001870Y021226D02*
X001950Y021226D01*
X001978Y021226D02*
X004402Y021226D01*
X004430Y021226D02*
X004510Y021226D01*
X004538Y021226D02*
X005520Y021226D01*
X005442Y021147D02*
X004750Y021147D01*
X004843Y021069D02*
X005386Y021069D01*
X005353Y020990D02*
X004904Y020990D01*
X004944Y020912D02*
X005321Y020912D01*
X005288Y020833D02*
X004968Y020833D01*
X004980Y020680D02*
X004980Y020680D01*
X004510Y020676D02*
X004430Y020676D01*
X004430Y020680D02*
X004430Y020210D01*
X004430Y020210D01*
X004351Y020223D01*
X004274Y020247D01*
X004203Y020284D01*
X004138Y020331D01*
X004081Y020388D01*
X004034Y020453D01*
X003997Y020524D01*
X003973Y020601D01*
X003960Y020680D01*
X003960Y020680D01*
X004430Y020680D01*
X004430Y020598D02*
X004510Y020598D01*
X004510Y020519D02*
X004430Y020519D01*
X004430Y020441D02*
X004510Y020441D01*
X004510Y020362D02*
X004430Y020362D01*
X004430Y020284D02*
X004510Y020284D01*
X004203Y020284D02*
X002177Y020284D01*
X002273Y020362D02*
X004107Y020362D01*
X004043Y020441D02*
X002337Y020441D01*
X002380Y020519D02*
X004000Y020519D01*
X003974Y020598D02*
X002406Y020598D01*
X002419Y020676D02*
X003961Y020676D01*
X003960Y020760D02*
X003960Y020760D01*
X003972Y020833D02*
X002408Y020833D01*
X002384Y020912D02*
X003996Y020912D01*
X004036Y020990D02*
X002344Y020990D01*
X002283Y021069D02*
X004097Y021069D01*
X004190Y021147D02*
X002190Y021147D01*
X001842Y021226D02*
X000566Y021226D01*
X000540Y021147D02*
X001630Y021147D01*
X001537Y021069D02*
X000540Y021069D01*
X000540Y020990D02*
X001476Y020990D01*
X001436Y020912D02*
X000540Y020912D01*
X004430Y020912D02*
X004510Y020912D01*
X004510Y020990D02*
X004430Y020990D01*
X004430Y021069D02*
X004510Y021069D01*
X004510Y021147D02*
X004430Y021147D01*
X008065Y019185D02*
X008115Y019185D01*
X008155Y019106D02*
X008025Y019106D01*
X007947Y019028D02*
X008233Y019028D01*
X008340Y018949D02*
X007840Y018949D01*
X008840Y018949D02*
X009340Y018949D01*
X009233Y019028D02*
X008947Y019028D01*
X009025Y019106D02*
X009155Y019106D01*
X009115Y019185D02*
X009065Y019185D01*
X009840Y018949D02*
X011340Y018949D01*
X011233Y019028D02*
X010850Y019028D01*
X010835Y019017D02*
X010894Y019060D01*
X010946Y019112D01*
X010990Y019171D01*
X011023Y019237D01*
X011046Y019307D01*
X011057Y019380D01*
X011057Y019540D01*
X010630Y019540D01*
X010630Y019620D01*
X011057Y019620D01*
X011057Y019780D01*
X011046Y019853D01*
X011023Y019923D01*
X010990Y019989D01*
X010946Y020048D01*
X010915Y020080D01*
X010946Y020112D01*
X010990Y020171D01*
X011023Y020237D01*
X011046Y020307D01*
X011057Y020380D01*
X011057Y020540D01*
X010630Y020540D01*
X010630Y020620D01*
X010550Y020620D01*
X010550Y021210D01*
X010481Y021199D01*
X010411Y021177D01*
X010345Y021143D01*
X010286Y021100D01*
X010234Y021048D01*
X010190Y020989D01*
X010157Y020923D01*
X010134Y020853D01*
X010123Y020780D01*
X010123Y020620D01*
X010550Y020620D01*
X010550Y020540D01*
X010123Y020540D01*
X010123Y020380D01*
X010134Y020307D01*
X010157Y020237D01*
X010190Y020171D01*
X010234Y020112D01*
X010265Y020080D01*
X010234Y020048D01*
X010190Y019989D01*
X010157Y019923D01*
X010134Y019853D01*
X010123Y019780D01*
X010123Y019620D01*
X010550Y019620D01*
X010550Y019950D01*
X010550Y020540D01*
X010630Y020540D01*
X010630Y019620D01*
X010550Y019620D01*
X010550Y019540D01*
X010123Y019540D01*
X010123Y019380D01*
X010134Y019307D01*
X010157Y019237D01*
X010190Y019171D01*
X010234Y019112D01*
X010286Y019060D01*
X010345Y019017D01*
X010411Y018983D01*
X010481Y018961D01*
X010550Y018950D01*
X010550Y019540D01*
X010630Y019540D01*
X010630Y018950D01*
X010699Y018961D01*
X010769Y018983D01*
X010835Y019017D01*
X010941Y019106D02*
X011155Y019106D01*
X011115Y019185D02*
X010996Y019185D01*
X011032Y019263D02*
X011083Y019263D01*
X011063Y019342D02*
X011051Y019342D01*
X011057Y019420D02*
X011063Y019420D01*
X011057Y019499D02*
X011063Y019499D01*
X011063Y019577D02*
X010630Y019577D01*
X010630Y019499D02*
X010550Y019499D01*
X010550Y019577D02*
X010117Y019577D01*
X010117Y019499D02*
X010123Y019499D01*
X010117Y019420D02*
X010123Y019420D01*
X010117Y019342D02*
X010129Y019342D01*
X010148Y019263D02*
X010097Y019263D01*
X010065Y019185D02*
X010184Y019185D01*
X010239Y019106D02*
X010025Y019106D01*
X009947Y019028D02*
X010330Y019028D01*
X010550Y019028D02*
X010630Y019028D01*
X010630Y019106D02*
X010550Y019106D01*
X010550Y019185D02*
X010630Y019185D01*
X010630Y019263D02*
X010550Y019263D01*
X010550Y019342D02*
X010630Y019342D01*
X010630Y019420D02*
X010550Y019420D01*
X010550Y019656D02*
X010630Y019656D01*
X010630Y019734D02*
X010550Y019734D01*
X010550Y019813D02*
X010630Y019813D01*
X010630Y019891D02*
X010550Y019891D01*
X010550Y019970D02*
X010630Y019970D01*
X010630Y020048D02*
X010550Y020048D01*
X010550Y020127D02*
X010630Y020127D01*
X010630Y020205D02*
X010550Y020205D01*
X010550Y020284D02*
X010630Y020284D01*
X010630Y020362D02*
X010550Y020362D01*
X010550Y020441D02*
X010630Y020441D01*
X010630Y020519D02*
X010550Y020519D01*
X010550Y020598D02*
X010117Y020598D01*
X010117Y020676D02*
X010123Y020676D01*
X010117Y020755D02*
X010123Y020755D01*
X010117Y020833D02*
X010131Y020833D01*
X010153Y020912D02*
X010091Y020912D01*
X010059Y020990D02*
X010191Y020990D01*
X010254Y021069D02*
X010011Y021069D01*
X009932Y021147D02*
X010352Y021147D01*
X010550Y021147D02*
X010630Y021147D01*
X010630Y021210D02*
X010630Y020620D01*
X011057Y020620D01*
X011057Y020780D01*
X011046Y020853D01*
X011023Y020923D01*
X010990Y020989D01*
X010946Y021048D01*
X010894Y021100D01*
X010835Y021143D01*
X010769Y021177D01*
X010699Y021199D01*
X010630Y021210D01*
X010630Y021069D02*
X010550Y021069D01*
X010550Y020990D02*
X010630Y020990D01*
X010630Y020912D02*
X010550Y020912D01*
X010550Y020833D02*
X010630Y020833D01*
X010630Y020755D02*
X010550Y020755D01*
X010550Y020676D02*
X010630Y020676D01*
X010630Y020598D02*
X011063Y020598D01*
X011057Y020676D02*
X011063Y020676D01*
X011057Y020755D02*
X011063Y020755D01*
X011063Y020833D02*
X011049Y020833D01*
X011027Y020912D02*
X011089Y020912D01*
X011121Y020990D02*
X010989Y020990D01*
X010926Y021069D02*
X011169Y021069D01*
X011248Y021147D02*
X010828Y021147D01*
X011375Y021226D02*
X009805Y021226D01*
X010117Y020519D02*
X010123Y020519D01*
X010117Y020441D02*
X010123Y020441D01*
X010117Y020362D02*
X010125Y020362D01*
X010142Y020284D02*
X010106Y020284D01*
X010073Y020205D02*
X010173Y020205D01*
X010223Y020127D02*
X010041Y020127D01*
X010031Y020048D02*
X010234Y020048D01*
X010181Y019970D02*
X010067Y019970D01*
X010100Y019891D02*
X010147Y019891D01*
X010128Y019813D02*
X010117Y019813D01*
X010117Y019734D02*
X010123Y019734D01*
X010117Y019656D02*
X010123Y019656D01*
X010946Y020048D02*
X011149Y020048D01*
X011139Y020127D02*
X010957Y020127D01*
X011007Y020205D02*
X011107Y020205D01*
X011074Y020284D02*
X011038Y020284D01*
X011055Y020362D02*
X011063Y020362D01*
X011057Y020441D02*
X011063Y020441D01*
X011057Y020519D02*
X011063Y020519D01*
X011113Y019970D02*
X010999Y019970D01*
X011033Y019891D02*
X011080Y019891D01*
X011063Y019813D02*
X011052Y019813D01*
X011057Y019734D02*
X011063Y019734D01*
X011057Y019656D02*
X011063Y019656D01*
X011840Y018949D02*
X012340Y018949D01*
X012233Y019028D02*
X011947Y019028D01*
X012025Y019106D02*
X012155Y019106D01*
X012115Y019185D02*
X012065Y019185D01*
X012840Y018949D02*
X013340Y018949D01*
X013233Y019028D02*
X012947Y019028D01*
X013025Y019106D02*
X013155Y019106D01*
X013115Y019185D02*
X013065Y019185D01*
X013840Y018949D02*
X014340Y018949D01*
X014233Y019028D02*
X013947Y019028D01*
X014025Y019106D02*
X014155Y019106D01*
X014115Y019185D02*
X014065Y019185D01*
X014840Y018949D02*
X015340Y018949D01*
X015233Y019028D02*
X014947Y019028D01*
X015025Y019106D02*
X015155Y019106D01*
X015115Y019185D02*
X015065Y019185D01*
X015840Y018949D02*
X016340Y018949D01*
X016233Y019028D02*
X015947Y019028D01*
X016025Y019106D02*
X016155Y019106D01*
X016115Y019185D02*
X016065Y019185D01*
X016840Y018949D02*
X017940Y018949D01*
X017833Y019028D02*
X016947Y019028D01*
X017025Y019106D02*
X017755Y019106D01*
X017715Y019185D02*
X017065Y019185D01*
X017097Y019263D02*
X017683Y019263D01*
X017663Y019342D02*
X017117Y019342D01*
X017117Y019420D02*
X017663Y019420D01*
X017663Y019499D02*
X017117Y019499D01*
X017117Y019577D02*
X017663Y019577D01*
X017663Y019656D02*
X017117Y019656D01*
X017117Y019734D02*
X017663Y019734D01*
X017663Y019813D02*
X017117Y019813D01*
X017100Y019891D02*
X017680Y019891D01*
X017713Y019970D02*
X017067Y019970D01*
X017031Y020048D02*
X017749Y020048D01*
X017739Y020127D02*
X017041Y020127D01*
X017073Y020205D02*
X017707Y020205D01*
X017674Y020284D02*
X017106Y020284D01*
X017117Y020362D02*
X017663Y020362D01*
X017663Y020441D02*
X017117Y020441D01*
X017117Y020519D02*
X017663Y020519D01*
X017663Y020598D02*
X017117Y020598D01*
X017117Y020676D02*
X017663Y020676D01*
X017663Y020755D02*
X017117Y020755D01*
X017117Y020833D02*
X017663Y020833D01*
X017689Y020912D02*
X017091Y020912D01*
X017059Y020990D02*
X017721Y020990D01*
X017769Y021069D02*
X017011Y021069D01*
X016932Y021147D02*
X017848Y021147D01*
X017975Y021226D02*
X016805Y021226D01*
X018665Y019185D02*
X018715Y019185D01*
X018755Y019106D02*
X018625Y019106D01*
X018547Y019028D02*
X018833Y019028D01*
X018940Y018949D02*
X018440Y018949D01*
X019440Y018949D02*
X019940Y018949D01*
X019833Y019028D02*
X019547Y019028D01*
X019625Y019106D02*
X019755Y019106D01*
X019715Y019185D02*
X019665Y019185D01*
X020440Y018949D02*
X020940Y018949D01*
X020833Y019028D02*
X020547Y019028D01*
X020625Y019106D02*
X020755Y019106D01*
X020715Y019185D02*
X020665Y019185D01*
X021440Y018949D02*
X021940Y018949D01*
X021833Y019028D02*
X021547Y019028D01*
X021625Y019106D02*
X021755Y019106D01*
X021715Y019185D02*
X021665Y019185D01*
X019008Y016516D02*
X017811Y016516D01*
X017889Y016437D02*
X018929Y016437D01*
X018851Y016359D02*
X017942Y016359D01*
X017974Y016280D02*
X018772Y016280D01*
X018694Y016202D02*
X018007Y016202D01*
X018010Y016123D02*
X018615Y016123D01*
X018537Y016045D02*
X018010Y016045D01*
X018010Y015966D02*
X018458Y015966D01*
X018380Y015888D02*
X017977Y015888D01*
X017945Y015809D02*
X018301Y015809D01*
X018223Y015731D02*
X017897Y015731D01*
X017818Y015652D02*
X018144Y015652D01*
X018066Y015574D02*
X017707Y015574D01*
X023210Y010760D02*
X023210Y010760D01*
X023463Y009451D02*
X021417Y009451D01*
X021534Y009372D02*
X023346Y009372D01*
X023267Y009294D02*
X021613Y009294D01*
X021663Y009215D02*
X023217Y009215D01*
X023184Y009137D02*
X021696Y009137D01*
X021728Y009058D02*
X023152Y009058D01*
X023150Y008980D02*
X021730Y008980D01*
X021730Y008901D02*
X023150Y008901D01*
X023152Y008823D02*
X021728Y008823D01*
X021696Y008744D02*
X023184Y008744D01*
X023217Y008666D02*
X021663Y008666D01*
X021613Y008587D02*
X023267Y008587D01*
X023345Y008509D02*
X021535Y008509D01*
X021418Y008430D02*
X023462Y008430D01*
X023530Y008195D02*
X021350Y008195D01*
X021200Y008195D02*
X021120Y008195D01*
X021120Y008116D02*
X021200Y008116D01*
X021200Y008038D02*
X021120Y008038D01*
X021120Y007959D02*
X021200Y007959D01*
X021200Y007881D02*
X021120Y007881D01*
X021120Y007802D02*
X021200Y007802D01*
X021200Y007724D02*
X023680Y007724D01*
X023680Y007802D02*
X023760Y007802D01*
X023760Y007881D02*
X023680Y007881D01*
X023680Y007959D02*
X023760Y007959D01*
X023760Y008038D02*
X023680Y008038D01*
X023680Y008116D02*
X023760Y008116D01*
X023760Y008195D02*
X023680Y008195D01*
X023397Y008116D02*
X021483Y008116D01*
X021560Y008038D02*
X023320Y008038D01*
X023269Y007959D02*
X021611Y007959D01*
X021644Y007881D02*
X023236Y007881D01*
X023217Y007802D02*
X021663Y007802D01*
X021670Y007680D02*
X021670Y007680D01*
X021664Y007645D02*
X023216Y007645D01*
X023234Y007567D02*
X021646Y007567D01*
X021614Y007488D02*
X023266Y007488D01*
X023315Y007410D02*
X021565Y007410D01*
X021492Y007331D02*
X023388Y007331D01*
X023926Y007253D02*
X024930Y007253D01*
X024930Y007331D02*
X024052Y007331D01*
X024125Y007410D02*
X024930Y007410D01*
X024930Y007488D02*
X024174Y007488D01*
X024206Y007567D02*
X024930Y007567D01*
X024930Y007645D02*
X024224Y007645D01*
X024230Y007680D02*
X024230Y007680D01*
X023210Y007760D02*
X023210Y007760D01*
X019930Y007210D02*
X019930Y007210D01*
X019712Y008430D02*
X017668Y008430D01*
X017785Y008509D02*
X019595Y008509D01*
X019517Y008587D02*
X017863Y008587D01*
X017913Y008666D02*
X019467Y008666D01*
X019434Y008744D02*
X017946Y008744D01*
X017978Y008823D02*
X019402Y008823D01*
X019400Y008901D02*
X017980Y008901D01*
X017980Y008980D02*
X019400Y008980D01*
X019402Y009058D02*
X017978Y009058D01*
X017946Y009137D02*
X019434Y009137D01*
X019467Y009215D02*
X017913Y009215D01*
X017863Y009294D02*
X019517Y009294D01*
X019596Y009372D02*
X017784Y009372D01*
X017667Y009451D02*
X019713Y009451D01*
X006962Y016908D02*
X006918Y016908D01*
X006840Y016987D02*
X007040Y016987D01*
X007122Y017065D02*
X006758Y017065D01*
X006569Y017144D02*
X007311Y017144D01*
D12*
X005560Y020580D02*
X005562Y020630D01*
X005568Y020680D01*
X005578Y020729D01*
X005592Y020777D01*
X005609Y020824D01*
X005630Y020869D01*
X005655Y020913D01*
X005683Y020954D01*
X005715Y020993D01*
X005749Y021030D01*
X005786Y021064D01*
X005826Y021094D01*
X005868Y021121D01*
X005912Y021145D01*
X005958Y021166D01*
X006005Y021182D01*
X006053Y021195D01*
X006103Y021204D01*
X006152Y021209D01*
X006203Y021210D01*
X006253Y021207D01*
X006302Y021200D01*
X006351Y021189D01*
X006399Y021174D01*
X006445Y021156D01*
X006490Y021134D01*
X006533Y021108D01*
X006574Y021079D01*
X006613Y021047D01*
X006649Y021012D01*
X006681Y020974D01*
X006711Y020934D01*
X006738Y020891D01*
X006761Y020847D01*
X006780Y020801D01*
X006796Y020753D01*
X006808Y020704D01*
X006816Y020655D01*
X006820Y020605D01*
X006820Y020555D01*
X006816Y020505D01*
X006808Y020456D01*
X006796Y020407D01*
X006780Y020359D01*
X006761Y020313D01*
X006738Y020269D01*
X006711Y020226D01*
X006681Y020186D01*
X006649Y020148D01*
X006613Y020113D01*
X006574Y020081D01*
X006533Y020052D01*
X006490Y020026D01*
X006445Y020004D01*
X006399Y019986D01*
X006351Y019971D01*
X006302Y019960D01*
X006253Y019953D01*
X006203Y019950D01*
X006152Y019951D01*
X006103Y019956D01*
X006053Y019965D01*
X006005Y019978D01*
X005958Y019994D01*
X005912Y020015D01*
X005868Y020039D01*
X005826Y020066D01*
X005786Y020096D01*
X005749Y020130D01*
X005715Y020167D01*
X005683Y020206D01*
X005655Y020247D01*
X005630Y020291D01*
X005609Y020336D01*
X005592Y020383D01*
X005578Y020431D01*
X005568Y020480D01*
X005562Y020530D01*
X005560Y020580D01*
X025560Y014580D02*
X025562Y014630D01*
X025568Y014680D01*
X025578Y014729D01*
X025592Y014777D01*
X025609Y014824D01*
X025630Y014869D01*
X025655Y014913D01*
X025683Y014954D01*
X025715Y014993D01*
X025749Y015030D01*
X025786Y015064D01*
X025826Y015094D01*
X025868Y015121D01*
X025912Y015145D01*
X025958Y015166D01*
X026005Y015182D01*
X026053Y015195D01*
X026103Y015204D01*
X026152Y015209D01*
X026203Y015210D01*
X026253Y015207D01*
X026302Y015200D01*
X026351Y015189D01*
X026399Y015174D01*
X026445Y015156D01*
X026490Y015134D01*
X026533Y015108D01*
X026574Y015079D01*
X026613Y015047D01*
X026649Y015012D01*
X026681Y014974D01*
X026711Y014934D01*
X026738Y014891D01*
X026761Y014847D01*
X026780Y014801D01*
X026796Y014753D01*
X026808Y014704D01*
X026816Y014655D01*
X026820Y014605D01*
X026820Y014555D01*
X026816Y014505D01*
X026808Y014456D01*
X026796Y014407D01*
X026780Y014359D01*
X026761Y014313D01*
X026738Y014269D01*
X026711Y014226D01*
X026681Y014186D01*
X026649Y014148D01*
X026613Y014113D01*
X026574Y014081D01*
X026533Y014052D01*
X026490Y014026D01*
X026445Y014004D01*
X026399Y013986D01*
X026351Y013971D01*
X026302Y013960D01*
X026253Y013953D01*
X026203Y013950D01*
X026152Y013951D01*
X026103Y013956D01*
X026053Y013965D01*
X026005Y013978D01*
X025958Y013994D01*
X025912Y014015D01*
X025868Y014039D01*
X025826Y014066D01*
X025786Y014096D01*
X025749Y014130D01*
X025715Y014167D01*
X025683Y014206D01*
X025655Y014247D01*
X025630Y014291D01*
X025609Y014336D01*
X025592Y014383D01*
X025578Y014431D01*
X025568Y014480D01*
X025562Y014530D01*
X025560Y014580D01*
X025560Y003580D02*
X025562Y003630D01*
X025568Y003680D01*
X025578Y003729D01*
X025592Y003777D01*
X025609Y003824D01*
X025630Y003869D01*
X025655Y003913D01*
X025683Y003954D01*
X025715Y003993D01*
X025749Y004030D01*
X025786Y004064D01*
X025826Y004094D01*
X025868Y004121D01*
X025912Y004145D01*
X025958Y004166D01*
X026005Y004182D01*
X026053Y004195D01*
X026103Y004204D01*
X026152Y004209D01*
X026203Y004210D01*
X026253Y004207D01*
X026302Y004200D01*
X026351Y004189D01*
X026399Y004174D01*
X026445Y004156D01*
X026490Y004134D01*
X026533Y004108D01*
X026574Y004079D01*
X026613Y004047D01*
X026649Y004012D01*
X026681Y003974D01*
X026711Y003934D01*
X026738Y003891D01*
X026761Y003847D01*
X026780Y003801D01*
X026796Y003753D01*
X026808Y003704D01*
X026816Y003655D01*
X026820Y003605D01*
X026820Y003555D01*
X026816Y003505D01*
X026808Y003456D01*
X026796Y003407D01*
X026780Y003359D01*
X026761Y003313D01*
X026738Y003269D01*
X026711Y003226D01*
X026681Y003186D01*
X026649Y003148D01*
X026613Y003113D01*
X026574Y003081D01*
X026533Y003052D01*
X026490Y003026D01*
X026445Y003004D01*
X026399Y002986D01*
X026351Y002971D01*
X026302Y002960D01*
X026253Y002953D01*
X026203Y002950D01*
X026152Y002951D01*
X026103Y002956D01*
X026053Y002965D01*
X026005Y002978D01*
X025958Y002994D01*
X025912Y003015D01*
X025868Y003039D01*
X025826Y003066D01*
X025786Y003096D01*
X025749Y003130D01*
X025715Y003167D01*
X025683Y003206D01*
X025655Y003247D01*
X025630Y003291D01*
X025609Y003336D01*
X025592Y003383D01*
X025578Y003431D01*
X025568Y003480D01*
X025562Y003530D01*
X025560Y003580D01*
X005060Y001580D02*
X005062Y001630D01*
X005068Y001680D01*
X005078Y001729D01*
X005092Y001777D01*
X005109Y001824D01*
X005130Y001869D01*
X005155Y001913D01*
X005183Y001954D01*
X005215Y001993D01*
X005249Y002030D01*
X005286Y002064D01*
X005326Y002094D01*
X005368Y002121D01*
X005412Y002145D01*
X005458Y002166D01*
X005505Y002182D01*
X005553Y002195D01*
X005603Y002204D01*
X005652Y002209D01*
X005703Y002210D01*
X005753Y002207D01*
X005802Y002200D01*
X005851Y002189D01*
X005899Y002174D01*
X005945Y002156D01*
X005990Y002134D01*
X006033Y002108D01*
X006074Y002079D01*
X006113Y002047D01*
X006149Y002012D01*
X006181Y001974D01*
X006211Y001934D01*
X006238Y001891D01*
X006261Y001847D01*
X006280Y001801D01*
X006296Y001753D01*
X006308Y001704D01*
X006316Y001655D01*
X006320Y001605D01*
X006320Y001555D01*
X006316Y001505D01*
X006308Y001456D01*
X006296Y001407D01*
X006280Y001359D01*
X006261Y001313D01*
X006238Y001269D01*
X006211Y001226D01*
X006181Y001186D01*
X006149Y001148D01*
X006113Y001113D01*
X006074Y001081D01*
X006033Y001052D01*
X005990Y001026D01*
X005945Y001004D01*
X005899Y000986D01*
X005851Y000971D01*
X005802Y000960D01*
X005753Y000953D01*
X005703Y000950D01*
X005652Y000951D01*
X005603Y000956D01*
X005553Y000965D01*
X005505Y000978D01*
X005458Y000994D01*
X005412Y001015D01*
X005368Y001039D01*
X005326Y001066D01*
X005286Y001096D01*
X005249Y001130D01*
X005215Y001167D01*
X005183Y001206D01*
X005155Y001247D01*
X005130Y001291D01*
X005109Y001336D01*
X005092Y001383D01*
X005078Y001431D01*
X005068Y001480D01*
X005062Y001530D01*
X005060Y001580D01*
D13*
X025240Y010580D03*
X026240Y010580D03*
X026240Y011580D03*
X025240Y011580D03*
X025240Y012580D03*
X026240Y012580D03*
D14*
X025190Y019416D02*
X025190Y019744D01*
X024190Y019744D02*
X024190Y019416D01*
X023190Y019416D02*
X023190Y019744D01*
X022190Y019744D02*
X022190Y019416D01*
X021190Y019416D02*
X021190Y019744D01*
X020190Y019744D02*
X020190Y019416D01*
X019190Y019416D02*
X019190Y019744D01*
X019190Y020416D02*
X019190Y020744D01*
X018190Y020744D02*
X018190Y020416D01*
X018190Y019744D02*
X018190Y019416D01*
X016590Y019416D02*
X016590Y019744D01*
X015590Y019744D02*
X015590Y019416D01*
X014590Y019416D02*
X014590Y019744D01*
X013590Y019744D02*
X013590Y019416D01*
X012590Y019416D02*
X012590Y019744D01*
X012590Y020416D02*
X012590Y020744D01*
X011590Y020744D02*
X011590Y020416D01*
X010590Y020416D02*
X010590Y020744D01*
X009590Y020744D02*
X009590Y020416D01*
X008590Y020416D02*
X008590Y020744D01*
X007590Y020744D02*
X007590Y020416D01*
X007590Y019744D02*
X007590Y019416D01*
X008590Y019416D02*
X008590Y019744D01*
X009590Y019744D02*
X009590Y019416D01*
X010590Y019416D02*
X010590Y019744D01*
X011590Y019744D02*
X011590Y019416D01*
X013590Y020416D02*
X013590Y020744D01*
X014590Y020744D02*
X014590Y020416D01*
X015590Y020416D02*
X015590Y020744D01*
X016590Y020744D02*
X016590Y020416D01*
X020190Y020416D02*
X020190Y020744D01*
X021190Y020744D02*
X021190Y020416D01*
X022190Y020416D02*
X022190Y020744D01*
X023190Y020744D02*
X023190Y020416D01*
X024190Y020416D02*
X024190Y020744D01*
X025190Y020744D02*
X025190Y020416D01*
X025190Y002744D02*
X025190Y002416D01*
X024190Y002416D02*
X024190Y002744D01*
X023190Y002744D02*
X023190Y002416D01*
X022190Y002416D02*
X022190Y002744D01*
X021190Y002744D02*
X021190Y002416D01*
X020190Y002416D02*
X020190Y002744D01*
X020190Y001744D02*
X020190Y001416D01*
X021190Y001416D02*
X021190Y001744D01*
X022190Y001744D02*
X022190Y001416D01*
X023190Y001416D02*
X023190Y001744D01*
X024190Y001744D02*
X024190Y001416D01*
X025190Y001416D02*
X025190Y001744D01*
X018190Y001744D02*
X018190Y001416D01*
X017190Y001416D02*
X017190Y001744D01*
X017190Y002416D02*
X017190Y002744D01*
X018190Y002744D02*
X018190Y002416D01*
X016190Y002416D02*
X016190Y002744D01*
X015190Y002744D02*
X015190Y002416D01*
X015190Y001744D02*
X015190Y001416D01*
X016190Y001416D02*
X016190Y001744D01*
X014190Y001744D02*
X014190Y001416D01*
X013190Y001416D02*
X013190Y001744D01*
X013190Y002416D02*
X013190Y002744D01*
X014190Y002744D02*
X014190Y002416D01*
X012190Y002416D02*
X012190Y002744D01*
X011190Y002744D02*
X011190Y002416D01*
X011190Y001744D02*
X011190Y001416D01*
X012190Y001416D02*
X012190Y001744D01*
D15*
X014680Y016080D03*
D16*
X013680Y016080D03*
X012680Y016080D03*
X011680Y016080D03*
X011680Y015080D03*
X012680Y015080D03*
X013680Y015080D03*
X014680Y015080D03*
D17*
X016190Y016080D03*
X017440Y016080D03*
X019690Y014580D03*
X019690Y013580D03*
X017440Y012080D03*
X016190Y012080D03*
X017410Y010720D03*
X019970Y010720D03*
X021160Y010720D03*
X023720Y010720D03*
X023720Y008940D03*
X023720Y007720D03*
X021160Y007720D03*
X019970Y007720D03*
X019970Y008940D03*
X021160Y008940D03*
X017410Y008940D03*
X017410Y007720D03*
X017410Y005940D03*
X019970Y005940D03*
X021160Y005940D03*
X023720Y005940D03*
X022690Y013580D03*
X022690Y014580D03*
X007440Y016580D03*
X006440Y016580D03*
X005440Y016580D03*
X004440Y016580D03*
X003440Y016580D03*
X002440Y016580D03*
X001440Y016580D03*
X001910Y018940D03*
X004470Y018940D03*
X004470Y020720D03*
X001910Y020720D03*
X001440Y011080D03*
X002440Y011080D03*
X003440Y011080D03*
X004440Y011080D03*
X005440Y011080D03*
X006440Y011080D03*
X007440Y011080D03*
X007690Y008580D03*
X006690Y008580D03*
X005690Y008580D03*
X005690Y007580D03*
X006690Y007580D03*
X007690Y007580D03*
X007690Y006580D03*
X006690Y006580D03*
X005690Y006580D03*
X005690Y005580D03*
X006690Y005580D03*
X007690Y005580D03*
X007690Y004580D03*
X006690Y004580D03*
X005690Y004580D03*
X005690Y003580D03*
X006690Y003580D03*
X007690Y003580D03*
X003190Y003580D03*
X002190Y003580D03*
X001190Y003580D03*
X001190Y004580D03*
X002190Y004580D03*
X003190Y004580D03*
X003190Y005580D03*
X002190Y005580D03*
X001190Y005580D03*
X001190Y006580D03*
X002190Y006580D03*
X003190Y006580D03*
X003190Y007580D03*
X002190Y007580D03*
X001190Y007580D03*
X001190Y008580D03*
X002190Y008580D03*
X003190Y008580D03*
D18*
X007440Y014580D03*
D19*
X007440Y013580D03*
D20*
X008440Y012580D01*
X008440Y010330D01*
X007940Y009830D01*
X006190Y009830D01*
X005690Y009330D01*
X005690Y008580D01*
X010190Y003830D02*
X009690Y003330D01*
X007940Y003330D01*
X007690Y003580D01*
X006440Y002830D02*
X010190Y002830D01*
X010690Y003330D01*
X013940Y003330D01*
X014190Y003080D01*
X014190Y002580D01*
X015190Y002580D02*
X015190Y003830D01*
X010190Y003830D01*
X006440Y002830D02*
X005690Y003580D01*
X015190Y003830D02*
X022690Y003830D01*
X023190Y003330D01*
X024190Y003330D01*
X026840Y005680D01*
X026840Y012180D01*
X026440Y012580D01*
X026240Y012580D01*
D21*
X025690Y012080D02*
X024690Y012080D01*
X024440Y012330D01*
X024440Y015830D01*
X023940Y016330D01*
X019190Y016330D01*
X017190Y014330D01*
X012940Y014330D01*
X012690Y014580D01*
X012690Y015070D01*
X012680Y015080D01*
X012190Y015590D02*
X012680Y016080D01*
X012190Y015590D02*
X012190Y011830D01*
X012690Y011330D01*
X018190Y011330D01*
X018440Y011580D01*
X025190Y011580D01*
X025690Y012080D02*
X026190Y011580D01*
X026240Y011580D01*
X025190Y012580D02*
X025190Y016680D01*
X024790Y017080D01*
X011940Y017080D01*
X011690Y016830D01*
X011690Y016080D01*
X010940Y015730D02*
X010940Y017830D01*
X011440Y018330D01*
X021940Y018330D01*
X023190Y019580D01*
X021440Y015580D02*
X019440Y015580D01*
X016190Y012330D01*
X016190Y012080D01*
X017440Y012080D02*
X018940Y013580D01*
X019690Y013580D01*
X021690Y014080D02*
X021690Y015330D01*
X021440Y015580D01*
X021690Y014080D02*
X022190Y013580D01*
X022690Y013580D01*
X025190Y010580D02*
X025190Y009830D01*
X025190Y006080D01*
X023690Y004580D01*
X023690Y004080D01*
X025190Y009830D02*
X010690Y009830D01*
X010190Y010330D01*
X010190Y018080D01*
X009690Y018580D01*
X004940Y018580D01*
X004440Y018910D01*
X004470Y018940D02*
X001910Y018940D01*
X010940Y015730D02*
X011590Y015080D01*
X013690Y017580D02*
X015440Y017580D01*
X025190Y010580D02*
X025240Y010580D01*
X006690Y008580D02*
X006190Y008080D01*
X002690Y008080D01*
X002190Y008580D01*
X002190Y007580D02*
X002690Y007080D01*
X006190Y007080D01*
X006690Y007580D01*
X006690Y006580D02*
X006190Y006080D01*
X002690Y006080D01*
X002190Y006580D01*
X002190Y005580D02*
X002690Y005080D01*
X006190Y005080D01*
X006690Y005580D01*
X006690Y004580D02*
X006190Y004080D01*
X002690Y004080D01*
X002190Y004580D01*
D22*
X013690Y017580D03*
X015440Y017580D03*
D23*
X023690Y004080D03*
M02*
