G75*
G70*
%OFA0B0*%
%FSLAX24Y24*%
%IPPOS*%
%LPD*%
%AMOC8*
5,1,8,0,0,1.08239X$1,22.5*
%
%ADD10C,0.0100*%
%ADD11C,0.0120*%
%ADD12C,0.0070*%
%ADD13C,0.0060*%
%ADD14C,0.0000*%
%ADD15R,0.1000X0.0500*%
%ADD16C,0.0050*%
%ADD17R,0.0200X0.0200*%
%ADD18C,0.0030*%
%ADD19C,0.0080*%
%ADD20C,0.0010*%
%ADD21R,0.0740X0.0170*%
%ADD22C,0.0020*%
%ADD23R,0.0200X0.0450*%
D10*
X000584Y000580D02*
X025796Y000580D01*
X025835Y000582D01*
X025873Y000588D01*
X025910Y000597D01*
X025947Y000610D01*
X025982Y000627D01*
X026015Y000646D01*
X026046Y000669D01*
X026075Y000695D01*
X026101Y000724D01*
X026124Y000755D01*
X026143Y000788D01*
X026160Y000823D01*
X026173Y000860D01*
X026182Y000897D01*
X026188Y000935D01*
X026190Y000974D01*
X026190Y001580D01*
X027190Y002580D01*
X027190Y015480D01*
X026190Y016480D01*
X026190Y020980D01*
X025590Y021580D01*
X000584Y021580D01*
X000545Y021578D01*
X000507Y021572D01*
X000470Y021563D01*
X000433Y021550D01*
X000398Y021533D01*
X000365Y021514D01*
X000334Y021491D01*
X000305Y021465D01*
X000279Y021436D01*
X000256Y021405D01*
X000237Y021372D01*
X000220Y021337D01*
X000207Y021300D01*
X000198Y021263D01*
X000192Y021225D01*
X000190Y021186D01*
X000190Y000974D01*
X000192Y000935D01*
X000198Y000897D01*
X000207Y000860D01*
X000220Y000823D01*
X000237Y000788D01*
X000256Y000755D01*
X000279Y000724D01*
X000305Y000695D01*
X000334Y000669D01*
X000365Y000646D01*
X000398Y000627D01*
X000433Y000610D01*
X000470Y000597D01*
X000507Y000588D01*
X000545Y000582D01*
X000584Y000580D01*
X006940Y001330D02*
X006940Y001830D01*
X008440Y001830D01*
X008440Y001330D01*
X006940Y001330D01*
X007101Y001580D02*
X007103Y001599D01*
X007109Y001616D01*
X007118Y001632D01*
X007130Y001646D01*
X007145Y001657D01*
X007162Y001665D01*
X007181Y001669D01*
X007199Y001669D01*
X007218Y001665D01*
X007234Y001657D01*
X007250Y001646D01*
X007262Y001632D01*
X007271Y001616D01*
X007277Y001599D01*
X007279Y001580D01*
X007277Y001561D01*
X007271Y001544D01*
X007262Y001528D01*
X007250Y001514D01*
X007235Y001503D01*
X007218Y001495D01*
X007199Y001491D01*
X007181Y001491D01*
X007162Y001495D01*
X007146Y001503D01*
X007130Y001514D01*
X007118Y001528D01*
X007109Y001544D01*
X007103Y001561D01*
X007101Y001580D01*
X006940Y002080D02*
X006940Y002580D01*
X008440Y002580D01*
X008440Y002080D01*
X006940Y002080D01*
X008101Y002330D02*
X008103Y002349D01*
X008109Y002366D01*
X008118Y002382D01*
X008130Y002396D01*
X008145Y002407D01*
X008162Y002415D01*
X008181Y002419D01*
X008199Y002419D01*
X008218Y002415D01*
X008234Y002407D01*
X008250Y002396D01*
X008262Y002382D01*
X008271Y002366D01*
X008277Y002349D01*
X008279Y002330D01*
X008277Y002311D01*
X008271Y002294D01*
X008262Y002278D01*
X008250Y002264D01*
X008235Y002253D01*
X008218Y002245D01*
X008199Y002241D01*
X008181Y002241D01*
X008162Y002245D01*
X008146Y002253D01*
X008130Y002264D01*
X008118Y002278D01*
X008109Y002294D01*
X008103Y002311D01*
X008101Y002330D01*
X009190Y005080D02*
X009190Y008580D01*
X015190Y008580D01*
X015190Y005080D01*
X009190Y005080D01*
X009190Y008580D02*
X009190Y016580D01*
X015190Y016580D01*
X015190Y008580D01*
X015654Y016866D02*
X015935Y016866D01*
X016028Y016959D01*
X016028Y017333D01*
X015935Y017426D01*
X015654Y017426D01*
X015654Y016866D01*
X016262Y016866D02*
X016449Y016866D01*
X016355Y016866D02*
X016355Y017426D01*
X016262Y017426D02*
X016449Y017426D01*
X016667Y017333D02*
X016667Y016959D01*
X016761Y016866D01*
X016947Y016866D01*
X017041Y016959D01*
X017041Y017146D01*
X016854Y017146D01*
X016667Y017333D02*
X016761Y017426D01*
X016947Y017426D01*
X017041Y017333D01*
X017275Y017426D02*
X017462Y017426D01*
X017368Y017426D02*
X017368Y016866D01*
X017275Y016866D02*
X017462Y016866D01*
X017867Y016866D02*
X017867Y017426D01*
X017680Y017426D02*
X018054Y017426D01*
X018288Y017240D02*
X018475Y017426D01*
X018661Y017240D01*
X018661Y016866D01*
X018895Y016866D02*
X019269Y016866D01*
X018895Y016866D02*
X018895Y017426D01*
X018288Y017240D02*
X018288Y016866D01*
X018288Y017146D02*
X018661Y017146D01*
D11*
X019540Y017080D02*
X022990Y017080D01*
X023440Y017530D01*
X023840Y017480D02*
X023990Y017630D01*
X024340Y017530D01*
X024390Y017530D01*
X024190Y017730D01*
X023990Y017530D01*
X023990Y017630D02*
X024190Y017830D01*
X024540Y017480D01*
X023840Y017480D01*
X024890Y017830D02*
X025240Y017480D01*
X025590Y017830D01*
X024890Y017830D01*
X025040Y017780D02*
X025440Y017780D01*
X025240Y017580D01*
X025090Y017730D01*
X025290Y017730D01*
X025240Y017680D02*
X025240Y017630D01*
X023940Y012830D02*
X024440Y012580D01*
X023940Y012330D01*
X023940Y012830D01*
X015340Y017080D02*
X011890Y017080D01*
X011440Y017530D01*
D12*
X011488Y017834D02*
X011325Y017997D01*
X011815Y017997D01*
X011815Y017834D02*
X011815Y018161D01*
X011733Y018349D02*
X011815Y018431D01*
X011815Y018595D01*
X011733Y018676D01*
X011652Y018676D01*
X011570Y018595D01*
X011570Y018513D01*
X011570Y018595D02*
X011488Y018676D01*
X011406Y018676D01*
X011325Y018595D01*
X011325Y018431D01*
X011406Y018349D01*
X012325Y018431D02*
X012406Y018349D01*
X012325Y018431D02*
X012325Y018595D01*
X012406Y018676D01*
X012488Y018676D01*
X012815Y018349D01*
X012815Y018676D01*
X013325Y018513D02*
X013488Y018349D01*
X013325Y018513D02*
X013815Y018513D01*
X013815Y018676D02*
X013815Y018349D01*
X013815Y018161D02*
X013815Y017834D01*
X013815Y017997D02*
X013325Y017997D01*
X013488Y017834D01*
X012815Y017834D02*
X012815Y018161D01*
X012815Y017997D02*
X012325Y017997D01*
X012488Y017834D01*
X014325Y017997D02*
X014815Y017997D01*
X014815Y017834D02*
X014815Y018161D01*
X014733Y018349D02*
X014406Y018676D01*
X014733Y018676D01*
X014815Y018595D01*
X014815Y018431D01*
X014733Y018349D01*
X014406Y018349D01*
X014325Y018431D01*
X014325Y018595D01*
X014406Y018676D01*
X015325Y018595D02*
X015325Y018431D01*
X015406Y018349D01*
X015488Y018349D01*
X015570Y018431D01*
X015570Y018676D01*
X015733Y018676D02*
X015406Y018676D01*
X015325Y018595D01*
X015733Y018676D02*
X015815Y018595D01*
X015815Y018431D01*
X015733Y018349D01*
X016325Y018431D02*
X016325Y018595D01*
X016406Y018676D01*
X016488Y018676D01*
X016570Y018595D01*
X016570Y018431D01*
X016488Y018349D01*
X016406Y018349D01*
X016325Y018431D01*
X016570Y018431D02*
X016652Y018349D01*
X016733Y018349D01*
X016815Y018431D01*
X016815Y018595D01*
X016733Y018676D01*
X016652Y018676D01*
X016570Y018595D01*
X017975Y018676D02*
X017975Y018349D01*
X017975Y018676D02*
X018056Y018676D01*
X018383Y018349D01*
X018465Y018349D01*
X018925Y018676D02*
X019006Y018513D01*
X019170Y018349D01*
X019170Y018595D01*
X019252Y018676D01*
X019333Y018676D01*
X019415Y018595D01*
X019415Y018431D01*
X019333Y018349D01*
X019170Y018349D01*
X019925Y018349D02*
X020170Y018349D01*
X020088Y018513D01*
X020088Y018595D01*
X020170Y018676D01*
X020333Y018676D01*
X020415Y018595D01*
X020415Y018431D01*
X020333Y018349D01*
X019925Y018349D02*
X019925Y018676D01*
X020925Y018595D02*
X021170Y018349D01*
X021170Y018676D01*
X021415Y018595D02*
X020925Y018595D01*
X021925Y018595D02*
X021925Y018431D01*
X022006Y018349D01*
X022170Y018513D02*
X022170Y018595D01*
X022252Y018676D01*
X022333Y018676D01*
X022415Y018595D01*
X022415Y018431D01*
X022333Y018349D01*
X022170Y018595D02*
X022088Y018676D01*
X022006Y018676D01*
X021925Y018595D01*
X022925Y018595D02*
X022925Y018431D01*
X023006Y018349D01*
X022925Y018595D02*
X023006Y018676D01*
X023088Y018676D01*
X023415Y018349D01*
X023415Y018676D01*
X023925Y018513D02*
X024415Y018513D01*
X024415Y018676D02*
X024415Y018349D01*
X024088Y018349D02*
X023925Y018513D01*
X024925Y018431D02*
X024925Y018595D01*
X025006Y018676D01*
X025333Y018349D01*
X025415Y018431D01*
X025415Y018595D01*
X025333Y018676D01*
X025006Y018676D01*
X024925Y018431D02*
X025006Y018349D01*
X025333Y018349D01*
X014488Y017834D02*
X014325Y017997D01*
X004786Y009041D02*
X004459Y009041D01*
X004459Y008795D01*
X004622Y008877D01*
X004704Y008877D01*
X004786Y008795D01*
X004786Y008632D01*
X004704Y008550D01*
X004541Y008550D01*
X004459Y008632D01*
X004270Y008550D02*
X004270Y008877D01*
X004107Y009041D01*
X003943Y008877D01*
X003943Y008550D01*
X003943Y008795D02*
X004270Y008795D01*
X004107Y008041D02*
X004270Y007877D01*
X004270Y007550D01*
X004270Y007795D02*
X003943Y007795D01*
X003943Y007877D02*
X003943Y007550D01*
X004459Y007795D02*
X004786Y007795D01*
X004704Y007550D02*
X004704Y008041D01*
X004459Y007795D01*
X004107Y008041D02*
X003943Y007877D01*
X004107Y007051D02*
X004270Y006887D01*
X004270Y006560D01*
X004459Y006642D02*
X004541Y006560D01*
X004704Y006560D01*
X004786Y006642D01*
X004786Y006724D01*
X004704Y006805D01*
X004622Y006805D01*
X004704Y006805D02*
X004786Y006887D01*
X004786Y006969D01*
X004704Y007051D01*
X004541Y007051D01*
X004459Y006969D01*
X004270Y006805D02*
X003943Y006805D01*
X003943Y006887D02*
X004107Y007051D01*
X003943Y006887D02*
X003943Y006560D01*
X004107Y006041D02*
X004270Y005877D01*
X004270Y005550D01*
X004459Y005550D02*
X004786Y005877D01*
X004786Y005959D01*
X004704Y006041D01*
X004541Y006041D01*
X004459Y005959D01*
X004270Y005795D02*
X003943Y005795D01*
X003943Y005877D02*
X003943Y005550D01*
X004459Y005550D02*
X004786Y005550D01*
X004622Y005041D02*
X004622Y004550D01*
X004459Y004550D02*
X004786Y004550D01*
X004270Y004550D02*
X004270Y004877D01*
X004107Y005041D01*
X003943Y004877D01*
X003943Y004550D01*
X003943Y004795D02*
X004270Y004795D01*
X004459Y004877D02*
X004622Y005041D01*
X003943Y005877D02*
X004107Y006041D01*
X003388Y002676D02*
X003061Y002676D01*
X002979Y002594D01*
X002979Y002349D01*
X003470Y002349D01*
X003470Y002594D01*
X003388Y002676D01*
X002470Y002594D02*
X002388Y002676D01*
X002470Y002594D02*
X002470Y002431D01*
X002388Y002349D01*
X002061Y002349D01*
X001979Y002431D01*
X001979Y002594D01*
X002061Y002676D01*
X001470Y002594D02*
X001470Y002349D01*
X000979Y002349D01*
X000979Y002594D01*
X001061Y002676D01*
X001388Y002676D01*
X001470Y002594D01*
X001470Y002160D02*
X000979Y002160D01*
X000979Y001833D02*
X001470Y002160D01*
X001470Y001833D02*
X000979Y001833D01*
X001061Y001644D02*
X000979Y001563D01*
X000979Y001399D01*
X001061Y001318D01*
X001388Y001318D01*
X001470Y001399D01*
X001470Y001563D01*
X001388Y001644D01*
X001225Y001644D01*
X001225Y001481D01*
X001979Y001318D02*
X002306Y001318D01*
X002470Y001481D01*
X002306Y001644D01*
X001979Y001644D01*
X002061Y001833D02*
X002388Y001833D01*
X002470Y001915D01*
X002470Y002078D01*
X002388Y002160D01*
X002061Y002160D02*
X001979Y002078D01*
X001979Y001915D01*
X002061Y001833D01*
X014915Y003365D02*
X015160Y003365D01*
X015078Y003528D01*
X015078Y003610D01*
X015160Y003692D01*
X015323Y003692D01*
X015405Y003610D01*
X015405Y003447D01*
X015323Y003365D01*
X014915Y003365D02*
X014915Y003692D01*
X014915Y003881D02*
X015242Y003881D01*
X015405Y004044D01*
X015242Y004208D01*
X014915Y004208D01*
X015920Y004211D02*
X016410Y004211D01*
X015920Y003884D01*
X016410Y003884D01*
X016328Y003695D02*
X016165Y003695D01*
X016165Y003532D01*
X016328Y003695D02*
X016410Y003614D01*
X016410Y003450D01*
X016328Y003368D01*
X016002Y003368D01*
X015920Y003450D01*
X015920Y003614D01*
X016002Y003695D01*
X016970Y003614D02*
X016970Y003450D01*
X017052Y003368D01*
X017378Y003368D01*
X017460Y003450D01*
X017460Y003614D01*
X017378Y003695D01*
X017215Y003695D01*
X017215Y003532D01*
X017052Y003695D02*
X016970Y003614D01*
X016970Y003884D02*
X017460Y004211D01*
X016970Y004211D01*
X016970Y004400D02*
X016970Y004645D01*
X017052Y004727D01*
X017378Y004727D01*
X017460Y004645D01*
X017460Y004400D01*
X016970Y004400D01*
X016410Y004400D02*
X016410Y004645D01*
X016328Y004727D01*
X016002Y004727D01*
X015920Y004645D01*
X015920Y004400D01*
X016410Y004400D01*
X016970Y003884D02*
X017460Y003884D01*
X017965Y003912D02*
X018455Y003912D01*
X018455Y003831D02*
X018455Y003994D01*
X018455Y004174D02*
X017965Y004174D01*
X018455Y004501D01*
X017965Y004501D01*
X017965Y003994D02*
X017965Y003831D01*
X017965Y003642D02*
X018292Y003642D01*
X018455Y003478D01*
X018292Y003315D01*
X017965Y003315D01*
X020910Y003529D02*
X021073Y003692D01*
X021400Y003692D01*
X021400Y003881D02*
X021400Y004208D01*
X021400Y004045D02*
X020910Y004045D01*
X021073Y003881D01*
X021155Y003692D02*
X021155Y003366D01*
X021073Y003366D02*
X020910Y003529D01*
X021073Y003366D02*
X021400Y003366D01*
X021910Y003529D02*
X022073Y003692D01*
X022400Y003692D01*
X022400Y003881D02*
X022073Y004208D01*
X021992Y004208D01*
X021910Y004126D01*
X021910Y003963D01*
X021992Y003881D01*
X022155Y003692D02*
X022155Y003366D01*
X022073Y003366D02*
X022400Y003366D01*
X022073Y003366D02*
X021910Y003529D01*
X022400Y003881D02*
X022400Y004208D01*
X022920Y004126D02*
X023002Y004208D01*
X023083Y004208D01*
X023165Y004126D01*
X023247Y004208D01*
X023328Y004208D01*
X023410Y004126D01*
X023410Y003963D01*
X023328Y003881D01*
X023410Y003692D02*
X023083Y003692D01*
X022920Y003529D01*
X023083Y003366D01*
X023410Y003366D01*
X023165Y003366D02*
X023165Y003692D01*
X023002Y003881D02*
X022920Y003963D01*
X022920Y004126D01*
X023165Y004126D02*
X023165Y004045D01*
X023910Y004126D02*
X024155Y003881D01*
X024155Y004208D01*
X024400Y004126D02*
X023910Y004126D01*
X024073Y003692D02*
X023910Y003529D01*
X024073Y003366D01*
X024400Y003366D01*
X024155Y003366D02*
X024155Y003692D01*
X024073Y003692D02*
X024400Y003692D01*
X024910Y003529D02*
X025073Y003366D01*
X025400Y003366D01*
X025155Y003366D02*
X025155Y003692D01*
X025073Y003692D02*
X025400Y003692D01*
X025318Y003881D02*
X025400Y003963D01*
X025400Y004126D01*
X025318Y004208D01*
X025155Y004208D01*
X025073Y004126D01*
X025073Y004045D01*
X025155Y003881D01*
X024910Y003881D01*
X024910Y004208D01*
X025073Y003692D02*
X024910Y003529D01*
D13*
X024940Y003080D02*
X024690Y002830D01*
X024690Y002330D01*
X024940Y002080D01*
X025440Y002080D01*
X025690Y002330D01*
X025690Y002830D01*
X025440Y003080D01*
X024940Y003080D01*
X024690Y002830D02*
X024440Y003080D01*
X023940Y003080D01*
X023690Y002830D01*
X023690Y002330D01*
X023940Y002080D01*
X024440Y002080D01*
X024690Y002330D01*
X024440Y002080D02*
X024690Y001830D01*
X024940Y002080D01*
X025440Y002080D01*
X025690Y001830D01*
X025690Y001330D01*
X025440Y001080D01*
X024940Y001080D01*
X024690Y001330D01*
X024440Y001080D01*
X023940Y001080D01*
X023690Y001330D01*
X023440Y001080D01*
X022940Y001080D01*
X022690Y001330D01*
X022440Y001080D01*
X021940Y001080D01*
X021690Y001330D01*
X021440Y001080D01*
X020940Y001080D01*
X020690Y001330D01*
X020440Y001080D01*
X019940Y001080D01*
X019690Y001330D01*
X019690Y001830D01*
X019940Y002080D01*
X020440Y002080D01*
X020690Y002330D01*
X020940Y002080D01*
X021440Y002080D01*
X021690Y002330D01*
X021690Y002830D01*
X021440Y003080D01*
X020940Y003080D01*
X020690Y002830D01*
X020690Y002330D01*
X020440Y002080D02*
X020690Y001830D01*
X020940Y002080D01*
X021440Y002080D01*
X021690Y001830D01*
X021690Y001330D01*
X021690Y001830D02*
X021940Y002080D01*
X021690Y002330D01*
X021940Y002080D02*
X022440Y002080D01*
X022690Y002330D01*
X022940Y002080D01*
X023440Y002080D01*
X023690Y002330D01*
X023440Y002080D02*
X023690Y001830D01*
X023940Y002080D01*
X024440Y002080D01*
X024690Y001830D02*
X024690Y001330D01*
X023690Y001330D02*
X023690Y001830D01*
X023440Y002080D02*
X022940Y002080D01*
X022690Y001830D01*
X022690Y001330D01*
X022690Y001830D02*
X022440Y002080D01*
X021940Y002080D01*
X022690Y002330D02*
X022690Y002830D01*
X022940Y003080D01*
X023440Y003080D01*
X023690Y002830D01*
X022690Y002830D02*
X022440Y003080D01*
X021940Y003080D01*
X021690Y002830D01*
X020690Y002830D02*
X020440Y003080D01*
X019940Y003080D01*
X019690Y002830D01*
X019690Y002330D01*
X019940Y002080D01*
X020440Y002080D01*
X020690Y001830D02*
X020690Y001330D01*
X018690Y001330D02*
X018440Y001080D01*
X017940Y001080D01*
X017690Y001330D01*
X017440Y001080D01*
X016940Y001080D01*
X016690Y001330D01*
X016440Y001080D01*
X015940Y001080D01*
X015690Y001330D01*
X015440Y001080D01*
X014940Y001080D01*
X014690Y001330D01*
X014440Y001080D01*
X013940Y001080D01*
X013690Y001330D01*
X013440Y001080D01*
X012940Y001080D01*
X012690Y001330D01*
X012440Y001080D01*
X011940Y001080D01*
X011690Y001330D01*
X011440Y001080D01*
X010940Y001080D01*
X010690Y001330D01*
X010690Y001830D01*
X010940Y002080D01*
X011440Y002080D01*
X011690Y002330D01*
X011940Y002080D01*
X012440Y002080D01*
X012690Y002330D01*
X012690Y002830D01*
X012440Y003080D01*
X011940Y003080D01*
X011690Y002830D01*
X011690Y002330D01*
X011440Y002080D02*
X011690Y001830D01*
X011940Y002080D01*
X012440Y002080D01*
X012690Y001830D01*
X012690Y001330D01*
X012690Y001830D02*
X012940Y002080D01*
X012690Y002330D01*
X012940Y002080D02*
X013440Y002080D01*
X013690Y002330D01*
X013940Y002080D01*
X014440Y002080D01*
X014690Y002330D01*
X014940Y002080D01*
X015440Y002080D01*
X015690Y002330D01*
X015690Y002830D01*
X015440Y003080D01*
X014940Y003080D01*
X014690Y002830D01*
X014690Y002330D01*
X014440Y002080D02*
X014690Y001830D01*
X014940Y002080D01*
X015440Y002080D01*
X015690Y001830D01*
X015690Y001330D01*
X015690Y001830D02*
X015940Y002080D01*
X015690Y002330D01*
X015940Y002080D02*
X016440Y002080D01*
X016690Y002330D01*
X016940Y002080D01*
X017440Y002080D01*
X017690Y002330D01*
X017940Y002080D01*
X018440Y002080D01*
X018690Y002330D01*
X018690Y002830D01*
X018440Y003080D01*
X017940Y003080D01*
X017690Y002830D01*
X017690Y002330D01*
X017440Y002080D02*
X017690Y001830D01*
X017940Y002080D01*
X018440Y002080D01*
X018690Y001830D01*
X018690Y001330D01*
X017690Y001330D02*
X017690Y001830D01*
X017440Y002080D02*
X016940Y002080D01*
X016690Y001830D01*
X016690Y001330D01*
X016690Y001830D02*
X016440Y002080D01*
X015940Y002080D01*
X016690Y002330D02*
X016690Y002830D01*
X016940Y003080D01*
X017440Y003080D01*
X017690Y002830D01*
X016690Y002830D02*
X016440Y003080D01*
X015940Y003080D01*
X015690Y002830D01*
X014690Y002830D02*
X014440Y003080D01*
X013940Y003080D01*
X013690Y002830D01*
X013690Y002330D01*
X013440Y002080D02*
X013690Y001830D01*
X013940Y002080D01*
X014440Y002080D01*
X014690Y001830D02*
X014690Y001330D01*
X013690Y001330D02*
X013690Y001830D01*
X013440Y002080D02*
X012940Y002080D01*
X011690Y001830D02*
X011690Y001330D01*
X011440Y002080D02*
X010940Y002080D01*
X010690Y002330D01*
X010690Y002830D01*
X010940Y003080D01*
X011440Y003080D01*
X011690Y002830D01*
X011910Y003360D02*
X011910Y003527D01*
X011910Y003443D02*
X012410Y003443D01*
X012410Y003360D02*
X012410Y003527D01*
X012327Y003704D02*
X012410Y003787D01*
X012410Y003954D01*
X012327Y004037D01*
X011993Y004037D01*
X011910Y003954D01*
X011910Y003787D01*
X011993Y003704D01*
X012327Y003704D01*
X012410Y004219D02*
X011910Y004219D01*
X011910Y004470D01*
X011993Y004553D01*
X012160Y004553D01*
X012243Y004470D01*
X012243Y004219D01*
X012243Y004386D02*
X012410Y004553D01*
X012410Y004735D02*
X012410Y005069D01*
X012410Y005251D02*
X011910Y005251D01*
X011910Y005584D01*
X012160Y005417D02*
X012160Y005251D01*
X011910Y005069D02*
X011910Y004735D01*
X012410Y004735D01*
X012160Y004735D02*
X012160Y004902D01*
X012910Y004907D02*
X012910Y005241D01*
X012910Y005423D02*
X012910Y005756D01*
X012910Y005589D02*
X013410Y005589D01*
X013410Y005241D02*
X013410Y004907D01*
X012910Y004907D01*
X012993Y004725D02*
X012910Y004641D01*
X012910Y004475D01*
X012993Y004391D01*
X013076Y004391D01*
X013160Y004475D01*
X013160Y004641D01*
X013243Y004725D01*
X013327Y004725D01*
X013410Y004641D01*
X013410Y004475D01*
X013327Y004391D01*
X013410Y004209D02*
X013410Y003876D01*
X012910Y003876D01*
X012910Y004209D01*
X013160Y004042D02*
X013160Y003876D01*
X013160Y003694D02*
X013243Y003610D01*
X013243Y003360D01*
X013243Y003527D02*
X013410Y003694D01*
X013160Y003694D02*
X012993Y003694D01*
X012910Y003610D01*
X012910Y003360D01*
X013410Y003360D01*
X013440Y003080D02*
X012940Y003080D01*
X012690Y002830D01*
X013440Y003080D02*
X013690Y002830D01*
X013993Y003360D02*
X013910Y003443D01*
X013910Y003610D01*
X013993Y003694D01*
X014076Y003694D01*
X014160Y003610D01*
X014243Y003694D01*
X014327Y003694D01*
X014410Y003610D01*
X014410Y003443D01*
X014327Y003360D01*
X014160Y003527D02*
X014160Y003610D01*
X014243Y003876D02*
X013910Y003876D01*
X014243Y003876D02*
X014410Y004042D01*
X014243Y004209D01*
X013910Y004209D01*
X013993Y004391D02*
X013910Y004475D01*
X013910Y004641D01*
X013993Y004725D01*
X014076Y004725D01*
X014160Y004641D01*
X014243Y004725D01*
X014327Y004725D01*
X014410Y004641D01*
X014410Y004475D01*
X014327Y004391D01*
X014160Y004558D02*
X014160Y004641D01*
X013160Y004907D02*
X013160Y005074D01*
X019915Y004126D02*
X019998Y004210D01*
X020332Y003876D01*
X020415Y003960D01*
X020415Y004126D01*
X020332Y004210D01*
X019998Y004210D01*
X019915Y004126D02*
X019915Y003960D01*
X019998Y003876D01*
X020332Y003876D01*
X020415Y003694D02*
X020082Y003694D01*
X019915Y003527D01*
X020082Y003361D01*
X020415Y003361D01*
X020165Y003361D02*
X020165Y003694D01*
X024990Y010080D02*
X026490Y010080D01*
X026740Y010330D01*
X026740Y010830D01*
X026490Y011080D01*
X024990Y011080D01*
X024740Y010830D01*
X024740Y010330D01*
X024990Y010080D01*
X024990Y011080D02*
X024740Y011330D01*
X024740Y011830D01*
X024990Y012080D01*
X026490Y012080D01*
X026740Y011830D01*
X026740Y011330D01*
X026490Y011080D01*
X026490Y012080D02*
X026740Y012330D01*
X026740Y012830D01*
X026490Y013080D01*
X024990Y013080D01*
X024740Y012830D01*
X024740Y012330D01*
X024990Y012080D01*
X021690Y014080D02*
X021692Y014143D01*
X021698Y014205D01*
X021708Y014267D01*
X021721Y014329D01*
X021739Y014389D01*
X021760Y014448D01*
X021785Y014506D01*
X021814Y014562D01*
X021846Y014616D01*
X021881Y014668D01*
X021919Y014717D01*
X021961Y014765D01*
X022005Y014809D01*
X022053Y014851D01*
X022102Y014889D01*
X022154Y014924D01*
X022208Y014956D01*
X022264Y014985D01*
X022322Y015010D01*
X022381Y015031D01*
X022441Y015049D01*
X022503Y015062D01*
X022565Y015072D01*
X022627Y015078D01*
X022690Y015080D01*
X022753Y015078D01*
X022815Y015072D01*
X022877Y015062D01*
X022939Y015049D01*
X022999Y015031D01*
X023058Y015010D01*
X023116Y014985D01*
X023172Y014956D01*
X023226Y014924D01*
X023278Y014889D01*
X023327Y014851D01*
X023375Y014809D01*
X023419Y014765D01*
X023461Y014717D01*
X023499Y014668D01*
X023534Y014616D01*
X023566Y014562D01*
X023595Y014506D01*
X023620Y014448D01*
X023641Y014389D01*
X023659Y014329D01*
X023672Y014267D01*
X023682Y014205D01*
X023688Y014143D01*
X023690Y014080D01*
X023688Y014017D01*
X023682Y013955D01*
X023672Y013893D01*
X023659Y013831D01*
X023641Y013771D01*
X023620Y013712D01*
X023595Y013654D01*
X023566Y013598D01*
X023534Y013544D01*
X023499Y013492D01*
X023461Y013443D01*
X023419Y013395D01*
X023375Y013351D01*
X023327Y013309D01*
X023278Y013271D01*
X023226Y013236D01*
X023172Y013204D01*
X023116Y013175D01*
X023058Y013150D01*
X022999Y013129D01*
X022939Y013111D01*
X022877Y013098D01*
X022815Y013088D01*
X022753Y013082D01*
X022690Y013080D01*
X022627Y013082D01*
X022565Y013088D01*
X022503Y013098D01*
X022441Y013111D01*
X022381Y013129D01*
X022322Y013150D01*
X022264Y013175D01*
X022208Y013204D01*
X022154Y013236D01*
X022102Y013271D01*
X022053Y013309D01*
X022005Y013351D01*
X021961Y013395D01*
X021919Y013443D01*
X021881Y013492D01*
X021846Y013544D01*
X021814Y013598D01*
X021785Y013654D01*
X021760Y013712D01*
X021739Y013771D01*
X021721Y013831D01*
X021708Y013893D01*
X021698Y013955D01*
X021692Y014017D01*
X021690Y014080D01*
X018690Y014080D02*
X018692Y014143D01*
X018698Y014205D01*
X018708Y014267D01*
X018721Y014329D01*
X018739Y014389D01*
X018760Y014448D01*
X018785Y014506D01*
X018814Y014562D01*
X018846Y014616D01*
X018881Y014668D01*
X018919Y014717D01*
X018961Y014765D01*
X019005Y014809D01*
X019053Y014851D01*
X019102Y014889D01*
X019154Y014924D01*
X019208Y014956D01*
X019264Y014985D01*
X019322Y015010D01*
X019381Y015031D01*
X019441Y015049D01*
X019503Y015062D01*
X019565Y015072D01*
X019627Y015078D01*
X019690Y015080D01*
X019753Y015078D01*
X019815Y015072D01*
X019877Y015062D01*
X019939Y015049D01*
X019999Y015031D01*
X020058Y015010D01*
X020116Y014985D01*
X020172Y014956D01*
X020226Y014924D01*
X020278Y014889D01*
X020327Y014851D01*
X020375Y014809D01*
X020419Y014765D01*
X020461Y014717D01*
X020499Y014668D01*
X020534Y014616D01*
X020566Y014562D01*
X020595Y014506D01*
X020620Y014448D01*
X020641Y014389D01*
X020659Y014329D01*
X020672Y014267D01*
X020682Y014205D01*
X020688Y014143D01*
X020690Y014080D01*
X020688Y014017D01*
X020682Y013955D01*
X020672Y013893D01*
X020659Y013831D01*
X020641Y013771D01*
X020620Y013712D01*
X020595Y013654D01*
X020566Y013598D01*
X020534Y013544D01*
X020499Y013492D01*
X020461Y013443D01*
X020419Y013395D01*
X020375Y013351D01*
X020327Y013309D01*
X020278Y013271D01*
X020226Y013236D01*
X020172Y013204D01*
X020116Y013175D01*
X020058Y013150D01*
X019999Y013129D01*
X019939Y013111D01*
X019877Y013098D01*
X019815Y013088D01*
X019753Y013082D01*
X019690Y013080D01*
X019627Y013082D01*
X019565Y013088D01*
X019503Y013098D01*
X019441Y013111D01*
X019381Y013129D01*
X019322Y013150D01*
X019264Y013175D01*
X019208Y013204D01*
X019154Y013236D01*
X019102Y013271D01*
X019053Y013309D01*
X019005Y013351D01*
X018961Y013395D01*
X018919Y013443D01*
X018881Y013492D01*
X018846Y013544D01*
X018814Y013598D01*
X018785Y013654D01*
X018760Y013712D01*
X018739Y013771D01*
X018721Y013831D01*
X018708Y013893D01*
X018698Y013955D01*
X018692Y014017D01*
X018690Y014080D01*
X023958Y016215D02*
X023958Y016548D01*
X023958Y016382D02*
X024458Y016382D01*
X024458Y016730D02*
X023958Y017064D01*
X023958Y016730D02*
X024458Y017064D01*
X024958Y017064D02*
X025458Y016730D01*
X025458Y016548D02*
X025291Y016382D01*
X025291Y016465D02*
X025291Y016215D01*
X025458Y016215D02*
X024958Y016215D01*
X024958Y016465D01*
X025041Y016548D01*
X025208Y016548D01*
X025291Y016465D01*
X024958Y016730D02*
X025458Y017064D01*
X025440Y019080D02*
X024940Y019080D01*
X024690Y019330D01*
X024440Y019080D01*
X023940Y019080D01*
X023690Y019330D01*
X023690Y019830D01*
X023940Y020080D01*
X024440Y020080D01*
X024690Y019830D01*
X024940Y020080D01*
X025440Y020080D01*
X025690Y019830D01*
X025690Y019330D01*
X025440Y019080D01*
X024690Y019330D02*
X024690Y019830D01*
X024440Y020080D02*
X023940Y020080D01*
X023690Y020330D01*
X023690Y020830D01*
X023940Y021080D01*
X024440Y021080D01*
X024690Y020830D01*
X024940Y021080D01*
X025440Y021080D01*
X025690Y020830D01*
X025690Y020330D01*
X025440Y020080D01*
X024940Y020080D01*
X024690Y020330D01*
X024440Y020080D01*
X024690Y020330D02*
X024690Y020830D01*
X023690Y020830D02*
X023440Y021080D01*
X022940Y021080D01*
X022690Y020830D01*
X022440Y021080D01*
X021940Y021080D01*
X021690Y020830D01*
X021440Y021080D01*
X020940Y021080D01*
X020690Y020830D01*
X020690Y020330D01*
X020940Y020080D01*
X021440Y020080D01*
X021690Y019830D01*
X021940Y020080D01*
X022440Y020080D01*
X022690Y019830D01*
X022940Y020080D01*
X023440Y020080D01*
X023690Y019830D01*
X023440Y020080D02*
X022940Y020080D01*
X022690Y020330D01*
X022440Y020080D01*
X021940Y020080D01*
X021690Y020330D01*
X021440Y020080D01*
X020940Y020080D01*
X020690Y019830D01*
X020690Y019330D01*
X020940Y019080D01*
X021440Y019080D01*
X021690Y019330D01*
X021690Y019830D01*
X021690Y020330D02*
X021690Y020830D01*
X020690Y020830D02*
X020440Y021080D01*
X019940Y021080D01*
X019690Y020830D01*
X019440Y021080D01*
X018940Y021080D01*
X018690Y020830D01*
X018440Y021080D01*
X017940Y021080D01*
X017690Y020830D01*
X017690Y020330D01*
X017940Y020080D01*
X018440Y020080D01*
X018690Y019830D01*
X018940Y020080D01*
X019440Y020080D01*
X019690Y019830D01*
X019940Y020080D01*
X020440Y020080D01*
X020690Y019830D01*
X020440Y020080D02*
X019940Y020080D01*
X019690Y020330D01*
X019440Y020080D01*
X018940Y020080D01*
X018690Y020330D01*
X018440Y020080D01*
X017940Y020080D01*
X017690Y019830D01*
X017690Y019330D01*
X017940Y019080D01*
X018440Y019080D01*
X018690Y019330D01*
X018690Y019830D01*
X018690Y020330D02*
X018690Y020830D01*
X019690Y020830D02*
X019690Y020330D01*
X019690Y019830D02*
X019690Y019330D01*
X019440Y019080D01*
X018940Y019080D01*
X018690Y019330D01*
X019690Y019330D02*
X019940Y019080D01*
X020440Y019080D01*
X020690Y019330D01*
X021690Y019330D02*
X021940Y019080D01*
X022440Y019080D01*
X022690Y019330D01*
X022690Y019830D01*
X022690Y020330D02*
X022690Y020830D01*
X023440Y020080D02*
X023690Y020330D01*
X023690Y019330D02*
X023440Y019080D01*
X022940Y019080D01*
X022690Y019330D01*
X020690Y020330D02*
X020440Y020080D01*
X017090Y019830D02*
X017090Y019330D01*
X016840Y019080D01*
X016340Y019080D01*
X016090Y019330D01*
X015840Y019080D01*
X015340Y019080D01*
X015090Y019330D01*
X015090Y019830D01*
X015340Y020080D01*
X015840Y020080D01*
X016090Y019830D01*
X016340Y020080D01*
X016840Y020080D01*
X017090Y019830D01*
X016840Y020080D02*
X017090Y020330D01*
X017090Y020830D01*
X016840Y021080D01*
X016340Y021080D01*
X016090Y020830D01*
X015840Y021080D01*
X015340Y021080D01*
X015090Y020830D01*
X015090Y020330D01*
X015340Y020080D01*
X015840Y020080D01*
X016090Y020330D01*
X016090Y020830D01*
X016090Y020330D02*
X016340Y020080D01*
X016840Y020080D01*
X016090Y019830D02*
X016090Y019330D01*
X015090Y019330D02*
X014840Y019080D01*
X014340Y019080D01*
X014090Y019330D01*
X013840Y019080D01*
X013340Y019080D01*
X013090Y019330D01*
X012840Y019080D01*
X012340Y019080D01*
X012090Y019330D01*
X012090Y019830D01*
X012340Y020080D01*
X012840Y020080D01*
X013090Y019830D01*
X013340Y020080D01*
X013840Y020080D01*
X014090Y019830D01*
X014340Y020080D01*
X014840Y020080D01*
X015090Y019830D01*
X014840Y020080D02*
X014340Y020080D01*
X014090Y020330D01*
X013840Y020080D01*
X013340Y020080D01*
X013090Y020330D01*
X012840Y020080D01*
X012340Y020080D01*
X012090Y020330D01*
X012090Y020830D01*
X012340Y021080D01*
X012840Y021080D01*
X013090Y020830D01*
X013340Y021080D01*
X013840Y021080D01*
X014090Y020830D01*
X014340Y021080D01*
X014840Y021080D01*
X015090Y020830D01*
X015090Y020330D02*
X014840Y020080D01*
X014090Y019830D02*
X014090Y019330D01*
X013090Y019330D02*
X013090Y019830D01*
X013090Y020330D02*
X013090Y020830D01*
X012090Y020830D02*
X011840Y021080D01*
X011340Y021080D01*
X011090Y020830D01*
X010840Y021080D01*
X010340Y021080D01*
X010090Y020830D01*
X009840Y021080D01*
X009340Y021080D01*
X009090Y020830D01*
X009090Y020330D01*
X009340Y020080D01*
X009840Y020080D01*
X010090Y019830D01*
X010340Y020080D01*
X010840Y020080D01*
X011090Y019830D01*
X011340Y020080D01*
X011840Y020080D01*
X012090Y019830D01*
X011840Y020080D02*
X011340Y020080D01*
X011090Y020330D01*
X010840Y020080D01*
X010340Y020080D01*
X010090Y020330D01*
X009840Y020080D01*
X009340Y020080D01*
X009090Y019830D01*
X009090Y019330D01*
X009340Y019080D01*
X009840Y019080D01*
X010090Y019330D01*
X010090Y019830D01*
X010090Y020330D02*
X010090Y020830D01*
X011090Y020830D02*
X011090Y020330D01*
X011090Y019830D02*
X011090Y019330D01*
X010840Y019080D01*
X010340Y019080D01*
X010090Y019330D01*
X011090Y019330D02*
X011340Y019080D01*
X011840Y019080D01*
X012090Y019330D01*
X011840Y020080D02*
X012090Y020330D01*
X014090Y020330D02*
X014090Y020830D01*
X010817Y018600D02*
X010734Y018683D01*
X010400Y018683D01*
X010317Y018600D01*
X010317Y018350D01*
X010817Y018350D01*
X010817Y018600D01*
X010817Y018168D02*
X010317Y018168D01*
X010317Y017834D02*
X010817Y018168D01*
X010817Y017834D02*
X010317Y017834D01*
X010400Y017652D02*
X010317Y017568D01*
X010317Y017402D01*
X010400Y017318D01*
X010734Y017318D01*
X010817Y017402D01*
X010817Y017568D01*
X010734Y017652D01*
X010567Y017652D01*
X010567Y017485D01*
X009812Y017318D02*
X009311Y017318D01*
X009311Y017568D01*
X009395Y017652D01*
X009562Y017652D01*
X009645Y017568D01*
X009645Y017318D01*
X009645Y017485D02*
X009812Y017652D01*
X009812Y017834D02*
X009311Y017834D01*
X009311Y018168D01*
X009311Y018350D02*
X009311Y018683D01*
X009562Y018516D02*
X009562Y018350D01*
X009812Y018350D02*
X009311Y018350D01*
X009812Y018168D02*
X009812Y017834D01*
X009562Y017834D02*
X009562Y018001D01*
X008812Y018084D02*
X008812Y017834D01*
X008311Y017834D01*
X008311Y018084D01*
X008395Y018168D01*
X008728Y018168D01*
X008812Y018084D01*
X008812Y018350D02*
X008478Y018350D01*
X008311Y018516D01*
X008478Y018683D01*
X008812Y018683D01*
X008562Y018683D02*
X008562Y018350D01*
X007802Y018350D02*
X007802Y018683D01*
X007802Y018350D02*
X007301Y018350D01*
X007385Y018168D02*
X007301Y018084D01*
X007301Y017917D01*
X007385Y017834D01*
X007718Y017834D01*
X007802Y017917D01*
X007802Y018084D01*
X007718Y018168D01*
X007718Y017652D02*
X007802Y017568D01*
X007802Y017402D01*
X007718Y017318D01*
X007552Y017402D02*
X007468Y017318D01*
X007385Y017318D01*
X007301Y017402D01*
X007301Y017568D01*
X007385Y017652D01*
X007552Y017568D02*
X007635Y017652D01*
X007718Y017652D01*
X007552Y017568D02*
X007552Y017402D01*
X008311Y017402D02*
X008395Y017318D01*
X008478Y017318D01*
X008562Y017402D01*
X008562Y017568D01*
X008645Y017652D01*
X008728Y017652D01*
X008812Y017568D01*
X008812Y017402D01*
X008728Y017318D01*
X008311Y017402D02*
X008311Y017568D01*
X008395Y017652D01*
X009311Y016969D02*
X009478Y017136D01*
X009812Y017136D01*
X009562Y017136D02*
X009562Y016803D01*
X009478Y016803D02*
X009311Y016969D01*
X009478Y016803D02*
X009812Y016803D01*
X008840Y019080D02*
X008340Y019080D01*
X008090Y019330D01*
X007840Y019080D01*
X007340Y019080D01*
X007090Y019330D01*
X007090Y019830D01*
X007340Y020080D01*
X007840Y020080D01*
X008090Y019830D01*
X008340Y020080D01*
X008840Y020080D01*
X009090Y019830D01*
X008840Y020080D02*
X008340Y020080D01*
X008090Y020330D01*
X007840Y020080D01*
X007340Y020080D01*
X007090Y020330D01*
X007090Y020830D01*
X007340Y021080D01*
X007840Y021080D01*
X008090Y020830D01*
X008340Y021080D01*
X008840Y021080D01*
X009090Y020830D01*
X009090Y020330D02*
X008840Y020080D01*
X008090Y019830D02*
X008090Y019330D01*
X008840Y019080D02*
X009090Y019330D01*
X008090Y020330D02*
X008090Y020830D01*
X005040Y014600D02*
X001840Y014600D01*
X001817Y014598D01*
X001794Y014593D01*
X001772Y014584D01*
X001752Y014571D01*
X001734Y014556D01*
X001719Y014538D01*
X001706Y014518D01*
X001697Y014496D01*
X001692Y014473D01*
X001690Y014450D01*
X001690Y014030D01*
X001690Y013630D01*
X001690Y013210D01*
X001692Y013187D01*
X001697Y013164D01*
X001706Y013142D01*
X001719Y013122D01*
X001734Y013104D01*
X001752Y013089D01*
X001772Y013076D01*
X001794Y013067D01*
X001817Y013062D01*
X001840Y013060D01*
X005040Y013060D01*
X005063Y013062D01*
X005086Y013067D01*
X005108Y013076D01*
X005128Y013089D01*
X005146Y013104D01*
X005161Y013122D01*
X005174Y013142D01*
X005183Y013164D01*
X005188Y013187D01*
X005190Y013210D01*
X005190Y014450D01*
X005188Y014473D01*
X005183Y014496D01*
X005174Y014518D01*
X005161Y014538D01*
X005146Y014556D01*
X005128Y014571D01*
X005108Y014584D01*
X005086Y014593D01*
X005063Y014598D01*
X005040Y014600D01*
X007090Y014010D02*
X007090Y013880D01*
X007440Y013880D01*
X007790Y013880D01*
X007790Y014010D01*
X007090Y014010D01*
X006040Y014080D02*
X006042Y014155D01*
X006048Y014229D01*
X006058Y014303D01*
X006072Y014376D01*
X006089Y014448D01*
X006111Y014520D01*
X006136Y014590D01*
X006165Y014658D01*
X006198Y014726D01*
X006234Y014791D01*
X006273Y014854D01*
X006316Y014915D01*
X006362Y014974D01*
X006411Y015030D01*
X006463Y015083D01*
X006518Y015134D01*
X006575Y015181D01*
X006635Y015226D01*
X006697Y015267D01*
X006762Y015305D01*
X006828Y015339D01*
X006896Y015370D01*
X006965Y015397D01*
X007036Y015420D01*
X007108Y015440D01*
X007181Y015456D01*
X007254Y015468D01*
X007328Y015476D01*
X007403Y015480D01*
X007477Y015480D01*
X007552Y015476D01*
X007626Y015468D01*
X007699Y015456D01*
X007772Y015440D01*
X007844Y015420D01*
X007915Y015397D01*
X007984Y015370D01*
X008052Y015339D01*
X008118Y015305D01*
X008183Y015267D01*
X008245Y015226D01*
X008305Y015181D01*
X008362Y015134D01*
X008417Y015083D01*
X008469Y015030D01*
X008518Y014974D01*
X008564Y014915D01*
X008607Y014854D01*
X008646Y014791D01*
X008682Y014726D01*
X008715Y014658D01*
X008744Y014590D01*
X008769Y014520D01*
X008791Y014448D01*
X008808Y014376D01*
X008822Y014303D01*
X008832Y014229D01*
X008838Y014155D01*
X008840Y014080D01*
X008838Y014005D01*
X008832Y013931D01*
X008822Y013857D01*
X008808Y013784D01*
X008791Y013712D01*
X008769Y013640D01*
X008744Y013570D01*
X008715Y013502D01*
X008682Y013434D01*
X008646Y013369D01*
X008607Y013306D01*
X008564Y013245D01*
X008518Y013186D01*
X008469Y013130D01*
X008417Y013077D01*
X008362Y013026D01*
X008305Y012979D01*
X008245Y012934D01*
X008183Y012893D01*
X008118Y012855D01*
X008052Y012821D01*
X007984Y012790D01*
X007915Y012763D01*
X007844Y012740D01*
X007772Y012720D01*
X007699Y012704D01*
X007626Y012692D01*
X007552Y012684D01*
X007477Y012680D01*
X007403Y012680D01*
X007328Y012684D01*
X007254Y012692D01*
X007181Y012704D01*
X007108Y012720D01*
X007036Y012740D01*
X006965Y012763D01*
X006896Y012790D01*
X006828Y012821D01*
X006762Y012855D01*
X006697Y012893D01*
X006635Y012934D01*
X006575Y012979D01*
X006518Y013026D01*
X006463Y013077D01*
X006411Y013130D01*
X006362Y013186D01*
X006316Y013245D01*
X006273Y013306D01*
X006234Y013369D01*
X006198Y013434D01*
X006165Y013502D01*
X006136Y013570D01*
X006111Y013640D01*
X006089Y013712D01*
X006072Y013784D01*
X006058Y013857D01*
X006048Y013931D01*
X006042Y014005D01*
X006040Y014080D01*
X007440Y013880D02*
X007440Y013680D01*
X007440Y013180D02*
X007440Y012880D01*
X007590Y013030D02*
X007290Y013030D01*
X007440Y014280D02*
X007440Y014480D01*
X001690Y014030D02*
X001717Y014028D01*
X001744Y014023D01*
X001770Y014013D01*
X001794Y014001D01*
X001816Y013985D01*
X001836Y013967D01*
X001853Y013945D01*
X001868Y013922D01*
X001878Y013897D01*
X001886Y013871D01*
X001890Y013844D01*
X001890Y013816D01*
X001886Y013789D01*
X001878Y013763D01*
X001868Y013738D01*
X001853Y013715D01*
X001836Y013693D01*
X001816Y013675D01*
X001794Y013659D01*
X001770Y013647D01*
X001744Y013637D01*
X001717Y013632D01*
X001690Y013630D01*
X004105Y004056D02*
X004272Y003889D01*
X004272Y003555D01*
X004454Y003639D02*
X004787Y003972D01*
X004787Y003639D01*
X004704Y003555D01*
X004537Y003555D01*
X004454Y003639D01*
X004454Y003972D01*
X004537Y004056D01*
X004704Y004056D01*
X004787Y003972D01*
X004272Y003805D02*
X003938Y003805D01*
X003938Y003889D02*
X004105Y004056D01*
X003938Y003889D02*
X003938Y003555D01*
D14*
X005060Y001580D02*
X005062Y001630D01*
X005068Y001680D01*
X005078Y001729D01*
X005092Y001777D01*
X005109Y001824D01*
X005130Y001869D01*
X005155Y001913D01*
X005183Y001954D01*
X005215Y001993D01*
X005249Y002030D01*
X005286Y002064D01*
X005326Y002094D01*
X005368Y002121D01*
X005412Y002145D01*
X005458Y002166D01*
X005505Y002182D01*
X005553Y002195D01*
X005603Y002204D01*
X005652Y002209D01*
X005703Y002210D01*
X005753Y002207D01*
X005802Y002200D01*
X005851Y002189D01*
X005899Y002174D01*
X005945Y002156D01*
X005990Y002134D01*
X006033Y002108D01*
X006074Y002079D01*
X006113Y002047D01*
X006149Y002012D01*
X006181Y001974D01*
X006211Y001934D01*
X006238Y001891D01*
X006261Y001847D01*
X006280Y001801D01*
X006296Y001753D01*
X006308Y001704D01*
X006316Y001655D01*
X006320Y001605D01*
X006320Y001555D01*
X006316Y001505D01*
X006308Y001456D01*
X006296Y001407D01*
X006280Y001359D01*
X006261Y001313D01*
X006238Y001269D01*
X006211Y001226D01*
X006181Y001186D01*
X006149Y001148D01*
X006113Y001113D01*
X006074Y001081D01*
X006033Y001052D01*
X005990Y001026D01*
X005945Y001004D01*
X005899Y000986D01*
X005851Y000971D01*
X005802Y000960D01*
X005753Y000953D01*
X005703Y000950D01*
X005652Y000951D01*
X005603Y000956D01*
X005553Y000965D01*
X005505Y000978D01*
X005458Y000994D01*
X005412Y001015D01*
X005368Y001039D01*
X005326Y001066D01*
X005286Y001096D01*
X005249Y001130D01*
X005215Y001167D01*
X005183Y001206D01*
X005155Y001247D01*
X005130Y001291D01*
X005109Y001336D01*
X005092Y001383D01*
X005078Y001431D01*
X005068Y001480D01*
X005062Y001530D01*
X005060Y001580D01*
X025560Y003580D02*
X025562Y003630D01*
X025568Y003680D01*
X025578Y003729D01*
X025592Y003777D01*
X025609Y003824D01*
X025630Y003869D01*
X025655Y003913D01*
X025683Y003954D01*
X025715Y003993D01*
X025749Y004030D01*
X025786Y004064D01*
X025826Y004094D01*
X025868Y004121D01*
X025912Y004145D01*
X025958Y004166D01*
X026005Y004182D01*
X026053Y004195D01*
X026103Y004204D01*
X026152Y004209D01*
X026203Y004210D01*
X026253Y004207D01*
X026302Y004200D01*
X026351Y004189D01*
X026399Y004174D01*
X026445Y004156D01*
X026490Y004134D01*
X026533Y004108D01*
X026574Y004079D01*
X026613Y004047D01*
X026649Y004012D01*
X026681Y003974D01*
X026711Y003934D01*
X026738Y003891D01*
X026761Y003847D01*
X026780Y003801D01*
X026796Y003753D01*
X026808Y003704D01*
X026816Y003655D01*
X026820Y003605D01*
X026820Y003555D01*
X026816Y003505D01*
X026808Y003456D01*
X026796Y003407D01*
X026780Y003359D01*
X026761Y003313D01*
X026738Y003269D01*
X026711Y003226D01*
X026681Y003186D01*
X026649Y003148D01*
X026613Y003113D01*
X026574Y003081D01*
X026533Y003052D01*
X026490Y003026D01*
X026445Y003004D01*
X026399Y002986D01*
X026351Y002971D01*
X026302Y002960D01*
X026253Y002953D01*
X026203Y002950D01*
X026152Y002951D01*
X026103Y002956D01*
X026053Y002965D01*
X026005Y002978D01*
X025958Y002994D01*
X025912Y003015D01*
X025868Y003039D01*
X025826Y003066D01*
X025786Y003096D01*
X025749Y003130D01*
X025715Y003167D01*
X025683Y003206D01*
X025655Y003247D01*
X025630Y003291D01*
X025609Y003336D01*
X025592Y003383D01*
X025578Y003431D01*
X025568Y003480D01*
X025562Y003530D01*
X025560Y003580D01*
X025560Y014580D02*
X025562Y014630D01*
X025568Y014680D01*
X025578Y014729D01*
X025592Y014777D01*
X025609Y014824D01*
X025630Y014869D01*
X025655Y014913D01*
X025683Y014954D01*
X025715Y014993D01*
X025749Y015030D01*
X025786Y015064D01*
X025826Y015094D01*
X025868Y015121D01*
X025912Y015145D01*
X025958Y015166D01*
X026005Y015182D01*
X026053Y015195D01*
X026103Y015204D01*
X026152Y015209D01*
X026203Y015210D01*
X026253Y015207D01*
X026302Y015200D01*
X026351Y015189D01*
X026399Y015174D01*
X026445Y015156D01*
X026490Y015134D01*
X026533Y015108D01*
X026574Y015079D01*
X026613Y015047D01*
X026649Y015012D01*
X026681Y014974D01*
X026711Y014934D01*
X026738Y014891D01*
X026761Y014847D01*
X026780Y014801D01*
X026796Y014753D01*
X026808Y014704D01*
X026816Y014655D01*
X026820Y014605D01*
X026820Y014555D01*
X026816Y014505D01*
X026808Y014456D01*
X026796Y014407D01*
X026780Y014359D01*
X026761Y014313D01*
X026738Y014269D01*
X026711Y014226D01*
X026681Y014186D01*
X026649Y014148D01*
X026613Y014113D01*
X026574Y014081D01*
X026533Y014052D01*
X026490Y014026D01*
X026445Y014004D01*
X026399Y013986D01*
X026351Y013971D01*
X026302Y013960D01*
X026253Y013953D01*
X026203Y013950D01*
X026152Y013951D01*
X026103Y013956D01*
X026053Y013965D01*
X026005Y013978D01*
X025958Y013994D01*
X025912Y014015D01*
X025868Y014039D01*
X025826Y014066D01*
X025786Y014096D01*
X025749Y014130D01*
X025715Y014167D01*
X025683Y014206D01*
X025655Y014247D01*
X025630Y014291D01*
X025609Y014336D01*
X025592Y014383D01*
X025578Y014431D01*
X025568Y014480D01*
X025562Y014530D01*
X025560Y014580D01*
X005560Y020580D02*
X005562Y020630D01*
X005568Y020680D01*
X005578Y020729D01*
X005592Y020777D01*
X005609Y020824D01*
X005630Y020869D01*
X005655Y020913D01*
X005683Y020954D01*
X005715Y020993D01*
X005749Y021030D01*
X005786Y021064D01*
X005826Y021094D01*
X005868Y021121D01*
X005912Y021145D01*
X005958Y021166D01*
X006005Y021182D01*
X006053Y021195D01*
X006103Y021204D01*
X006152Y021209D01*
X006203Y021210D01*
X006253Y021207D01*
X006302Y021200D01*
X006351Y021189D01*
X006399Y021174D01*
X006445Y021156D01*
X006490Y021134D01*
X006533Y021108D01*
X006574Y021079D01*
X006613Y021047D01*
X006649Y021012D01*
X006681Y020974D01*
X006711Y020934D01*
X006738Y020891D01*
X006761Y020847D01*
X006780Y020801D01*
X006796Y020753D01*
X006808Y020704D01*
X006816Y020655D01*
X006820Y020605D01*
X006820Y020555D01*
X006816Y020505D01*
X006808Y020456D01*
X006796Y020407D01*
X006780Y020359D01*
X006761Y020313D01*
X006738Y020269D01*
X006711Y020226D01*
X006681Y020186D01*
X006649Y020148D01*
X006613Y020113D01*
X006574Y020081D01*
X006533Y020052D01*
X006490Y020026D01*
X006445Y020004D01*
X006399Y019986D01*
X006351Y019971D01*
X006302Y019960D01*
X006253Y019953D01*
X006203Y019950D01*
X006152Y019951D01*
X006103Y019956D01*
X006053Y019965D01*
X006005Y019978D01*
X005958Y019994D01*
X005912Y020015D01*
X005868Y020039D01*
X005826Y020066D01*
X005786Y020096D01*
X005749Y020130D01*
X005715Y020167D01*
X005683Y020206D01*
X005655Y020247D01*
X005630Y020291D01*
X005609Y020336D01*
X005592Y020383D01*
X005578Y020431D01*
X005568Y020480D01*
X005562Y020530D01*
X005560Y020580D01*
D15*
X007440Y002330D03*
X007940Y001580D03*
D16*
X008716Y001535D02*
X008949Y001535D01*
X009084Y001535D02*
X009201Y001593D01*
X009259Y001593D01*
X009317Y001535D01*
X009317Y001418D01*
X009259Y001360D01*
X009142Y001360D01*
X009084Y001418D01*
X009084Y001535D02*
X009084Y001710D01*
X009317Y001710D01*
X009452Y001710D02*
X009452Y001477D01*
X009569Y001360D01*
X009686Y001477D01*
X009686Y001710D01*
X009695Y002110D02*
X009636Y002168D01*
X009695Y002110D02*
X009811Y002110D01*
X009870Y002168D01*
X009870Y002227D01*
X009811Y002285D01*
X009753Y002285D01*
X009811Y002285D02*
X009870Y002343D01*
X009870Y002402D01*
X009811Y002460D01*
X009695Y002460D01*
X009636Y002402D01*
X009317Y002402D02*
X009317Y002343D01*
X009259Y002285D01*
X009317Y002227D01*
X009317Y002168D01*
X009259Y002110D01*
X009142Y002110D01*
X009084Y002168D01*
X009201Y002285D02*
X009259Y002285D01*
X009317Y002402D02*
X009259Y002460D01*
X009142Y002460D01*
X009084Y002402D01*
X008949Y002285D02*
X008716Y002285D01*
X008832Y002402D02*
X008832Y002168D01*
X008832Y001652D02*
X008832Y001418D01*
X009452Y002110D02*
X009511Y002110D01*
X009511Y002168D01*
X009452Y002168D01*
X009452Y002110D01*
X010005Y002227D02*
X010121Y002110D01*
X010238Y002227D01*
X010238Y002460D01*
X010005Y002460D02*
X010005Y002227D01*
X008760Y003422D02*
X008643Y003539D01*
X008410Y003539D01*
X008585Y003674D02*
X008527Y003732D01*
X008527Y003849D01*
X008585Y003907D01*
X008702Y003907D01*
X008760Y003849D01*
X008760Y003732D01*
X008702Y003674D01*
X008585Y003674D01*
X008760Y003422D02*
X008643Y003306D01*
X008410Y003306D01*
X008410Y004042D02*
X008410Y004101D01*
X008760Y004101D01*
X008760Y004159D02*
X008760Y004042D01*
X008527Y004288D02*
X008527Y004404D01*
X008468Y004346D02*
X008702Y004346D01*
X008760Y004404D01*
X008702Y004533D02*
X008643Y004592D01*
X008643Y004767D01*
X008585Y004767D02*
X008760Y004767D01*
X008760Y004592D01*
X008702Y004533D01*
X008527Y004592D02*
X008527Y004708D01*
X008585Y004767D01*
X008585Y004902D02*
X008527Y004960D01*
X008527Y005135D01*
X008819Y005135D01*
X008877Y005077D01*
X008877Y005018D01*
X008760Y004960D02*
X008760Y005135D01*
X008702Y005270D02*
X008585Y005270D01*
X008527Y005328D01*
X008527Y005445D01*
X008585Y005503D01*
X008643Y005503D01*
X008643Y005270D01*
X008702Y005270D02*
X008760Y005328D01*
X008760Y005445D01*
X008760Y006007D02*
X008760Y006182D01*
X008702Y006240D01*
X008643Y006182D01*
X008643Y006065D01*
X008585Y006007D01*
X008527Y006065D01*
X008527Y006240D01*
X008585Y006375D02*
X008527Y006433D01*
X008527Y006550D01*
X008585Y006608D01*
X008643Y006608D01*
X008643Y006375D01*
X008585Y006375D02*
X008702Y006375D01*
X008760Y006433D01*
X008760Y006550D01*
X008760Y006743D02*
X008760Y006860D01*
X008760Y006802D02*
X008410Y006802D01*
X008410Y006743D01*
X008585Y006989D02*
X008527Y007047D01*
X008527Y007164D01*
X008585Y007222D01*
X008643Y007222D01*
X008643Y006989D01*
X008585Y006989D02*
X008702Y006989D01*
X008760Y007047D01*
X008760Y007164D01*
X008702Y007357D02*
X008760Y007415D01*
X008760Y007591D01*
X008702Y007784D02*
X008468Y007784D01*
X008527Y007842D02*
X008527Y007725D01*
X008527Y007591D02*
X008527Y007415D01*
X008585Y007357D01*
X008702Y007357D01*
X008702Y007784D02*
X008760Y007842D01*
X008702Y007971D02*
X008760Y008029D01*
X008760Y008146D01*
X008702Y008204D01*
X008585Y008204D01*
X008527Y008146D01*
X008527Y008029D01*
X008585Y007971D01*
X008702Y007971D01*
X008760Y008339D02*
X008527Y008339D01*
X008643Y008339D02*
X008527Y008456D01*
X008527Y008514D01*
X008585Y008646D02*
X008527Y008704D01*
X008527Y008880D01*
X008643Y008821D02*
X008643Y008704D01*
X008585Y008646D01*
X008760Y008646D02*
X008760Y008821D01*
X008702Y008880D01*
X008643Y008821D01*
X009705Y008989D02*
X010155Y009289D01*
X009705Y009289D01*
X009705Y009449D02*
X009705Y009674D01*
X009780Y009749D01*
X009930Y009749D01*
X010005Y009674D01*
X010005Y009449D01*
X010155Y009449D02*
X009705Y009449D01*
X010005Y009599D02*
X010155Y009749D01*
X010155Y009909D02*
X009705Y009909D01*
X009705Y010210D01*
X009780Y010370D02*
X009705Y010445D01*
X009705Y010595D01*
X009780Y010670D01*
X009855Y010670D01*
X010155Y010370D01*
X010155Y010670D01*
X009930Y010830D02*
X009705Y011055D01*
X010155Y011055D01*
X010155Y011291D02*
X009705Y011291D01*
X009930Y011131D02*
X009930Y010830D01*
X010155Y011291D02*
X010155Y011591D01*
X010080Y011751D02*
X009780Y012051D01*
X010080Y012051D01*
X010155Y011976D01*
X010155Y011826D01*
X010080Y011751D01*
X009780Y011751D01*
X009705Y011826D01*
X009705Y011976D01*
X009780Y012051D01*
X009855Y012211D02*
X009705Y012362D01*
X010155Y012362D01*
X010155Y012512D02*
X010155Y012211D01*
X009930Y012672D02*
X009930Y012972D01*
X009780Y012822D02*
X010080Y012822D01*
X010230Y013132D02*
X010230Y013432D01*
X010155Y013593D02*
X009705Y013593D01*
X009855Y013743D01*
X009705Y013893D01*
X010155Y013893D01*
X010080Y014053D02*
X010155Y014128D01*
X010155Y014278D01*
X010080Y014353D01*
X009780Y014353D01*
X009705Y014278D01*
X009705Y014128D01*
X009780Y014053D01*
X010080Y014053D01*
X010155Y014513D02*
X009705Y014513D01*
X009705Y014739D01*
X009780Y014814D01*
X010080Y014814D01*
X010155Y014739D01*
X010155Y014513D01*
X010080Y014974D02*
X010155Y015049D01*
X010155Y015199D01*
X010080Y015274D01*
X009705Y015274D01*
X009705Y015434D02*
X010155Y015434D01*
X010155Y015734D01*
X010155Y015895D02*
X009705Y015895D01*
X009705Y016195D01*
X009930Y016045D02*
X009930Y015895D01*
X010155Y015895D02*
X010155Y016195D01*
X011180Y016580D02*
X015180Y016580D01*
X015180Y014580D01*
X011180Y014580D01*
X011180Y016580D01*
X010080Y014974D02*
X009705Y014974D01*
X008465Y014766D02*
X008015Y014766D01*
X008015Y014916D02*
X008015Y014615D01*
X008015Y014455D02*
X008015Y014155D01*
X008015Y014305D02*
X008465Y014305D01*
X006765Y014315D02*
X006765Y014616D01*
X006765Y014466D02*
X006315Y014466D01*
X006465Y014315D01*
X006390Y014155D02*
X006315Y014080D01*
X006315Y013930D01*
X006390Y013855D01*
X006690Y013855D01*
X006765Y013930D01*
X006765Y014080D01*
X006690Y014155D01*
X009930Y010060D02*
X009930Y009909D01*
X010155Y008989D02*
X009705Y008989D01*
X016715Y009580D02*
X016790Y009505D01*
X016865Y009505D01*
X016940Y009580D01*
X016940Y009730D01*
X017015Y009805D01*
X017090Y009805D01*
X017165Y009730D01*
X017165Y009580D01*
X017090Y009505D01*
X016715Y009580D02*
X016715Y009730D01*
X016790Y009805D01*
X016865Y009965D02*
X016715Y010116D01*
X017165Y010116D01*
X017165Y010266D02*
X017165Y009965D01*
X020465Y010040D02*
X020540Y009965D01*
X020465Y010040D02*
X020465Y010191D01*
X020540Y010266D01*
X020615Y010266D01*
X020915Y009965D01*
X020915Y010266D01*
X020840Y009805D02*
X020915Y009730D01*
X020915Y009580D01*
X020840Y009505D01*
X020690Y009580D02*
X020615Y009505D01*
X020540Y009505D01*
X020465Y009580D01*
X020465Y009730D01*
X020540Y009805D01*
X020690Y009730D02*
X020765Y009805D01*
X020840Y009805D01*
X020690Y009730D02*
X020690Y009580D01*
X020690Y007366D02*
X020690Y007065D01*
X020465Y007291D01*
X020915Y007291D01*
X020840Y006905D02*
X020915Y006830D01*
X020915Y006680D01*
X020840Y006605D01*
X020690Y006680D02*
X020690Y006830D01*
X020765Y006905D01*
X020840Y006905D01*
X020690Y006680D02*
X020615Y006605D01*
X020540Y006605D01*
X020465Y006680D01*
X020465Y006830D01*
X020540Y006905D01*
X017165Y006830D02*
X017165Y006680D01*
X017090Y006605D01*
X016940Y006680D02*
X016940Y006830D01*
X017015Y006905D01*
X017090Y006905D01*
X017165Y006830D01*
X017090Y007065D02*
X017165Y007140D01*
X017165Y007291D01*
X017090Y007366D01*
X017015Y007366D01*
X016940Y007291D01*
X016940Y007216D01*
X016940Y007291D02*
X016865Y007366D01*
X016790Y007366D01*
X016715Y007291D01*
X016715Y007140D01*
X016790Y007065D01*
X016790Y006905D02*
X016715Y006830D01*
X016715Y006680D01*
X016790Y006605D01*
X016865Y006605D01*
X016940Y006680D01*
X008760Y004960D02*
X008702Y004902D01*
X008585Y004902D01*
X015965Y013605D02*
X015965Y013830D01*
X016040Y013905D01*
X016190Y013905D01*
X016265Y013830D01*
X016265Y013605D01*
X016415Y013605D02*
X015965Y013605D01*
X016265Y013755D02*
X016415Y013905D01*
X016415Y014065D02*
X016115Y014366D01*
X016040Y014366D01*
X015965Y014291D01*
X015965Y014140D01*
X016040Y014065D01*
X016415Y014065D02*
X016415Y014366D01*
X017215Y014216D02*
X017365Y014065D01*
X017440Y013905D02*
X017515Y013830D01*
X017515Y013605D01*
X017665Y013605D02*
X017215Y013605D01*
X017215Y013830D01*
X017290Y013905D01*
X017440Y013905D01*
X017515Y013755D02*
X017665Y013905D01*
X017665Y014065D02*
X017665Y014366D01*
X017665Y014216D02*
X017215Y014216D01*
X018873Y015395D02*
X019174Y015395D01*
X019334Y015395D02*
X019634Y015395D01*
X019794Y015395D02*
X020019Y015395D01*
X020094Y015470D01*
X020094Y015770D01*
X020019Y015845D01*
X019794Y015845D01*
X019794Y015395D01*
X019484Y015620D02*
X019334Y015620D01*
X019334Y015845D02*
X019334Y015395D01*
X018873Y015395D02*
X018873Y015845D01*
X019334Y015845D02*
X019634Y015845D01*
X020255Y015695D02*
X020405Y015845D01*
X020405Y015395D01*
X020255Y015395D02*
X020555Y015395D01*
X021873Y015395D02*
X022174Y015395D01*
X022334Y015395D02*
X022634Y015395D01*
X022794Y015395D02*
X023019Y015395D01*
X023094Y015470D01*
X023094Y015770D01*
X023019Y015845D01*
X022794Y015845D01*
X022794Y015395D01*
X022484Y015620D02*
X022334Y015620D01*
X022334Y015845D02*
X022334Y015395D01*
X021873Y015395D02*
X021873Y015845D01*
X022334Y015845D02*
X022634Y015845D01*
X023255Y015770D02*
X023330Y015845D01*
X023480Y015845D01*
X023555Y015770D01*
X023555Y015695D01*
X023255Y015395D01*
X023555Y015395D01*
X024962Y009831D02*
X025112Y009831D01*
X025037Y009831D02*
X025037Y009380D01*
X024962Y009380D02*
X025112Y009380D01*
X025269Y009455D02*
X025269Y009756D01*
X025344Y009831D01*
X025494Y009831D01*
X025570Y009756D01*
X025730Y009756D02*
X025805Y009831D01*
X025955Y009831D01*
X026030Y009756D01*
X025955Y009605D02*
X026030Y009530D01*
X026030Y009455D01*
X025955Y009380D01*
X025805Y009380D01*
X025730Y009455D01*
X025570Y009455D02*
X025494Y009380D01*
X025344Y009380D01*
X025269Y009455D01*
X025730Y009680D02*
X025805Y009605D01*
X025955Y009605D01*
X025730Y009680D02*
X025730Y009756D01*
X026190Y009831D02*
X026190Y009380D01*
X026190Y009530D02*
X026415Y009530D01*
X026490Y009605D01*
X026490Y009756D01*
X026415Y009831D01*
X026190Y009831D01*
X001415Y018855D02*
X000965Y018855D01*
X000965Y019080D01*
X001040Y019155D01*
X001190Y019155D01*
X001265Y019080D01*
X001265Y018855D01*
X001265Y019005D02*
X001415Y019155D01*
X001415Y019315D02*
X001415Y019616D01*
X001340Y019776D02*
X001415Y019851D01*
X001415Y020001D01*
X001340Y020076D01*
X001265Y020076D01*
X001190Y020001D01*
X001190Y019851D01*
X001115Y019776D01*
X001040Y019776D01*
X000965Y019851D01*
X000965Y020001D01*
X001040Y020076D01*
X000965Y020236D02*
X001415Y020236D01*
X001415Y020536D01*
X001190Y020386D02*
X001190Y020236D01*
X000965Y020236D02*
X000965Y020536D01*
X000965Y020697D02*
X000965Y020997D01*
X000965Y020847D02*
X001415Y020847D01*
X000965Y019616D02*
X000965Y019315D01*
X001415Y019315D01*
X001190Y019315D02*
X001190Y019466D01*
D17*
X001440Y016580D03*
X002440Y016580D03*
X003440Y016580D03*
X004440Y016580D03*
X005440Y016580D03*
X006440Y016580D03*
X007440Y016580D03*
X007590Y019580D03*
X008590Y019580D03*
X009590Y019580D03*
X010590Y019580D03*
X011590Y019580D03*
X012590Y019580D03*
X013590Y019580D03*
X014590Y019580D03*
X015590Y019580D03*
X016590Y019580D03*
X016590Y020580D03*
X015590Y020580D03*
X014590Y020580D03*
X013590Y020580D03*
X012590Y020580D03*
X011590Y020580D03*
X010590Y020580D03*
X009590Y020580D03*
X008590Y020580D03*
X007590Y020580D03*
X018190Y020580D03*
X019190Y020580D03*
X020190Y020580D03*
X021190Y020580D03*
X022190Y020580D03*
X023190Y020580D03*
X024190Y020580D03*
X025190Y020580D03*
X025190Y019580D03*
X024190Y019580D03*
X023190Y019580D03*
X022190Y019580D03*
X021190Y019580D03*
X020190Y019580D03*
X019190Y019580D03*
X018190Y019580D03*
X025240Y012580D03*
X026240Y012580D03*
X026240Y011580D03*
X025240Y011580D03*
X025240Y010580D03*
X026240Y010580D03*
X025190Y002580D03*
X024190Y002580D03*
X023190Y002580D03*
X022190Y002580D03*
X021190Y002580D03*
X020190Y002580D03*
X020190Y001580D03*
X021190Y001580D03*
X022190Y001580D03*
X023190Y001580D03*
X024190Y001580D03*
X025190Y001580D03*
X018190Y001580D03*
X017190Y001580D03*
X016190Y001580D03*
X015190Y001580D03*
X014190Y001580D03*
X013190Y001580D03*
X012190Y001580D03*
X011190Y001580D03*
X011190Y002580D03*
X012190Y002580D03*
X013190Y002580D03*
X014190Y002580D03*
X015190Y002580D03*
X016190Y002580D03*
X017190Y002580D03*
X018190Y002580D03*
X007690Y003580D03*
X006690Y003580D03*
X005690Y003580D03*
X005690Y004580D03*
X006690Y004580D03*
X007690Y004580D03*
X007690Y005580D03*
X006690Y005580D03*
X005690Y005580D03*
X005690Y006580D03*
X006690Y006580D03*
X007690Y006580D03*
X007690Y007580D03*
X006690Y007580D03*
X005690Y007580D03*
X005690Y008580D03*
X006690Y008580D03*
X007690Y008580D03*
X007440Y011080D03*
X006440Y011080D03*
X005440Y011080D03*
X004440Y011080D03*
X003440Y011080D03*
X002440Y011080D03*
X001440Y011080D03*
X001190Y008580D03*
X002190Y008580D03*
X003190Y008580D03*
X003190Y007580D03*
X002190Y007580D03*
X001190Y007580D03*
X001190Y006580D03*
X002190Y006580D03*
X003190Y006580D03*
X003190Y005580D03*
X002190Y005580D03*
X001190Y005580D03*
X001190Y004580D03*
X002190Y004580D03*
X003190Y004580D03*
X003190Y003580D03*
X002190Y003580D03*
X001190Y003580D03*
D18*
X012045Y014215D02*
X012142Y014311D01*
X012045Y014408D01*
X012335Y014408D01*
X012287Y014509D02*
X012335Y014558D01*
X012335Y014654D01*
X012287Y014703D01*
X012093Y014703D01*
X012045Y014654D01*
X012045Y014558D01*
X012093Y014509D01*
X012287Y014509D01*
X012335Y014215D02*
X012045Y014215D01*
X011335Y014509D02*
X011335Y014606D01*
X011335Y014558D02*
X011045Y014558D01*
X011045Y014606D02*
X011045Y014509D01*
X011045Y014706D02*
X011045Y014851D01*
X011093Y014899D01*
X011190Y014899D01*
X011238Y014851D01*
X011238Y014706D01*
X011238Y014802D02*
X011335Y014899D01*
X011287Y015000D02*
X011093Y015000D01*
X011045Y015049D01*
X011045Y015145D01*
X011093Y015194D01*
X011287Y015194D01*
X011335Y015145D01*
X011335Y015049D01*
X011287Y015000D01*
X011238Y015097D02*
X011335Y015194D01*
X011335Y015415D02*
X011045Y015415D01*
X011142Y015511D01*
X011045Y015608D01*
X011335Y015608D01*
X011335Y015709D02*
X011335Y015806D01*
X011335Y015758D02*
X011045Y015758D01*
X011045Y015806D02*
X011045Y015709D01*
X011093Y015906D02*
X011142Y015906D01*
X011190Y015954D01*
X011190Y016051D01*
X011238Y016099D01*
X011287Y016099D01*
X011335Y016051D01*
X011335Y015954D01*
X011287Y015906D01*
X011093Y015906D02*
X011045Y015954D01*
X011045Y016051D01*
X011093Y016099D01*
X011093Y016200D02*
X011287Y016200D01*
X011335Y016249D01*
X011335Y016345D01*
X011287Y016394D01*
X011093Y016394D01*
X011045Y016345D01*
X011045Y016249D01*
X011093Y016200D01*
X012045Y016200D02*
X012335Y016200D01*
X012238Y016200D02*
X012045Y016394D01*
X012190Y016249D02*
X012335Y016394D01*
X012287Y016099D02*
X012335Y016051D01*
X012335Y015954D01*
X012287Y015906D01*
X012093Y015906D01*
X012045Y015954D01*
X012045Y016051D01*
X012093Y016099D01*
X012093Y015805D02*
X012045Y015756D01*
X012045Y015659D01*
X012093Y015611D01*
X012142Y015611D01*
X012190Y015659D01*
X012190Y015756D01*
X012238Y015805D01*
X012287Y015805D01*
X012335Y015756D01*
X012335Y015659D01*
X012287Y015611D01*
X012335Y015195D02*
X012335Y015099D01*
X012335Y015147D02*
X012045Y015147D01*
X012045Y015099D02*
X012045Y015195D01*
X012093Y014997D02*
X012045Y014949D01*
X012045Y014852D01*
X012093Y014804D01*
X012142Y014804D01*
X012190Y014852D01*
X012190Y014949D01*
X012238Y014997D01*
X012287Y014997D01*
X012335Y014949D01*
X012335Y014852D01*
X012287Y014804D01*
X013045Y014851D02*
X013045Y014754D01*
X013093Y014706D01*
X013142Y014706D01*
X013190Y014754D01*
X013190Y014851D01*
X013238Y014899D01*
X013287Y014899D01*
X013335Y014851D01*
X013335Y014754D01*
X013287Y014706D01*
X013287Y014605D02*
X013335Y014556D01*
X013335Y014459D01*
X013287Y014411D01*
X013093Y014411D01*
X013045Y014459D01*
X013045Y014556D01*
X013093Y014605D01*
X013045Y014851D02*
X013093Y014899D01*
X013045Y015000D02*
X013335Y015194D01*
X013045Y015194D01*
X013045Y015000D02*
X013335Y015000D01*
X014045Y015000D02*
X014238Y015000D01*
X014335Y015097D01*
X014238Y015194D01*
X014045Y015194D01*
X014093Y014899D02*
X014142Y014899D01*
X014190Y014851D01*
X014238Y014899D01*
X014287Y014899D01*
X014335Y014851D01*
X014335Y014754D01*
X014287Y014706D01*
X014287Y014607D02*
X014335Y014607D01*
X014335Y014558D01*
X014287Y014558D01*
X014287Y014607D01*
X014287Y014457D02*
X014335Y014409D01*
X014335Y014312D01*
X014287Y014264D01*
X014190Y014360D02*
X014190Y014409D01*
X014238Y014457D01*
X014287Y014457D01*
X014190Y014409D02*
X014142Y014457D01*
X014093Y014457D01*
X014045Y014409D01*
X014045Y014312D01*
X014093Y014264D01*
X014093Y014706D02*
X014045Y014754D01*
X014045Y014851D01*
X014093Y014899D01*
X014190Y014851D02*
X014190Y014802D01*
X014287Y015611D02*
X014335Y015659D01*
X014335Y015756D01*
X014287Y015805D01*
X014190Y015805D01*
X014190Y015708D01*
X014093Y015805D02*
X014045Y015756D01*
X014045Y015659D01*
X014093Y015611D01*
X014287Y015611D01*
X014335Y015906D02*
X014045Y015906D01*
X014335Y016099D01*
X014045Y016099D01*
X014045Y016200D02*
X014045Y016345D01*
X014093Y016394D01*
X014287Y016394D01*
X014335Y016345D01*
X014335Y016200D01*
X014045Y016200D01*
X013335Y016200D02*
X013335Y016394D01*
X013190Y016297D02*
X013190Y016200D01*
X013287Y016099D02*
X013335Y016051D01*
X013335Y015954D01*
X013287Y015906D01*
X013093Y015906D01*
X013045Y015954D01*
X013045Y016051D01*
X013093Y016099D01*
X013045Y016200D02*
X013335Y016200D01*
X013045Y016200D02*
X013045Y016394D01*
X011335Y014706D02*
X011045Y014706D01*
D19*
X007940Y016330D02*
X007690Y016080D01*
X007190Y016080D01*
X006940Y016330D01*
X006690Y016080D01*
X006190Y016080D01*
X005940Y016330D01*
X005690Y016080D01*
X005190Y016080D01*
X004940Y016330D01*
X004690Y016080D01*
X004190Y016080D01*
X003940Y016330D01*
X003690Y016080D01*
X003190Y016080D01*
X002940Y016330D01*
X002690Y016080D01*
X002190Y016080D01*
X001940Y016330D01*
X001690Y016080D01*
X001190Y016080D01*
X000940Y016330D01*
X000940Y016830D01*
X001190Y017080D01*
X001690Y017080D01*
X001940Y016830D01*
X002190Y017080D01*
X002690Y017080D01*
X002940Y016830D01*
X003190Y017080D01*
X003690Y017080D01*
X003940Y016830D01*
X004190Y017080D01*
X004690Y017080D01*
X004940Y016830D01*
X005190Y017080D01*
X005690Y017080D01*
X005940Y016830D01*
X006190Y017080D01*
X006690Y017080D01*
X006940Y016830D01*
X007190Y017080D01*
X007690Y017080D01*
X007940Y016830D01*
X007940Y016330D01*
X004390Y018830D02*
X004190Y018630D01*
X004040Y018630D01*
X002340Y018630D01*
X002190Y018630D01*
X001990Y018830D01*
X001990Y019430D01*
X001990Y020235D01*
X001990Y020230D02*
X001990Y020830D01*
X002190Y021030D01*
X002340Y021030D01*
X004040Y021030D01*
X004190Y021030D01*
X004390Y020830D01*
X004390Y020230D01*
X004390Y020223D02*
X004390Y019430D01*
X004390Y018830D01*
X002490Y019830D02*
X002492Y019882D01*
X002498Y019934D01*
X002508Y019986D01*
X002521Y020036D01*
X002538Y020086D01*
X002559Y020134D01*
X002584Y020180D01*
X002612Y020224D01*
X002643Y020266D01*
X002677Y020306D01*
X002714Y020343D01*
X002754Y020377D01*
X002796Y020408D01*
X002840Y020436D01*
X002886Y020461D01*
X002934Y020482D01*
X002984Y020499D01*
X003034Y020512D01*
X003086Y020522D01*
X003138Y020528D01*
X003190Y020530D01*
X003242Y020528D01*
X003294Y020522D01*
X003346Y020512D01*
X003396Y020499D01*
X003446Y020482D01*
X003494Y020461D01*
X003540Y020436D01*
X003584Y020408D01*
X003626Y020377D01*
X003666Y020343D01*
X003703Y020306D01*
X003737Y020266D01*
X003768Y020224D01*
X003796Y020180D01*
X003821Y020134D01*
X003842Y020086D01*
X003859Y020036D01*
X003872Y019986D01*
X003882Y019934D01*
X003888Y019882D01*
X003890Y019830D01*
X003888Y019778D01*
X003882Y019726D01*
X003872Y019674D01*
X003859Y019624D01*
X003842Y019574D01*
X003821Y019526D01*
X003796Y019480D01*
X003768Y019436D01*
X003737Y019394D01*
X003703Y019354D01*
X003666Y019317D01*
X003626Y019283D01*
X003584Y019252D01*
X003540Y019224D01*
X003494Y019199D01*
X003446Y019178D01*
X003396Y019161D01*
X003346Y019148D01*
X003294Y019138D01*
X003242Y019132D01*
X003190Y019130D01*
X003138Y019132D01*
X003086Y019138D01*
X003034Y019148D01*
X002984Y019161D01*
X002934Y019178D01*
X002886Y019199D01*
X002840Y019224D01*
X002796Y019252D01*
X002754Y019283D01*
X002714Y019317D01*
X002677Y019354D01*
X002643Y019394D01*
X002612Y019436D01*
X002584Y019480D01*
X002559Y019526D01*
X002538Y019574D01*
X002521Y019624D01*
X002508Y019674D01*
X002498Y019726D01*
X002492Y019778D01*
X002490Y019830D01*
X002340Y019680D02*
X002190Y020030D01*
X002190Y020330D01*
X002190Y019630D02*
X002190Y019330D01*
X002190Y011580D02*
X002690Y011580D01*
X002940Y011330D01*
X003190Y011580D01*
X003690Y011580D01*
X003940Y011330D01*
X004190Y011580D01*
X004690Y011580D01*
X004940Y011330D01*
X005190Y011580D01*
X005690Y011580D01*
X005940Y011330D01*
X006190Y011580D01*
X006690Y011580D01*
X006940Y011330D01*
X007190Y011580D01*
X007690Y011580D01*
X007940Y011330D01*
X007940Y010830D01*
X007690Y010580D01*
X007190Y010580D01*
X006940Y010830D01*
X006690Y010580D01*
X006190Y010580D01*
X005940Y010830D01*
X005690Y010580D01*
X005190Y010580D01*
X004940Y010830D01*
X004690Y010580D01*
X004190Y010580D01*
X003940Y010830D01*
X003690Y010580D01*
X003190Y010580D01*
X002940Y010830D01*
X002690Y010580D01*
X002190Y010580D01*
X001940Y010830D01*
X001690Y010580D01*
X001190Y010580D01*
X000940Y010830D01*
X000940Y011330D01*
X001190Y011580D01*
X001690Y011580D01*
X001940Y011330D01*
X002190Y011580D01*
X001940Y009080D02*
X002440Y009080D01*
X002690Y008830D01*
X002940Y009080D01*
X003440Y009080D01*
X003690Y008830D01*
X003690Y008330D01*
X003440Y008080D01*
X003690Y007830D01*
X003690Y007330D01*
X003440Y007080D01*
X003690Y006830D01*
X003690Y006330D01*
X003440Y006080D01*
X003690Y005830D01*
X003690Y005330D01*
X003440Y005080D01*
X003690Y004830D01*
X003690Y004330D01*
X003440Y004080D01*
X003690Y003830D01*
X003690Y003330D01*
X003440Y003080D01*
X002940Y003080D01*
X002690Y003330D01*
X002440Y003080D01*
X001940Y003080D01*
X001690Y003330D01*
X001440Y003080D01*
X000940Y003080D01*
X000690Y003330D01*
X000690Y003830D01*
X000940Y004080D01*
X001440Y004080D01*
X001690Y003830D01*
X001940Y004080D01*
X002440Y004080D01*
X002690Y003830D01*
X002940Y004080D01*
X003440Y004080D01*
X002940Y004080D01*
X002690Y004330D01*
X002440Y004080D01*
X001940Y004080D01*
X001690Y004330D01*
X001440Y004080D01*
X000940Y004080D01*
X000690Y004330D01*
X000690Y004830D01*
X000940Y005080D01*
X001440Y005080D01*
X001690Y004830D01*
X001940Y005080D01*
X002440Y005080D01*
X002690Y004830D01*
X002940Y005080D01*
X003440Y005080D01*
X002940Y005080D01*
X002690Y005330D01*
X002440Y005080D01*
X001940Y005080D01*
X001690Y005330D01*
X001440Y005080D01*
X000940Y005080D01*
X000690Y005330D01*
X000690Y005830D01*
X000940Y006080D01*
X001440Y006080D01*
X001690Y005830D01*
X001940Y006080D01*
X002440Y006080D01*
X002690Y005830D01*
X002940Y006080D01*
X003440Y006080D01*
X002940Y006080D01*
X002690Y006330D01*
X002440Y006080D01*
X001940Y006080D01*
X001690Y006330D01*
X001440Y006080D01*
X000940Y006080D01*
X000690Y006330D01*
X000690Y006830D01*
X000940Y007080D01*
X001440Y007080D01*
X001690Y006830D01*
X001940Y007080D01*
X002440Y007080D01*
X002690Y006830D01*
X002940Y007080D01*
X003440Y007080D01*
X002940Y007080D01*
X002690Y007330D01*
X002440Y007080D01*
X001940Y007080D01*
X001690Y007330D01*
X001440Y007080D01*
X000940Y007080D01*
X000690Y007330D01*
X000690Y007830D01*
X000940Y008080D01*
X001440Y008080D01*
X001690Y007830D01*
X001940Y008080D01*
X002440Y008080D01*
X002690Y007830D01*
X002940Y008080D01*
X003440Y008080D01*
X002940Y008080D01*
X002690Y008330D01*
X002440Y008080D01*
X001940Y008080D01*
X001690Y008330D01*
X001440Y008080D01*
X000940Y008080D01*
X000690Y008330D01*
X000690Y008830D01*
X000940Y009080D01*
X001440Y009080D01*
X001690Y008830D01*
X001940Y009080D01*
X005190Y008830D02*
X005190Y008330D01*
X005440Y008080D01*
X005190Y007830D01*
X005190Y007330D01*
X005440Y007080D01*
X005190Y006830D01*
X005190Y006330D01*
X005440Y006080D01*
X005190Y005830D01*
X005190Y005330D01*
X005440Y005080D01*
X005190Y004830D01*
X005190Y004330D01*
X005440Y004080D01*
X005190Y003830D01*
X005190Y003330D01*
X005440Y003080D01*
X005940Y003080D01*
X006190Y003330D01*
X006440Y003080D01*
X006940Y003080D01*
X007190Y003330D01*
X007440Y003080D01*
X007940Y003080D01*
X008190Y003330D01*
X008190Y003830D01*
X007940Y004080D01*
X007440Y004080D01*
X007190Y003830D01*
X006940Y004080D01*
X006440Y004080D01*
X006190Y003830D01*
X005940Y004080D01*
X005440Y004080D01*
X005940Y004080D01*
X006190Y004330D01*
X006440Y004080D01*
X006940Y004080D01*
X007190Y004330D01*
X007440Y004080D01*
X007940Y004080D01*
X008190Y004330D01*
X008190Y004830D01*
X007940Y005080D01*
X007440Y005080D01*
X007190Y004830D01*
X006940Y005080D01*
X006440Y005080D01*
X006190Y004830D01*
X005940Y005080D01*
X005440Y005080D01*
X005940Y005080D01*
X006190Y005330D01*
X006440Y005080D01*
X006940Y005080D01*
X007190Y005330D01*
X007440Y005080D01*
X007940Y005080D01*
X008190Y005330D01*
X008190Y005830D01*
X007940Y006080D01*
X007440Y006080D01*
X007190Y005830D01*
X006940Y006080D01*
X006440Y006080D01*
X006190Y005830D01*
X005940Y006080D01*
X005440Y006080D01*
X005940Y006080D01*
X006190Y006330D01*
X006440Y006080D01*
X006940Y006080D01*
X007190Y006330D01*
X007440Y006080D01*
X007940Y006080D01*
X008190Y006330D01*
X008190Y006830D01*
X007940Y007080D01*
X007440Y007080D01*
X007190Y006830D01*
X006940Y007080D01*
X006440Y007080D01*
X006190Y006830D01*
X005940Y007080D01*
X005440Y007080D01*
X005940Y007080D01*
X006190Y007330D01*
X006440Y007080D01*
X006940Y007080D01*
X007190Y007330D01*
X007440Y007080D01*
X007940Y007080D01*
X008190Y007330D01*
X008190Y007830D01*
X007940Y008080D01*
X007440Y008080D01*
X007190Y007830D01*
X006940Y008080D01*
X006440Y008080D01*
X006190Y007830D01*
X005940Y008080D01*
X005440Y008080D01*
X005940Y008080D01*
X006190Y008330D01*
X006440Y008080D01*
X006940Y008080D01*
X007190Y008330D01*
X007440Y008080D01*
X007940Y008080D01*
X008190Y008330D01*
X008190Y008830D01*
X007940Y009080D01*
X007440Y009080D01*
X007190Y008830D01*
X006940Y009080D01*
X006440Y009080D01*
X006190Y008830D01*
X005940Y009080D01*
X005440Y009080D01*
X005190Y008830D01*
X015718Y012840D02*
X015718Y015320D01*
X016662Y015320D01*
X016662Y012840D01*
X015718Y012840D01*
X016968Y012840D02*
X016968Y015320D01*
X017912Y015320D01*
X017912Y012840D01*
X016968Y012840D01*
X017690Y011030D02*
X017840Y011030D01*
X019540Y011030D01*
X019690Y011030D01*
X019890Y010830D01*
X019890Y010230D01*
X019890Y010223D02*
X019890Y009430D01*
X019890Y008830D01*
X019690Y008630D01*
X019540Y008630D01*
X017840Y008630D01*
X017690Y008630D01*
X017490Y008830D01*
X017490Y009430D01*
X017490Y010235D01*
X017490Y010230D02*
X017490Y010830D01*
X017690Y011030D01*
X017690Y010330D02*
X017690Y010030D01*
X017840Y009680D01*
X017690Y009630D02*
X017690Y009330D01*
X017990Y009830D02*
X017992Y009882D01*
X017998Y009934D01*
X018008Y009986D01*
X018021Y010036D01*
X018038Y010086D01*
X018059Y010134D01*
X018084Y010180D01*
X018112Y010224D01*
X018143Y010266D01*
X018177Y010306D01*
X018214Y010343D01*
X018254Y010377D01*
X018296Y010408D01*
X018340Y010436D01*
X018386Y010461D01*
X018434Y010482D01*
X018484Y010499D01*
X018534Y010512D01*
X018586Y010522D01*
X018638Y010528D01*
X018690Y010530D01*
X018742Y010528D01*
X018794Y010522D01*
X018846Y010512D01*
X018896Y010499D01*
X018946Y010482D01*
X018994Y010461D01*
X019040Y010436D01*
X019084Y010408D01*
X019126Y010377D01*
X019166Y010343D01*
X019203Y010306D01*
X019237Y010266D01*
X019268Y010224D01*
X019296Y010180D01*
X019321Y010134D01*
X019342Y010086D01*
X019359Y010036D01*
X019372Y009986D01*
X019382Y009934D01*
X019388Y009882D01*
X019390Y009830D01*
X019388Y009778D01*
X019382Y009726D01*
X019372Y009674D01*
X019359Y009624D01*
X019342Y009574D01*
X019321Y009526D01*
X019296Y009480D01*
X019268Y009436D01*
X019237Y009394D01*
X019203Y009354D01*
X019166Y009317D01*
X019126Y009283D01*
X019084Y009252D01*
X019040Y009224D01*
X018994Y009199D01*
X018946Y009178D01*
X018896Y009161D01*
X018846Y009148D01*
X018794Y009138D01*
X018742Y009132D01*
X018690Y009130D01*
X018638Y009132D01*
X018586Y009138D01*
X018534Y009148D01*
X018484Y009161D01*
X018434Y009178D01*
X018386Y009199D01*
X018340Y009224D01*
X018296Y009252D01*
X018254Y009283D01*
X018214Y009317D01*
X018177Y009354D01*
X018143Y009394D01*
X018112Y009436D01*
X018084Y009480D01*
X018059Y009526D01*
X018038Y009574D01*
X018021Y009624D01*
X018008Y009674D01*
X017998Y009726D01*
X017992Y009778D01*
X017990Y009830D01*
X021240Y009430D02*
X021240Y008830D01*
X021440Y008630D01*
X021590Y008630D01*
X023290Y008630D01*
X023440Y008630D01*
X023640Y008830D01*
X023640Y009430D01*
X023640Y010223D01*
X023640Y010230D02*
X023640Y010830D01*
X023440Y011030D01*
X023290Y011030D01*
X021590Y011030D01*
X021440Y011030D01*
X021240Y010830D01*
X021240Y010230D01*
X021240Y010235D02*
X021240Y009430D01*
X021440Y009330D02*
X021440Y009630D01*
X021590Y009680D02*
X021440Y010030D01*
X021440Y010330D01*
X021740Y009830D02*
X021742Y009882D01*
X021748Y009934D01*
X021758Y009986D01*
X021771Y010036D01*
X021788Y010086D01*
X021809Y010134D01*
X021834Y010180D01*
X021862Y010224D01*
X021893Y010266D01*
X021927Y010306D01*
X021964Y010343D01*
X022004Y010377D01*
X022046Y010408D01*
X022090Y010436D01*
X022136Y010461D01*
X022184Y010482D01*
X022234Y010499D01*
X022284Y010512D01*
X022336Y010522D01*
X022388Y010528D01*
X022440Y010530D01*
X022492Y010528D01*
X022544Y010522D01*
X022596Y010512D01*
X022646Y010499D01*
X022696Y010482D01*
X022744Y010461D01*
X022790Y010436D01*
X022834Y010408D01*
X022876Y010377D01*
X022916Y010343D01*
X022953Y010306D01*
X022987Y010266D01*
X023018Y010224D01*
X023046Y010180D01*
X023071Y010134D01*
X023092Y010086D01*
X023109Y010036D01*
X023122Y009986D01*
X023132Y009934D01*
X023138Y009882D01*
X023140Y009830D01*
X023138Y009778D01*
X023132Y009726D01*
X023122Y009674D01*
X023109Y009624D01*
X023092Y009574D01*
X023071Y009526D01*
X023046Y009480D01*
X023018Y009436D01*
X022987Y009394D01*
X022953Y009354D01*
X022916Y009317D01*
X022876Y009283D01*
X022834Y009252D01*
X022790Y009224D01*
X022744Y009199D01*
X022696Y009178D01*
X022646Y009161D01*
X022596Y009148D01*
X022544Y009138D01*
X022492Y009132D01*
X022440Y009130D01*
X022388Y009132D01*
X022336Y009138D01*
X022284Y009148D01*
X022234Y009161D01*
X022184Y009178D01*
X022136Y009199D01*
X022090Y009224D01*
X022046Y009252D01*
X022004Y009283D01*
X021964Y009317D01*
X021927Y009354D01*
X021893Y009394D01*
X021862Y009436D01*
X021834Y009480D01*
X021809Y009526D01*
X021788Y009574D01*
X021771Y009624D01*
X021758Y009674D01*
X021748Y009726D01*
X021742Y009778D01*
X021740Y009830D01*
X021590Y008030D02*
X023290Y008030D01*
X023440Y008030D01*
X023640Y007830D01*
X023640Y007230D01*
X023640Y007223D02*
X023640Y006430D01*
X023640Y005830D01*
X023440Y005630D01*
X023290Y005630D01*
X021590Y005630D01*
X021440Y005630D01*
X021240Y005830D01*
X021240Y006430D01*
X021240Y007235D01*
X021240Y007230D02*
X021240Y007830D01*
X021440Y008030D01*
X021590Y008030D01*
X021440Y007330D02*
X021440Y007030D01*
X021590Y006680D01*
X021440Y006630D02*
X021440Y006330D01*
X021740Y006830D02*
X021742Y006882D01*
X021748Y006934D01*
X021758Y006986D01*
X021771Y007036D01*
X021788Y007086D01*
X021809Y007134D01*
X021834Y007180D01*
X021862Y007224D01*
X021893Y007266D01*
X021927Y007306D01*
X021964Y007343D01*
X022004Y007377D01*
X022046Y007408D01*
X022090Y007436D01*
X022136Y007461D01*
X022184Y007482D01*
X022234Y007499D01*
X022284Y007512D01*
X022336Y007522D01*
X022388Y007528D01*
X022440Y007530D01*
X022492Y007528D01*
X022544Y007522D01*
X022596Y007512D01*
X022646Y007499D01*
X022696Y007482D01*
X022744Y007461D01*
X022790Y007436D01*
X022834Y007408D01*
X022876Y007377D01*
X022916Y007343D01*
X022953Y007306D01*
X022987Y007266D01*
X023018Y007224D01*
X023046Y007180D01*
X023071Y007134D01*
X023092Y007086D01*
X023109Y007036D01*
X023122Y006986D01*
X023132Y006934D01*
X023138Y006882D01*
X023140Y006830D01*
X023138Y006778D01*
X023132Y006726D01*
X023122Y006674D01*
X023109Y006624D01*
X023092Y006574D01*
X023071Y006526D01*
X023046Y006480D01*
X023018Y006436D01*
X022987Y006394D01*
X022953Y006354D01*
X022916Y006317D01*
X022876Y006283D01*
X022834Y006252D01*
X022790Y006224D01*
X022744Y006199D01*
X022696Y006178D01*
X022646Y006161D01*
X022596Y006148D01*
X022544Y006138D01*
X022492Y006132D01*
X022440Y006130D01*
X022388Y006132D01*
X022336Y006138D01*
X022284Y006148D01*
X022234Y006161D01*
X022184Y006178D01*
X022136Y006199D01*
X022090Y006224D01*
X022046Y006252D01*
X022004Y006283D01*
X021964Y006317D01*
X021927Y006354D01*
X021893Y006394D01*
X021862Y006436D01*
X021834Y006480D01*
X021809Y006526D01*
X021788Y006574D01*
X021771Y006624D01*
X021758Y006674D01*
X021748Y006726D01*
X021742Y006778D01*
X021740Y006830D01*
X019890Y007223D02*
X019890Y006430D01*
X019890Y005830D01*
X019690Y005630D01*
X019540Y005630D01*
X017840Y005630D01*
X017690Y005630D01*
X017490Y005830D01*
X017490Y006430D01*
X017490Y007235D01*
X017490Y007230D02*
X017490Y007830D01*
X017690Y008030D01*
X017840Y008030D01*
X019540Y008030D01*
X019690Y008030D01*
X019890Y007830D01*
X019890Y007230D01*
X017990Y006830D02*
X017992Y006882D01*
X017998Y006934D01*
X018008Y006986D01*
X018021Y007036D01*
X018038Y007086D01*
X018059Y007134D01*
X018084Y007180D01*
X018112Y007224D01*
X018143Y007266D01*
X018177Y007306D01*
X018214Y007343D01*
X018254Y007377D01*
X018296Y007408D01*
X018340Y007436D01*
X018386Y007461D01*
X018434Y007482D01*
X018484Y007499D01*
X018534Y007512D01*
X018586Y007522D01*
X018638Y007528D01*
X018690Y007530D01*
X018742Y007528D01*
X018794Y007522D01*
X018846Y007512D01*
X018896Y007499D01*
X018946Y007482D01*
X018994Y007461D01*
X019040Y007436D01*
X019084Y007408D01*
X019126Y007377D01*
X019166Y007343D01*
X019203Y007306D01*
X019237Y007266D01*
X019268Y007224D01*
X019296Y007180D01*
X019321Y007134D01*
X019342Y007086D01*
X019359Y007036D01*
X019372Y006986D01*
X019382Y006934D01*
X019388Y006882D01*
X019390Y006830D01*
X019388Y006778D01*
X019382Y006726D01*
X019372Y006674D01*
X019359Y006624D01*
X019342Y006574D01*
X019321Y006526D01*
X019296Y006480D01*
X019268Y006436D01*
X019237Y006394D01*
X019203Y006354D01*
X019166Y006317D01*
X019126Y006283D01*
X019084Y006252D01*
X019040Y006224D01*
X018994Y006199D01*
X018946Y006178D01*
X018896Y006161D01*
X018846Y006148D01*
X018794Y006138D01*
X018742Y006132D01*
X018690Y006130D01*
X018638Y006132D01*
X018586Y006138D01*
X018534Y006148D01*
X018484Y006161D01*
X018434Y006178D01*
X018386Y006199D01*
X018340Y006224D01*
X018296Y006252D01*
X018254Y006283D01*
X018214Y006317D01*
X018177Y006354D01*
X018143Y006394D01*
X018112Y006436D01*
X018084Y006480D01*
X018059Y006526D01*
X018038Y006574D01*
X018021Y006624D01*
X018008Y006674D01*
X017998Y006726D01*
X017992Y006778D01*
X017990Y006830D01*
X017840Y006680D02*
X017690Y007030D01*
X017690Y007330D01*
X017690Y006630D02*
X017690Y006330D01*
X018940Y015080D02*
X020440Y015080D01*
X021940Y015080D02*
X023440Y015080D01*
D20*
X023564Y014084D02*
X023514Y014084D01*
X023515Y014085D02*
X023513Y014141D01*
X023507Y014196D01*
X023497Y014251D01*
X023484Y014306D01*
X023466Y014359D01*
X023446Y014411D01*
X023422Y014461D01*
X023394Y014510D01*
X023363Y014557D01*
X023330Y014601D01*
X023293Y014643D01*
X023253Y014683D01*
X023211Y014720D01*
X023167Y014753D01*
X023120Y014784D01*
X023071Y014812D01*
X023021Y014836D01*
X022969Y014856D01*
X022916Y014874D01*
X022861Y014887D01*
X022806Y014897D01*
X022751Y014903D01*
X022695Y014905D01*
X022694Y014954D01*
X022695Y014955D01*
X022752Y014953D01*
X022808Y014947D01*
X022864Y014937D01*
X022920Y014924D01*
X022974Y014908D01*
X023027Y014887D01*
X023079Y014864D01*
X023129Y014837D01*
X023177Y014807D01*
X023223Y014774D01*
X023267Y014738D01*
X023309Y014699D01*
X023348Y014657D01*
X023384Y014613D01*
X023417Y014567D01*
X023447Y014519D01*
X023474Y014469D01*
X023497Y014417D01*
X023518Y014364D01*
X023534Y014310D01*
X023547Y014254D01*
X023557Y014198D01*
X023563Y014142D01*
X023565Y014085D01*
X023556Y014085D01*
X023554Y014141D01*
X023548Y014197D01*
X023539Y014253D01*
X023526Y014307D01*
X023509Y014361D01*
X023489Y014414D01*
X023466Y014465D01*
X023439Y014514D01*
X023409Y014562D01*
X023377Y014608D01*
X023341Y014651D01*
X023302Y014692D01*
X023261Y014731D01*
X023218Y014767D01*
X023172Y014799D01*
X023124Y014829D01*
X023075Y014856D01*
X023024Y014879D01*
X022971Y014899D01*
X022917Y014916D01*
X022863Y014929D01*
X022807Y014938D01*
X022751Y014944D01*
X022695Y014946D01*
X022695Y014937D01*
X022753Y014935D01*
X022811Y014928D01*
X022868Y014918D01*
X022924Y014904D01*
X022980Y014887D01*
X023034Y014865D01*
X023086Y014840D01*
X023137Y014811D01*
X023185Y014780D01*
X023231Y014744D01*
X023275Y014706D01*
X023316Y014665D01*
X023354Y014621D01*
X023390Y014575D01*
X023421Y014527D01*
X023450Y014476D01*
X023475Y014424D01*
X023497Y014370D01*
X023514Y014314D01*
X023528Y014258D01*
X023538Y014201D01*
X023545Y014143D01*
X023547Y014085D01*
X023538Y014085D01*
X023536Y014142D01*
X023530Y014200D01*
X023520Y014256D01*
X023506Y014312D01*
X023488Y014367D01*
X023467Y014420D01*
X023442Y014472D01*
X023414Y014522D01*
X023382Y014570D01*
X023347Y014616D01*
X023310Y014659D01*
X023269Y014700D01*
X023226Y014737D01*
X023180Y014772D01*
X023132Y014804D01*
X023082Y014832D01*
X023030Y014857D01*
X022977Y014878D01*
X022922Y014896D01*
X022866Y014910D01*
X022810Y014920D01*
X022752Y014926D01*
X022695Y014928D01*
X022695Y014919D01*
X022752Y014917D01*
X022808Y014911D01*
X022864Y014901D01*
X022919Y014887D01*
X022974Y014870D01*
X023026Y014849D01*
X023078Y014824D01*
X023127Y014796D01*
X023175Y014765D01*
X023220Y014730D01*
X023263Y014693D01*
X023303Y014653D01*
X023340Y014610D01*
X023375Y014565D01*
X023406Y014517D01*
X023434Y014468D01*
X023459Y014416D01*
X023480Y014364D01*
X023497Y014309D01*
X023511Y014254D01*
X023521Y014198D01*
X023527Y014142D01*
X023529Y014085D01*
X023520Y014085D01*
X023518Y014141D01*
X023512Y014197D01*
X023502Y014252D01*
X023488Y014307D01*
X023471Y014361D01*
X023450Y014413D01*
X023426Y014464D01*
X023398Y014513D01*
X023367Y014560D01*
X023333Y014604D01*
X023296Y014647D01*
X023257Y014686D01*
X023214Y014723D01*
X023170Y014757D01*
X023123Y014788D01*
X023074Y014816D01*
X023023Y014840D01*
X022971Y014861D01*
X022917Y014878D01*
X022862Y014892D01*
X022807Y014902D01*
X022751Y014908D01*
X022695Y014910D01*
X021816Y014076D02*
X021866Y014076D01*
X021865Y014075D02*
X021867Y014019D01*
X021873Y013964D01*
X021883Y013909D01*
X021896Y013854D01*
X021914Y013801D01*
X021934Y013749D01*
X021958Y013699D01*
X021986Y013650D01*
X022017Y013603D01*
X022050Y013559D01*
X022087Y013517D01*
X022127Y013477D01*
X022169Y013440D01*
X022213Y013407D01*
X022260Y013376D01*
X022309Y013348D01*
X022359Y013324D01*
X022411Y013304D01*
X022464Y013286D01*
X022519Y013273D01*
X022574Y013263D01*
X022629Y013257D01*
X022685Y013255D01*
X022686Y013206D01*
X022685Y013205D01*
X022628Y013207D01*
X022572Y013213D01*
X022516Y013223D01*
X022460Y013236D01*
X022406Y013252D01*
X022353Y013273D01*
X022301Y013296D01*
X022251Y013323D01*
X022203Y013353D01*
X022157Y013386D01*
X022113Y013422D01*
X022071Y013461D01*
X022032Y013503D01*
X021996Y013547D01*
X021963Y013593D01*
X021933Y013641D01*
X021906Y013691D01*
X021883Y013743D01*
X021862Y013796D01*
X021846Y013850D01*
X021833Y013906D01*
X021823Y013962D01*
X021817Y014018D01*
X021815Y014075D01*
X021824Y014075D01*
X021826Y014019D01*
X021832Y013963D01*
X021841Y013907D01*
X021854Y013853D01*
X021871Y013799D01*
X021891Y013746D01*
X021914Y013695D01*
X021941Y013646D01*
X021971Y013598D01*
X022003Y013552D01*
X022039Y013509D01*
X022078Y013468D01*
X022119Y013429D01*
X022162Y013393D01*
X022208Y013361D01*
X022256Y013331D01*
X022305Y013304D01*
X022356Y013281D01*
X022409Y013261D01*
X022463Y013244D01*
X022517Y013231D01*
X022573Y013222D01*
X022629Y013216D01*
X022685Y013214D01*
X022685Y013223D01*
X022627Y013225D01*
X022569Y013232D01*
X022512Y013242D01*
X022456Y013256D01*
X022400Y013273D01*
X022346Y013295D01*
X022294Y013320D01*
X022243Y013349D01*
X022195Y013380D01*
X022149Y013416D01*
X022105Y013454D01*
X022064Y013495D01*
X022026Y013539D01*
X021990Y013585D01*
X021959Y013633D01*
X021930Y013684D01*
X021905Y013736D01*
X021883Y013790D01*
X021866Y013846D01*
X021852Y013902D01*
X021842Y013959D01*
X021835Y014017D01*
X021833Y014075D01*
X021842Y014075D01*
X021844Y014018D01*
X021850Y013960D01*
X021860Y013904D01*
X021874Y013848D01*
X021892Y013793D01*
X021913Y013740D01*
X021938Y013688D01*
X021966Y013638D01*
X021998Y013590D01*
X022033Y013544D01*
X022070Y013501D01*
X022111Y013460D01*
X022154Y013423D01*
X022200Y013388D01*
X022248Y013356D01*
X022298Y013328D01*
X022350Y013303D01*
X022403Y013282D01*
X022458Y013264D01*
X022514Y013250D01*
X022570Y013240D01*
X022628Y013234D01*
X022685Y013232D01*
X022685Y013241D01*
X022628Y013243D01*
X022572Y013249D01*
X022516Y013259D01*
X022461Y013273D01*
X022406Y013290D01*
X022354Y013311D01*
X022302Y013336D01*
X022253Y013364D01*
X022205Y013395D01*
X022160Y013430D01*
X022117Y013467D01*
X022077Y013507D01*
X022040Y013550D01*
X022005Y013595D01*
X021974Y013643D01*
X021946Y013692D01*
X021921Y013744D01*
X021900Y013796D01*
X021883Y013851D01*
X021869Y013906D01*
X021859Y013962D01*
X021853Y014018D01*
X021851Y014075D01*
X021860Y014075D01*
X021862Y014019D01*
X021868Y013963D01*
X021878Y013908D01*
X021892Y013853D01*
X021909Y013799D01*
X021930Y013747D01*
X021954Y013696D01*
X021982Y013647D01*
X022013Y013600D01*
X022047Y013556D01*
X022084Y013513D01*
X022123Y013474D01*
X022166Y013437D01*
X022210Y013403D01*
X022257Y013372D01*
X022306Y013344D01*
X022357Y013320D01*
X022409Y013299D01*
X022463Y013282D01*
X022518Y013268D01*
X022573Y013258D01*
X022629Y013252D01*
X022685Y013250D01*
X021910Y015112D02*
X021964Y015040D01*
X021963Y015041D02*
X021910Y014998D01*
X021859Y014953D01*
X021811Y014904D01*
X021766Y014853D01*
X021723Y014799D01*
X021684Y014743D01*
X021648Y014685D01*
X021615Y014625D01*
X021586Y014564D01*
X021561Y014500D01*
X021539Y014436D01*
X021520Y014370D01*
X021506Y014303D01*
X021495Y014236D01*
X021488Y014168D01*
X021485Y014100D01*
X021486Y014031D01*
X021491Y013963D01*
X021499Y013895D01*
X021512Y013828D01*
X021528Y013762D01*
X021548Y013697D01*
X021571Y013632D01*
X021598Y013570D01*
X021629Y013509D01*
X021663Y013450D01*
X021700Y013392D01*
X021741Y013337D01*
X021785Y013285D01*
X021831Y013235D01*
X021880Y013188D01*
X021932Y013143D01*
X021986Y013102D01*
X022043Y013063D01*
X022102Y013028D01*
X022162Y012997D01*
X022224Y012969D01*
X022288Y012944D01*
X022353Y012923D01*
X022419Y012906D01*
X022486Y012892D01*
X022554Y012883D01*
X022622Y012877D01*
X022690Y012875D01*
X022758Y012877D01*
X022826Y012883D01*
X022894Y012892D01*
X022961Y012906D01*
X023027Y012923D01*
X023092Y012944D01*
X023156Y012969D01*
X023218Y012997D01*
X023278Y013028D01*
X023337Y013063D01*
X023394Y013102D01*
X023448Y013143D01*
X023500Y013188D01*
X023549Y013235D01*
X023595Y013285D01*
X023639Y013337D01*
X023680Y013392D01*
X023717Y013450D01*
X023751Y013509D01*
X023782Y013570D01*
X023809Y013632D01*
X023832Y013697D01*
X023852Y013762D01*
X023868Y013828D01*
X023881Y013895D01*
X023889Y013963D01*
X023894Y014031D01*
X023895Y014100D01*
X023892Y014168D01*
X023885Y014236D01*
X023874Y014303D01*
X023860Y014370D01*
X023841Y014436D01*
X023819Y014500D01*
X023794Y014564D01*
X023765Y014625D01*
X023732Y014685D01*
X023696Y014743D01*
X023657Y014799D01*
X023614Y014853D01*
X023569Y014904D01*
X023521Y014953D01*
X023470Y014998D01*
X023417Y015041D01*
X023470Y015112D01*
X023471Y015113D01*
X023526Y015069D01*
X023579Y015021D01*
X023630Y014971D01*
X023677Y014918D01*
X023721Y014863D01*
X023763Y014805D01*
X023801Y014745D01*
X023836Y014684D01*
X023867Y014620D01*
X023895Y014555D01*
X023919Y014488D01*
X023940Y014420D01*
X023956Y014351D01*
X023969Y014281D01*
X023978Y014211D01*
X023984Y014140D01*
X023985Y014069D01*
X023982Y013998D01*
X023976Y013927D01*
X023966Y013857D01*
X023952Y013788D01*
X023934Y013719D01*
X023912Y013651D01*
X023887Y013585D01*
X023858Y013520D01*
X023825Y013457D01*
X023789Y013396D01*
X023750Y013337D01*
X023708Y013280D01*
X023663Y013225D01*
X023614Y013173D01*
X023563Y013124D01*
X023510Y013077D01*
X023453Y013034D01*
X023395Y012994D01*
X023334Y012957D01*
X023272Y012923D01*
X023208Y012893D01*
X023142Y012866D01*
X023075Y012843D01*
X023006Y012824D01*
X022937Y012809D01*
X022867Y012797D01*
X022796Y012789D01*
X022725Y012785D01*
X022655Y012785D01*
X022584Y012789D01*
X022513Y012797D01*
X022443Y012809D01*
X022374Y012824D01*
X022305Y012843D01*
X022238Y012866D01*
X022172Y012893D01*
X022108Y012923D01*
X022046Y012957D01*
X021985Y012994D01*
X021927Y013034D01*
X021870Y013077D01*
X021817Y013124D01*
X021766Y013173D01*
X021717Y013225D01*
X021672Y013280D01*
X021630Y013337D01*
X021591Y013396D01*
X021555Y013457D01*
X021522Y013520D01*
X021493Y013585D01*
X021468Y013651D01*
X021446Y013719D01*
X021428Y013788D01*
X021414Y013857D01*
X021404Y013927D01*
X021398Y013998D01*
X021395Y014069D01*
X021396Y014140D01*
X021402Y014211D01*
X021411Y014281D01*
X021424Y014351D01*
X021440Y014420D01*
X021461Y014488D01*
X021485Y014555D01*
X021513Y014620D01*
X021544Y014684D01*
X021579Y014745D01*
X021617Y014805D01*
X021659Y014863D01*
X021703Y014918D01*
X021750Y014971D01*
X021801Y015021D01*
X021854Y015069D01*
X021909Y015113D01*
X021914Y015106D01*
X021859Y015061D01*
X021806Y015014D01*
X021755Y014963D01*
X021708Y014910D01*
X021663Y014854D01*
X021622Y014796D01*
X021584Y014736D01*
X021549Y014674D01*
X021518Y014610D01*
X021491Y014544D01*
X021467Y014477D01*
X021447Y014408D01*
X021430Y014339D01*
X021418Y014269D01*
X021409Y014198D01*
X021405Y014127D01*
X021404Y014056D01*
X021408Y013985D01*
X021415Y013914D01*
X021426Y013843D01*
X021441Y013774D01*
X021460Y013705D01*
X021483Y013637D01*
X021509Y013571D01*
X021539Y013506D01*
X021573Y013444D01*
X021609Y013383D01*
X021650Y013324D01*
X021693Y013267D01*
X021740Y013213D01*
X021789Y013162D01*
X021842Y013114D01*
X021896Y013068D01*
X021954Y013026D01*
X022013Y012987D01*
X022075Y012951D01*
X022138Y012918D01*
X022203Y012890D01*
X022270Y012864D01*
X022338Y012843D01*
X022407Y012825D01*
X022477Y012812D01*
X022548Y012802D01*
X022619Y012796D01*
X022690Y012794D01*
X022761Y012796D01*
X022832Y012802D01*
X022903Y012812D01*
X022973Y012825D01*
X023042Y012843D01*
X023110Y012864D01*
X023177Y012890D01*
X023242Y012918D01*
X023305Y012951D01*
X023367Y012987D01*
X023426Y013026D01*
X023484Y013068D01*
X023538Y013114D01*
X023591Y013162D01*
X023640Y013213D01*
X023687Y013267D01*
X023730Y013324D01*
X023771Y013383D01*
X023807Y013444D01*
X023841Y013506D01*
X023871Y013571D01*
X023897Y013637D01*
X023920Y013705D01*
X023939Y013774D01*
X023954Y013843D01*
X023965Y013914D01*
X023972Y013985D01*
X023976Y014056D01*
X023975Y014127D01*
X023971Y014198D01*
X023962Y014269D01*
X023950Y014339D01*
X023933Y014408D01*
X023913Y014477D01*
X023889Y014544D01*
X023862Y014610D01*
X023831Y014674D01*
X023796Y014736D01*
X023758Y014796D01*
X023717Y014854D01*
X023672Y014910D01*
X023625Y014963D01*
X023574Y015014D01*
X023521Y015061D01*
X023466Y015106D01*
X023460Y015099D01*
X023515Y015054D01*
X023568Y015007D01*
X023618Y014957D01*
X023665Y014904D01*
X023709Y014849D01*
X023751Y014791D01*
X023788Y014732D01*
X023823Y014670D01*
X023854Y014606D01*
X023881Y014541D01*
X023905Y014474D01*
X023925Y014406D01*
X023941Y014337D01*
X023953Y014268D01*
X023962Y014197D01*
X023966Y014127D01*
X023967Y014056D01*
X023963Y013985D01*
X023956Y013915D01*
X023945Y013845D01*
X023930Y013776D01*
X023911Y013708D01*
X023889Y013640D01*
X023863Y013575D01*
X023833Y013510D01*
X023800Y013448D01*
X023763Y013388D01*
X023723Y013329D01*
X023680Y013273D01*
X023634Y013219D01*
X023584Y013169D01*
X023533Y013120D01*
X023478Y013075D01*
X023421Y013033D01*
X023362Y012994D01*
X023301Y012959D01*
X023238Y012926D01*
X023173Y012898D01*
X023107Y012873D01*
X023039Y012852D01*
X022971Y012834D01*
X022901Y012821D01*
X022831Y012811D01*
X022761Y012805D01*
X022690Y012803D01*
X022619Y012805D01*
X022549Y012811D01*
X022479Y012821D01*
X022409Y012834D01*
X022341Y012852D01*
X022273Y012873D01*
X022207Y012898D01*
X022142Y012926D01*
X022079Y012959D01*
X022018Y012994D01*
X021959Y013033D01*
X021902Y013075D01*
X021847Y013120D01*
X021796Y013169D01*
X021746Y013219D01*
X021700Y013273D01*
X021657Y013329D01*
X021617Y013388D01*
X021580Y013448D01*
X021547Y013510D01*
X021517Y013575D01*
X021491Y013640D01*
X021469Y013708D01*
X021450Y013776D01*
X021435Y013845D01*
X021424Y013915D01*
X021417Y013985D01*
X021413Y014056D01*
X021414Y014127D01*
X021418Y014197D01*
X021427Y014268D01*
X021439Y014337D01*
X021455Y014406D01*
X021475Y014474D01*
X021499Y014541D01*
X021526Y014606D01*
X021557Y014670D01*
X021592Y014732D01*
X021629Y014791D01*
X021671Y014849D01*
X021715Y014904D01*
X021762Y014957D01*
X021812Y015007D01*
X021865Y015054D01*
X021920Y015099D01*
X021925Y015091D01*
X021870Y015047D01*
X021817Y014999D01*
X021767Y014949D01*
X021719Y014896D01*
X021675Y014840D01*
X021634Y014782D01*
X021597Y014722D01*
X021562Y014660D01*
X021532Y014596D01*
X021505Y014530D01*
X021481Y014463D01*
X021462Y014395D01*
X021446Y014325D01*
X021434Y014255D01*
X021426Y014185D01*
X021422Y014114D01*
X021423Y014043D01*
X021427Y013972D01*
X021435Y013901D01*
X021447Y013831D01*
X021463Y013762D01*
X021482Y013694D01*
X021506Y013626D01*
X021533Y013561D01*
X021564Y013497D01*
X021598Y013435D01*
X021636Y013375D01*
X021678Y013317D01*
X021722Y013261D01*
X021769Y013208D01*
X021820Y013158D01*
X021873Y013111D01*
X021928Y013066D01*
X021986Y013025D01*
X022046Y012988D01*
X022109Y012953D01*
X022173Y012922D01*
X022238Y012895D01*
X022305Y012872D01*
X022374Y012852D01*
X022443Y012836D01*
X022513Y012824D01*
X022584Y012816D01*
X022654Y012812D01*
X022726Y012812D01*
X022796Y012816D01*
X022867Y012824D01*
X022937Y012836D01*
X023006Y012852D01*
X023075Y012872D01*
X023142Y012895D01*
X023207Y012922D01*
X023271Y012953D01*
X023334Y012988D01*
X023394Y013025D01*
X023452Y013066D01*
X023507Y013111D01*
X023560Y013158D01*
X023611Y013208D01*
X023658Y013261D01*
X023702Y013317D01*
X023744Y013375D01*
X023782Y013435D01*
X023816Y013497D01*
X023847Y013561D01*
X023874Y013626D01*
X023898Y013694D01*
X023917Y013762D01*
X023933Y013831D01*
X023945Y013901D01*
X023953Y013972D01*
X023957Y014043D01*
X023958Y014114D01*
X023954Y014185D01*
X023946Y014255D01*
X023934Y014325D01*
X023918Y014395D01*
X023899Y014463D01*
X023875Y014530D01*
X023848Y014596D01*
X023818Y014660D01*
X023783Y014722D01*
X023746Y014782D01*
X023705Y014840D01*
X023661Y014896D01*
X023613Y014949D01*
X023563Y014999D01*
X023510Y015047D01*
X023455Y015091D01*
X023449Y015084D01*
X023504Y015040D01*
X023557Y014993D01*
X023607Y014943D01*
X023654Y014890D01*
X023698Y014835D01*
X023738Y014777D01*
X023776Y014718D01*
X023810Y014656D01*
X023840Y014592D01*
X023867Y014527D01*
X023890Y014460D01*
X023910Y014392D01*
X023925Y014324D01*
X023937Y014254D01*
X023945Y014184D01*
X023949Y014113D01*
X023948Y014043D01*
X023944Y013972D01*
X023936Y013902D01*
X023924Y013833D01*
X023909Y013764D01*
X023889Y013696D01*
X023866Y013630D01*
X023839Y013565D01*
X023808Y013501D01*
X023774Y013439D01*
X023736Y013380D01*
X023695Y013322D01*
X023651Y013267D01*
X023604Y013214D01*
X023554Y013165D01*
X023502Y013118D01*
X023446Y013074D01*
X023389Y013033D01*
X023329Y012995D01*
X023267Y012961D01*
X023204Y012931D01*
X023139Y012904D01*
X023072Y012880D01*
X023004Y012861D01*
X022935Y012845D01*
X022866Y012833D01*
X022796Y012825D01*
X022725Y012821D01*
X022655Y012821D01*
X022584Y012825D01*
X022514Y012833D01*
X022445Y012845D01*
X022376Y012861D01*
X022308Y012880D01*
X022241Y012904D01*
X022176Y012931D01*
X022113Y012961D01*
X022051Y012995D01*
X021991Y013033D01*
X021934Y013074D01*
X021878Y013118D01*
X021826Y013165D01*
X021776Y013214D01*
X021729Y013267D01*
X021685Y013322D01*
X021644Y013380D01*
X021606Y013439D01*
X021572Y013501D01*
X021541Y013565D01*
X021514Y013630D01*
X021491Y013696D01*
X021471Y013764D01*
X021456Y013833D01*
X021444Y013902D01*
X021436Y013972D01*
X021432Y014043D01*
X021431Y014113D01*
X021435Y014184D01*
X021443Y014254D01*
X021455Y014324D01*
X021470Y014392D01*
X021490Y014460D01*
X021513Y014527D01*
X021540Y014592D01*
X021570Y014656D01*
X021604Y014718D01*
X021642Y014777D01*
X021682Y014835D01*
X021726Y014890D01*
X021773Y014943D01*
X021823Y014993D01*
X021876Y015040D01*
X021931Y015084D01*
X021936Y015077D01*
X021881Y015033D01*
X021829Y014986D01*
X021780Y014937D01*
X021733Y014884D01*
X021690Y014830D01*
X021649Y014772D01*
X021612Y014713D01*
X021578Y014652D01*
X021548Y014588D01*
X021521Y014524D01*
X021498Y014457D01*
X021479Y014390D01*
X021464Y014322D01*
X021452Y014253D01*
X021444Y014183D01*
X021440Y014113D01*
X021441Y014043D01*
X021445Y013973D01*
X021453Y013904D01*
X021464Y013835D01*
X021480Y013766D01*
X021499Y013699D01*
X021523Y013633D01*
X021550Y013568D01*
X021580Y013505D01*
X021614Y013444D01*
X021651Y013385D01*
X021692Y013327D01*
X021736Y013273D01*
X021782Y013221D01*
X021832Y013171D01*
X021884Y013124D01*
X021939Y013081D01*
X021996Y013040D01*
X022055Y013003D01*
X022117Y012969D01*
X022180Y012939D01*
X022245Y012912D01*
X022311Y012889D01*
X022378Y012870D01*
X022446Y012854D01*
X022515Y012842D01*
X022585Y012834D01*
X022655Y012830D01*
X022725Y012830D01*
X022795Y012834D01*
X022865Y012842D01*
X022934Y012854D01*
X023002Y012870D01*
X023069Y012889D01*
X023135Y012912D01*
X023200Y012939D01*
X023263Y012969D01*
X023325Y013003D01*
X023384Y013040D01*
X023441Y013081D01*
X023496Y013124D01*
X023548Y013171D01*
X023598Y013221D01*
X023644Y013273D01*
X023688Y013327D01*
X023729Y013385D01*
X023766Y013444D01*
X023800Y013505D01*
X023830Y013568D01*
X023857Y013633D01*
X023881Y013699D01*
X023900Y013766D01*
X023916Y013835D01*
X023927Y013904D01*
X023935Y013973D01*
X023939Y014043D01*
X023940Y014113D01*
X023936Y014183D01*
X023928Y014253D01*
X023916Y014322D01*
X023901Y014390D01*
X023882Y014457D01*
X023859Y014524D01*
X023832Y014588D01*
X023802Y014652D01*
X023768Y014713D01*
X023731Y014772D01*
X023690Y014830D01*
X023647Y014884D01*
X023600Y014937D01*
X023551Y014986D01*
X023499Y015033D01*
X023444Y015077D01*
X023439Y015070D01*
X023493Y015026D01*
X023545Y014980D01*
X023594Y014931D01*
X023640Y014879D01*
X023683Y014824D01*
X023723Y014767D01*
X023760Y014708D01*
X023794Y014647D01*
X023824Y014585D01*
X023850Y014520D01*
X023873Y014455D01*
X023892Y014388D01*
X023908Y014320D01*
X023919Y014251D01*
X023927Y014182D01*
X023931Y014113D01*
X023930Y014043D01*
X023926Y013974D01*
X023919Y013905D01*
X023907Y013836D01*
X023891Y013769D01*
X023872Y013702D01*
X023849Y013636D01*
X023822Y013572D01*
X023792Y013509D01*
X023758Y013448D01*
X023721Y013390D01*
X023681Y013333D01*
X023638Y013279D01*
X023591Y013227D01*
X023542Y013178D01*
X023490Y013131D01*
X023436Y013088D01*
X023379Y013048D01*
X023320Y013011D01*
X023259Y012977D01*
X023196Y012947D01*
X023132Y012920D01*
X023067Y012897D01*
X023000Y012878D01*
X022932Y012863D01*
X022863Y012851D01*
X022794Y012843D01*
X022725Y012839D01*
X022655Y012839D01*
X022586Y012843D01*
X022517Y012851D01*
X022448Y012863D01*
X022380Y012878D01*
X022313Y012897D01*
X022248Y012920D01*
X022184Y012947D01*
X022121Y012977D01*
X022060Y013011D01*
X022001Y013048D01*
X021944Y013088D01*
X021890Y013131D01*
X021838Y013178D01*
X021789Y013227D01*
X021742Y013279D01*
X021699Y013333D01*
X021659Y013390D01*
X021622Y013448D01*
X021588Y013509D01*
X021558Y013572D01*
X021531Y013636D01*
X021508Y013702D01*
X021489Y013769D01*
X021473Y013836D01*
X021461Y013905D01*
X021454Y013974D01*
X021450Y014043D01*
X021449Y014113D01*
X021453Y014182D01*
X021461Y014251D01*
X021472Y014320D01*
X021488Y014388D01*
X021507Y014455D01*
X021530Y014520D01*
X021556Y014585D01*
X021586Y014647D01*
X021620Y014708D01*
X021657Y014767D01*
X021697Y014824D01*
X021740Y014879D01*
X021786Y014931D01*
X021835Y014980D01*
X021887Y015026D01*
X021941Y015070D01*
X021947Y015063D01*
X021893Y015019D01*
X021842Y014973D01*
X021793Y014924D01*
X021747Y014873D01*
X021704Y014819D01*
X021664Y014762D01*
X021628Y014704D01*
X021594Y014643D01*
X021564Y014581D01*
X021538Y014517D01*
X021516Y014452D01*
X021497Y014386D01*
X021481Y014318D01*
X021470Y014250D01*
X021462Y014182D01*
X021458Y014113D01*
X021459Y014044D01*
X021463Y013975D01*
X021470Y013906D01*
X021482Y013838D01*
X021497Y013771D01*
X021517Y013704D01*
X021540Y013639D01*
X021566Y013576D01*
X021596Y013513D01*
X021629Y013453D01*
X021666Y013395D01*
X021706Y013338D01*
X021749Y013284D01*
X021795Y013233D01*
X021844Y013184D01*
X021896Y013138D01*
X021950Y013095D01*
X022006Y013055D01*
X022065Y013019D01*
X022125Y012985D01*
X022187Y012955D01*
X022251Y012929D01*
X022316Y012906D01*
X022383Y012887D01*
X022450Y012872D01*
X022518Y012860D01*
X022587Y012852D01*
X022655Y012848D01*
X022725Y012848D01*
X022793Y012852D01*
X022862Y012860D01*
X022930Y012872D01*
X022997Y012887D01*
X023064Y012906D01*
X023129Y012929D01*
X023193Y012955D01*
X023255Y012985D01*
X023315Y013019D01*
X023374Y013055D01*
X023430Y013095D01*
X023484Y013138D01*
X023536Y013184D01*
X023585Y013233D01*
X023631Y013284D01*
X023674Y013338D01*
X023714Y013395D01*
X023751Y013453D01*
X023784Y013513D01*
X023814Y013576D01*
X023840Y013639D01*
X023863Y013704D01*
X023883Y013771D01*
X023898Y013838D01*
X023910Y013906D01*
X023917Y013975D01*
X023921Y014044D01*
X023922Y014113D01*
X023918Y014182D01*
X023910Y014250D01*
X023899Y014318D01*
X023883Y014386D01*
X023864Y014452D01*
X023842Y014517D01*
X023816Y014581D01*
X023786Y014643D01*
X023752Y014704D01*
X023716Y014762D01*
X023676Y014819D01*
X023633Y014873D01*
X023587Y014924D01*
X023538Y014973D01*
X023487Y015019D01*
X023433Y015063D01*
X023428Y015055D01*
X023482Y015012D01*
X023533Y014966D01*
X023582Y014916D01*
X023628Y014865D01*
X023671Y014810D01*
X023711Y014753D01*
X023747Y014695D01*
X023781Y014634D01*
X023810Y014571D01*
X023836Y014507D01*
X023858Y014441D01*
X023877Y014374D01*
X023892Y014307D01*
X023903Y014238D01*
X023910Y014169D01*
X023913Y014100D01*
X023912Y014031D01*
X023907Y013961D01*
X023899Y013893D01*
X023886Y013825D01*
X023870Y013757D01*
X023849Y013691D01*
X023826Y013626D01*
X023798Y013562D01*
X023767Y013500D01*
X023732Y013440D01*
X023694Y013382D01*
X023653Y013326D01*
X023609Y013273D01*
X023562Y013222D01*
X023512Y013174D01*
X023459Y013129D01*
X023404Y013087D01*
X023347Y013048D01*
X023287Y013013D01*
X023226Y012981D01*
X023163Y012952D01*
X023098Y012927D01*
X023032Y012906D01*
X022965Y012888D01*
X022897Y012875D01*
X022828Y012865D01*
X022759Y012859D01*
X022690Y012857D01*
X022621Y012859D01*
X022552Y012865D01*
X022483Y012875D01*
X022415Y012888D01*
X022348Y012906D01*
X022282Y012927D01*
X022217Y012952D01*
X022154Y012981D01*
X022093Y013013D01*
X022033Y013048D01*
X021976Y013087D01*
X021921Y013129D01*
X021868Y013174D01*
X021818Y013222D01*
X021771Y013273D01*
X021727Y013326D01*
X021686Y013382D01*
X021648Y013440D01*
X021613Y013500D01*
X021582Y013562D01*
X021554Y013626D01*
X021531Y013691D01*
X021510Y013757D01*
X021494Y013825D01*
X021481Y013893D01*
X021473Y013961D01*
X021468Y014031D01*
X021467Y014100D01*
X021470Y014169D01*
X021477Y014238D01*
X021488Y014307D01*
X021503Y014374D01*
X021522Y014441D01*
X021544Y014507D01*
X021570Y014571D01*
X021599Y014634D01*
X021633Y014695D01*
X021669Y014753D01*
X021709Y014810D01*
X021752Y014865D01*
X021798Y014916D01*
X021847Y014966D01*
X021898Y015012D01*
X021952Y015055D01*
X021958Y015048D01*
X021904Y015005D01*
X021853Y014959D01*
X021804Y014910D01*
X021759Y014859D01*
X021716Y014805D01*
X021677Y014748D01*
X021640Y014690D01*
X021607Y014630D01*
X021578Y014567D01*
X021552Y014504D01*
X021530Y014438D01*
X021512Y014372D01*
X021497Y014305D01*
X021486Y014237D01*
X021479Y014168D01*
X021476Y014100D01*
X021477Y014031D01*
X021482Y013962D01*
X021490Y013894D01*
X021503Y013826D01*
X021519Y013760D01*
X021539Y013694D01*
X021563Y013629D01*
X021590Y013566D01*
X021621Y013505D01*
X021655Y013445D01*
X021693Y013387D01*
X021734Y013332D01*
X021778Y013279D01*
X021825Y013229D01*
X021874Y013181D01*
X021926Y013136D01*
X021981Y013094D01*
X022038Y013056D01*
X022097Y013021D01*
X022158Y012989D01*
X022221Y012960D01*
X022285Y012936D01*
X022351Y012914D01*
X022417Y012897D01*
X022485Y012884D01*
X022553Y012874D01*
X022621Y012868D01*
X022690Y012866D01*
X022759Y012868D01*
X022827Y012874D01*
X022895Y012884D01*
X022963Y012897D01*
X023029Y012914D01*
X023095Y012936D01*
X023159Y012960D01*
X023222Y012989D01*
X023283Y013021D01*
X023342Y013056D01*
X023399Y013094D01*
X023454Y013136D01*
X023506Y013181D01*
X023555Y013229D01*
X023602Y013279D01*
X023646Y013332D01*
X023687Y013387D01*
X023725Y013445D01*
X023759Y013505D01*
X023790Y013566D01*
X023817Y013629D01*
X023841Y013694D01*
X023861Y013760D01*
X023877Y013826D01*
X023890Y013894D01*
X023898Y013962D01*
X023903Y014031D01*
X023904Y014100D01*
X023901Y014168D01*
X023894Y014237D01*
X023883Y014305D01*
X023868Y014372D01*
X023850Y014438D01*
X023828Y014504D01*
X023802Y014567D01*
X023773Y014630D01*
X023740Y014690D01*
X023703Y014748D01*
X023664Y014805D01*
X023621Y014859D01*
X023576Y014910D01*
X023527Y014959D01*
X023476Y015005D01*
X023422Y015048D01*
X023364Y014084D02*
X023314Y014084D01*
X023315Y014085D02*
X023313Y014134D01*
X023307Y014182D01*
X023297Y014229D01*
X023283Y014276D01*
X023266Y014321D01*
X023246Y014366D01*
X023222Y014408D01*
X023195Y014448D01*
X023165Y014486D01*
X023132Y014522D01*
X023096Y014555D01*
X023058Y014585D01*
X023018Y014612D01*
X022976Y014636D01*
X022931Y014656D01*
X022886Y014673D01*
X022839Y014687D01*
X022792Y014697D01*
X022744Y014703D01*
X022695Y014705D01*
X022694Y014754D01*
X022695Y014755D01*
X022745Y014753D01*
X022795Y014747D01*
X022844Y014737D01*
X022892Y014724D01*
X022939Y014707D01*
X022985Y014687D01*
X023029Y014664D01*
X023071Y014637D01*
X023111Y014607D01*
X023149Y014575D01*
X023185Y014539D01*
X023217Y014501D01*
X023247Y014461D01*
X023274Y014419D01*
X023297Y014375D01*
X023317Y014329D01*
X023334Y014282D01*
X023347Y014234D01*
X023357Y014185D01*
X023363Y014135D01*
X023365Y014085D01*
X023356Y014085D01*
X023354Y014134D01*
X023348Y014183D01*
X023338Y014232D01*
X023325Y014279D01*
X023309Y014326D01*
X023289Y014371D01*
X023266Y014414D01*
X023240Y014456D01*
X023210Y014496D01*
X023178Y014533D01*
X023143Y014568D01*
X023106Y014600D01*
X023066Y014630D01*
X023024Y014656D01*
X022981Y014679D01*
X022936Y014699D01*
X022889Y014715D01*
X022842Y014728D01*
X022793Y014738D01*
X022744Y014744D01*
X022695Y014746D01*
X022695Y014737D01*
X022744Y014735D01*
X022792Y014729D01*
X022840Y014720D01*
X022887Y014707D01*
X022932Y014691D01*
X022977Y014671D01*
X023020Y014648D01*
X023061Y014622D01*
X023100Y014593D01*
X023137Y014561D01*
X023171Y014527D01*
X023203Y014490D01*
X023232Y014451D01*
X023258Y014410D01*
X023281Y014367D01*
X023301Y014322D01*
X023317Y014277D01*
X023330Y014230D01*
X023339Y014182D01*
X023345Y014134D01*
X023347Y014085D01*
X023338Y014085D01*
X023336Y014135D01*
X023329Y014185D01*
X023319Y014235D01*
X023305Y014283D01*
X023288Y014330D01*
X023266Y014376D01*
X023242Y014420D01*
X023214Y014462D01*
X023182Y014501D01*
X023148Y014538D01*
X023111Y014572D01*
X023072Y014604D01*
X023030Y014632D01*
X022986Y014656D01*
X022940Y014678D01*
X022893Y014695D01*
X022845Y014709D01*
X022795Y014719D01*
X022745Y014726D01*
X022695Y014728D01*
X022695Y014719D01*
X022745Y014717D01*
X022794Y014710D01*
X022843Y014701D01*
X022890Y014687D01*
X022937Y014669D01*
X022982Y014648D01*
X023025Y014624D01*
X023066Y014596D01*
X023105Y014566D01*
X023142Y014532D01*
X023176Y014495D01*
X023206Y014456D01*
X023234Y014415D01*
X023258Y014372D01*
X023279Y014327D01*
X023297Y014280D01*
X023311Y014233D01*
X023320Y014184D01*
X023327Y014135D01*
X023329Y014085D01*
X023320Y014085D01*
X023318Y014134D01*
X023312Y014183D01*
X023302Y014230D01*
X023288Y014278D01*
X023271Y014323D01*
X023250Y014368D01*
X023226Y014410D01*
X023199Y014451D01*
X023169Y014490D01*
X023135Y014525D01*
X023100Y014559D01*
X023061Y014589D01*
X023020Y014616D01*
X022978Y014640D01*
X022933Y014661D01*
X022888Y014678D01*
X022840Y014692D01*
X022793Y014702D01*
X022744Y014708D01*
X022695Y014710D01*
X022016Y014076D02*
X022066Y014076D01*
X022065Y014075D02*
X022067Y014026D01*
X022073Y013978D01*
X022083Y013931D01*
X022097Y013884D01*
X022114Y013839D01*
X022134Y013794D01*
X022158Y013752D01*
X022185Y013712D01*
X022215Y013674D01*
X022248Y013638D01*
X022284Y013605D01*
X022322Y013575D01*
X022362Y013548D01*
X022404Y013524D01*
X022449Y013504D01*
X022494Y013487D01*
X022541Y013473D01*
X022588Y013463D01*
X022636Y013457D01*
X022685Y013455D01*
X022686Y013406D01*
X022685Y013405D01*
X022635Y013407D01*
X022585Y013413D01*
X022536Y013423D01*
X022488Y013436D01*
X022441Y013453D01*
X022395Y013473D01*
X022351Y013496D01*
X022309Y013523D01*
X022269Y013553D01*
X022231Y013585D01*
X022195Y013621D01*
X022163Y013659D01*
X022133Y013699D01*
X022106Y013741D01*
X022083Y013785D01*
X022063Y013831D01*
X022046Y013878D01*
X022033Y013926D01*
X022023Y013975D01*
X022017Y014025D01*
X022015Y014075D01*
X022024Y014075D01*
X022026Y014026D01*
X022032Y013977D01*
X022042Y013928D01*
X022055Y013881D01*
X022071Y013834D01*
X022091Y013789D01*
X022114Y013746D01*
X022140Y013704D01*
X022170Y013664D01*
X022202Y013627D01*
X022237Y013592D01*
X022274Y013560D01*
X022314Y013530D01*
X022356Y013504D01*
X022399Y013481D01*
X022444Y013461D01*
X022491Y013445D01*
X022538Y013432D01*
X022587Y013422D01*
X022636Y013416D01*
X022685Y013414D01*
X022685Y013423D01*
X022636Y013425D01*
X022588Y013431D01*
X022540Y013440D01*
X022493Y013453D01*
X022448Y013469D01*
X022403Y013489D01*
X022360Y013512D01*
X022319Y013538D01*
X022280Y013567D01*
X022243Y013599D01*
X022209Y013633D01*
X022177Y013670D01*
X022148Y013709D01*
X022122Y013750D01*
X022099Y013793D01*
X022079Y013838D01*
X022063Y013883D01*
X022050Y013930D01*
X022041Y013978D01*
X022035Y014026D01*
X022033Y014075D01*
X022042Y014075D01*
X022044Y014025D01*
X022051Y013975D01*
X022061Y013925D01*
X022075Y013877D01*
X022092Y013830D01*
X022114Y013784D01*
X022138Y013740D01*
X022166Y013698D01*
X022198Y013659D01*
X022232Y013622D01*
X022269Y013588D01*
X022308Y013556D01*
X022350Y013528D01*
X022394Y013504D01*
X022440Y013482D01*
X022487Y013465D01*
X022535Y013451D01*
X022585Y013441D01*
X022635Y013434D01*
X022685Y013432D01*
X022685Y013441D01*
X022635Y013443D01*
X022586Y013450D01*
X022537Y013459D01*
X022490Y013473D01*
X022443Y013491D01*
X022398Y013512D01*
X022355Y013536D01*
X022314Y013564D01*
X022275Y013594D01*
X022238Y013628D01*
X022204Y013665D01*
X022174Y013704D01*
X022146Y013745D01*
X022122Y013788D01*
X022101Y013833D01*
X022083Y013880D01*
X022069Y013927D01*
X022060Y013976D01*
X022053Y014025D01*
X022051Y014075D01*
X022060Y014075D01*
X022062Y014026D01*
X022068Y013977D01*
X022078Y013930D01*
X022092Y013882D01*
X022109Y013837D01*
X022130Y013792D01*
X022154Y013750D01*
X022181Y013709D01*
X022211Y013670D01*
X022245Y013635D01*
X022280Y013601D01*
X022319Y013571D01*
X022360Y013544D01*
X022402Y013520D01*
X022447Y013499D01*
X022492Y013482D01*
X022540Y013468D01*
X022587Y013458D01*
X022636Y013452D01*
X022685Y013450D01*
X023164Y014084D02*
X023114Y014084D01*
X023115Y014085D02*
X023113Y014124D01*
X023107Y014162D01*
X023098Y014199D01*
X023085Y014236D01*
X023070Y014271D01*
X023051Y014305D01*
X023029Y014337D01*
X023004Y014367D01*
X022977Y014394D01*
X022947Y014419D01*
X022915Y014441D01*
X022881Y014460D01*
X022846Y014475D01*
X022809Y014488D01*
X022772Y014497D01*
X022734Y014503D01*
X022695Y014505D01*
X022694Y014554D01*
X022695Y014555D01*
X022736Y014553D01*
X022776Y014547D01*
X022816Y014538D01*
X022855Y014525D01*
X022893Y014510D01*
X022929Y014491D01*
X022963Y014468D01*
X022996Y014444D01*
X023026Y014416D01*
X023054Y014386D01*
X023078Y014353D01*
X023101Y014319D01*
X023120Y014283D01*
X023135Y014245D01*
X023148Y014206D01*
X023157Y014166D01*
X023163Y014126D01*
X023165Y014085D01*
X023156Y014085D01*
X023154Y014127D01*
X023147Y014169D01*
X023137Y014211D01*
X023124Y014251D01*
X023106Y014290D01*
X023085Y014327D01*
X023061Y014362D01*
X023034Y014394D01*
X023004Y014424D01*
X022972Y014451D01*
X022937Y014475D01*
X022900Y014496D01*
X022861Y014514D01*
X022821Y014527D01*
X022779Y014537D01*
X022737Y014544D01*
X022695Y014546D01*
X022695Y014537D01*
X022737Y014535D01*
X022778Y014529D01*
X022818Y014519D01*
X022858Y014505D01*
X022896Y014488D01*
X022932Y014468D01*
X022966Y014444D01*
X022998Y014418D01*
X023028Y014388D01*
X023054Y014356D01*
X023078Y014322D01*
X023098Y014286D01*
X023115Y014248D01*
X023129Y014208D01*
X023139Y014168D01*
X023145Y014127D01*
X023147Y014085D01*
X023138Y014085D01*
X023136Y014126D01*
X023130Y014166D01*
X023120Y014206D01*
X023107Y014244D01*
X023090Y014282D01*
X023070Y014317D01*
X023047Y014351D01*
X023021Y014382D01*
X022992Y014411D01*
X022961Y014437D01*
X022927Y014460D01*
X022892Y014480D01*
X022854Y014497D01*
X022816Y014510D01*
X022776Y014520D01*
X022736Y014526D01*
X022695Y014528D01*
X022695Y014519D01*
X022735Y014517D01*
X022774Y014511D01*
X022813Y014501D01*
X022851Y014488D01*
X022888Y014472D01*
X022922Y014452D01*
X022955Y014430D01*
X022986Y014404D01*
X023014Y014376D01*
X023040Y014345D01*
X023062Y014312D01*
X023082Y014278D01*
X023098Y014241D01*
X023111Y014203D01*
X023121Y014164D01*
X023127Y014125D01*
X023129Y014085D01*
X023120Y014085D01*
X023118Y014124D01*
X023112Y014163D01*
X023103Y014201D01*
X023090Y014238D01*
X023074Y014274D01*
X023055Y014308D01*
X023033Y014340D01*
X023008Y014370D01*
X022980Y014398D01*
X022950Y014423D01*
X022918Y014445D01*
X022884Y014464D01*
X022848Y014480D01*
X022811Y014493D01*
X022773Y014502D01*
X022734Y014508D01*
X022695Y014510D01*
X022216Y014076D02*
X022266Y014076D01*
X022265Y014075D02*
X022267Y014036D01*
X022273Y013998D01*
X022282Y013961D01*
X022295Y013924D01*
X022310Y013889D01*
X022329Y013855D01*
X022351Y013823D01*
X022376Y013793D01*
X022403Y013766D01*
X022433Y013741D01*
X022465Y013719D01*
X022499Y013700D01*
X022534Y013685D01*
X022571Y013672D01*
X022608Y013663D01*
X022646Y013657D01*
X022685Y013655D01*
X022686Y013606D01*
X022685Y013605D01*
X022644Y013607D01*
X022604Y013613D01*
X022564Y013622D01*
X022525Y013635D01*
X022487Y013650D01*
X022451Y013669D01*
X022417Y013692D01*
X022384Y013716D01*
X022354Y013744D01*
X022326Y013774D01*
X022302Y013807D01*
X022279Y013841D01*
X022260Y013877D01*
X022245Y013915D01*
X022232Y013954D01*
X022223Y013994D01*
X022217Y014034D01*
X022215Y014075D01*
X022224Y014075D01*
X022226Y014033D01*
X022233Y013991D01*
X022243Y013949D01*
X022256Y013909D01*
X022274Y013870D01*
X022295Y013833D01*
X022319Y013798D01*
X022346Y013766D01*
X022376Y013736D01*
X022408Y013709D01*
X022443Y013685D01*
X022480Y013664D01*
X022519Y013646D01*
X022559Y013633D01*
X022601Y013623D01*
X022643Y013616D01*
X022685Y013614D01*
X022685Y013623D01*
X022643Y013625D01*
X022602Y013631D01*
X022562Y013641D01*
X022522Y013655D01*
X022484Y013672D01*
X022448Y013692D01*
X022414Y013716D01*
X022382Y013742D01*
X022352Y013772D01*
X022326Y013804D01*
X022302Y013838D01*
X022282Y013874D01*
X022265Y013912D01*
X022251Y013952D01*
X022241Y013992D01*
X022235Y014033D01*
X022233Y014075D01*
X022242Y014075D01*
X022244Y014034D01*
X022250Y013994D01*
X022260Y013954D01*
X022273Y013916D01*
X022290Y013878D01*
X022310Y013843D01*
X022333Y013809D01*
X022359Y013778D01*
X022388Y013749D01*
X022419Y013723D01*
X022453Y013700D01*
X022488Y013680D01*
X022526Y013663D01*
X022564Y013650D01*
X022604Y013640D01*
X022644Y013634D01*
X022685Y013632D01*
X022685Y013641D01*
X022645Y013643D01*
X022606Y013649D01*
X022567Y013659D01*
X022529Y013672D01*
X022492Y013688D01*
X022458Y013708D01*
X022425Y013730D01*
X022394Y013756D01*
X022366Y013784D01*
X022340Y013815D01*
X022318Y013848D01*
X022298Y013882D01*
X022282Y013919D01*
X022269Y013957D01*
X022259Y013996D01*
X022253Y014035D01*
X022251Y014075D01*
X022260Y014075D01*
X022262Y014036D01*
X022268Y013997D01*
X022277Y013959D01*
X022290Y013922D01*
X022306Y013886D01*
X022325Y013852D01*
X022347Y013820D01*
X022372Y013790D01*
X022400Y013762D01*
X022430Y013737D01*
X022462Y013715D01*
X022496Y013696D01*
X022532Y013680D01*
X022569Y013667D01*
X022607Y013658D01*
X022646Y013652D01*
X022685Y013650D01*
X020564Y014084D02*
X020514Y014084D01*
X020515Y014085D02*
X020513Y014141D01*
X020507Y014196D01*
X020497Y014251D01*
X020484Y014306D01*
X020466Y014359D01*
X020446Y014411D01*
X020422Y014461D01*
X020394Y014510D01*
X020363Y014557D01*
X020330Y014601D01*
X020293Y014643D01*
X020253Y014683D01*
X020211Y014720D01*
X020167Y014753D01*
X020120Y014784D01*
X020071Y014812D01*
X020021Y014836D01*
X019969Y014856D01*
X019916Y014874D01*
X019861Y014887D01*
X019806Y014897D01*
X019751Y014903D01*
X019695Y014905D01*
X019694Y014954D01*
X019695Y014955D01*
X019752Y014953D01*
X019808Y014947D01*
X019864Y014937D01*
X019920Y014924D01*
X019974Y014908D01*
X020027Y014887D01*
X020079Y014864D01*
X020129Y014837D01*
X020177Y014807D01*
X020223Y014774D01*
X020267Y014738D01*
X020309Y014699D01*
X020348Y014657D01*
X020384Y014613D01*
X020417Y014567D01*
X020447Y014519D01*
X020474Y014469D01*
X020497Y014417D01*
X020518Y014364D01*
X020534Y014310D01*
X020547Y014254D01*
X020557Y014198D01*
X020563Y014142D01*
X020565Y014085D01*
X020556Y014085D01*
X020554Y014141D01*
X020548Y014197D01*
X020539Y014253D01*
X020526Y014307D01*
X020509Y014361D01*
X020489Y014414D01*
X020466Y014465D01*
X020439Y014514D01*
X020409Y014562D01*
X020377Y014608D01*
X020341Y014651D01*
X020302Y014692D01*
X020261Y014731D01*
X020218Y014767D01*
X020172Y014799D01*
X020124Y014829D01*
X020075Y014856D01*
X020024Y014879D01*
X019971Y014899D01*
X019917Y014916D01*
X019863Y014929D01*
X019807Y014938D01*
X019751Y014944D01*
X019695Y014946D01*
X019695Y014937D01*
X019753Y014935D01*
X019811Y014928D01*
X019868Y014918D01*
X019924Y014904D01*
X019980Y014887D01*
X020034Y014865D01*
X020086Y014840D01*
X020137Y014811D01*
X020185Y014780D01*
X020231Y014744D01*
X020275Y014706D01*
X020316Y014665D01*
X020354Y014621D01*
X020390Y014575D01*
X020421Y014527D01*
X020450Y014476D01*
X020475Y014424D01*
X020497Y014370D01*
X020514Y014314D01*
X020528Y014258D01*
X020538Y014201D01*
X020545Y014143D01*
X020547Y014085D01*
X020538Y014085D01*
X020536Y014142D01*
X020530Y014200D01*
X020520Y014256D01*
X020506Y014312D01*
X020488Y014367D01*
X020467Y014420D01*
X020442Y014472D01*
X020414Y014522D01*
X020382Y014570D01*
X020347Y014616D01*
X020310Y014659D01*
X020269Y014700D01*
X020226Y014737D01*
X020180Y014772D01*
X020132Y014804D01*
X020082Y014832D01*
X020030Y014857D01*
X019977Y014878D01*
X019922Y014896D01*
X019866Y014910D01*
X019810Y014920D01*
X019752Y014926D01*
X019695Y014928D01*
X019695Y014919D01*
X019752Y014917D01*
X019808Y014911D01*
X019864Y014901D01*
X019919Y014887D01*
X019974Y014870D01*
X020026Y014849D01*
X020078Y014824D01*
X020127Y014796D01*
X020175Y014765D01*
X020220Y014730D01*
X020263Y014693D01*
X020303Y014653D01*
X020340Y014610D01*
X020375Y014565D01*
X020406Y014517D01*
X020434Y014468D01*
X020459Y014416D01*
X020480Y014364D01*
X020497Y014309D01*
X020511Y014254D01*
X020521Y014198D01*
X020527Y014142D01*
X020529Y014085D01*
X020520Y014085D01*
X020518Y014141D01*
X020512Y014197D01*
X020502Y014252D01*
X020488Y014307D01*
X020471Y014361D01*
X020450Y014413D01*
X020426Y014464D01*
X020398Y014513D01*
X020367Y014560D01*
X020333Y014604D01*
X020296Y014647D01*
X020257Y014686D01*
X020214Y014723D01*
X020170Y014757D01*
X020123Y014788D01*
X020074Y014816D01*
X020023Y014840D01*
X019971Y014861D01*
X019917Y014878D01*
X019862Y014892D01*
X019807Y014902D01*
X019751Y014908D01*
X019695Y014910D01*
X018816Y014076D02*
X018866Y014076D01*
X018865Y014075D02*
X018867Y014019D01*
X018873Y013964D01*
X018883Y013909D01*
X018896Y013854D01*
X018914Y013801D01*
X018934Y013749D01*
X018958Y013699D01*
X018986Y013650D01*
X019017Y013603D01*
X019050Y013559D01*
X019087Y013517D01*
X019127Y013477D01*
X019169Y013440D01*
X019213Y013407D01*
X019260Y013376D01*
X019309Y013348D01*
X019359Y013324D01*
X019411Y013304D01*
X019464Y013286D01*
X019519Y013273D01*
X019574Y013263D01*
X019629Y013257D01*
X019685Y013255D01*
X019686Y013206D01*
X019685Y013205D01*
X019628Y013207D01*
X019572Y013213D01*
X019516Y013223D01*
X019460Y013236D01*
X019406Y013252D01*
X019353Y013273D01*
X019301Y013296D01*
X019251Y013323D01*
X019203Y013353D01*
X019157Y013386D01*
X019113Y013422D01*
X019071Y013461D01*
X019032Y013503D01*
X018996Y013547D01*
X018963Y013593D01*
X018933Y013641D01*
X018906Y013691D01*
X018883Y013743D01*
X018862Y013796D01*
X018846Y013850D01*
X018833Y013906D01*
X018823Y013962D01*
X018817Y014018D01*
X018815Y014075D01*
X018824Y014075D01*
X018826Y014019D01*
X018832Y013963D01*
X018841Y013907D01*
X018854Y013853D01*
X018871Y013799D01*
X018891Y013746D01*
X018914Y013695D01*
X018941Y013646D01*
X018971Y013598D01*
X019003Y013552D01*
X019039Y013509D01*
X019078Y013468D01*
X019119Y013429D01*
X019162Y013393D01*
X019208Y013361D01*
X019256Y013331D01*
X019305Y013304D01*
X019356Y013281D01*
X019409Y013261D01*
X019463Y013244D01*
X019517Y013231D01*
X019573Y013222D01*
X019629Y013216D01*
X019685Y013214D01*
X019685Y013223D01*
X019627Y013225D01*
X019569Y013232D01*
X019512Y013242D01*
X019456Y013256D01*
X019400Y013273D01*
X019346Y013295D01*
X019294Y013320D01*
X019243Y013349D01*
X019195Y013380D01*
X019149Y013416D01*
X019105Y013454D01*
X019064Y013495D01*
X019026Y013539D01*
X018990Y013585D01*
X018959Y013633D01*
X018930Y013684D01*
X018905Y013736D01*
X018883Y013790D01*
X018866Y013846D01*
X018852Y013902D01*
X018842Y013959D01*
X018835Y014017D01*
X018833Y014075D01*
X018842Y014075D01*
X018844Y014018D01*
X018850Y013960D01*
X018860Y013904D01*
X018874Y013848D01*
X018892Y013793D01*
X018913Y013740D01*
X018938Y013688D01*
X018966Y013638D01*
X018998Y013590D01*
X019033Y013544D01*
X019070Y013501D01*
X019111Y013460D01*
X019154Y013423D01*
X019200Y013388D01*
X019248Y013356D01*
X019298Y013328D01*
X019350Y013303D01*
X019403Y013282D01*
X019458Y013264D01*
X019514Y013250D01*
X019570Y013240D01*
X019628Y013234D01*
X019685Y013232D01*
X019685Y013241D01*
X019628Y013243D01*
X019572Y013249D01*
X019516Y013259D01*
X019461Y013273D01*
X019406Y013290D01*
X019354Y013311D01*
X019302Y013336D01*
X019253Y013364D01*
X019205Y013395D01*
X019160Y013430D01*
X019117Y013467D01*
X019077Y013507D01*
X019040Y013550D01*
X019005Y013595D01*
X018974Y013643D01*
X018946Y013692D01*
X018921Y013744D01*
X018900Y013796D01*
X018883Y013851D01*
X018869Y013906D01*
X018859Y013962D01*
X018853Y014018D01*
X018851Y014075D01*
X018860Y014075D01*
X018862Y014019D01*
X018868Y013963D01*
X018878Y013908D01*
X018892Y013853D01*
X018909Y013799D01*
X018930Y013747D01*
X018954Y013696D01*
X018982Y013647D01*
X019013Y013600D01*
X019047Y013556D01*
X019084Y013513D01*
X019123Y013474D01*
X019166Y013437D01*
X019210Y013403D01*
X019257Y013372D01*
X019306Y013344D01*
X019357Y013320D01*
X019409Y013299D01*
X019463Y013282D01*
X019518Y013268D01*
X019573Y013258D01*
X019629Y013252D01*
X019685Y013250D01*
X018910Y015112D02*
X018964Y015040D01*
X018963Y015041D02*
X018910Y014998D01*
X018859Y014953D01*
X018811Y014904D01*
X018766Y014853D01*
X018723Y014799D01*
X018684Y014743D01*
X018648Y014685D01*
X018615Y014625D01*
X018586Y014564D01*
X018561Y014500D01*
X018539Y014436D01*
X018520Y014370D01*
X018506Y014303D01*
X018495Y014236D01*
X018488Y014168D01*
X018485Y014100D01*
X018486Y014031D01*
X018491Y013963D01*
X018499Y013895D01*
X018512Y013828D01*
X018528Y013762D01*
X018548Y013697D01*
X018571Y013632D01*
X018598Y013570D01*
X018629Y013509D01*
X018663Y013450D01*
X018700Y013392D01*
X018741Y013337D01*
X018785Y013285D01*
X018831Y013235D01*
X018880Y013188D01*
X018932Y013143D01*
X018986Y013102D01*
X019043Y013063D01*
X019102Y013028D01*
X019162Y012997D01*
X019224Y012969D01*
X019288Y012944D01*
X019353Y012923D01*
X019419Y012906D01*
X019486Y012892D01*
X019554Y012883D01*
X019622Y012877D01*
X019690Y012875D01*
X019758Y012877D01*
X019826Y012883D01*
X019894Y012892D01*
X019961Y012906D01*
X020027Y012923D01*
X020092Y012944D01*
X020156Y012969D01*
X020218Y012997D01*
X020278Y013028D01*
X020337Y013063D01*
X020394Y013102D01*
X020448Y013143D01*
X020500Y013188D01*
X020549Y013235D01*
X020595Y013285D01*
X020639Y013337D01*
X020680Y013392D01*
X020717Y013450D01*
X020751Y013509D01*
X020782Y013570D01*
X020809Y013632D01*
X020832Y013697D01*
X020852Y013762D01*
X020868Y013828D01*
X020881Y013895D01*
X020889Y013963D01*
X020894Y014031D01*
X020895Y014100D01*
X020892Y014168D01*
X020885Y014236D01*
X020874Y014303D01*
X020860Y014370D01*
X020841Y014436D01*
X020819Y014500D01*
X020794Y014564D01*
X020765Y014625D01*
X020732Y014685D01*
X020696Y014743D01*
X020657Y014799D01*
X020614Y014853D01*
X020569Y014904D01*
X020521Y014953D01*
X020470Y014998D01*
X020417Y015041D01*
X020470Y015112D01*
X020471Y015113D01*
X020526Y015069D01*
X020579Y015021D01*
X020630Y014971D01*
X020677Y014918D01*
X020721Y014863D01*
X020763Y014805D01*
X020801Y014745D01*
X020836Y014684D01*
X020867Y014620D01*
X020895Y014555D01*
X020919Y014488D01*
X020940Y014420D01*
X020956Y014351D01*
X020969Y014281D01*
X020978Y014211D01*
X020984Y014140D01*
X020985Y014069D01*
X020982Y013998D01*
X020976Y013927D01*
X020966Y013857D01*
X020952Y013788D01*
X020934Y013719D01*
X020912Y013651D01*
X020887Y013585D01*
X020858Y013520D01*
X020825Y013457D01*
X020789Y013396D01*
X020750Y013337D01*
X020708Y013280D01*
X020663Y013225D01*
X020614Y013173D01*
X020563Y013124D01*
X020510Y013077D01*
X020453Y013034D01*
X020395Y012994D01*
X020334Y012957D01*
X020272Y012923D01*
X020208Y012893D01*
X020142Y012866D01*
X020075Y012843D01*
X020006Y012824D01*
X019937Y012809D01*
X019867Y012797D01*
X019796Y012789D01*
X019725Y012785D01*
X019655Y012785D01*
X019584Y012789D01*
X019513Y012797D01*
X019443Y012809D01*
X019374Y012824D01*
X019305Y012843D01*
X019238Y012866D01*
X019172Y012893D01*
X019108Y012923D01*
X019046Y012957D01*
X018985Y012994D01*
X018927Y013034D01*
X018870Y013077D01*
X018817Y013124D01*
X018766Y013173D01*
X018717Y013225D01*
X018672Y013280D01*
X018630Y013337D01*
X018591Y013396D01*
X018555Y013457D01*
X018522Y013520D01*
X018493Y013585D01*
X018468Y013651D01*
X018446Y013719D01*
X018428Y013788D01*
X018414Y013857D01*
X018404Y013927D01*
X018398Y013998D01*
X018395Y014069D01*
X018396Y014140D01*
X018402Y014211D01*
X018411Y014281D01*
X018424Y014351D01*
X018440Y014420D01*
X018461Y014488D01*
X018485Y014555D01*
X018513Y014620D01*
X018544Y014684D01*
X018579Y014745D01*
X018617Y014805D01*
X018659Y014863D01*
X018703Y014918D01*
X018750Y014971D01*
X018801Y015021D01*
X018854Y015069D01*
X018909Y015113D01*
X018914Y015106D01*
X018859Y015061D01*
X018806Y015014D01*
X018755Y014963D01*
X018708Y014910D01*
X018663Y014854D01*
X018622Y014796D01*
X018584Y014736D01*
X018549Y014674D01*
X018518Y014610D01*
X018491Y014544D01*
X018467Y014477D01*
X018447Y014408D01*
X018430Y014339D01*
X018418Y014269D01*
X018409Y014198D01*
X018405Y014127D01*
X018404Y014056D01*
X018408Y013985D01*
X018415Y013914D01*
X018426Y013843D01*
X018441Y013774D01*
X018460Y013705D01*
X018483Y013637D01*
X018509Y013571D01*
X018539Y013506D01*
X018573Y013444D01*
X018609Y013383D01*
X018650Y013324D01*
X018693Y013267D01*
X018740Y013213D01*
X018789Y013162D01*
X018842Y013114D01*
X018896Y013068D01*
X018954Y013026D01*
X019013Y012987D01*
X019075Y012951D01*
X019138Y012918D01*
X019203Y012890D01*
X019270Y012864D01*
X019338Y012843D01*
X019407Y012825D01*
X019477Y012812D01*
X019548Y012802D01*
X019619Y012796D01*
X019690Y012794D01*
X019761Y012796D01*
X019832Y012802D01*
X019903Y012812D01*
X019973Y012825D01*
X020042Y012843D01*
X020110Y012864D01*
X020177Y012890D01*
X020242Y012918D01*
X020305Y012951D01*
X020367Y012987D01*
X020426Y013026D01*
X020484Y013068D01*
X020538Y013114D01*
X020591Y013162D01*
X020640Y013213D01*
X020687Y013267D01*
X020730Y013324D01*
X020771Y013383D01*
X020807Y013444D01*
X020841Y013506D01*
X020871Y013571D01*
X020897Y013637D01*
X020920Y013705D01*
X020939Y013774D01*
X020954Y013843D01*
X020965Y013914D01*
X020972Y013985D01*
X020976Y014056D01*
X020975Y014127D01*
X020971Y014198D01*
X020962Y014269D01*
X020950Y014339D01*
X020933Y014408D01*
X020913Y014477D01*
X020889Y014544D01*
X020862Y014610D01*
X020831Y014674D01*
X020796Y014736D01*
X020758Y014796D01*
X020717Y014854D01*
X020672Y014910D01*
X020625Y014963D01*
X020574Y015014D01*
X020521Y015061D01*
X020466Y015106D01*
X020460Y015099D01*
X020515Y015054D01*
X020568Y015007D01*
X020618Y014957D01*
X020665Y014904D01*
X020709Y014849D01*
X020751Y014791D01*
X020788Y014732D01*
X020823Y014670D01*
X020854Y014606D01*
X020881Y014541D01*
X020905Y014474D01*
X020925Y014406D01*
X020941Y014337D01*
X020953Y014268D01*
X020962Y014197D01*
X020966Y014127D01*
X020967Y014056D01*
X020963Y013985D01*
X020956Y013915D01*
X020945Y013845D01*
X020930Y013776D01*
X020911Y013708D01*
X020889Y013640D01*
X020863Y013575D01*
X020833Y013510D01*
X020800Y013448D01*
X020763Y013388D01*
X020723Y013329D01*
X020680Y013273D01*
X020634Y013219D01*
X020584Y013169D01*
X020533Y013120D01*
X020478Y013075D01*
X020421Y013033D01*
X020362Y012994D01*
X020301Y012959D01*
X020238Y012926D01*
X020173Y012898D01*
X020107Y012873D01*
X020039Y012852D01*
X019971Y012834D01*
X019901Y012821D01*
X019831Y012811D01*
X019761Y012805D01*
X019690Y012803D01*
X019619Y012805D01*
X019549Y012811D01*
X019479Y012821D01*
X019409Y012834D01*
X019341Y012852D01*
X019273Y012873D01*
X019207Y012898D01*
X019142Y012926D01*
X019079Y012959D01*
X019018Y012994D01*
X018959Y013033D01*
X018902Y013075D01*
X018847Y013120D01*
X018796Y013169D01*
X018746Y013219D01*
X018700Y013273D01*
X018657Y013329D01*
X018617Y013388D01*
X018580Y013448D01*
X018547Y013510D01*
X018517Y013575D01*
X018491Y013640D01*
X018469Y013708D01*
X018450Y013776D01*
X018435Y013845D01*
X018424Y013915D01*
X018417Y013985D01*
X018413Y014056D01*
X018414Y014127D01*
X018418Y014197D01*
X018427Y014268D01*
X018439Y014337D01*
X018455Y014406D01*
X018475Y014474D01*
X018499Y014541D01*
X018526Y014606D01*
X018557Y014670D01*
X018592Y014732D01*
X018629Y014791D01*
X018671Y014849D01*
X018715Y014904D01*
X018762Y014957D01*
X018812Y015007D01*
X018865Y015054D01*
X018920Y015099D01*
X018925Y015091D01*
X018870Y015047D01*
X018817Y014999D01*
X018767Y014949D01*
X018719Y014896D01*
X018675Y014840D01*
X018634Y014782D01*
X018597Y014722D01*
X018562Y014660D01*
X018532Y014596D01*
X018505Y014530D01*
X018481Y014463D01*
X018462Y014395D01*
X018446Y014325D01*
X018434Y014255D01*
X018426Y014185D01*
X018422Y014114D01*
X018423Y014043D01*
X018427Y013972D01*
X018435Y013901D01*
X018447Y013831D01*
X018463Y013762D01*
X018482Y013694D01*
X018506Y013626D01*
X018533Y013561D01*
X018564Y013497D01*
X018598Y013435D01*
X018636Y013375D01*
X018678Y013317D01*
X018722Y013261D01*
X018769Y013208D01*
X018820Y013158D01*
X018873Y013111D01*
X018928Y013066D01*
X018986Y013025D01*
X019046Y012988D01*
X019109Y012953D01*
X019173Y012922D01*
X019238Y012895D01*
X019305Y012872D01*
X019374Y012852D01*
X019443Y012836D01*
X019513Y012824D01*
X019584Y012816D01*
X019654Y012812D01*
X019726Y012812D01*
X019796Y012816D01*
X019867Y012824D01*
X019937Y012836D01*
X020006Y012852D01*
X020075Y012872D01*
X020142Y012895D01*
X020207Y012922D01*
X020271Y012953D01*
X020334Y012988D01*
X020394Y013025D01*
X020452Y013066D01*
X020507Y013111D01*
X020560Y013158D01*
X020611Y013208D01*
X020658Y013261D01*
X020702Y013317D01*
X020744Y013375D01*
X020782Y013435D01*
X020816Y013497D01*
X020847Y013561D01*
X020874Y013626D01*
X020898Y013694D01*
X020917Y013762D01*
X020933Y013831D01*
X020945Y013901D01*
X020953Y013972D01*
X020957Y014043D01*
X020958Y014114D01*
X020954Y014185D01*
X020946Y014255D01*
X020934Y014325D01*
X020918Y014395D01*
X020899Y014463D01*
X020875Y014530D01*
X020848Y014596D01*
X020818Y014660D01*
X020783Y014722D01*
X020746Y014782D01*
X020705Y014840D01*
X020661Y014896D01*
X020613Y014949D01*
X020563Y014999D01*
X020510Y015047D01*
X020455Y015091D01*
X020449Y015084D01*
X020504Y015040D01*
X020557Y014993D01*
X020607Y014943D01*
X020654Y014890D01*
X020698Y014835D01*
X020738Y014777D01*
X020776Y014718D01*
X020810Y014656D01*
X020840Y014592D01*
X020867Y014527D01*
X020890Y014460D01*
X020910Y014392D01*
X020925Y014324D01*
X020937Y014254D01*
X020945Y014184D01*
X020949Y014113D01*
X020948Y014043D01*
X020944Y013972D01*
X020936Y013902D01*
X020924Y013833D01*
X020909Y013764D01*
X020889Y013696D01*
X020866Y013630D01*
X020839Y013565D01*
X020808Y013501D01*
X020774Y013439D01*
X020736Y013380D01*
X020695Y013322D01*
X020651Y013267D01*
X020604Y013214D01*
X020554Y013165D01*
X020502Y013118D01*
X020446Y013074D01*
X020389Y013033D01*
X020329Y012995D01*
X020267Y012961D01*
X020204Y012931D01*
X020139Y012904D01*
X020072Y012880D01*
X020004Y012861D01*
X019935Y012845D01*
X019866Y012833D01*
X019796Y012825D01*
X019725Y012821D01*
X019655Y012821D01*
X019584Y012825D01*
X019514Y012833D01*
X019445Y012845D01*
X019376Y012861D01*
X019308Y012880D01*
X019241Y012904D01*
X019176Y012931D01*
X019113Y012961D01*
X019051Y012995D01*
X018991Y013033D01*
X018934Y013074D01*
X018878Y013118D01*
X018826Y013165D01*
X018776Y013214D01*
X018729Y013267D01*
X018685Y013322D01*
X018644Y013380D01*
X018606Y013439D01*
X018572Y013501D01*
X018541Y013565D01*
X018514Y013630D01*
X018491Y013696D01*
X018471Y013764D01*
X018456Y013833D01*
X018444Y013902D01*
X018436Y013972D01*
X018432Y014043D01*
X018431Y014113D01*
X018435Y014184D01*
X018443Y014254D01*
X018455Y014324D01*
X018470Y014392D01*
X018490Y014460D01*
X018513Y014527D01*
X018540Y014592D01*
X018570Y014656D01*
X018604Y014718D01*
X018642Y014777D01*
X018682Y014835D01*
X018726Y014890D01*
X018773Y014943D01*
X018823Y014993D01*
X018876Y015040D01*
X018931Y015084D01*
X018936Y015077D01*
X018881Y015033D01*
X018829Y014986D01*
X018780Y014937D01*
X018733Y014884D01*
X018690Y014830D01*
X018649Y014772D01*
X018612Y014713D01*
X018578Y014652D01*
X018548Y014588D01*
X018521Y014524D01*
X018498Y014457D01*
X018479Y014390D01*
X018464Y014322D01*
X018452Y014253D01*
X018444Y014183D01*
X018440Y014113D01*
X018441Y014043D01*
X018445Y013973D01*
X018453Y013904D01*
X018464Y013835D01*
X018480Y013766D01*
X018499Y013699D01*
X018523Y013633D01*
X018550Y013568D01*
X018580Y013505D01*
X018614Y013444D01*
X018651Y013385D01*
X018692Y013327D01*
X018736Y013273D01*
X018782Y013221D01*
X018832Y013171D01*
X018884Y013124D01*
X018939Y013081D01*
X018996Y013040D01*
X019055Y013003D01*
X019117Y012969D01*
X019180Y012939D01*
X019245Y012912D01*
X019311Y012889D01*
X019378Y012870D01*
X019446Y012854D01*
X019515Y012842D01*
X019585Y012834D01*
X019655Y012830D01*
X019725Y012830D01*
X019795Y012834D01*
X019865Y012842D01*
X019934Y012854D01*
X020002Y012870D01*
X020069Y012889D01*
X020135Y012912D01*
X020200Y012939D01*
X020263Y012969D01*
X020325Y013003D01*
X020384Y013040D01*
X020441Y013081D01*
X020496Y013124D01*
X020548Y013171D01*
X020598Y013221D01*
X020644Y013273D01*
X020688Y013327D01*
X020729Y013385D01*
X020766Y013444D01*
X020800Y013505D01*
X020830Y013568D01*
X020857Y013633D01*
X020881Y013699D01*
X020900Y013766D01*
X020916Y013835D01*
X020927Y013904D01*
X020935Y013973D01*
X020939Y014043D01*
X020940Y014113D01*
X020936Y014183D01*
X020928Y014253D01*
X020916Y014322D01*
X020901Y014390D01*
X020882Y014457D01*
X020859Y014524D01*
X020832Y014588D01*
X020802Y014652D01*
X020768Y014713D01*
X020731Y014772D01*
X020690Y014830D01*
X020647Y014884D01*
X020600Y014937D01*
X020551Y014986D01*
X020499Y015033D01*
X020444Y015077D01*
X020439Y015070D01*
X020493Y015026D01*
X020545Y014980D01*
X020594Y014931D01*
X020640Y014879D01*
X020683Y014824D01*
X020723Y014767D01*
X020760Y014708D01*
X020794Y014647D01*
X020824Y014585D01*
X020850Y014520D01*
X020873Y014455D01*
X020892Y014388D01*
X020908Y014320D01*
X020919Y014251D01*
X020927Y014182D01*
X020931Y014113D01*
X020930Y014043D01*
X020926Y013974D01*
X020919Y013905D01*
X020907Y013836D01*
X020891Y013769D01*
X020872Y013702D01*
X020849Y013636D01*
X020822Y013572D01*
X020792Y013509D01*
X020758Y013448D01*
X020721Y013390D01*
X020681Y013333D01*
X020638Y013279D01*
X020591Y013227D01*
X020542Y013178D01*
X020490Y013131D01*
X020436Y013088D01*
X020379Y013048D01*
X020320Y013011D01*
X020259Y012977D01*
X020196Y012947D01*
X020132Y012920D01*
X020067Y012897D01*
X020000Y012878D01*
X019932Y012863D01*
X019863Y012851D01*
X019794Y012843D01*
X019725Y012839D01*
X019655Y012839D01*
X019586Y012843D01*
X019517Y012851D01*
X019448Y012863D01*
X019380Y012878D01*
X019313Y012897D01*
X019248Y012920D01*
X019184Y012947D01*
X019121Y012977D01*
X019060Y013011D01*
X019001Y013048D01*
X018944Y013088D01*
X018890Y013131D01*
X018838Y013178D01*
X018789Y013227D01*
X018742Y013279D01*
X018699Y013333D01*
X018659Y013390D01*
X018622Y013448D01*
X018588Y013509D01*
X018558Y013572D01*
X018531Y013636D01*
X018508Y013702D01*
X018489Y013769D01*
X018473Y013836D01*
X018461Y013905D01*
X018454Y013974D01*
X018450Y014043D01*
X018449Y014113D01*
X018453Y014182D01*
X018461Y014251D01*
X018472Y014320D01*
X018488Y014388D01*
X018507Y014455D01*
X018530Y014520D01*
X018556Y014585D01*
X018586Y014647D01*
X018620Y014708D01*
X018657Y014767D01*
X018697Y014824D01*
X018740Y014879D01*
X018786Y014931D01*
X018835Y014980D01*
X018887Y015026D01*
X018941Y015070D01*
X018947Y015063D01*
X018893Y015019D01*
X018842Y014973D01*
X018793Y014924D01*
X018747Y014873D01*
X018704Y014819D01*
X018664Y014762D01*
X018628Y014704D01*
X018594Y014643D01*
X018564Y014581D01*
X018538Y014517D01*
X018516Y014452D01*
X018497Y014386D01*
X018481Y014318D01*
X018470Y014250D01*
X018462Y014182D01*
X018458Y014113D01*
X018459Y014044D01*
X018463Y013975D01*
X018470Y013906D01*
X018482Y013838D01*
X018497Y013771D01*
X018517Y013704D01*
X018540Y013639D01*
X018566Y013576D01*
X018596Y013513D01*
X018629Y013453D01*
X018666Y013395D01*
X018706Y013338D01*
X018749Y013284D01*
X018795Y013233D01*
X018844Y013184D01*
X018896Y013138D01*
X018950Y013095D01*
X019006Y013055D01*
X019065Y013019D01*
X019125Y012985D01*
X019187Y012955D01*
X019251Y012929D01*
X019316Y012906D01*
X019383Y012887D01*
X019450Y012872D01*
X019518Y012860D01*
X019587Y012852D01*
X019655Y012848D01*
X019725Y012848D01*
X019793Y012852D01*
X019862Y012860D01*
X019930Y012872D01*
X019997Y012887D01*
X020064Y012906D01*
X020129Y012929D01*
X020193Y012955D01*
X020255Y012985D01*
X020315Y013019D01*
X020374Y013055D01*
X020430Y013095D01*
X020484Y013138D01*
X020536Y013184D01*
X020585Y013233D01*
X020631Y013284D01*
X020674Y013338D01*
X020714Y013395D01*
X020751Y013453D01*
X020784Y013513D01*
X020814Y013576D01*
X020840Y013639D01*
X020863Y013704D01*
X020883Y013771D01*
X020898Y013838D01*
X020910Y013906D01*
X020917Y013975D01*
X020921Y014044D01*
X020922Y014113D01*
X020918Y014182D01*
X020910Y014250D01*
X020899Y014318D01*
X020883Y014386D01*
X020864Y014452D01*
X020842Y014517D01*
X020816Y014581D01*
X020786Y014643D01*
X020752Y014704D01*
X020716Y014762D01*
X020676Y014819D01*
X020633Y014873D01*
X020587Y014924D01*
X020538Y014973D01*
X020487Y015019D01*
X020433Y015063D01*
X020428Y015055D01*
X020482Y015012D01*
X020533Y014966D01*
X020582Y014916D01*
X020628Y014865D01*
X020671Y014810D01*
X020711Y014753D01*
X020747Y014695D01*
X020781Y014634D01*
X020810Y014571D01*
X020836Y014507D01*
X020858Y014441D01*
X020877Y014374D01*
X020892Y014307D01*
X020903Y014238D01*
X020910Y014169D01*
X020913Y014100D01*
X020912Y014031D01*
X020907Y013961D01*
X020899Y013893D01*
X020886Y013825D01*
X020870Y013757D01*
X020849Y013691D01*
X020826Y013626D01*
X020798Y013562D01*
X020767Y013500D01*
X020732Y013440D01*
X020694Y013382D01*
X020653Y013326D01*
X020609Y013273D01*
X020562Y013222D01*
X020512Y013174D01*
X020459Y013129D01*
X020404Y013087D01*
X020347Y013048D01*
X020287Y013013D01*
X020226Y012981D01*
X020163Y012952D01*
X020098Y012927D01*
X020032Y012906D01*
X019965Y012888D01*
X019897Y012875D01*
X019828Y012865D01*
X019759Y012859D01*
X019690Y012857D01*
X019621Y012859D01*
X019552Y012865D01*
X019483Y012875D01*
X019415Y012888D01*
X019348Y012906D01*
X019282Y012927D01*
X019217Y012952D01*
X019154Y012981D01*
X019093Y013013D01*
X019033Y013048D01*
X018976Y013087D01*
X018921Y013129D01*
X018868Y013174D01*
X018818Y013222D01*
X018771Y013273D01*
X018727Y013326D01*
X018686Y013382D01*
X018648Y013440D01*
X018613Y013500D01*
X018582Y013562D01*
X018554Y013626D01*
X018531Y013691D01*
X018510Y013757D01*
X018494Y013825D01*
X018481Y013893D01*
X018473Y013961D01*
X018468Y014031D01*
X018467Y014100D01*
X018470Y014169D01*
X018477Y014238D01*
X018488Y014307D01*
X018503Y014374D01*
X018522Y014441D01*
X018544Y014507D01*
X018570Y014571D01*
X018599Y014634D01*
X018633Y014695D01*
X018669Y014753D01*
X018709Y014810D01*
X018752Y014865D01*
X018798Y014916D01*
X018847Y014966D01*
X018898Y015012D01*
X018952Y015055D01*
X018958Y015048D01*
X018904Y015005D01*
X018853Y014959D01*
X018804Y014910D01*
X018759Y014859D01*
X018716Y014805D01*
X018677Y014748D01*
X018640Y014690D01*
X018607Y014630D01*
X018578Y014567D01*
X018552Y014504D01*
X018530Y014438D01*
X018512Y014372D01*
X018497Y014305D01*
X018486Y014237D01*
X018479Y014168D01*
X018476Y014100D01*
X018477Y014031D01*
X018482Y013962D01*
X018490Y013894D01*
X018503Y013826D01*
X018519Y013760D01*
X018539Y013694D01*
X018563Y013629D01*
X018590Y013566D01*
X018621Y013505D01*
X018655Y013445D01*
X018693Y013387D01*
X018734Y013332D01*
X018778Y013279D01*
X018825Y013229D01*
X018874Y013181D01*
X018926Y013136D01*
X018981Y013094D01*
X019038Y013056D01*
X019097Y013021D01*
X019158Y012989D01*
X019221Y012960D01*
X019285Y012936D01*
X019351Y012914D01*
X019417Y012897D01*
X019485Y012884D01*
X019553Y012874D01*
X019621Y012868D01*
X019690Y012866D01*
X019759Y012868D01*
X019827Y012874D01*
X019895Y012884D01*
X019963Y012897D01*
X020029Y012914D01*
X020095Y012936D01*
X020159Y012960D01*
X020222Y012989D01*
X020283Y013021D01*
X020342Y013056D01*
X020399Y013094D01*
X020454Y013136D01*
X020506Y013181D01*
X020555Y013229D01*
X020602Y013279D01*
X020646Y013332D01*
X020687Y013387D01*
X020725Y013445D01*
X020759Y013505D01*
X020790Y013566D01*
X020817Y013629D01*
X020841Y013694D01*
X020861Y013760D01*
X020877Y013826D01*
X020890Y013894D01*
X020898Y013962D01*
X020903Y014031D01*
X020904Y014100D01*
X020901Y014168D01*
X020894Y014237D01*
X020883Y014305D01*
X020868Y014372D01*
X020850Y014438D01*
X020828Y014504D01*
X020802Y014567D01*
X020773Y014630D01*
X020740Y014690D01*
X020703Y014748D01*
X020664Y014805D01*
X020621Y014859D01*
X020576Y014910D01*
X020527Y014959D01*
X020476Y015005D01*
X020422Y015048D01*
X020364Y014084D02*
X020314Y014084D01*
X020315Y014085D02*
X020313Y014134D01*
X020307Y014182D01*
X020297Y014229D01*
X020283Y014276D01*
X020266Y014321D01*
X020246Y014366D01*
X020222Y014408D01*
X020195Y014448D01*
X020165Y014486D01*
X020132Y014522D01*
X020096Y014555D01*
X020058Y014585D01*
X020018Y014612D01*
X019976Y014636D01*
X019931Y014656D01*
X019886Y014673D01*
X019839Y014687D01*
X019792Y014697D01*
X019744Y014703D01*
X019695Y014705D01*
X019694Y014754D01*
X019695Y014755D01*
X019745Y014753D01*
X019795Y014747D01*
X019844Y014737D01*
X019892Y014724D01*
X019939Y014707D01*
X019985Y014687D01*
X020029Y014664D01*
X020071Y014637D01*
X020111Y014607D01*
X020149Y014575D01*
X020185Y014539D01*
X020217Y014501D01*
X020247Y014461D01*
X020274Y014419D01*
X020297Y014375D01*
X020317Y014329D01*
X020334Y014282D01*
X020347Y014234D01*
X020357Y014185D01*
X020363Y014135D01*
X020365Y014085D01*
X020356Y014085D01*
X020354Y014134D01*
X020348Y014183D01*
X020338Y014232D01*
X020325Y014279D01*
X020309Y014326D01*
X020289Y014371D01*
X020266Y014414D01*
X020240Y014456D01*
X020210Y014496D01*
X020178Y014533D01*
X020143Y014568D01*
X020106Y014600D01*
X020066Y014630D01*
X020024Y014656D01*
X019981Y014679D01*
X019936Y014699D01*
X019889Y014715D01*
X019842Y014728D01*
X019793Y014738D01*
X019744Y014744D01*
X019695Y014746D01*
X019695Y014737D01*
X019744Y014735D01*
X019792Y014729D01*
X019840Y014720D01*
X019887Y014707D01*
X019932Y014691D01*
X019977Y014671D01*
X020020Y014648D01*
X020061Y014622D01*
X020100Y014593D01*
X020137Y014561D01*
X020171Y014527D01*
X020203Y014490D01*
X020232Y014451D01*
X020258Y014410D01*
X020281Y014367D01*
X020301Y014322D01*
X020317Y014277D01*
X020330Y014230D01*
X020339Y014182D01*
X020345Y014134D01*
X020347Y014085D01*
X020338Y014085D01*
X020336Y014135D01*
X020329Y014185D01*
X020319Y014235D01*
X020305Y014283D01*
X020288Y014330D01*
X020266Y014376D01*
X020242Y014420D01*
X020214Y014462D01*
X020182Y014501D01*
X020148Y014538D01*
X020111Y014572D01*
X020072Y014604D01*
X020030Y014632D01*
X019986Y014656D01*
X019940Y014678D01*
X019893Y014695D01*
X019845Y014709D01*
X019795Y014719D01*
X019745Y014726D01*
X019695Y014728D01*
X019695Y014719D01*
X019745Y014717D01*
X019794Y014710D01*
X019843Y014701D01*
X019890Y014687D01*
X019937Y014669D01*
X019982Y014648D01*
X020025Y014624D01*
X020066Y014596D01*
X020105Y014566D01*
X020142Y014532D01*
X020176Y014495D01*
X020206Y014456D01*
X020234Y014415D01*
X020258Y014372D01*
X020279Y014327D01*
X020297Y014280D01*
X020311Y014233D01*
X020320Y014184D01*
X020327Y014135D01*
X020329Y014085D01*
X020320Y014085D01*
X020318Y014134D01*
X020312Y014183D01*
X020302Y014230D01*
X020288Y014278D01*
X020271Y014323D01*
X020250Y014368D01*
X020226Y014410D01*
X020199Y014451D01*
X020169Y014490D01*
X020135Y014525D01*
X020100Y014559D01*
X020061Y014589D01*
X020020Y014616D01*
X019978Y014640D01*
X019933Y014661D01*
X019888Y014678D01*
X019840Y014692D01*
X019793Y014702D01*
X019744Y014708D01*
X019695Y014710D01*
X019016Y014076D02*
X019066Y014076D01*
X019065Y014075D02*
X019067Y014026D01*
X019073Y013978D01*
X019083Y013931D01*
X019097Y013884D01*
X019114Y013839D01*
X019134Y013794D01*
X019158Y013752D01*
X019185Y013712D01*
X019215Y013674D01*
X019248Y013638D01*
X019284Y013605D01*
X019322Y013575D01*
X019362Y013548D01*
X019404Y013524D01*
X019449Y013504D01*
X019494Y013487D01*
X019541Y013473D01*
X019588Y013463D01*
X019636Y013457D01*
X019685Y013455D01*
X019686Y013406D01*
X019685Y013405D01*
X019635Y013407D01*
X019585Y013413D01*
X019536Y013423D01*
X019488Y013436D01*
X019441Y013453D01*
X019395Y013473D01*
X019351Y013496D01*
X019309Y013523D01*
X019269Y013553D01*
X019231Y013585D01*
X019195Y013621D01*
X019163Y013659D01*
X019133Y013699D01*
X019106Y013741D01*
X019083Y013785D01*
X019063Y013831D01*
X019046Y013878D01*
X019033Y013926D01*
X019023Y013975D01*
X019017Y014025D01*
X019015Y014075D01*
X019024Y014075D01*
X019026Y014026D01*
X019032Y013977D01*
X019042Y013928D01*
X019055Y013881D01*
X019071Y013834D01*
X019091Y013789D01*
X019114Y013746D01*
X019140Y013704D01*
X019170Y013664D01*
X019202Y013627D01*
X019237Y013592D01*
X019274Y013560D01*
X019314Y013530D01*
X019356Y013504D01*
X019399Y013481D01*
X019444Y013461D01*
X019491Y013445D01*
X019538Y013432D01*
X019587Y013422D01*
X019636Y013416D01*
X019685Y013414D01*
X019685Y013423D01*
X019636Y013425D01*
X019588Y013431D01*
X019540Y013440D01*
X019493Y013453D01*
X019448Y013469D01*
X019403Y013489D01*
X019360Y013512D01*
X019319Y013538D01*
X019280Y013567D01*
X019243Y013599D01*
X019209Y013633D01*
X019177Y013670D01*
X019148Y013709D01*
X019122Y013750D01*
X019099Y013793D01*
X019079Y013838D01*
X019063Y013883D01*
X019050Y013930D01*
X019041Y013978D01*
X019035Y014026D01*
X019033Y014075D01*
X019042Y014075D01*
X019044Y014025D01*
X019051Y013975D01*
X019061Y013925D01*
X019075Y013877D01*
X019092Y013830D01*
X019114Y013784D01*
X019138Y013740D01*
X019166Y013698D01*
X019198Y013659D01*
X019232Y013622D01*
X019269Y013588D01*
X019308Y013556D01*
X019350Y013528D01*
X019394Y013504D01*
X019440Y013482D01*
X019487Y013465D01*
X019535Y013451D01*
X019585Y013441D01*
X019635Y013434D01*
X019685Y013432D01*
X019685Y013441D01*
X019635Y013443D01*
X019586Y013450D01*
X019537Y013459D01*
X019490Y013473D01*
X019443Y013491D01*
X019398Y013512D01*
X019355Y013536D01*
X019314Y013564D01*
X019275Y013594D01*
X019238Y013628D01*
X019204Y013665D01*
X019174Y013704D01*
X019146Y013745D01*
X019122Y013788D01*
X019101Y013833D01*
X019083Y013880D01*
X019069Y013927D01*
X019060Y013976D01*
X019053Y014025D01*
X019051Y014075D01*
X019060Y014075D01*
X019062Y014026D01*
X019068Y013977D01*
X019078Y013930D01*
X019092Y013882D01*
X019109Y013837D01*
X019130Y013792D01*
X019154Y013750D01*
X019181Y013709D01*
X019211Y013670D01*
X019245Y013635D01*
X019280Y013601D01*
X019319Y013571D01*
X019360Y013544D01*
X019402Y013520D01*
X019447Y013499D01*
X019492Y013482D01*
X019540Y013468D01*
X019587Y013458D01*
X019636Y013452D01*
X019685Y013450D01*
X020164Y014084D02*
X020114Y014084D01*
X020115Y014085D02*
X020113Y014124D01*
X020107Y014162D01*
X020098Y014199D01*
X020085Y014236D01*
X020070Y014271D01*
X020051Y014305D01*
X020029Y014337D01*
X020004Y014367D01*
X019977Y014394D01*
X019947Y014419D01*
X019915Y014441D01*
X019881Y014460D01*
X019846Y014475D01*
X019809Y014488D01*
X019772Y014497D01*
X019734Y014503D01*
X019695Y014505D01*
X019694Y014554D01*
X019695Y014555D01*
X019736Y014553D01*
X019776Y014547D01*
X019816Y014538D01*
X019855Y014525D01*
X019893Y014510D01*
X019929Y014491D01*
X019963Y014468D01*
X019996Y014444D01*
X020026Y014416D01*
X020054Y014386D01*
X020078Y014353D01*
X020101Y014319D01*
X020120Y014283D01*
X020135Y014245D01*
X020148Y014206D01*
X020157Y014166D01*
X020163Y014126D01*
X020165Y014085D01*
X020156Y014085D01*
X020154Y014127D01*
X020147Y014169D01*
X020137Y014211D01*
X020124Y014251D01*
X020106Y014290D01*
X020085Y014327D01*
X020061Y014362D01*
X020034Y014394D01*
X020004Y014424D01*
X019972Y014451D01*
X019937Y014475D01*
X019900Y014496D01*
X019861Y014514D01*
X019821Y014527D01*
X019779Y014537D01*
X019737Y014544D01*
X019695Y014546D01*
X019695Y014537D01*
X019737Y014535D01*
X019778Y014529D01*
X019818Y014519D01*
X019858Y014505D01*
X019896Y014488D01*
X019932Y014468D01*
X019966Y014444D01*
X019998Y014418D01*
X020028Y014388D01*
X020054Y014356D01*
X020078Y014322D01*
X020098Y014286D01*
X020115Y014248D01*
X020129Y014208D01*
X020139Y014168D01*
X020145Y014127D01*
X020147Y014085D01*
X020138Y014085D01*
X020136Y014126D01*
X020130Y014166D01*
X020120Y014206D01*
X020107Y014244D01*
X020090Y014282D01*
X020070Y014317D01*
X020047Y014351D01*
X020021Y014382D01*
X019992Y014411D01*
X019961Y014437D01*
X019927Y014460D01*
X019892Y014480D01*
X019854Y014497D01*
X019816Y014510D01*
X019776Y014520D01*
X019736Y014526D01*
X019695Y014528D01*
X019695Y014519D01*
X019735Y014517D01*
X019774Y014511D01*
X019813Y014501D01*
X019851Y014488D01*
X019888Y014472D01*
X019922Y014452D01*
X019955Y014430D01*
X019986Y014404D01*
X020014Y014376D01*
X020040Y014345D01*
X020062Y014312D01*
X020082Y014278D01*
X020098Y014241D01*
X020111Y014203D01*
X020121Y014164D01*
X020127Y014125D01*
X020129Y014085D01*
X020120Y014085D01*
X020118Y014124D01*
X020112Y014163D01*
X020103Y014201D01*
X020090Y014238D01*
X020074Y014274D01*
X020055Y014308D01*
X020033Y014340D01*
X020008Y014370D01*
X019980Y014398D01*
X019950Y014423D01*
X019918Y014445D01*
X019884Y014464D01*
X019848Y014480D01*
X019811Y014493D01*
X019773Y014502D01*
X019734Y014508D01*
X019695Y014510D01*
X019216Y014076D02*
X019266Y014076D01*
X019265Y014075D02*
X019267Y014036D01*
X019273Y013998D01*
X019282Y013961D01*
X019295Y013924D01*
X019310Y013889D01*
X019329Y013855D01*
X019351Y013823D01*
X019376Y013793D01*
X019403Y013766D01*
X019433Y013741D01*
X019465Y013719D01*
X019499Y013700D01*
X019534Y013685D01*
X019571Y013672D01*
X019608Y013663D01*
X019646Y013657D01*
X019685Y013655D01*
X019686Y013606D01*
X019685Y013605D01*
X019644Y013607D01*
X019604Y013613D01*
X019564Y013622D01*
X019525Y013635D01*
X019487Y013650D01*
X019451Y013669D01*
X019417Y013692D01*
X019384Y013716D01*
X019354Y013744D01*
X019326Y013774D01*
X019302Y013807D01*
X019279Y013841D01*
X019260Y013877D01*
X019245Y013915D01*
X019232Y013954D01*
X019223Y013994D01*
X019217Y014034D01*
X019215Y014075D01*
X019224Y014075D01*
X019226Y014033D01*
X019233Y013991D01*
X019243Y013949D01*
X019256Y013909D01*
X019274Y013870D01*
X019295Y013833D01*
X019319Y013798D01*
X019346Y013766D01*
X019376Y013736D01*
X019408Y013709D01*
X019443Y013685D01*
X019480Y013664D01*
X019519Y013646D01*
X019559Y013633D01*
X019601Y013623D01*
X019643Y013616D01*
X019685Y013614D01*
X019685Y013623D01*
X019643Y013625D01*
X019602Y013631D01*
X019562Y013641D01*
X019522Y013655D01*
X019484Y013672D01*
X019448Y013692D01*
X019414Y013716D01*
X019382Y013742D01*
X019352Y013772D01*
X019326Y013804D01*
X019302Y013838D01*
X019282Y013874D01*
X019265Y013912D01*
X019251Y013952D01*
X019241Y013992D01*
X019235Y014033D01*
X019233Y014075D01*
X019242Y014075D01*
X019244Y014034D01*
X019250Y013994D01*
X019260Y013954D01*
X019273Y013916D01*
X019290Y013878D01*
X019310Y013843D01*
X019333Y013809D01*
X019359Y013778D01*
X019388Y013749D01*
X019419Y013723D01*
X019453Y013700D01*
X019488Y013680D01*
X019526Y013663D01*
X019564Y013650D01*
X019604Y013640D01*
X019644Y013634D01*
X019685Y013632D01*
X019685Y013641D01*
X019645Y013643D01*
X019606Y013649D01*
X019567Y013659D01*
X019529Y013672D01*
X019492Y013688D01*
X019458Y013708D01*
X019425Y013730D01*
X019394Y013756D01*
X019366Y013784D01*
X019340Y013815D01*
X019318Y013848D01*
X019298Y013882D01*
X019282Y013919D01*
X019269Y013957D01*
X019259Y013996D01*
X019253Y014035D01*
X019251Y014075D01*
X019260Y014075D01*
X019262Y014036D01*
X019268Y013997D01*
X019277Y013959D01*
X019290Y013922D01*
X019306Y013886D01*
X019325Y013852D01*
X019347Y013820D01*
X019372Y013790D01*
X019400Y013762D01*
X019430Y013737D01*
X019462Y013715D01*
X019496Y013696D01*
X019532Y013680D01*
X019569Y013667D01*
X019607Y013658D01*
X019646Y013652D01*
X019685Y013650D01*
D21*
X007440Y014215D03*
D22*
X005190Y013200D02*
X001690Y013200D01*
D23*
X001940Y012835D03*
X002440Y012835D03*
X002940Y012845D03*
X003440Y012835D03*
X003940Y012835D03*
X004440Y012835D03*
X004940Y012835D03*
X004940Y014825D03*
X004440Y014825D03*
X003940Y014825D03*
X003440Y014825D03*
X002940Y014825D03*
X002440Y014825D03*
X001940Y014825D03*
M02*
