G75*
G70*
%OFA0B0*%
%FSLAX24Y24*%
%IPPOS*%
%LPD*%
%AMOC8*
5,1,8,0,0,1.08239X$1,22.5*
%
%ADD10C,0.0100*%
%ADD11C,0.0080*%
%ADD12C,0.0000*%
%ADD13OC8,0.0694*%
%ADD14C,0.0655*%
%ADD15R,0.0674X0.0674*%
%ADD16C,0.0674*%
%ADD17C,0.0740*%
%ADD18OC8,0.0640*%
%ADD19C,0.0640*%
%ADD20C,0.0240*%
%ADD21C,0.0120*%
%ADD22C,0.0516*%
%ADD23C,0.0634*%
D10*
X000584Y000580D02*
X025796Y000580D01*
X025835Y000582D01*
X025873Y000588D01*
X025910Y000597D01*
X025947Y000610D01*
X025982Y000627D01*
X026015Y000646D01*
X026046Y000669D01*
X026075Y000695D01*
X026101Y000724D01*
X026124Y000755D01*
X026143Y000788D01*
X026160Y000823D01*
X026173Y000860D01*
X026182Y000897D01*
X026188Y000935D01*
X026190Y000974D01*
X026190Y001580D01*
X027190Y002580D01*
X027190Y015480D01*
X026190Y016480D01*
X026190Y020980D01*
X025590Y021580D01*
X000584Y021580D01*
X000545Y021578D01*
X000507Y021572D01*
X000470Y021563D01*
X000433Y021550D01*
X000398Y021533D01*
X000365Y021514D01*
X000334Y021491D01*
X000305Y021465D01*
X000279Y021436D01*
X000256Y021405D01*
X000237Y021372D01*
X000220Y021337D01*
X000207Y021300D01*
X000198Y021263D01*
X000192Y021225D01*
X000190Y021186D01*
X000190Y000974D01*
X000192Y000935D01*
X000198Y000897D01*
X000207Y000860D01*
X000220Y000823D01*
X000237Y000788D01*
X000256Y000755D01*
X000279Y000724D01*
X000305Y000695D01*
X000334Y000669D01*
X000365Y000646D01*
X000398Y000627D01*
X000433Y000610D01*
X000470Y000597D01*
X000507Y000588D01*
X000545Y000582D01*
X000584Y000580D01*
X025190Y011580D02*
X025240Y011580D01*
X025240Y012580D02*
X025190Y012580D01*
X011680Y015080D02*
X011590Y015080D01*
X011690Y016080D02*
X011680Y016080D01*
D11*
X012139Y016437D02*
X012221Y016437D01*
X012191Y016407D02*
X012180Y016381D01*
X012169Y016407D01*
X012007Y016569D01*
X011990Y016576D01*
X011990Y016706D01*
X012064Y016780D01*
X024666Y016780D01*
X024890Y016556D01*
X024890Y013060D01*
X024740Y012910D01*
X024740Y015890D01*
X024694Y016000D01*
X024194Y016500D01*
X024110Y016584D01*
X024000Y016630D01*
X019130Y016630D01*
X019020Y016584D01*
X017066Y014630D01*
X015046Y014630D01*
X015169Y014753D01*
X015257Y014965D01*
X015257Y015195D01*
X015169Y015407D01*
X015007Y015569D01*
X014926Y015603D01*
X015036Y015603D01*
X015071Y015612D01*
X015103Y015631D01*
X015129Y015657D01*
X015148Y015689D01*
X015157Y015724D01*
X015157Y016040D01*
X014720Y016040D01*
X014720Y016120D01*
X014640Y016120D01*
X014640Y016557D01*
X014324Y016557D01*
X014289Y016548D01*
X014257Y016529D01*
X014231Y016503D01*
X014212Y016471D01*
X014203Y016436D01*
X014203Y016326D01*
X014169Y016407D01*
X014007Y016569D01*
X013795Y016657D01*
X013565Y016657D01*
X013353Y016569D01*
X013191Y016407D01*
X013180Y016381D01*
X013169Y016407D01*
X013007Y016569D01*
X012795Y016657D01*
X012565Y016657D01*
X012353Y016569D01*
X012191Y016407D01*
X012299Y016516D02*
X012061Y016516D01*
X011990Y016594D02*
X012413Y016594D01*
X012035Y016751D02*
X024695Y016751D01*
X024773Y016673D02*
X017603Y016673D01*
X017561Y016690D02*
X017319Y016690D01*
X017094Y016597D01*
X016923Y016426D01*
X016830Y016201D01*
X016830Y015959D01*
X016923Y015734D01*
X017094Y015563D01*
X017319Y015470D01*
X017561Y015470D01*
X017786Y015563D01*
X017957Y015734D01*
X018050Y015959D01*
X018050Y016201D01*
X017957Y016426D01*
X017786Y016597D01*
X017561Y016690D01*
X017789Y016594D02*
X019044Y016594D01*
X018951Y016516D02*
X017867Y016516D01*
X017946Y016437D02*
X018873Y016437D01*
X018794Y016359D02*
X017985Y016359D01*
X018017Y016280D02*
X018716Y016280D01*
X018637Y016202D02*
X018050Y016202D01*
X018050Y016123D02*
X018559Y016123D01*
X018480Y016045D02*
X018050Y016045D01*
X018050Y015966D02*
X018402Y015966D01*
X018323Y015888D02*
X018021Y015888D01*
X017988Y015809D02*
X018245Y015809D01*
X018166Y015731D02*
X017953Y015731D01*
X017875Y015652D02*
X018088Y015652D01*
X018009Y015574D02*
X017796Y015574D01*
X017931Y015495D02*
X017622Y015495D01*
X017774Y015338D02*
X015198Y015338D01*
X015230Y015260D02*
X017695Y015260D01*
X017617Y015181D02*
X015257Y015181D01*
X015257Y015103D02*
X017538Y015103D01*
X017460Y015024D02*
X015257Y015024D01*
X015249Y014946D02*
X017381Y014946D01*
X017303Y014867D02*
X015217Y014867D01*
X015184Y014789D02*
X017224Y014789D01*
X017146Y014710D02*
X015126Y014710D01*
X015048Y014632D02*
X017067Y014632D01*
X017680Y014396D02*
X017832Y014396D01*
X017759Y014475D02*
X017910Y014475D01*
X017837Y014553D02*
X017989Y014553D01*
X017916Y014632D02*
X018067Y014632D01*
X017994Y014710D02*
X018146Y014710D01*
X018073Y014789D02*
X018224Y014789D01*
X018151Y014867D02*
X018303Y014867D01*
X018230Y014946D02*
X018381Y014946D01*
X018308Y015024D02*
X018460Y015024D01*
X018387Y015103D02*
X018538Y015103D01*
X018465Y015181D02*
X018617Y015181D01*
X018544Y015260D02*
X018695Y015260D01*
X018622Y015338D02*
X018774Y015338D01*
X018701Y015417D02*
X018852Y015417D01*
X018779Y015495D02*
X018931Y015495D01*
X018858Y015574D02*
X019009Y015574D01*
X018936Y015652D02*
X019088Y015652D01*
X019015Y015731D02*
X019166Y015731D01*
X019093Y015809D02*
X019245Y015809D01*
X019270Y015834D02*
X016126Y012690D01*
X016069Y012690D01*
X015844Y012597D01*
X015673Y012426D01*
X015580Y012201D01*
X015580Y011959D01*
X015673Y011734D01*
X015777Y011630D01*
X012814Y011630D01*
X012490Y011954D01*
X012490Y014356D01*
X012520Y014326D01*
X012770Y014076D01*
X012880Y014030D01*
X017250Y014030D01*
X017360Y014076D01*
X019314Y016030D01*
X023816Y016030D01*
X024140Y015706D01*
X024140Y012270D01*
X024186Y012160D01*
X024270Y012076D01*
X024466Y011880D01*
X018380Y011880D01*
X018270Y011834D01*
X018066Y011630D01*
X017853Y011630D01*
X017957Y011734D01*
X018050Y011959D01*
X018050Y012201D01*
X018031Y012247D01*
X019064Y013280D01*
X019154Y013280D01*
X019173Y013234D01*
X019344Y013063D01*
X019569Y012970D01*
X019811Y012970D01*
X020036Y013063D01*
X020207Y013234D01*
X020300Y013459D01*
X020300Y013701D01*
X020207Y013926D01*
X020036Y014097D01*
X019942Y014136D01*
X019957Y014144D01*
X020022Y014191D01*
X020079Y014248D01*
X020126Y014313D01*
X020163Y014384D01*
X020187Y014461D01*
X020200Y014540D01*
X019730Y014540D01*
X019730Y014620D01*
X020200Y014620D01*
X020200Y014620D01*
X020187Y014699D01*
X020163Y014776D01*
X020126Y014847D01*
X020079Y014912D01*
X020022Y014969D01*
X019957Y015016D01*
X019886Y015053D01*
X019809Y015077D01*
X019730Y015090D01*
X019730Y014620D01*
X019650Y014620D01*
X019650Y015090D01*
X019650Y015090D01*
X019571Y015077D01*
X019494Y015053D01*
X019423Y015016D01*
X019358Y014969D01*
X019301Y014912D01*
X019254Y014847D01*
X019217Y014776D01*
X019193Y014699D01*
X019180Y014620D01*
X019650Y014620D01*
X019650Y014540D01*
X019180Y014540D01*
X019180Y014540D01*
X019193Y014461D01*
X019217Y014384D01*
X019254Y014313D01*
X019301Y014248D01*
X019358Y014191D01*
X019423Y014144D01*
X019438Y014136D01*
X019344Y014097D01*
X019173Y013926D01*
X019154Y013880D01*
X018880Y013880D01*
X018770Y013834D01*
X018686Y013750D01*
X017607Y012671D01*
X017561Y012690D01*
X017319Y012690D01*
X017094Y012597D01*
X016923Y012426D01*
X016830Y012201D01*
X016830Y011959D01*
X016923Y011734D01*
X017027Y011630D01*
X016603Y011630D01*
X016707Y011734D01*
X016800Y011959D01*
X016800Y012201D01*
X016708Y012424D01*
X019564Y015280D01*
X021316Y015280D01*
X021390Y015206D01*
X021390Y014020D01*
X021436Y013910D01*
X022020Y013326D01*
X022130Y013280D01*
X022154Y013280D01*
X022173Y013234D01*
X022344Y013063D01*
X022569Y012970D01*
X022811Y012970D01*
X023036Y013063D01*
X023207Y013234D01*
X023300Y013459D01*
X023300Y013701D01*
X023207Y013926D01*
X023036Y014097D01*
X022942Y014136D01*
X022957Y014144D01*
X023022Y014191D01*
X023079Y014248D01*
X023126Y014313D01*
X023163Y014384D01*
X023187Y014461D01*
X023200Y014540D01*
X022730Y014540D01*
X022730Y014620D01*
X022650Y014620D01*
X022650Y015090D01*
X022650Y015090D01*
X022571Y015077D01*
X022494Y015053D01*
X022423Y015016D01*
X022358Y014969D01*
X022301Y014912D01*
X022254Y014847D01*
X022217Y014776D01*
X022193Y014699D01*
X022180Y014620D01*
X022650Y014620D01*
X022650Y014540D01*
X022180Y014540D01*
X022180Y014540D01*
X022193Y014461D01*
X022217Y014384D01*
X022254Y014313D01*
X022301Y014248D01*
X022358Y014191D01*
X022423Y014144D01*
X022438Y014136D01*
X022344Y014097D01*
X022221Y013973D01*
X021990Y014204D01*
X021990Y015390D01*
X021944Y015500D01*
X021610Y015834D01*
X021500Y015880D01*
X019380Y015880D01*
X019270Y015834D01*
X019172Y015888D02*
X023958Y015888D01*
X023880Y015966D02*
X019250Y015966D01*
X019544Y015260D02*
X021336Y015260D01*
X021390Y015181D02*
X019465Y015181D01*
X019387Y015103D02*
X021390Y015103D01*
X021390Y015024D02*
X019942Y015024D01*
X020046Y014946D02*
X021390Y014946D01*
X021390Y014867D02*
X020112Y014867D01*
X020156Y014789D02*
X021390Y014789D01*
X021390Y014710D02*
X020184Y014710D01*
X020198Y014632D02*
X021390Y014632D01*
X021390Y014553D02*
X019730Y014553D01*
X019730Y014632D02*
X019650Y014632D01*
X019650Y014710D02*
X019730Y014710D01*
X019730Y014789D02*
X019650Y014789D01*
X019650Y014867D02*
X019730Y014867D01*
X019730Y014946D02*
X019650Y014946D01*
X019650Y015024D02*
X019730Y015024D01*
X019730Y015090D02*
X019730Y015090D01*
X019438Y015024D02*
X019308Y015024D01*
X019334Y014946D02*
X019230Y014946D01*
X019268Y014867D02*
X019151Y014867D01*
X019224Y014789D02*
X019073Y014789D01*
X018994Y014710D02*
X019196Y014710D01*
X019182Y014632D02*
X018916Y014632D01*
X018837Y014553D02*
X019650Y014553D01*
X019310Y014239D02*
X018523Y014239D01*
X018445Y014161D02*
X019400Y014161D01*
X019329Y014082D02*
X018366Y014082D01*
X018288Y014004D02*
X019251Y014004D01*
X019173Y013925D02*
X018209Y013925D01*
X018131Y013847D02*
X018800Y013847D01*
X018704Y013768D02*
X018052Y013768D01*
X017974Y013690D02*
X018625Y013690D01*
X018547Y013611D02*
X017895Y013611D01*
X017817Y013533D02*
X018468Y013533D01*
X018390Y013454D02*
X017738Y013454D01*
X017660Y013376D02*
X018311Y013376D01*
X018233Y013297D02*
X017581Y013297D01*
X017503Y013219D02*
X018154Y013219D01*
X018076Y013140D02*
X017424Y013140D01*
X017346Y013062D02*
X017997Y013062D01*
X017919Y012983D02*
X017267Y012983D01*
X017189Y012905D02*
X017840Y012905D01*
X017762Y012826D02*
X017110Y012826D01*
X017032Y012748D02*
X017683Y012748D01*
X017268Y012669D02*
X016953Y012669D01*
X016875Y012591D02*
X017088Y012591D01*
X017009Y012512D02*
X016796Y012512D01*
X016718Y012434D02*
X016931Y012434D01*
X016894Y012355D02*
X016736Y012355D01*
X016769Y012277D02*
X016861Y012277D01*
X016830Y012198D02*
X016800Y012198D01*
X016800Y012120D02*
X016830Y012120D01*
X016830Y012041D02*
X016800Y012041D01*
X016800Y011963D02*
X016830Y011963D01*
X016861Y011884D02*
X016769Y011884D01*
X016737Y011806D02*
X016893Y011806D01*
X016930Y011727D02*
X016700Y011727D01*
X016621Y011649D02*
X017009Y011649D01*
X017005Y011030D02*
X016974Y010987D01*
X016937Y010916D01*
X016913Y010839D01*
X016900Y010760D01*
X017370Y010760D01*
X017370Y010680D01*
X017450Y010680D01*
X017450Y010760D01*
X017920Y010760D01*
X017920Y010760D01*
X017907Y010839D01*
X017883Y010916D01*
X017846Y010987D01*
X017815Y011030D01*
X018250Y011030D01*
X018360Y011076D01*
X018444Y011160D01*
X018564Y011280D01*
X024710Y011280D01*
X024910Y011080D01*
X024653Y010823D01*
X024653Y010337D01*
X024860Y010130D01*
X010814Y010130D01*
X010490Y010454D01*
X010490Y018140D01*
X010444Y018250D01*
X009944Y018750D01*
X009860Y018834D01*
X009764Y018874D01*
X009911Y018935D01*
X010071Y019095D01*
X010145Y019274D01*
X010157Y019237D01*
X010190Y019171D01*
X010234Y019112D01*
X010286Y019060D01*
X010345Y019017D01*
X010411Y018983D01*
X010481Y018961D01*
X010550Y018950D01*
X010550Y019540D01*
X010630Y019540D01*
X010630Y018950D01*
X010699Y018961D01*
X010769Y018983D01*
X010835Y019017D01*
X010894Y019060D01*
X010946Y019112D01*
X010990Y019171D01*
X011023Y019237D01*
X011035Y019274D01*
X011109Y019095D01*
X011269Y018935D01*
X011477Y018849D01*
X011703Y018849D01*
X011911Y018935D01*
X012071Y019095D01*
X012090Y019141D01*
X012109Y019095D01*
X012269Y018935D01*
X012477Y018849D01*
X012703Y018849D01*
X012911Y018935D01*
X013071Y019095D01*
X013090Y019141D01*
X013109Y019095D01*
X013269Y018935D01*
X013477Y018849D01*
X013703Y018849D01*
X013911Y018935D01*
X014071Y019095D01*
X014090Y019141D01*
X014109Y019095D01*
X014269Y018935D01*
X014477Y018849D01*
X014703Y018849D01*
X014911Y018935D01*
X015071Y019095D01*
X015090Y019141D01*
X015109Y019095D01*
X015269Y018935D01*
X015477Y018849D01*
X015703Y018849D01*
X015911Y018935D01*
X016071Y019095D01*
X016090Y019141D01*
X016109Y019095D01*
X016269Y018935D01*
X016477Y018849D01*
X016703Y018849D01*
X016911Y018935D01*
X017071Y019095D01*
X017157Y019303D01*
X017157Y019857D01*
X017071Y020065D01*
X017056Y020080D01*
X017071Y020095D01*
X017157Y020303D01*
X017157Y020857D01*
X017071Y021065D01*
X016911Y021225D01*
X016898Y021230D01*
X017882Y021230D01*
X017869Y021225D01*
X017709Y021065D01*
X017623Y020857D01*
X017623Y020303D01*
X017709Y020095D01*
X017724Y020080D01*
X017709Y020065D01*
X017623Y019857D01*
X017623Y019303D01*
X017709Y019095D01*
X017869Y018935D01*
X018077Y018849D01*
X018303Y018849D01*
X018511Y018935D01*
X018671Y019095D01*
X018690Y019141D01*
X018709Y019095D01*
X018869Y018935D01*
X019077Y018849D01*
X019303Y018849D01*
X019511Y018935D01*
X019671Y019095D01*
X019690Y019141D01*
X019709Y019095D01*
X019869Y018935D01*
X020077Y018849D01*
X020303Y018849D01*
X020511Y018935D01*
X020671Y019095D01*
X020690Y019141D01*
X020709Y019095D01*
X020869Y018935D01*
X021077Y018849D01*
X021303Y018849D01*
X021511Y018935D01*
X021671Y019095D01*
X021690Y019141D01*
X021709Y019095D01*
X021869Y018935D01*
X022047Y018861D01*
X021816Y018630D01*
X011380Y018630D01*
X011270Y018584D01*
X010686Y018000D01*
X010640Y017890D01*
X010640Y015670D01*
X010686Y015560D01*
X011103Y015143D01*
X011103Y014965D01*
X011191Y014753D01*
X011353Y014591D01*
X011565Y014503D01*
X011795Y014503D01*
X011890Y014542D01*
X011890Y011770D01*
X011936Y011660D01*
X012436Y011160D01*
X012520Y011076D01*
X012630Y011030D01*
X017005Y011030D01*
X016998Y011021D02*
X010490Y011021D01*
X010490Y011099D02*
X012497Y011099D01*
X012436Y011160D02*
X012436Y011160D01*
X012418Y011178D02*
X010490Y011178D01*
X010490Y011256D02*
X012340Y011256D01*
X012261Y011335D02*
X010490Y011335D01*
X010490Y011413D02*
X012183Y011413D01*
X012104Y011492D02*
X010490Y011492D01*
X010490Y011570D02*
X012026Y011570D01*
X011947Y011649D02*
X010490Y011649D01*
X010490Y011727D02*
X011908Y011727D01*
X011890Y011806D02*
X010490Y011806D01*
X010490Y011884D02*
X011890Y011884D01*
X011890Y011963D02*
X010490Y011963D01*
X010490Y012041D02*
X011890Y012041D01*
X011890Y012120D02*
X010490Y012120D01*
X010490Y012198D02*
X011890Y012198D01*
X011890Y012277D02*
X010490Y012277D01*
X010490Y012355D02*
X011890Y012355D01*
X011890Y012434D02*
X010490Y012434D01*
X010490Y012512D02*
X011890Y012512D01*
X011890Y012591D02*
X010490Y012591D01*
X010490Y012669D02*
X011890Y012669D01*
X011890Y012748D02*
X010490Y012748D01*
X010490Y012826D02*
X011890Y012826D01*
X011890Y012905D02*
X010490Y012905D01*
X010490Y012983D02*
X011890Y012983D01*
X011890Y013062D02*
X010490Y013062D01*
X010490Y013140D02*
X011890Y013140D01*
X011890Y013219D02*
X010490Y013219D01*
X010490Y013297D02*
X011890Y013297D01*
X011890Y013376D02*
X010490Y013376D01*
X010490Y013454D02*
X011890Y013454D01*
X011890Y013533D02*
X010490Y013533D01*
X010490Y013611D02*
X011890Y013611D01*
X011890Y013690D02*
X010490Y013690D01*
X010490Y013768D02*
X011890Y013768D01*
X011890Y013847D02*
X010490Y013847D01*
X010490Y013925D02*
X011890Y013925D01*
X011890Y014004D02*
X010490Y014004D01*
X010490Y014082D02*
X011890Y014082D01*
X011890Y014161D02*
X010490Y014161D01*
X010490Y014239D02*
X011890Y014239D01*
X011890Y014318D02*
X010490Y014318D01*
X010490Y014396D02*
X011890Y014396D01*
X011890Y014475D02*
X010490Y014475D01*
X010490Y014553D02*
X011444Y014553D01*
X011312Y014632D02*
X010490Y014632D01*
X010490Y014710D02*
X011234Y014710D01*
X011176Y014789D02*
X010490Y014789D01*
X010490Y014867D02*
X011143Y014867D01*
X011111Y014946D02*
X010490Y014946D01*
X010490Y015024D02*
X011103Y015024D01*
X011103Y015103D02*
X010490Y015103D01*
X010490Y015181D02*
X011065Y015181D01*
X010986Y015260D02*
X010490Y015260D01*
X010490Y015338D02*
X010908Y015338D01*
X010829Y015417D02*
X010490Y015417D01*
X010490Y015495D02*
X010751Y015495D01*
X010680Y015574D02*
X010490Y015574D01*
X010490Y015652D02*
X010648Y015652D01*
X010640Y015731D02*
X010490Y015731D01*
X010490Y015809D02*
X010640Y015809D01*
X010640Y015888D02*
X010490Y015888D01*
X010490Y015966D02*
X010640Y015966D01*
X010640Y016045D02*
X010490Y016045D01*
X010490Y016123D02*
X010640Y016123D01*
X010640Y016202D02*
X010490Y016202D01*
X010490Y016280D02*
X010640Y016280D01*
X010640Y016359D02*
X010490Y016359D01*
X010490Y016437D02*
X010640Y016437D01*
X010640Y016516D02*
X010490Y016516D01*
X010490Y016594D02*
X010640Y016594D01*
X010640Y016673D02*
X010490Y016673D01*
X010490Y016751D02*
X010640Y016751D01*
X010640Y016830D02*
X010490Y016830D01*
X010490Y016908D02*
X010640Y016908D01*
X010640Y016987D02*
X010490Y016987D01*
X010490Y017065D02*
X010640Y017065D01*
X010640Y017144D02*
X010490Y017144D01*
X010490Y017222D02*
X010640Y017222D01*
X010640Y017301D02*
X010490Y017301D01*
X010490Y017379D02*
X010640Y017379D01*
X010640Y017458D02*
X010490Y017458D01*
X010490Y017536D02*
X010640Y017536D01*
X010640Y017615D02*
X010490Y017615D01*
X010490Y017693D02*
X010640Y017693D01*
X010640Y017772D02*
X010490Y017772D01*
X010490Y017850D02*
X010640Y017850D01*
X010656Y017929D02*
X010490Y017929D01*
X010490Y018007D02*
X010693Y018007D01*
X010771Y018086D02*
X010490Y018086D01*
X010480Y018164D02*
X010850Y018164D01*
X010928Y018243D02*
X010447Y018243D01*
X010373Y018321D02*
X011007Y018321D01*
X011085Y018400D02*
X010295Y018400D01*
X010216Y018478D02*
X011164Y018478D01*
X011242Y018557D02*
X010138Y018557D01*
X010059Y018635D02*
X021821Y018635D01*
X021899Y018714D02*
X009981Y018714D01*
X009902Y018792D02*
X021978Y018792D01*
X022025Y018871D02*
X021355Y018871D01*
X021525Y018949D02*
X021855Y018949D01*
X021776Y019028D02*
X021604Y019028D01*
X021676Y019106D02*
X021704Y019106D01*
X021025Y018871D02*
X020355Y018871D01*
X020525Y018949D02*
X020855Y018949D01*
X020776Y019028D02*
X020604Y019028D01*
X020676Y019106D02*
X020704Y019106D01*
X020025Y018871D02*
X019355Y018871D01*
X019525Y018949D02*
X019855Y018949D01*
X019776Y019028D02*
X019604Y019028D01*
X019676Y019106D02*
X019704Y019106D01*
X019025Y018871D02*
X018355Y018871D01*
X018525Y018949D02*
X018855Y018949D01*
X018776Y019028D02*
X018604Y019028D01*
X018676Y019106D02*
X018704Y019106D01*
X018025Y018871D02*
X016755Y018871D01*
X016925Y018949D02*
X017855Y018949D01*
X017776Y019028D02*
X017004Y019028D01*
X017076Y019106D02*
X017704Y019106D01*
X017672Y019185D02*
X017108Y019185D01*
X017141Y019263D02*
X017639Y019263D01*
X017623Y019342D02*
X017157Y019342D01*
X017157Y019420D02*
X017623Y019420D01*
X017623Y019499D02*
X017157Y019499D01*
X017157Y019577D02*
X017623Y019577D01*
X017623Y019656D02*
X017157Y019656D01*
X017157Y019734D02*
X017623Y019734D01*
X017623Y019813D02*
X017157Y019813D01*
X017143Y019891D02*
X017637Y019891D01*
X017670Y019970D02*
X017110Y019970D01*
X017078Y020048D02*
X017702Y020048D01*
X017696Y020127D02*
X017084Y020127D01*
X017117Y020205D02*
X017663Y020205D01*
X017631Y020284D02*
X017149Y020284D01*
X017157Y020362D02*
X017623Y020362D01*
X017623Y020441D02*
X017157Y020441D01*
X017157Y020519D02*
X017623Y020519D01*
X017623Y020598D02*
X017157Y020598D01*
X017157Y020676D02*
X017623Y020676D01*
X017623Y020755D02*
X017157Y020755D01*
X017157Y020833D02*
X017623Y020833D01*
X017645Y020912D02*
X017135Y020912D01*
X017102Y020990D02*
X017678Y020990D01*
X017713Y021069D02*
X017067Y021069D01*
X016989Y021147D02*
X017791Y021147D01*
X017871Y021226D02*
X016909Y021226D01*
X016104Y019106D02*
X016076Y019106D01*
X016004Y019028D02*
X016176Y019028D01*
X016255Y018949D02*
X015925Y018949D01*
X015755Y018871D02*
X016425Y018871D01*
X015425Y018871D02*
X014755Y018871D01*
X014925Y018949D02*
X015255Y018949D01*
X015176Y019028D02*
X015004Y019028D01*
X015076Y019106D02*
X015104Y019106D01*
X014425Y018871D02*
X013755Y018871D01*
X013925Y018949D02*
X014255Y018949D01*
X014176Y019028D02*
X014004Y019028D01*
X014076Y019106D02*
X014104Y019106D01*
X013425Y018871D02*
X012755Y018871D01*
X012925Y018949D02*
X013255Y018949D01*
X013176Y019028D02*
X013004Y019028D01*
X013076Y019106D02*
X013104Y019106D01*
X012425Y018871D02*
X011755Y018871D01*
X011925Y018949D02*
X012255Y018949D01*
X012176Y019028D02*
X012004Y019028D01*
X012076Y019106D02*
X012104Y019106D01*
X011425Y018871D02*
X009772Y018871D01*
X009925Y018949D02*
X011255Y018949D01*
X011176Y019028D02*
X010850Y019028D01*
X010941Y019106D02*
X011104Y019106D01*
X011072Y019185D02*
X010996Y019185D01*
X011032Y019263D02*
X011039Y019263D01*
X010630Y019263D02*
X010550Y019263D01*
X010550Y019185D02*
X010630Y019185D01*
X010630Y019106D02*
X010550Y019106D01*
X010550Y019028D02*
X010630Y019028D01*
X010330Y019028D02*
X010004Y019028D01*
X010076Y019106D02*
X010239Y019106D01*
X010184Y019185D02*
X010108Y019185D01*
X010141Y019263D02*
X010148Y019263D01*
X010550Y019342D02*
X010630Y019342D01*
X010630Y019420D02*
X010550Y019420D01*
X010550Y019499D02*
X010630Y019499D01*
X010630Y019620D02*
X010550Y019620D01*
X010550Y019950D01*
X010550Y020540D01*
X010630Y020540D01*
X010630Y019620D01*
X010630Y019656D02*
X010550Y019656D01*
X010550Y019734D02*
X010630Y019734D01*
X010630Y019813D02*
X010550Y019813D01*
X010550Y019891D02*
X010630Y019891D01*
X010630Y019970D02*
X010550Y019970D01*
X010550Y020048D02*
X010630Y020048D01*
X010630Y020127D02*
X010550Y020127D01*
X010550Y020205D02*
X010630Y020205D01*
X010630Y020284D02*
X010550Y020284D01*
X010550Y020362D02*
X010630Y020362D01*
X010630Y020441D02*
X010550Y020441D01*
X010550Y020519D02*
X010630Y020519D01*
X010630Y020620D02*
X010550Y020620D01*
X010550Y021210D01*
X010481Y021199D01*
X010411Y021177D01*
X010345Y021143D01*
X010286Y021100D01*
X010234Y021048D01*
X010190Y020989D01*
X010157Y020923D01*
X010145Y020886D01*
X010071Y021065D01*
X009911Y021225D01*
X009898Y021230D01*
X011282Y021230D01*
X011269Y021225D01*
X011109Y021065D01*
X011035Y020886D01*
X011023Y020923D01*
X010990Y020989D01*
X010946Y021048D01*
X010894Y021100D01*
X010835Y021143D01*
X010769Y021177D01*
X010699Y021199D01*
X010630Y021210D01*
X010630Y020620D01*
X010630Y020676D02*
X010550Y020676D01*
X010550Y020755D02*
X010630Y020755D01*
X010630Y020833D02*
X010550Y020833D01*
X010550Y020912D02*
X010630Y020912D01*
X010630Y020990D02*
X010550Y020990D01*
X010550Y021069D02*
X010630Y021069D01*
X010630Y021147D02*
X010550Y021147D01*
X010352Y021147D02*
X009989Y021147D01*
X010067Y021069D02*
X010254Y021069D01*
X010191Y020990D02*
X010102Y020990D01*
X010135Y020912D02*
X010153Y020912D01*
X009909Y021226D02*
X011271Y021226D01*
X011191Y021147D02*
X010828Y021147D01*
X010926Y021069D02*
X011113Y021069D01*
X011078Y020990D02*
X010989Y020990D01*
X011027Y020912D02*
X011045Y020912D01*
X007124Y020080D02*
X007109Y020065D01*
X007023Y019857D01*
X007023Y019303D01*
X007109Y019095D01*
X007269Y018935D01*
X007402Y018880D01*
X005080Y018880D01*
X005080Y019061D01*
X004987Y019286D01*
X004816Y019457D01*
X004591Y019550D01*
X004349Y019550D01*
X004124Y019457D01*
X003953Y019286D01*
X003934Y019240D01*
X002446Y019240D01*
X002427Y019286D01*
X002256Y019457D01*
X002031Y019550D01*
X001789Y019550D01*
X001564Y019457D01*
X001393Y019286D01*
X001300Y019061D01*
X001300Y018819D01*
X001393Y018594D01*
X001564Y018423D01*
X001789Y018330D01*
X002031Y018330D01*
X002256Y018423D01*
X002427Y018594D01*
X002446Y018640D01*
X003934Y018640D01*
X003953Y018594D01*
X004124Y018423D01*
X004349Y018330D01*
X004591Y018330D01*
X004704Y018377D01*
X004749Y018346D01*
X004770Y018326D01*
X004799Y018314D01*
X004825Y018297D01*
X004853Y018291D01*
X004880Y018280D01*
X004911Y018280D01*
X004942Y018274D01*
X004970Y018280D01*
X007489Y018280D01*
X007230Y018021D01*
X007230Y017870D01*
X007650Y017870D01*
X007650Y017790D01*
X007230Y017790D01*
X007230Y017639D01*
X007499Y017370D01*
X007530Y017370D01*
X007373Y017305D01*
X007215Y017147D01*
X007130Y016941D01*
X007130Y016719D01*
X007215Y016513D01*
X007373Y016355D01*
X007579Y016270D01*
X007801Y016270D01*
X008007Y016355D01*
X008122Y016470D01*
X009330Y016470D01*
X009330Y010479D01*
X009041Y010190D01*
X006118Y010190D01*
X005986Y010135D01*
X005885Y010034D01*
X005385Y009534D01*
X005330Y009402D01*
X005330Y009083D01*
X005173Y008926D01*
X005080Y008701D01*
X005080Y008459D01*
X005113Y008380D01*
X003767Y008380D01*
X003800Y008459D01*
X003800Y008701D01*
X003707Y008926D01*
X003536Y009097D01*
X003311Y009190D01*
X003069Y009190D01*
X002844Y009097D01*
X002690Y008943D01*
X002536Y009097D01*
X002311Y009190D01*
X002069Y009190D01*
X001844Y009097D01*
X001673Y008926D01*
X001634Y008832D01*
X001626Y008847D01*
X001579Y008912D01*
X001522Y008969D01*
X001457Y009016D01*
X001386Y009053D01*
X001309Y009077D01*
X001230Y009090D01*
X001230Y008620D01*
X001150Y008620D01*
X001150Y009090D01*
X001150Y009090D01*
X001071Y009077D01*
X000994Y009053D01*
X000923Y009016D01*
X000858Y008969D01*
X000801Y008912D01*
X000754Y008847D01*
X000717Y008776D01*
X000693Y008699D01*
X000680Y008620D01*
X001150Y008620D01*
X001150Y008540D01*
X000680Y008540D01*
X000680Y008540D01*
X000693Y008461D01*
X000717Y008384D01*
X000754Y008313D01*
X000801Y008248D01*
X000858Y008191D01*
X000923Y008144D01*
X000994Y008107D01*
X001071Y008083D01*
X001087Y008080D01*
X001071Y008077D01*
X000994Y008053D01*
X000923Y008016D01*
X000858Y007969D01*
X000801Y007912D01*
X000754Y007847D01*
X000717Y007776D01*
X000693Y007699D01*
X000680Y007620D01*
X001150Y007620D01*
X001150Y008090D01*
X001150Y008540D01*
X001230Y008540D01*
X001230Y007620D01*
X001150Y007620D01*
X001150Y007540D01*
X000680Y007540D01*
X000680Y007540D01*
X000693Y007461D01*
X000717Y007384D01*
X000754Y007313D01*
X000801Y007248D01*
X000858Y007191D01*
X000923Y007144D01*
X000994Y007107D01*
X001071Y007083D01*
X001087Y007080D01*
X001071Y007077D01*
X000994Y007053D01*
X000923Y007016D01*
X000858Y006969D01*
X000801Y006912D01*
X000754Y006847D01*
X000717Y006776D01*
X000693Y006699D01*
X000680Y006620D01*
X001150Y006620D01*
X001150Y007090D01*
X001150Y007540D01*
X001230Y007540D01*
X001230Y006620D01*
X001150Y006620D01*
X001150Y006540D01*
X000680Y006540D01*
X000680Y006540D01*
X000693Y006461D01*
X000717Y006384D01*
X000754Y006313D01*
X000801Y006248D01*
X000858Y006191D01*
X000923Y006144D01*
X000994Y006107D01*
X001071Y006083D01*
X001087Y006080D01*
X001071Y006077D01*
X000994Y006053D01*
X000923Y006016D01*
X000858Y005969D01*
X000801Y005912D01*
X000754Y005847D01*
X000717Y005776D01*
X000693Y005699D01*
X000680Y005620D01*
X001150Y005620D01*
X001150Y006090D01*
X001150Y006540D01*
X001230Y006540D01*
X001230Y005620D01*
X001150Y005620D01*
X001150Y005540D01*
X000680Y005540D01*
X000680Y005540D01*
X000693Y005461D01*
X000717Y005384D01*
X000754Y005313D01*
X000801Y005248D01*
X000858Y005191D01*
X000923Y005144D01*
X000994Y005107D01*
X001071Y005083D01*
X001087Y005080D01*
X001071Y005077D01*
X000994Y005053D01*
X000923Y005016D01*
X000858Y004969D01*
X000801Y004912D01*
X000754Y004847D01*
X000717Y004776D01*
X000693Y004699D01*
X000680Y004620D01*
X001150Y004620D01*
X001150Y005090D01*
X001150Y005540D01*
X001230Y005540D01*
X001230Y004620D01*
X001150Y004620D01*
X001150Y004540D01*
X000680Y004540D01*
X000680Y004540D01*
X000693Y004461D01*
X000717Y004384D01*
X000754Y004313D01*
X000801Y004248D01*
X000858Y004191D01*
X000923Y004144D01*
X000994Y004107D01*
X001071Y004083D01*
X001087Y004080D01*
X001071Y004077D01*
X000994Y004053D01*
X000923Y004016D01*
X000858Y003969D01*
X000801Y003912D01*
X000754Y003847D01*
X000717Y003776D01*
X000693Y003699D01*
X000680Y003620D01*
X001150Y003620D01*
X001150Y004090D01*
X001150Y004540D01*
X001230Y004540D01*
X001230Y003620D01*
X001150Y003620D01*
X001150Y003540D01*
X001230Y003540D01*
X001230Y003070D01*
X001230Y003070D01*
X001309Y003083D01*
X001386Y003107D01*
X001457Y003144D01*
X001522Y003191D01*
X001579Y003248D01*
X001626Y003313D01*
X001634Y003328D01*
X001673Y003234D01*
X001844Y003063D01*
X002069Y002970D01*
X002311Y002970D01*
X002536Y003063D01*
X002690Y003217D01*
X002844Y003063D01*
X003069Y002970D01*
X003311Y002970D01*
X003536Y003063D01*
X003707Y003234D01*
X003800Y003459D01*
X003800Y003701D01*
X003767Y003780D01*
X005113Y003780D01*
X005080Y003701D01*
X005080Y003459D01*
X005173Y003234D01*
X005344Y003063D01*
X005569Y002970D01*
X005791Y002970D01*
X006135Y002626D01*
X006236Y002525D01*
X006368Y002470D01*
X010262Y002470D01*
X010394Y002525D01*
X010623Y002754D01*
X010623Y002303D01*
X010709Y002095D01*
X010724Y002080D01*
X010709Y002065D01*
X010623Y001857D01*
X010623Y001303D01*
X010709Y001095D01*
X010869Y000935D01*
X010882Y000930D01*
X006355Y000930D01*
X006478Y001053D01*
X006620Y001395D01*
X006620Y001765D01*
X006478Y002107D01*
X006217Y002368D01*
X005875Y002510D01*
X005505Y002510D01*
X005163Y002368D01*
X004902Y002107D01*
X004760Y001765D01*
X004760Y001395D01*
X004902Y001053D01*
X005025Y000930D01*
X000584Y000930D01*
X000575Y000931D01*
X000559Y000937D01*
X000547Y000949D01*
X000541Y000965D01*
X000540Y000974D01*
X000540Y021186D01*
X000541Y021195D01*
X000547Y021211D01*
X000559Y021223D01*
X000575Y021229D01*
X000584Y021230D01*
X005525Y021230D01*
X005402Y021107D01*
X005260Y020765D01*
X005260Y020395D01*
X005402Y020053D01*
X005663Y019792D01*
X006005Y019650D01*
X006375Y019650D01*
X006717Y019792D01*
X006978Y020053D01*
X007052Y020232D01*
X007109Y020095D01*
X007124Y020080D01*
X007102Y020048D02*
X006973Y020048D01*
X007009Y020127D02*
X007096Y020127D01*
X007063Y020205D02*
X007041Y020205D01*
X007070Y019970D02*
X006895Y019970D01*
X006816Y019891D02*
X007037Y019891D01*
X007023Y019813D02*
X006738Y019813D01*
X006578Y019734D02*
X007023Y019734D01*
X007023Y019656D02*
X006388Y019656D01*
X005992Y019656D02*
X000540Y019656D01*
X000540Y019734D02*
X005802Y019734D01*
X005642Y019813D02*
X000540Y019813D01*
X000540Y019891D02*
X005564Y019891D01*
X005485Y019970D02*
X000540Y019970D01*
X000540Y020048D02*
X005407Y020048D01*
X005371Y020127D02*
X000540Y020127D01*
X000540Y020205D02*
X005339Y020205D01*
X005306Y020284D02*
X004737Y020284D01*
X004802Y020331D01*
X004859Y020388D01*
X004906Y020453D01*
X004943Y020524D01*
X004967Y020601D01*
X004980Y020680D01*
X004510Y020680D01*
X004510Y020760D01*
X004980Y020760D01*
X004980Y020760D01*
X004967Y020839D01*
X004943Y020916D01*
X004906Y020987D01*
X004859Y021052D01*
X004802Y021109D01*
X004737Y021156D01*
X004666Y021193D01*
X004589Y021217D01*
X004510Y021230D01*
X004510Y021230D01*
X004510Y020760D01*
X004430Y020760D01*
X004430Y021230D01*
X004430Y021230D01*
X004351Y021217D01*
X004274Y021193D01*
X004203Y021156D01*
X004138Y021109D01*
X004081Y021052D01*
X004034Y020987D01*
X003997Y020916D01*
X003973Y020839D01*
X003960Y020760D01*
X004430Y020760D01*
X004430Y020680D01*
X004510Y020680D01*
X004510Y020210D01*
X004510Y020210D01*
X004589Y020223D01*
X004666Y020247D01*
X004737Y020284D01*
X004833Y020362D02*
X005274Y020362D01*
X005260Y020441D02*
X004897Y020441D01*
X004940Y020519D02*
X005260Y020519D01*
X005260Y020598D02*
X004966Y020598D01*
X004979Y020676D02*
X005260Y020676D01*
X005260Y020755D02*
X004510Y020755D01*
X004510Y020833D02*
X004430Y020833D01*
X004430Y020755D02*
X001950Y020755D01*
X001950Y020760D02*
X002420Y020760D01*
X002420Y020760D01*
X002407Y020839D01*
X002383Y020916D01*
X002346Y020987D01*
X002299Y021052D01*
X002242Y021109D01*
X002177Y021156D01*
X002106Y021193D01*
X002029Y021217D01*
X001950Y021230D01*
X001950Y021230D01*
X001950Y020760D01*
X001950Y020680D01*
X002420Y020680D01*
X002420Y020680D01*
X002407Y020601D01*
X002383Y020524D01*
X002346Y020453D01*
X002299Y020388D01*
X002242Y020331D01*
X002177Y020284D01*
X002106Y020247D01*
X002029Y020223D01*
X001950Y020210D01*
X001950Y020210D01*
X001950Y020680D01*
X001870Y020680D01*
X001870Y020210D01*
X001870Y020210D01*
X001791Y020223D01*
X001714Y020247D01*
X001643Y020284D01*
X001578Y020331D01*
X001521Y020388D01*
X001474Y020453D01*
X001437Y020524D01*
X001413Y020601D01*
X001400Y020680D01*
X001400Y020680D01*
X001870Y020680D01*
X001870Y020760D01*
X001870Y021230D01*
X001870Y021230D01*
X001791Y021217D01*
X001714Y021193D01*
X001643Y021156D01*
X001578Y021109D01*
X001521Y021052D01*
X001474Y020987D01*
X001437Y020916D01*
X001413Y020839D01*
X001400Y020760D01*
X001870Y020760D01*
X001950Y020760D01*
X001950Y020833D02*
X001870Y020833D01*
X001870Y020755D02*
X000540Y020755D01*
X000540Y020833D02*
X001412Y020833D01*
X001400Y020760D02*
X001400Y020760D01*
X001401Y020676D02*
X000540Y020676D01*
X000540Y020598D02*
X001414Y020598D01*
X001440Y020519D02*
X000540Y020519D01*
X000540Y020441D02*
X001483Y020441D01*
X001547Y020362D02*
X000540Y020362D01*
X000540Y020284D02*
X001643Y020284D01*
X001870Y020284D02*
X001950Y020284D01*
X001950Y020362D02*
X001870Y020362D01*
X001870Y020441D02*
X001950Y020441D01*
X001950Y020519D02*
X001870Y020519D01*
X001870Y020598D02*
X001950Y020598D01*
X001950Y020676D02*
X001870Y020676D01*
X001870Y020912D02*
X001950Y020912D01*
X001950Y020990D02*
X001870Y020990D01*
X001870Y021069D02*
X001950Y021069D01*
X001950Y021147D02*
X001870Y021147D01*
X001870Y021226D02*
X001950Y021226D01*
X001978Y021226D02*
X004402Y021226D01*
X004430Y021226D02*
X004510Y021226D01*
X004538Y021226D02*
X005520Y021226D01*
X005442Y021147D02*
X004750Y021147D01*
X004843Y021069D02*
X005386Y021069D01*
X005353Y020990D02*
X004904Y020990D01*
X004944Y020912D02*
X005321Y020912D01*
X005288Y020833D02*
X004968Y020833D01*
X004980Y020680D02*
X004980Y020680D01*
X004510Y020676D02*
X004430Y020676D01*
X004430Y020680D02*
X004430Y020210D01*
X004430Y020210D01*
X004351Y020223D01*
X004274Y020247D01*
X004203Y020284D01*
X004138Y020331D01*
X004081Y020388D01*
X004034Y020453D01*
X003997Y020524D01*
X003973Y020601D01*
X003960Y020680D01*
X003960Y020680D01*
X004430Y020680D01*
X004430Y020598D02*
X004510Y020598D01*
X004510Y020519D02*
X004430Y020519D01*
X004430Y020441D02*
X004510Y020441D01*
X004510Y020362D02*
X004430Y020362D01*
X004430Y020284D02*
X004510Y020284D01*
X004203Y020284D02*
X002177Y020284D01*
X002273Y020362D02*
X004107Y020362D01*
X004043Y020441D02*
X002337Y020441D01*
X002380Y020519D02*
X004000Y020519D01*
X003974Y020598D02*
X002406Y020598D01*
X002419Y020676D02*
X003961Y020676D01*
X003960Y020760D02*
X003960Y020760D01*
X003972Y020833D02*
X002408Y020833D01*
X002384Y020912D02*
X003996Y020912D01*
X004036Y020990D02*
X002344Y020990D01*
X002283Y021069D02*
X004097Y021069D01*
X004190Y021147D02*
X002190Y021147D01*
X001842Y021226D02*
X000566Y021226D01*
X000540Y021147D02*
X001630Y021147D01*
X001537Y021069D02*
X000540Y021069D01*
X000540Y020990D02*
X001476Y020990D01*
X001436Y020912D02*
X000540Y020912D01*
X000540Y019577D02*
X007023Y019577D01*
X007023Y019499D02*
X004716Y019499D01*
X004853Y019420D02*
X007023Y019420D01*
X007023Y019342D02*
X004931Y019342D01*
X004996Y019263D02*
X007039Y019263D01*
X007072Y019185D02*
X005029Y019185D01*
X005061Y019106D02*
X007104Y019106D01*
X007176Y019028D02*
X005080Y019028D01*
X005080Y018949D02*
X007255Y018949D01*
X007891Y018280D02*
X009566Y018280D01*
X009890Y017956D01*
X009890Y017137D01*
X009762Y017190D01*
X008122Y017190D01*
X008007Y017305D01*
X007850Y017370D01*
X007881Y017370D01*
X008150Y017639D01*
X008150Y017790D01*
X007730Y017790D01*
X007730Y017870D01*
X008150Y017870D01*
X008150Y018021D01*
X007891Y018280D01*
X007928Y018243D02*
X009603Y018243D01*
X009682Y018164D02*
X008006Y018164D01*
X008085Y018086D02*
X009760Y018086D01*
X009839Y018007D02*
X008150Y018007D01*
X008150Y017929D02*
X009890Y017929D01*
X009890Y017850D02*
X007730Y017850D01*
X007650Y017850D02*
X005390Y017850D01*
X005301Y017887D02*
X005079Y017887D01*
X004874Y017802D01*
X004718Y017646D01*
X004690Y017579D01*
X004662Y017646D01*
X004506Y017802D01*
X004301Y017887D01*
X004079Y017887D01*
X003874Y017802D01*
X003718Y017646D01*
X003690Y017579D01*
X003662Y017646D01*
X003506Y017802D01*
X003301Y017887D01*
X003079Y017887D01*
X002874Y017802D01*
X002718Y017646D01*
X002690Y017579D01*
X002662Y017646D01*
X002506Y017802D01*
X002301Y017887D01*
X002079Y017887D01*
X001874Y017802D01*
X001718Y017646D01*
X001690Y017579D01*
X001662Y017646D01*
X001506Y017802D01*
X001301Y017887D01*
X001079Y017887D01*
X000874Y017802D01*
X000718Y017646D01*
X000633Y017441D01*
X000633Y017219D01*
X000718Y017014D01*
X000874Y016858D01*
X000941Y016830D01*
X000874Y016802D01*
X000718Y016646D01*
X000633Y016441D01*
X000633Y016219D01*
X000718Y016014D01*
X000874Y015858D01*
X000941Y015830D01*
X000874Y015802D01*
X000718Y015646D01*
X000633Y015441D01*
X000633Y015219D01*
X000718Y015014D01*
X000874Y014858D01*
X000941Y014830D01*
X000874Y014802D01*
X000718Y014646D01*
X000633Y014441D01*
X000633Y014219D01*
X000718Y014014D01*
X000874Y013858D01*
X000941Y013830D01*
X000874Y013802D01*
X000718Y013646D01*
X000633Y013441D01*
X000633Y013219D01*
X000718Y013014D01*
X000874Y012858D01*
X000941Y012830D01*
X000874Y012802D01*
X000718Y012646D01*
X000633Y012441D01*
X000633Y012219D01*
X000718Y012014D01*
X000874Y011858D01*
X000941Y011830D01*
X000874Y011802D01*
X000718Y011646D01*
X000633Y011441D01*
X000633Y011219D01*
X000718Y011014D01*
X000874Y010858D01*
X000941Y010830D01*
X000874Y010802D01*
X000718Y010646D01*
X000633Y010441D01*
X000633Y010219D01*
X000718Y010014D01*
X000874Y009858D01*
X001079Y009773D01*
X001301Y009773D01*
X001506Y009858D01*
X001662Y010014D01*
X001690Y010081D01*
X001718Y010014D01*
X001874Y009858D01*
X002079Y009773D01*
X002301Y009773D01*
X002506Y009858D01*
X002662Y010014D01*
X002747Y010219D01*
X002747Y010441D01*
X002662Y010646D01*
X002506Y010802D01*
X002439Y010830D01*
X002506Y010858D01*
X002662Y011014D01*
X002690Y011081D01*
X002718Y011014D01*
X002874Y010858D01*
X003079Y010773D01*
X003301Y010773D01*
X003506Y010858D01*
X003662Y011014D01*
X003690Y011081D01*
X003718Y011014D01*
X003874Y010858D01*
X004079Y010773D01*
X004301Y010773D01*
X004506Y010858D01*
X004662Y011014D01*
X004690Y011081D01*
X004718Y011014D01*
X004874Y010858D01*
X005079Y010773D01*
X005301Y010773D01*
X005506Y010858D01*
X005662Y011014D01*
X005690Y011081D01*
X005718Y011014D01*
X005874Y010858D01*
X006079Y010773D01*
X006301Y010773D01*
X006506Y010858D01*
X006662Y011014D01*
X006690Y011081D01*
X006718Y011014D01*
X006874Y010858D01*
X007079Y010773D01*
X007301Y010773D01*
X007506Y010858D01*
X007662Y011014D01*
X007690Y011081D01*
X007718Y011014D01*
X007874Y010858D01*
X008079Y010773D01*
X008301Y010773D01*
X008506Y010858D01*
X008662Y011014D01*
X008747Y011219D01*
X008747Y011441D01*
X008662Y011646D01*
X008506Y011802D01*
X008439Y011830D01*
X008506Y011858D01*
X008662Y012014D01*
X008747Y012219D01*
X008747Y012441D01*
X008662Y012646D01*
X008506Y012802D01*
X008439Y012830D01*
X008506Y012858D01*
X008662Y013014D01*
X008747Y013219D01*
X008747Y013441D01*
X008662Y013646D01*
X008506Y013802D01*
X008439Y013830D01*
X008506Y013858D01*
X008662Y014014D01*
X008747Y014219D01*
X008747Y014441D01*
X008662Y014646D01*
X008506Y014802D01*
X008439Y014830D01*
X008506Y014858D01*
X008662Y015014D01*
X008747Y015219D01*
X008747Y015441D01*
X008662Y015646D01*
X008506Y015802D01*
X008301Y015887D01*
X008079Y015887D01*
X007874Y015802D01*
X007718Y015646D01*
X007690Y015579D01*
X007662Y015646D01*
X007506Y015802D01*
X007301Y015887D01*
X007079Y015887D01*
X006874Y015802D01*
X006718Y015646D01*
X006690Y015579D01*
X006662Y015646D01*
X006506Y015802D01*
X006301Y015887D01*
X006079Y015887D01*
X005874Y015802D01*
X005718Y015646D01*
X005690Y015579D01*
X005662Y015646D01*
X005506Y015802D01*
X005439Y015830D01*
X005506Y015858D01*
X005662Y016014D01*
X005747Y016219D01*
X005747Y016441D01*
X005662Y016646D01*
X005506Y016802D01*
X005439Y016830D01*
X005506Y016858D01*
X005662Y017014D01*
X005747Y017219D01*
X005747Y017441D01*
X005662Y017646D01*
X005506Y017802D01*
X005301Y017887D01*
X005536Y017772D02*
X007230Y017772D01*
X007230Y017693D02*
X005615Y017693D01*
X005675Y017615D02*
X007255Y017615D01*
X007333Y017536D02*
X005708Y017536D01*
X005740Y017458D02*
X007412Y017458D01*
X007490Y017379D02*
X005747Y017379D01*
X005747Y017301D02*
X007369Y017301D01*
X007290Y017222D02*
X005747Y017222D01*
X005716Y017144D02*
X007214Y017144D01*
X007181Y017065D02*
X005683Y017065D01*
X005635Y016987D02*
X007149Y016987D01*
X007130Y016908D02*
X005556Y016908D01*
X005440Y016830D02*
X007130Y016830D01*
X007130Y016751D02*
X005557Y016751D01*
X005635Y016673D02*
X007149Y016673D01*
X007182Y016594D02*
X005684Y016594D01*
X005716Y016516D02*
X007214Y016516D01*
X007291Y016437D02*
X005747Y016437D01*
X005747Y016359D02*
X007369Y016359D01*
X007554Y016280D02*
X005747Y016280D01*
X005740Y016202D02*
X009330Y016202D01*
X009330Y016280D02*
X007826Y016280D01*
X008011Y016359D02*
X009330Y016359D01*
X009330Y016437D02*
X008089Y016437D01*
X007891Y015809D02*
X007489Y015809D01*
X007577Y015731D02*
X007803Y015731D01*
X007724Y015652D02*
X007656Y015652D01*
X006891Y015809D02*
X006489Y015809D01*
X006577Y015731D02*
X006803Y015731D01*
X006724Y015652D02*
X006656Y015652D01*
X005891Y015809D02*
X005489Y015809D01*
X005535Y015888D02*
X009330Y015888D01*
X009330Y015966D02*
X005614Y015966D01*
X005675Y016045D02*
X009330Y016045D01*
X009330Y016123D02*
X005707Y016123D01*
X005803Y015731D02*
X005577Y015731D01*
X005656Y015652D02*
X005724Y015652D01*
X008489Y015809D02*
X009330Y015809D01*
X009330Y015731D02*
X008577Y015731D01*
X008656Y015652D02*
X009330Y015652D01*
X009330Y015574D02*
X008692Y015574D01*
X008725Y015495D02*
X009330Y015495D01*
X009330Y015417D02*
X008747Y015417D01*
X008747Y015338D02*
X009330Y015338D01*
X009330Y015260D02*
X008747Y015260D01*
X008731Y015181D02*
X009330Y015181D01*
X009330Y015103D02*
X008699Y015103D01*
X008666Y015024D02*
X009330Y015024D01*
X009330Y014946D02*
X008593Y014946D01*
X008515Y014867D02*
X009330Y014867D01*
X009330Y014789D02*
X008519Y014789D01*
X008598Y014710D02*
X009330Y014710D01*
X009330Y014632D02*
X008668Y014632D01*
X008701Y014553D02*
X009330Y014553D01*
X009330Y014475D02*
X008733Y014475D01*
X008747Y014396D02*
X009330Y014396D01*
X009330Y014318D02*
X008747Y014318D01*
X008747Y014239D02*
X009330Y014239D01*
X009330Y014161D02*
X008723Y014161D01*
X008690Y014082D02*
X009330Y014082D01*
X009330Y014004D02*
X008651Y014004D01*
X008573Y013925D02*
X009330Y013925D01*
X009330Y013847D02*
X008479Y013847D01*
X008540Y013768D02*
X009330Y013768D01*
X009330Y013690D02*
X008618Y013690D01*
X008677Y013611D02*
X009330Y013611D01*
X009330Y013533D02*
X008709Y013533D01*
X008742Y013454D02*
X009330Y013454D01*
X009330Y013376D02*
X008747Y013376D01*
X008747Y013297D02*
X009330Y013297D01*
X009330Y013219D02*
X008747Y013219D01*
X008714Y013140D02*
X009330Y013140D01*
X009330Y013062D02*
X008682Y013062D01*
X008631Y012983D02*
X009330Y012983D01*
X009330Y012905D02*
X008552Y012905D01*
X008448Y012826D02*
X009330Y012826D01*
X009330Y012748D02*
X008560Y012748D01*
X008639Y012669D02*
X009330Y012669D01*
X009330Y012591D02*
X008685Y012591D01*
X008718Y012512D02*
X009330Y012512D01*
X009330Y012434D02*
X008747Y012434D01*
X008747Y012355D02*
X009330Y012355D01*
X009330Y012277D02*
X008747Y012277D01*
X008738Y012198D02*
X009330Y012198D01*
X009330Y012120D02*
X008706Y012120D01*
X008673Y012041D02*
X009330Y012041D01*
X009330Y011963D02*
X008610Y011963D01*
X008532Y011884D02*
X009330Y011884D01*
X009330Y011806D02*
X008498Y011806D01*
X008581Y011727D02*
X009330Y011727D01*
X009330Y011649D02*
X008659Y011649D01*
X008694Y011570D02*
X009330Y011570D01*
X009330Y011492D02*
X008726Y011492D01*
X008747Y011413D02*
X009330Y011413D01*
X009330Y011335D02*
X008747Y011335D01*
X008747Y011256D02*
X009330Y011256D01*
X009330Y011178D02*
X008730Y011178D01*
X008697Y011099D02*
X009330Y011099D01*
X009330Y011021D02*
X008665Y011021D01*
X008590Y010942D02*
X009330Y010942D01*
X009330Y010864D02*
X008511Y010864D01*
X008330Y010785D02*
X009330Y010785D01*
X009330Y010707D02*
X002601Y010707D01*
X002670Y010628D02*
X009330Y010628D01*
X009330Y010550D02*
X002702Y010550D01*
X002735Y010471D02*
X009322Y010471D01*
X009243Y010393D02*
X002747Y010393D01*
X002747Y010314D02*
X009165Y010314D01*
X009086Y010236D02*
X002747Y010236D01*
X002721Y010157D02*
X006039Y010157D01*
X005929Y010079D02*
X002689Y010079D01*
X002648Y010000D02*
X005851Y010000D01*
X005772Y009922D02*
X002569Y009922D01*
X002470Y009843D02*
X005694Y009843D01*
X005615Y009765D02*
X000540Y009765D01*
X000540Y009843D02*
X000910Y009843D01*
X000811Y009922D02*
X000540Y009922D01*
X000540Y010000D02*
X000732Y010000D01*
X000691Y010079D02*
X000540Y010079D01*
X000540Y010157D02*
X000659Y010157D01*
X000633Y010236D02*
X000540Y010236D01*
X000540Y010314D02*
X000633Y010314D01*
X000633Y010393D02*
X000540Y010393D01*
X000540Y010471D02*
X000645Y010471D01*
X000678Y010550D02*
X000540Y010550D01*
X000540Y010628D02*
X000710Y010628D01*
X000779Y010707D02*
X000540Y010707D01*
X000540Y010785D02*
X000857Y010785D01*
X000869Y010864D02*
X000540Y010864D01*
X000540Y010942D02*
X000790Y010942D01*
X000715Y011021D02*
X000540Y011021D01*
X000540Y011099D02*
X000683Y011099D01*
X000650Y011178D02*
X000540Y011178D01*
X000540Y011256D02*
X000633Y011256D01*
X000633Y011335D02*
X000540Y011335D01*
X000540Y011413D02*
X000633Y011413D01*
X000654Y011492D02*
X000540Y011492D01*
X000540Y011570D02*
X000686Y011570D01*
X000721Y011649D02*
X000540Y011649D01*
X000540Y011727D02*
X000799Y011727D01*
X000882Y011806D02*
X000540Y011806D01*
X000540Y011884D02*
X000848Y011884D01*
X000770Y011963D02*
X000540Y011963D01*
X000540Y012041D02*
X000707Y012041D01*
X000674Y012120D02*
X000540Y012120D01*
X000540Y012198D02*
X000642Y012198D01*
X000633Y012277D02*
X000540Y012277D01*
X000540Y012355D02*
X000633Y012355D01*
X000633Y012434D02*
X000540Y012434D01*
X000540Y012512D02*
X000662Y012512D01*
X000695Y012591D02*
X000540Y012591D01*
X000540Y012669D02*
X000741Y012669D01*
X000820Y012748D02*
X000540Y012748D01*
X000540Y012826D02*
X000932Y012826D01*
X000828Y012905D02*
X000540Y012905D01*
X000540Y012983D02*
X000749Y012983D01*
X000698Y013062D02*
X000540Y013062D01*
X000540Y013140D02*
X000666Y013140D01*
X000633Y013219D02*
X000540Y013219D01*
X000540Y013297D02*
X000633Y013297D01*
X000633Y013376D02*
X000540Y013376D01*
X000540Y013454D02*
X000638Y013454D01*
X000671Y013533D02*
X000540Y013533D01*
X000540Y013611D02*
X000703Y013611D01*
X000762Y013690D02*
X000540Y013690D01*
X000540Y013768D02*
X000840Y013768D01*
X000901Y013847D02*
X000540Y013847D01*
X000540Y013925D02*
X000807Y013925D01*
X000729Y014004D02*
X000540Y014004D01*
X000540Y014082D02*
X000690Y014082D01*
X000657Y014161D02*
X000540Y014161D01*
X000540Y014239D02*
X000633Y014239D01*
X000633Y014318D02*
X000540Y014318D01*
X000540Y014396D02*
X000633Y014396D01*
X000647Y014475D02*
X000540Y014475D01*
X000540Y014553D02*
X000679Y014553D01*
X000712Y014632D02*
X000540Y014632D01*
X000540Y014710D02*
X000782Y014710D01*
X000861Y014789D02*
X000540Y014789D01*
X000540Y014867D02*
X000865Y014867D01*
X000787Y014946D02*
X000540Y014946D01*
X000540Y015024D02*
X000714Y015024D01*
X000681Y015103D02*
X000540Y015103D01*
X000540Y015181D02*
X000649Y015181D01*
X000633Y015260D02*
X000540Y015260D01*
X000540Y015338D02*
X000633Y015338D01*
X000633Y015417D02*
X000540Y015417D01*
X000540Y015495D02*
X000655Y015495D01*
X000688Y015574D02*
X000540Y015574D01*
X000540Y015652D02*
X000724Y015652D01*
X000803Y015731D02*
X000540Y015731D01*
X000540Y015809D02*
X000891Y015809D01*
X000845Y015888D02*
X000540Y015888D01*
X000540Y015966D02*
X000766Y015966D01*
X000705Y016045D02*
X000540Y016045D01*
X000540Y016123D02*
X000673Y016123D01*
X000640Y016202D02*
X000540Y016202D01*
X000540Y016280D02*
X000633Y016280D01*
X000633Y016359D02*
X000540Y016359D01*
X000540Y016437D02*
X000633Y016437D01*
X000664Y016516D02*
X000540Y016516D01*
X000540Y016594D02*
X000696Y016594D01*
X000745Y016673D02*
X000540Y016673D01*
X000540Y016751D02*
X000823Y016751D01*
X000940Y016830D02*
X000540Y016830D01*
X000540Y016908D02*
X000824Y016908D01*
X000745Y016987D02*
X000540Y016987D01*
X000540Y017065D02*
X000697Y017065D01*
X000664Y017144D02*
X000540Y017144D01*
X000540Y017222D02*
X000633Y017222D01*
X000633Y017301D02*
X000540Y017301D01*
X000540Y017379D02*
X000633Y017379D01*
X000640Y017458D02*
X000540Y017458D01*
X000540Y017536D02*
X000672Y017536D01*
X000705Y017615D02*
X000540Y017615D01*
X000540Y017693D02*
X000765Y017693D01*
X000844Y017772D02*
X000540Y017772D01*
X000540Y017850D02*
X000990Y017850D01*
X001390Y017850D02*
X001990Y017850D01*
X001844Y017772D02*
X001536Y017772D01*
X001615Y017693D02*
X001765Y017693D01*
X001705Y017615D02*
X001675Y017615D01*
X002390Y017850D02*
X002990Y017850D01*
X002844Y017772D02*
X002536Y017772D01*
X002615Y017693D02*
X002765Y017693D01*
X002705Y017615D02*
X002675Y017615D01*
X003390Y017850D02*
X003990Y017850D01*
X003844Y017772D02*
X003536Y017772D01*
X003615Y017693D02*
X003765Y017693D01*
X003705Y017615D02*
X003675Y017615D01*
X004390Y017850D02*
X004990Y017850D01*
X004844Y017772D02*
X004536Y017772D01*
X004615Y017693D02*
X004765Y017693D01*
X004705Y017615D02*
X004675Y017615D01*
X004781Y018321D02*
X000540Y018321D01*
X000540Y018243D02*
X007452Y018243D01*
X007374Y018164D02*
X000540Y018164D01*
X000540Y018086D02*
X007295Y018086D01*
X007230Y018007D02*
X000540Y018007D01*
X000540Y017929D02*
X007230Y017929D01*
X007968Y017458D02*
X009890Y017458D01*
X009890Y017536D02*
X008047Y017536D01*
X008125Y017615D02*
X009890Y017615D01*
X009890Y017693D02*
X008150Y017693D01*
X008150Y017772D02*
X009890Y017772D01*
X009890Y017379D02*
X007890Y017379D01*
X008011Y017301D02*
X009890Y017301D01*
X009890Y017222D02*
X008090Y017222D01*
X009874Y017144D02*
X009890Y017144D01*
X011990Y016673D02*
X016027Y016673D01*
X016069Y016690D02*
X015844Y016597D01*
X015673Y016426D01*
X015580Y016201D01*
X015580Y015959D01*
X015673Y015734D01*
X015844Y015563D01*
X016069Y015470D01*
X016311Y015470D01*
X016536Y015563D01*
X016707Y015734D01*
X016800Y015959D01*
X016800Y016201D01*
X016707Y016426D01*
X016536Y016597D01*
X016311Y016690D01*
X016069Y016690D01*
X015841Y016594D02*
X013947Y016594D01*
X014061Y016516D02*
X014243Y016516D01*
X014203Y016437D02*
X014139Y016437D01*
X014189Y016359D02*
X014203Y016359D01*
X014257Y016120D02*
X014640Y016120D01*
X014640Y016040D01*
X014640Y015657D01*
X014720Y015657D01*
X014720Y016040D01*
X014640Y016040D01*
X014257Y016040D01*
X014257Y016120D01*
X014257Y016045D02*
X014640Y016045D01*
X014640Y016123D02*
X014720Y016123D01*
X014720Y016120D02*
X014720Y016557D01*
X015036Y016557D01*
X015071Y016548D01*
X015103Y016529D01*
X015129Y016503D01*
X015148Y016471D01*
X015157Y016436D01*
X015157Y016120D01*
X014720Y016120D01*
X014720Y016045D02*
X015580Y016045D01*
X015580Y016123D02*
X015157Y016123D01*
X015157Y016202D02*
X015580Y016202D01*
X015613Y016280D02*
X015157Y016280D01*
X015157Y016359D02*
X015645Y016359D01*
X015684Y016437D02*
X015157Y016437D01*
X015117Y016516D02*
X015763Y016516D01*
X016353Y016673D02*
X017277Y016673D01*
X017091Y016594D02*
X016539Y016594D01*
X016617Y016516D02*
X017013Y016516D01*
X016934Y016437D02*
X016696Y016437D01*
X016735Y016359D02*
X016895Y016359D01*
X016863Y016280D02*
X016767Y016280D01*
X016800Y016202D02*
X016830Y016202D01*
X016830Y016123D02*
X016800Y016123D01*
X016800Y016045D02*
X016830Y016045D01*
X016830Y015966D02*
X016800Y015966D01*
X016771Y015888D02*
X016859Y015888D01*
X016892Y015809D02*
X016738Y015809D01*
X016703Y015731D02*
X016927Y015731D01*
X017005Y015652D02*
X016625Y015652D01*
X016546Y015574D02*
X017084Y015574D01*
X017258Y015495D02*
X016372Y015495D01*
X016008Y015495D02*
X015081Y015495D01*
X015160Y015417D02*
X017852Y015417D01*
X019180Y014620D02*
X019180Y014620D01*
X019190Y014475D02*
X018759Y014475D01*
X018680Y014396D02*
X019214Y014396D01*
X019251Y014318D02*
X018602Y014318D01*
X017753Y014318D02*
X017602Y014318D01*
X017675Y014239D02*
X017523Y014239D01*
X017596Y014161D02*
X017445Y014161D01*
X017518Y014082D02*
X017366Y014082D01*
X017439Y014004D02*
X012490Y014004D01*
X012490Y014082D02*
X012764Y014082D01*
X012685Y014161D02*
X012490Y014161D01*
X012490Y014239D02*
X012607Y014239D01*
X012528Y014318D02*
X012490Y014318D01*
X012490Y013925D02*
X017361Y013925D01*
X017282Y013847D02*
X012490Y013847D01*
X012490Y013768D02*
X017204Y013768D01*
X017125Y013690D02*
X012490Y013690D01*
X012490Y013611D02*
X017047Y013611D01*
X016968Y013533D02*
X012490Y013533D01*
X012490Y013454D02*
X016890Y013454D01*
X016811Y013376D02*
X012490Y013376D01*
X012490Y013297D02*
X016733Y013297D01*
X016654Y013219D02*
X012490Y013219D01*
X012490Y013140D02*
X016576Y013140D01*
X016497Y013062D02*
X012490Y013062D01*
X012490Y012983D02*
X016419Y012983D01*
X016340Y012905D02*
X012490Y012905D01*
X012490Y012826D02*
X016262Y012826D01*
X016183Y012748D02*
X012490Y012748D01*
X012490Y012669D02*
X016018Y012669D01*
X015838Y012591D02*
X012490Y012591D01*
X012490Y012512D02*
X015759Y012512D01*
X015681Y012434D02*
X012490Y012434D01*
X012490Y012355D02*
X015644Y012355D01*
X015611Y012277D02*
X012490Y012277D01*
X012490Y012198D02*
X015580Y012198D01*
X015580Y012120D02*
X012490Y012120D01*
X012490Y012041D02*
X015580Y012041D01*
X015580Y011963D02*
X012490Y011963D01*
X012560Y011884D02*
X015611Y011884D01*
X015643Y011806D02*
X012639Y011806D01*
X012717Y011727D02*
X015680Y011727D01*
X015759Y011649D02*
X012796Y011649D01*
X010490Y010942D02*
X016951Y010942D01*
X016920Y010864D02*
X010490Y010864D01*
X010490Y010785D02*
X016904Y010785D01*
X016900Y010760D02*
X016900Y010760D01*
X016900Y010680D02*
X016900Y010680D01*
X017370Y010680D01*
X017370Y010210D01*
X017370Y010210D01*
X017291Y010223D01*
X017214Y010247D01*
X017143Y010284D01*
X017078Y010331D01*
X017021Y010388D01*
X016974Y010453D01*
X016937Y010524D01*
X016913Y010601D01*
X016900Y010680D01*
X016908Y010628D02*
X010490Y010628D01*
X010490Y010550D02*
X016929Y010550D01*
X016964Y010471D02*
X010490Y010471D01*
X010552Y010393D02*
X017018Y010393D01*
X017101Y010314D02*
X010630Y010314D01*
X010709Y010236D02*
X017251Y010236D01*
X017370Y010236D02*
X017450Y010236D01*
X017450Y010210D02*
X017529Y010223D01*
X017606Y010247D01*
X017677Y010284D01*
X017742Y010331D01*
X017799Y010388D01*
X017846Y010453D01*
X017883Y010524D01*
X017907Y010601D01*
X017920Y010680D01*
X017450Y010680D01*
X017450Y010210D01*
X017450Y010210D01*
X017450Y010314D02*
X017370Y010314D01*
X017370Y010393D02*
X017450Y010393D01*
X017450Y010471D02*
X017370Y010471D01*
X017370Y010550D02*
X017450Y010550D01*
X017450Y010628D02*
X017370Y010628D01*
X017370Y010707D02*
X010490Y010707D01*
X010787Y010157D02*
X024833Y010157D01*
X024754Y010236D02*
X023879Y010236D01*
X023916Y010247D02*
X023987Y010284D01*
X024052Y010331D01*
X024109Y010388D01*
X024156Y010453D01*
X024193Y010524D01*
X024217Y010601D01*
X024230Y010680D01*
X023760Y010680D01*
X023760Y010760D01*
X024230Y010760D01*
X024230Y010760D01*
X024217Y010839D01*
X024193Y010916D01*
X024156Y010987D01*
X024109Y011052D01*
X024052Y011109D01*
X023987Y011156D01*
X023916Y011193D01*
X023839Y011217D01*
X023760Y011230D01*
X023760Y011230D01*
X023760Y010760D01*
X023680Y010760D01*
X023680Y011230D01*
X023680Y011230D01*
X023601Y011217D01*
X023524Y011193D01*
X023453Y011156D01*
X023388Y011109D01*
X023331Y011052D01*
X023284Y010987D01*
X023247Y010916D01*
X023223Y010839D01*
X023210Y010760D01*
X023680Y010760D01*
X023680Y010680D01*
X023760Y010680D01*
X023760Y010210D01*
X023760Y010210D01*
X023839Y010223D01*
X023916Y010247D01*
X024029Y010314D02*
X024676Y010314D01*
X024653Y010393D02*
X024112Y010393D01*
X024166Y010471D02*
X024653Y010471D01*
X024653Y010550D02*
X024201Y010550D01*
X024222Y010628D02*
X024653Y010628D01*
X024653Y010707D02*
X023760Y010707D01*
X023760Y010785D02*
X023680Y010785D01*
X023680Y010707D02*
X021200Y010707D01*
X021200Y010680D02*
X021200Y010760D01*
X021670Y010760D01*
X021670Y010760D01*
X021657Y010839D01*
X021633Y010916D01*
X021596Y010987D01*
X021549Y011052D01*
X021492Y011109D01*
X021427Y011156D01*
X021356Y011193D01*
X021279Y011217D01*
X021200Y011230D01*
X021200Y011230D01*
X021200Y010760D01*
X021120Y010760D01*
X021120Y011230D01*
X021120Y011230D01*
X021041Y011217D01*
X020964Y011193D01*
X020893Y011156D01*
X020828Y011109D01*
X020771Y011052D01*
X020724Y010987D01*
X020687Y010916D01*
X020663Y010839D01*
X020650Y010760D01*
X021120Y010760D01*
X021120Y010680D01*
X021200Y010680D01*
X021670Y010680D01*
X021670Y010680D01*
X021657Y010601D01*
X021633Y010524D01*
X021596Y010453D01*
X021549Y010388D01*
X021492Y010331D01*
X021427Y010284D01*
X021356Y010247D01*
X021279Y010223D01*
X021200Y010210D01*
X021200Y010210D01*
X021200Y010680D01*
X021200Y010628D02*
X021120Y010628D01*
X021120Y010680D02*
X021120Y010210D01*
X021120Y010210D01*
X021041Y010223D01*
X020964Y010247D01*
X020893Y010284D01*
X020828Y010331D01*
X020771Y010388D01*
X020724Y010453D01*
X020687Y010524D01*
X020663Y010601D01*
X020650Y010680D01*
X020650Y010680D01*
X021120Y010680D01*
X021120Y010707D02*
X020010Y010707D01*
X020010Y010680D02*
X020010Y010760D01*
X020480Y010760D01*
X020480Y010760D01*
X020467Y010839D01*
X020443Y010916D01*
X020406Y010987D01*
X020359Y011052D01*
X020302Y011109D01*
X020237Y011156D01*
X020166Y011193D01*
X020089Y011217D01*
X020010Y011230D01*
X020010Y011230D01*
X020010Y010760D01*
X019930Y010760D01*
X019930Y011230D01*
X019930Y011230D01*
X019851Y011217D01*
X019774Y011193D01*
X019703Y011156D01*
X019638Y011109D01*
X019581Y011052D01*
X019534Y010987D01*
X019497Y010916D01*
X019473Y010839D01*
X019460Y010760D01*
X019930Y010760D01*
X019930Y010680D01*
X020010Y010680D01*
X020480Y010680D01*
X020480Y010680D01*
X020467Y010601D01*
X020443Y010524D01*
X020406Y010453D01*
X020359Y010388D01*
X020302Y010331D01*
X020237Y010284D01*
X020166Y010247D01*
X020089Y010223D01*
X020010Y010210D01*
X020010Y010210D01*
X020010Y010680D01*
X020010Y010628D02*
X019930Y010628D01*
X019930Y010680D02*
X019930Y010210D01*
X019930Y010210D01*
X019851Y010223D01*
X019774Y010247D01*
X019703Y010284D01*
X019638Y010331D01*
X019581Y010388D01*
X019534Y010453D01*
X019497Y010524D01*
X019473Y010601D01*
X019460Y010680D01*
X019460Y010680D01*
X019930Y010680D01*
X019930Y010707D02*
X017450Y010707D01*
X017891Y010550D02*
X019489Y010550D01*
X019468Y010628D02*
X017912Y010628D01*
X017920Y010680D02*
X017920Y010680D01*
X017916Y010785D02*
X019464Y010785D01*
X019460Y010760D02*
X019460Y010760D01*
X019480Y010864D02*
X017900Y010864D01*
X017869Y010942D02*
X019511Y010942D01*
X019558Y011021D02*
X017822Y011021D01*
X017856Y010471D02*
X019524Y010471D01*
X019578Y010393D02*
X017802Y010393D01*
X017719Y010314D02*
X019661Y010314D01*
X019811Y010236D02*
X017569Y010236D01*
X017580Y009530D02*
X019800Y009530D01*
X019624Y009457D01*
X019453Y009286D01*
X019360Y009061D01*
X019360Y008819D01*
X019453Y008594D01*
X019624Y008423D01*
X019849Y008330D01*
X020091Y008330D01*
X020316Y008423D01*
X020487Y008594D01*
X020565Y008782D01*
X020643Y008594D01*
X020814Y008423D01*
X021039Y008330D01*
X021281Y008330D01*
X021506Y008423D01*
X021677Y008594D01*
X021770Y008819D01*
X021770Y009061D01*
X021677Y009286D01*
X021506Y009457D01*
X021330Y009530D01*
X023550Y009530D01*
X023374Y009457D01*
X023203Y009286D01*
X023110Y009061D01*
X023110Y008819D01*
X023203Y008594D01*
X023374Y008423D01*
X023599Y008330D01*
X023841Y008330D01*
X024066Y008423D01*
X024237Y008594D01*
X024330Y008819D01*
X024330Y009061D01*
X024237Y009286D01*
X024066Y009457D01*
X023890Y009530D01*
X024890Y009530D01*
X024890Y006204D01*
X023520Y004834D01*
X023436Y004750D01*
X023390Y004640D01*
X023390Y004484D01*
X023268Y004362D01*
X023192Y004179D01*
X023192Y003981D01*
X023268Y003798D01*
X023376Y003690D01*
X023339Y003690D01*
X022995Y004034D01*
X023192Y004034D01*
X023192Y004113D02*
X022917Y004113D01*
X022894Y004135D02*
X022995Y004034D01*
X023074Y003956D02*
X023202Y003956D01*
X023235Y003877D02*
X023152Y003877D01*
X023231Y003799D02*
X023267Y003799D01*
X023309Y003720D02*
X023346Y003720D01*
X024004Y003690D02*
X024112Y003798D01*
X024188Y003981D01*
X024188Y004179D01*
X024112Y004362D01*
X024004Y004470D01*
X025444Y005910D01*
X025490Y006020D01*
X025490Y006140D01*
X025490Y009890D01*
X025490Y010000D01*
X025811Y010321D01*
X026038Y010093D01*
X026200Y010093D01*
X026200Y010540D01*
X026280Y010540D01*
X026280Y010093D01*
X026442Y010093D01*
X026480Y010131D01*
X026480Y005842D01*
X024053Y003690D01*
X024004Y003690D01*
X024034Y003720D02*
X024087Y003720D01*
X024113Y003799D02*
X024176Y003799D01*
X024145Y003877D02*
X024264Y003877D01*
X024178Y003956D02*
X024353Y003956D01*
X024441Y004034D02*
X024188Y004034D01*
X024188Y004113D02*
X024530Y004113D01*
X024618Y004191D02*
X024183Y004191D01*
X024151Y004270D02*
X024707Y004270D01*
X024795Y004348D02*
X024118Y004348D01*
X024048Y004427D02*
X024884Y004427D01*
X024972Y004505D02*
X024039Y004505D01*
X024118Y004584D02*
X025061Y004584D01*
X025149Y004662D02*
X024196Y004662D01*
X024275Y004741D02*
X025238Y004741D01*
X025327Y004819D02*
X024353Y004819D01*
X024432Y004898D02*
X025415Y004898D01*
X025504Y004976D02*
X024510Y004976D01*
X024589Y005055D02*
X025592Y005055D01*
X025681Y005133D02*
X024667Y005133D01*
X024746Y005212D02*
X025769Y005212D01*
X025858Y005290D02*
X024824Y005290D01*
X024903Y005369D02*
X025946Y005369D01*
X026035Y005447D02*
X024981Y005447D01*
X025060Y005526D02*
X026123Y005526D01*
X026212Y005604D02*
X025138Y005604D01*
X025217Y005683D02*
X026300Y005683D01*
X026389Y005761D02*
X025295Y005761D01*
X025374Y005840D02*
X026477Y005840D01*
X026480Y005918D02*
X025448Y005918D01*
X025480Y005997D02*
X026480Y005997D01*
X026480Y006075D02*
X025490Y006075D01*
X025490Y006154D02*
X026480Y006154D01*
X026480Y006232D02*
X025490Y006232D01*
X025490Y006311D02*
X026480Y006311D01*
X026480Y006389D02*
X025490Y006389D01*
X025490Y006468D02*
X026480Y006468D01*
X026480Y006546D02*
X025490Y006546D01*
X025490Y006625D02*
X026480Y006625D01*
X026480Y006703D02*
X025490Y006703D01*
X025490Y006782D02*
X026480Y006782D01*
X026480Y006860D02*
X025490Y006860D01*
X025490Y006939D02*
X026480Y006939D01*
X026480Y007017D02*
X025490Y007017D01*
X025490Y007096D02*
X026480Y007096D01*
X026480Y007174D02*
X025490Y007174D01*
X025490Y007253D02*
X026480Y007253D01*
X026480Y007331D02*
X025490Y007331D01*
X025490Y007410D02*
X026480Y007410D01*
X026480Y007488D02*
X025490Y007488D01*
X025490Y007567D02*
X026480Y007567D01*
X026480Y007645D02*
X025490Y007645D01*
X025490Y007724D02*
X026480Y007724D01*
X026480Y007802D02*
X025490Y007802D01*
X025490Y007881D02*
X026480Y007881D01*
X026480Y007959D02*
X025490Y007959D01*
X025490Y008038D02*
X026480Y008038D01*
X026480Y008116D02*
X025490Y008116D01*
X025490Y008195D02*
X026480Y008195D01*
X026480Y008273D02*
X025490Y008273D01*
X025490Y008352D02*
X026480Y008352D01*
X026480Y008430D02*
X025490Y008430D01*
X025490Y008509D02*
X026480Y008509D01*
X026480Y008587D02*
X025490Y008587D01*
X025490Y008666D02*
X026480Y008666D01*
X026480Y008744D02*
X025490Y008744D01*
X025490Y008823D02*
X026480Y008823D01*
X026480Y008901D02*
X025490Y008901D01*
X025490Y008980D02*
X026480Y008980D01*
X026480Y009058D02*
X025490Y009058D01*
X025490Y009137D02*
X026480Y009137D01*
X026480Y009215D02*
X025490Y009215D01*
X025490Y009294D02*
X026480Y009294D01*
X026480Y009372D02*
X025490Y009372D01*
X025490Y009451D02*
X026480Y009451D01*
X026480Y009529D02*
X025490Y009529D01*
X025490Y009608D02*
X026480Y009608D01*
X026480Y009686D02*
X025490Y009686D01*
X025490Y009765D02*
X026480Y009765D01*
X026480Y009843D02*
X025490Y009843D01*
X025490Y009922D02*
X026480Y009922D01*
X026480Y010000D02*
X025490Y010000D01*
X025569Y010079D02*
X026480Y010079D01*
X026280Y010157D02*
X026200Y010157D01*
X026200Y010236D02*
X026280Y010236D01*
X026280Y010314D02*
X026200Y010314D01*
X026200Y010393D02*
X026280Y010393D01*
X026280Y010471D02*
X026200Y010471D01*
X025896Y010236D02*
X025726Y010236D01*
X025804Y010314D02*
X025817Y010314D01*
X025974Y010157D02*
X025647Y010157D01*
X024890Y009529D02*
X023892Y009529D01*
X024072Y009451D02*
X024890Y009451D01*
X024890Y009372D02*
X024151Y009372D01*
X024229Y009294D02*
X024890Y009294D01*
X024890Y009215D02*
X024266Y009215D01*
X024299Y009137D02*
X024890Y009137D01*
X024890Y009058D02*
X024330Y009058D01*
X024330Y008980D02*
X024890Y008980D01*
X024890Y008901D02*
X024330Y008901D01*
X024330Y008823D02*
X024890Y008823D01*
X024890Y008744D02*
X024299Y008744D01*
X024267Y008666D02*
X024890Y008666D01*
X024890Y008587D02*
X024230Y008587D01*
X024151Y008509D02*
X024890Y008509D01*
X024890Y008430D02*
X024073Y008430D01*
X023893Y008352D02*
X024890Y008352D01*
X024890Y008273D02*
X008223Y008273D01*
X008207Y008234D02*
X008300Y008459D01*
X008300Y008701D01*
X008207Y008926D01*
X008036Y009097D01*
X007811Y009190D01*
X007569Y009190D01*
X007344Y009097D01*
X007190Y008943D01*
X007036Y009097D01*
X006811Y009190D01*
X006569Y009190D01*
X006344Y009097D01*
X006190Y008943D01*
X006050Y009083D01*
X006050Y009181D01*
X006339Y009470D01*
X009262Y009470D01*
X009394Y009525D01*
X009894Y010025D01*
X009982Y010113D01*
X010020Y010076D01*
X010520Y009576D01*
X010630Y009530D01*
X017240Y009530D01*
X017064Y009457D01*
X016893Y009286D01*
X016800Y009061D01*
X016800Y008819D01*
X016893Y008594D01*
X017064Y008423D01*
X017289Y008330D01*
X017531Y008330D01*
X017756Y008423D01*
X017927Y008594D01*
X018020Y008819D01*
X018020Y009061D01*
X017927Y009286D01*
X017756Y009457D01*
X017580Y009530D01*
X017582Y009529D02*
X019798Y009529D01*
X019618Y009451D02*
X017762Y009451D01*
X017841Y009372D02*
X019539Y009372D01*
X019461Y009294D02*
X017919Y009294D01*
X017956Y009215D02*
X019424Y009215D01*
X019391Y009137D02*
X017989Y009137D01*
X018020Y009058D02*
X019360Y009058D01*
X019360Y008980D02*
X018020Y008980D01*
X018020Y008901D02*
X019360Y008901D01*
X019360Y008823D02*
X018020Y008823D01*
X017989Y008744D02*
X019391Y008744D01*
X019423Y008666D02*
X017957Y008666D01*
X017920Y008587D02*
X019460Y008587D01*
X019539Y008509D02*
X017841Y008509D01*
X017763Y008430D02*
X019617Y008430D01*
X019797Y008352D02*
X017583Y008352D01*
X017529Y008217D02*
X017450Y008230D01*
X017450Y008230D01*
X017450Y007760D01*
X017920Y007760D01*
X017920Y007760D01*
X017907Y007839D01*
X017883Y007916D01*
X017846Y007987D01*
X017799Y008052D01*
X017742Y008109D01*
X017677Y008156D01*
X017606Y008193D01*
X017529Y008217D01*
X017600Y008195D02*
X019780Y008195D01*
X019774Y008193D02*
X019851Y008217D01*
X019930Y008230D01*
X019930Y008230D01*
X019930Y007760D01*
X020010Y007760D01*
X020480Y007760D01*
X020480Y007760D01*
X020467Y007839D01*
X020443Y007916D01*
X020406Y007987D01*
X020359Y008052D01*
X020302Y008109D01*
X020237Y008156D01*
X020166Y008193D01*
X020089Y008217D01*
X020010Y008230D01*
X020010Y008230D01*
X020010Y007760D01*
X020010Y007680D01*
X020480Y007680D01*
X020480Y007680D01*
X020467Y007601D01*
X020443Y007524D01*
X020406Y007453D01*
X020359Y007388D01*
X020302Y007331D01*
X020237Y007284D01*
X020166Y007247D01*
X020089Y007223D01*
X020010Y007210D01*
X020010Y007210D01*
X020010Y007680D01*
X019930Y007680D01*
X019930Y007210D01*
X019930Y007210D01*
X019851Y007223D01*
X019774Y007247D01*
X019703Y007284D01*
X019638Y007331D01*
X019581Y007388D01*
X019534Y007453D01*
X019497Y007524D01*
X019473Y007601D01*
X019460Y007680D01*
X019460Y007680D01*
X019930Y007680D01*
X019930Y007760D01*
X019460Y007760D01*
X019460Y007760D01*
X019473Y007839D01*
X019497Y007916D01*
X019534Y007987D01*
X019581Y008052D01*
X019638Y008109D01*
X019703Y008156D01*
X019774Y008193D01*
X019647Y008116D02*
X017733Y008116D01*
X017810Y008038D02*
X019570Y008038D01*
X019519Y007959D02*
X017861Y007959D01*
X017894Y007881D02*
X019486Y007881D01*
X019467Y007802D02*
X017913Y007802D01*
X017920Y007680D02*
X017450Y007680D01*
X017450Y007760D01*
X017370Y007760D01*
X017370Y008230D01*
X017370Y008230D01*
X017291Y008217D01*
X017214Y008193D01*
X017143Y008156D01*
X017078Y008109D01*
X017021Y008052D01*
X016974Y007987D01*
X016937Y007916D01*
X016913Y007839D01*
X016900Y007760D01*
X017370Y007760D01*
X017370Y007680D01*
X017450Y007680D01*
X017450Y007210D01*
X017450Y007210D01*
X017529Y007223D01*
X017606Y007247D01*
X017677Y007284D01*
X017742Y007331D01*
X017799Y007388D01*
X017846Y007453D01*
X017883Y007524D01*
X017907Y007601D01*
X017920Y007680D01*
X017920Y007680D01*
X017914Y007645D02*
X019466Y007645D01*
X019484Y007567D02*
X017896Y007567D01*
X017864Y007488D02*
X019516Y007488D01*
X019565Y007410D02*
X017815Y007410D01*
X017742Y007331D02*
X019638Y007331D01*
X019764Y007253D02*
X017616Y007253D01*
X017450Y007253D02*
X017370Y007253D01*
X017370Y007210D02*
X017370Y007680D01*
X016900Y007680D01*
X016900Y007680D01*
X016913Y007601D01*
X016937Y007524D01*
X016974Y007453D01*
X017021Y007388D01*
X017078Y007331D01*
X017143Y007284D01*
X017214Y007247D01*
X017291Y007223D01*
X017370Y007210D01*
X017370Y007210D01*
X017370Y007331D02*
X017450Y007331D01*
X017450Y007410D02*
X017370Y007410D01*
X017370Y007488D02*
X017450Y007488D01*
X017450Y007567D02*
X017370Y007567D01*
X017370Y007645D02*
X017450Y007645D01*
X017450Y007724D02*
X019930Y007724D01*
X019930Y007802D02*
X020010Y007802D01*
X020010Y007724D02*
X021120Y007724D01*
X021120Y007760D02*
X021120Y007680D01*
X021200Y007680D01*
X021200Y007760D01*
X021670Y007760D01*
X021670Y007760D01*
X021657Y007839D01*
X021633Y007916D01*
X021596Y007987D01*
X021549Y008052D01*
X021492Y008109D01*
X021427Y008156D01*
X021356Y008193D01*
X021279Y008217D01*
X021200Y008230D01*
X021200Y008230D01*
X021200Y007760D01*
X021120Y007760D01*
X021120Y008230D01*
X021120Y008230D01*
X021041Y008217D01*
X020964Y008193D01*
X020893Y008156D01*
X020828Y008109D01*
X020771Y008052D01*
X020724Y007987D01*
X020687Y007916D01*
X020663Y007839D01*
X020650Y007760D01*
X021120Y007760D01*
X021120Y007802D02*
X021200Y007802D01*
X021200Y007724D02*
X023680Y007724D01*
X023680Y007760D02*
X023680Y007680D01*
X023760Y007680D01*
X023760Y007760D01*
X024230Y007760D01*
X024230Y007760D01*
X024217Y007839D01*
X024193Y007916D01*
X024156Y007987D01*
X024109Y008052D01*
X024052Y008109D01*
X023987Y008156D01*
X023916Y008193D01*
X023839Y008217D01*
X023760Y008230D01*
X023760Y008230D01*
X023760Y007760D01*
X023680Y007760D01*
X023680Y008230D01*
X023680Y008230D01*
X023601Y008217D01*
X023524Y008193D01*
X023453Y008156D01*
X023388Y008109D01*
X023331Y008052D01*
X023284Y007987D01*
X023247Y007916D01*
X023223Y007839D01*
X023210Y007760D01*
X023680Y007760D01*
X023680Y007802D02*
X023760Y007802D01*
X023760Y007724D02*
X024890Y007724D01*
X024890Y007802D02*
X024223Y007802D01*
X024204Y007881D02*
X024890Y007881D01*
X024890Y007959D02*
X024171Y007959D01*
X024120Y008038D02*
X024890Y008038D01*
X024890Y008116D02*
X024043Y008116D01*
X023910Y008195D02*
X024890Y008195D01*
X024890Y007645D02*
X024224Y007645D01*
X024230Y007680D02*
X024230Y007680D01*
X023760Y007680D01*
X023760Y007210D01*
X023760Y007210D01*
X023839Y007223D01*
X023916Y007247D01*
X023987Y007284D01*
X024052Y007331D01*
X024109Y007388D01*
X024156Y007453D01*
X024193Y007524D01*
X024217Y007601D01*
X024230Y007680D01*
X024206Y007567D02*
X024890Y007567D01*
X024890Y007488D02*
X024174Y007488D01*
X024125Y007410D02*
X024890Y007410D01*
X024890Y007331D02*
X024052Y007331D01*
X023926Y007253D02*
X024890Y007253D01*
X024890Y007174D02*
X008147Y007174D01*
X008207Y007234D02*
X008300Y007459D01*
X008300Y007701D01*
X008207Y007926D01*
X008053Y008080D01*
X008207Y008234D01*
X008167Y008195D02*
X017220Y008195D01*
X017370Y008195D02*
X017450Y008195D01*
X017450Y008116D02*
X017370Y008116D01*
X017370Y008038D02*
X017450Y008038D01*
X017450Y007959D02*
X017370Y007959D01*
X017370Y007881D02*
X017450Y007881D01*
X017450Y007802D02*
X017370Y007802D01*
X017370Y007724D02*
X008291Y007724D01*
X008300Y007645D02*
X016906Y007645D01*
X016924Y007567D02*
X008300Y007567D01*
X008300Y007488D02*
X016956Y007488D01*
X017005Y007410D02*
X008280Y007410D01*
X008247Y007331D02*
X017078Y007331D01*
X017204Y007253D02*
X008215Y007253D01*
X008207Y007234D02*
X008053Y007080D01*
X008207Y006926D01*
X008300Y006701D01*
X008300Y006459D01*
X008207Y006234D01*
X008053Y006080D01*
X008207Y005926D01*
X008300Y005701D01*
X008300Y005459D01*
X008207Y005234D01*
X008053Y005080D01*
X008207Y004926D01*
X008300Y004701D01*
X008300Y004459D01*
X008207Y004234D01*
X008053Y004080D01*
X008207Y003926D01*
X008300Y003701D01*
X008300Y003690D01*
X009541Y003690D01*
X009986Y004135D01*
X010118Y004190D01*
X022762Y004190D01*
X022894Y004135D01*
X023197Y004191D02*
X008164Y004191D01*
X008222Y004270D02*
X023229Y004270D01*
X023262Y004348D02*
X008254Y004348D01*
X008287Y004427D02*
X023332Y004427D01*
X023390Y004505D02*
X008300Y004505D01*
X008300Y004584D02*
X023390Y004584D01*
X023399Y004662D02*
X008300Y004662D01*
X008284Y004741D02*
X023432Y004741D01*
X023505Y004819D02*
X008251Y004819D01*
X008219Y004898D02*
X023583Y004898D01*
X023662Y004976D02*
X008157Y004976D01*
X008078Y005055D02*
X023740Y005055D01*
X023819Y005133D02*
X008106Y005133D01*
X008184Y005212D02*
X023897Y005212D01*
X023976Y005290D02*
X008230Y005290D01*
X008263Y005369D02*
X017196Y005369D01*
X017289Y005330D02*
X017531Y005330D01*
X017756Y005423D01*
X017927Y005594D01*
X018020Y005819D01*
X018020Y006061D01*
X017927Y006286D01*
X017756Y006457D01*
X017531Y006550D01*
X017289Y006550D01*
X017064Y006457D01*
X016893Y006286D01*
X016800Y006061D01*
X016800Y005819D01*
X016893Y005594D01*
X017064Y005423D01*
X017289Y005330D01*
X017040Y005447D02*
X008295Y005447D01*
X008300Y005526D02*
X016962Y005526D01*
X016889Y005604D02*
X008300Y005604D01*
X008300Y005683D02*
X016856Y005683D01*
X016824Y005761D02*
X008275Y005761D01*
X008243Y005840D02*
X016800Y005840D01*
X016800Y005918D02*
X008210Y005918D01*
X008136Y005997D02*
X016800Y005997D01*
X016806Y006075D02*
X008058Y006075D01*
X008126Y006154D02*
X016838Y006154D01*
X016871Y006232D02*
X008205Y006232D01*
X008239Y006311D02*
X016918Y006311D01*
X016996Y006389D02*
X008271Y006389D01*
X008300Y006468D02*
X017090Y006468D01*
X017279Y006546D02*
X008300Y006546D01*
X008300Y006625D02*
X024890Y006625D01*
X024890Y006703D02*
X008299Y006703D01*
X008267Y006782D02*
X024890Y006782D01*
X024890Y006860D02*
X008234Y006860D01*
X008194Y006939D02*
X024890Y006939D01*
X024890Y007017D02*
X008116Y007017D01*
X008068Y007096D02*
X024890Y007096D01*
X024890Y006546D02*
X023851Y006546D01*
X023841Y006550D02*
X023599Y006550D01*
X023374Y006457D01*
X023203Y006286D01*
X023110Y006061D01*
X023110Y005819D01*
X023203Y005594D01*
X023374Y005423D01*
X023599Y005330D01*
X023841Y005330D01*
X024066Y005423D01*
X024237Y005594D01*
X024330Y005819D01*
X024330Y006061D01*
X024237Y006286D01*
X024066Y006457D01*
X023841Y006550D01*
X024040Y006468D02*
X024890Y006468D01*
X024890Y006389D02*
X024134Y006389D01*
X024212Y006311D02*
X024890Y006311D01*
X024890Y006232D02*
X024259Y006232D01*
X024292Y006154D02*
X024839Y006154D01*
X024761Y006075D02*
X024324Y006075D01*
X024330Y005997D02*
X024682Y005997D01*
X024604Y005918D02*
X024330Y005918D01*
X024330Y005840D02*
X024525Y005840D01*
X024447Y005761D02*
X024306Y005761D01*
X024274Y005683D02*
X024368Y005683D01*
X024290Y005604D02*
X024241Y005604D01*
X024211Y005526D02*
X024168Y005526D01*
X024133Y005447D02*
X024090Y005447D01*
X024054Y005369D02*
X023934Y005369D01*
X023506Y005369D02*
X021374Y005369D01*
X021281Y005330D02*
X021506Y005423D01*
X021677Y005594D01*
X021770Y005819D01*
X021770Y006061D01*
X021677Y006286D01*
X021506Y006457D01*
X021281Y006550D01*
X021039Y006550D01*
X020814Y006457D01*
X020643Y006286D01*
X020565Y006098D01*
X020487Y006286D01*
X020316Y006457D01*
X020091Y006550D01*
X019849Y006550D01*
X019624Y006457D01*
X019453Y006286D01*
X019360Y006061D01*
X019360Y005819D01*
X019453Y005594D01*
X019624Y005423D01*
X019849Y005330D01*
X020091Y005330D01*
X020316Y005423D01*
X020487Y005594D01*
X020565Y005782D01*
X020643Y005594D01*
X020814Y005423D01*
X021039Y005330D01*
X021281Y005330D01*
X021530Y005447D02*
X023350Y005447D01*
X023272Y005526D02*
X021608Y005526D01*
X021681Y005604D02*
X023199Y005604D01*
X023166Y005683D02*
X021714Y005683D01*
X021746Y005761D02*
X023134Y005761D01*
X023110Y005840D02*
X021770Y005840D01*
X021770Y005918D02*
X023110Y005918D01*
X023110Y005997D02*
X021770Y005997D01*
X021764Y006075D02*
X023116Y006075D01*
X023148Y006154D02*
X021732Y006154D01*
X021699Y006232D02*
X023181Y006232D01*
X023228Y006311D02*
X021652Y006311D01*
X021574Y006389D02*
X023306Y006389D01*
X023400Y006468D02*
X021480Y006468D01*
X021291Y006546D02*
X023589Y006546D01*
X023680Y007210D02*
X023601Y007223D01*
X023524Y007247D01*
X023453Y007284D01*
X023388Y007331D01*
X023331Y007388D01*
X023284Y007453D01*
X023247Y007524D01*
X023223Y007601D01*
X023210Y007680D01*
X023210Y007680D01*
X023680Y007680D01*
X023680Y007210D01*
X023680Y007210D01*
X023680Y007253D02*
X023760Y007253D01*
X023760Y007331D02*
X023680Y007331D01*
X023680Y007410D02*
X023760Y007410D01*
X023760Y007488D02*
X023680Y007488D01*
X023680Y007567D02*
X023760Y007567D01*
X023760Y007645D02*
X023680Y007645D01*
X023680Y007881D02*
X023760Y007881D01*
X023760Y007959D02*
X023680Y007959D01*
X023680Y008038D02*
X023760Y008038D01*
X023760Y008116D02*
X023680Y008116D01*
X023680Y008195D02*
X023760Y008195D01*
X023530Y008195D02*
X021350Y008195D01*
X021200Y008195D02*
X021120Y008195D01*
X021120Y008116D02*
X021200Y008116D01*
X021200Y008038D02*
X021120Y008038D01*
X021120Y007959D02*
X021200Y007959D01*
X021200Y007881D02*
X021120Y007881D01*
X021120Y007680D02*
X020650Y007680D01*
X020650Y007680D01*
X020663Y007601D01*
X020687Y007524D01*
X020724Y007453D01*
X020771Y007388D01*
X020828Y007331D01*
X020893Y007284D01*
X020964Y007247D01*
X021041Y007223D01*
X021120Y007210D01*
X021120Y007680D01*
X021120Y007645D02*
X021200Y007645D01*
X021200Y007680D02*
X021200Y007210D01*
X021200Y007210D01*
X021279Y007223D01*
X021356Y007247D01*
X021427Y007284D01*
X021492Y007331D01*
X021549Y007388D01*
X021596Y007453D01*
X021633Y007524D01*
X021657Y007601D01*
X021670Y007680D01*
X021200Y007680D01*
X021200Y007567D02*
X021120Y007567D01*
X021120Y007488D02*
X021200Y007488D01*
X021200Y007410D02*
X021120Y007410D01*
X021120Y007331D02*
X021200Y007331D01*
X021200Y007253D02*
X021120Y007253D01*
X021120Y007210D02*
X021120Y007210D01*
X020954Y007253D02*
X020176Y007253D01*
X020302Y007331D02*
X020828Y007331D01*
X020755Y007410D02*
X020375Y007410D01*
X020424Y007488D02*
X020706Y007488D01*
X020674Y007567D02*
X020456Y007567D01*
X020474Y007645D02*
X020656Y007645D01*
X020650Y007760D02*
X020650Y007760D01*
X020657Y007802D02*
X020473Y007802D01*
X020454Y007881D02*
X020676Y007881D01*
X020709Y007959D02*
X020421Y007959D01*
X020370Y008038D02*
X020760Y008038D01*
X020837Y008116D02*
X020293Y008116D01*
X020160Y008195D02*
X020970Y008195D01*
X020987Y008352D02*
X020143Y008352D01*
X020323Y008430D02*
X020807Y008430D01*
X020729Y008509D02*
X020401Y008509D01*
X020480Y008587D02*
X020650Y008587D01*
X020613Y008666D02*
X020517Y008666D01*
X020549Y008744D02*
X020581Y008744D01*
X021333Y008352D02*
X023547Y008352D01*
X023367Y008430D02*
X021513Y008430D01*
X021591Y008509D02*
X023289Y008509D01*
X023210Y008587D02*
X021670Y008587D01*
X021707Y008666D02*
X023173Y008666D01*
X023141Y008744D02*
X021739Y008744D01*
X021770Y008823D02*
X023110Y008823D01*
X023110Y008901D02*
X021770Y008901D01*
X021770Y008980D02*
X023110Y008980D01*
X023110Y009058D02*
X021770Y009058D01*
X021739Y009137D02*
X023141Y009137D01*
X023174Y009215D02*
X021706Y009215D01*
X021669Y009294D02*
X023211Y009294D01*
X023289Y009372D02*
X021591Y009372D01*
X021512Y009451D02*
X023368Y009451D01*
X023548Y009529D02*
X021332Y009529D01*
X021319Y010236D02*
X023561Y010236D01*
X023524Y010247D02*
X023601Y010223D01*
X023680Y010210D01*
X023680Y010680D01*
X023210Y010680D01*
X023210Y010680D01*
X023223Y010601D01*
X023247Y010524D01*
X023284Y010453D01*
X023331Y010388D01*
X023388Y010331D01*
X023453Y010284D01*
X023524Y010247D01*
X023411Y010314D02*
X021469Y010314D01*
X021552Y010393D02*
X023328Y010393D01*
X023274Y010471D02*
X021606Y010471D01*
X021641Y010550D02*
X023239Y010550D01*
X023218Y010628D02*
X021662Y010628D01*
X021666Y010785D02*
X023214Y010785D01*
X023210Y010760D02*
X023210Y010760D01*
X023230Y010864D02*
X021650Y010864D01*
X021619Y010942D02*
X023261Y010942D01*
X023308Y011021D02*
X021572Y011021D01*
X021502Y011099D02*
X023378Y011099D01*
X023495Y011178D02*
X021385Y011178D01*
X021200Y011178D02*
X021120Y011178D01*
X021120Y011099D02*
X021200Y011099D01*
X021200Y011021D02*
X021120Y011021D01*
X021120Y010942D02*
X021200Y010942D01*
X021200Y010864D02*
X021120Y010864D01*
X021120Y010785D02*
X021200Y010785D01*
X021200Y010550D02*
X021120Y010550D01*
X021120Y010471D02*
X021200Y010471D01*
X021200Y010393D02*
X021120Y010393D01*
X021120Y010314D02*
X021200Y010314D01*
X021200Y010236D02*
X021120Y010236D01*
X021001Y010236D02*
X020129Y010236D01*
X020010Y010236D02*
X019930Y010236D01*
X019930Y010314D02*
X020010Y010314D01*
X020010Y010393D02*
X019930Y010393D01*
X019930Y010471D02*
X020010Y010471D01*
X020010Y010550D02*
X019930Y010550D01*
X019930Y010785D02*
X020010Y010785D01*
X020010Y010864D02*
X019930Y010864D01*
X019930Y010942D02*
X020010Y010942D01*
X020010Y011021D02*
X019930Y011021D01*
X019930Y011099D02*
X020010Y011099D01*
X020010Y011178D02*
X019930Y011178D01*
X019745Y011178D02*
X018462Y011178D01*
X018540Y011256D02*
X024734Y011256D01*
X024812Y011178D02*
X023945Y011178D01*
X024062Y011099D02*
X024891Y011099D01*
X024850Y011021D02*
X024132Y011021D01*
X024179Y010942D02*
X024772Y010942D01*
X024693Y010864D02*
X024210Y010864D01*
X024226Y010785D02*
X024653Y010785D01*
X024230Y010680D02*
X024230Y010680D01*
X023760Y010628D02*
X023680Y010628D01*
X023680Y010550D02*
X023760Y010550D01*
X023760Y010471D02*
X023680Y010471D01*
X023680Y010393D02*
X023760Y010393D01*
X023760Y010314D02*
X023680Y010314D01*
X023680Y010236D02*
X023760Y010236D01*
X023680Y010210D02*
X023680Y010210D01*
X023680Y010864D02*
X023760Y010864D01*
X023760Y010942D02*
X023680Y010942D01*
X023680Y011021D02*
X023760Y011021D01*
X023760Y011099D02*
X023680Y011099D01*
X023680Y011178D02*
X023760Y011178D01*
X024462Y011884D02*
X018019Y011884D01*
X018050Y011963D02*
X024383Y011963D01*
X024305Y012041D02*
X018050Y012041D01*
X018050Y012120D02*
X024226Y012120D01*
X024170Y012198D02*
X018050Y012198D01*
X018061Y012277D02*
X024140Y012277D01*
X024140Y012355D02*
X018139Y012355D01*
X018218Y012434D02*
X024140Y012434D01*
X024140Y012512D02*
X018296Y012512D01*
X018375Y012591D02*
X024140Y012591D01*
X024140Y012669D02*
X018453Y012669D01*
X018532Y012748D02*
X024140Y012748D01*
X024140Y012826D02*
X018610Y012826D01*
X018689Y012905D02*
X024140Y012905D01*
X024140Y012983D02*
X022843Y012983D01*
X023032Y013062D02*
X024140Y013062D01*
X024140Y013140D02*
X023113Y013140D01*
X023191Y013219D02*
X024140Y013219D01*
X024140Y013297D02*
X023233Y013297D01*
X023266Y013376D02*
X024140Y013376D01*
X024140Y013454D02*
X023298Y013454D01*
X023300Y013533D02*
X024140Y013533D01*
X024140Y013611D02*
X023300Y013611D01*
X023300Y013690D02*
X024140Y013690D01*
X024140Y013768D02*
X023272Y013768D01*
X023240Y013847D02*
X024140Y013847D01*
X024140Y013925D02*
X023207Y013925D01*
X023129Y014004D02*
X024140Y014004D01*
X024140Y014082D02*
X023051Y014082D01*
X022980Y014161D02*
X024140Y014161D01*
X024140Y014239D02*
X023070Y014239D01*
X023129Y014318D02*
X024140Y014318D01*
X024140Y014396D02*
X023166Y014396D01*
X023190Y014475D02*
X024140Y014475D01*
X024140Y014553D02*
X022730Y014553D01*
X022730Y014620D02*
X023200Y014620D01*
X023200Y014620D01*
X023187Y014699D01*
X023163Y014776D01*
X023126Y014847D01*
X023079Y014912D01*
X023022Y014969D01*
X022957Y015016D01*
X022886Y015053D01*
X022809Y015077D01*
X022730Y015090D01*
X022730Y014620D01*
X022730Y014632D02*
X022650Y014632D01*
X022650Y014710D02*
X022730Y014710D01*
X022730Y014789D02*
X022650Y014789D01*
X022650Y014867D02*
X022730Y014867D01*
X022730Y014946D02*
X022650Y014946D01*
X022650Y015024D02*
X022730Y015024D01*
X022730Y015090D02*
X022730Y015090D01*
X022942Y015024D02*
X024140Y015024D01*
X024140Y014946D02*
X023046Y014946D01*
X023112Y014867D02*
X024140Y014867D01*
X024140Y014789D02*
X023156Y014789D01*
X023184Y014710D02*
X024140Y014710D01*
X024140Y014632D02*
X023198Y014632D01*
X023200Y014540D02*
X023200Y014540D01*
X022650Y014553D02*
X021990Y014553D01*
X021990Y014475D02*
X022190Y014475D01*
X022214Y014396D02*
X021990Y014396D01*
X021990Y014318D02*
X022251Y014318D01*
X022310Y014239D02*
X021990Y014239D01*
X022034Y014161D02*
X022400Y014161D01*
X022329Y014082D02*
X022112Y014082D01*
X022191Y014004D02*
X022251Y014004D01*
X021813Y013533D02*
X020300Y013533D01*
X020300Y013611D02*
X021735Y013611D01*
X021656Y013690D02*
X020300Y013690D01*
X020272Y013768D02*
X021578Y013768D01*
X021499Y013847D02*
X020240Y013847D01*
X020207Y013925D02*
X021429Y013925D01*
X021397Y014004D02*
X020129Y014004D01*
X020051Y014082D02*
X021390Y014082D01*
X021390Y014161D02*
X019980Y014161D01*
X020070Y014239D02*
X021390Y014239D01*
X021390Y014318D02*
X020129Y014318D01*
X020166Y014396D02*
X021390Y014396D01*
X021390Y014475D02*
X020190Y014475D01*
X020200Y014540D02*
X020200Y014540D01*
X021990Y014632D02*
X022182Y014632D01*
X022180Y014620D02*
X022180Y014620D01*
X022196Y014710D02*
X021990Y014710D01*
X021990Y014789D02*
X022224Y014789D01*
X022268Y014867D02*
X021990Y014867D01*
X021990Y014946D02*
X022334Y014946D01*
X022438Y015024D02*
X021990Y015024D01*
X021990Y015103D02*
X024140Y015103D01*
X024140Y015181D02*
X021990Y015181D01*
X021990Y015260D02*
X024140Y015260D01*
X024140Y015338D02*
X021990Y015338D01*
X021979Y015417D02*
X024140Y015417D01*
X024140Y015495D02*
X021946Y015495D01*
X021871Y015574D02*
X024140Y015574D01*
X024140Y015652D02*
X021792Y015652D01*
X021714Y015731D02*
X024115Y015731D01*
X024037Y015809D02*
X021635Y015809D01*
X022066Y017370D02*
X021986Y017450D01*
X021986Y017530D01*
X022066Y017610D01*
X022306Y017610D01*
X022306Y017450D01*
X022226Y017370D01*
X022066Y017370D01*
X022306Y017610D02*
X022146Y017770D01*
X021986Y017850D01*
X021791Y017610D02*
X021470Y017610D01*
X021275Y017450D02*
X020955Y017770D01*
X020955Y017450D01*
X021035Y017370D01*
X021195Y017370D01*
X021275Y017450D01*
X021275Y017770D01*
X021195Y017850D01*
X021035Y017850D01*
X020955Y017770D01*
X020759Y017770D02*
X020679Y017850D01*
X020519Y017850D01*
X020439Y017770D01*
X020439Y017450D01*
X020519Y017370D01*
X020679Y017370D01*
X020759Y017450D01*
X020679Y017610D02*
X020439Y017610D01*
X020679Y017610D02*
X020759Y017690D01*
X020759Y017770D01*
X022502Y017770D02*
X022822Y017450D01*
X022742Y017370D01*
X022582Y017370D01*
X022502Y017450D01*
X022502Y017770D01*
X022582Y017850D01*
X022742Y017850D01*
X022822Y017770D01*
X022822Y017450D01*
X023017Y017610D02*
X023337Y017610D01*
X023533Y017530D02*
X023613Y017610D01*
X023693Y017610D01*
X023613Y017610D02*
X023533Y017690D01*
X023533Y017770D01*
X023613Y017850D01*
X023773Y017850D01*
X023853Y017770D01*
X023853Y017450D02*
X023773Y017370D01*
X023613Y017370D01*
X023533Y017450D01*
X023533Y017530D01*
X024048Y017370D02*
X024369Y017370D01*
X024209Y017370D02*
X024209Y017850D01*
X024369Y017690D01*
X024564Y017770D02*
X024564Y017450D01*
X024644Y017370D01*
X024804Y017370D01*
X024884Y017450D01*
X024564Y017770D01*
X024644Y017850D01*
X024804Y017850D01*
X024884Y017770D01*
X024884Y017450D01*
X025080Y017370D02*
X025400Y017370D01*
X025080Y017690D01*
X025080Y017770D01*
X025160Y017850D01*
X025320Y017850D01*
X025400Y017770D01*
X024852Y016594D02*
X024086Y016594D01*
X024179Y016516D02*
X024890Y016516D01*
X024890Y016437D02*
X024257Y016437D01*
X024336Y016359D02*
X024890Y016359D01*
X024890Y016280D02*
X024414Y016280D01*
X024493Y016202D02*
X024890Y016202D01*
X024890Y016123D02*
X024571Y016123D01*
X024650Y016045D02*
X024890Y016045D01*
X024890Y015966D02*
X024708Y015966D01*
X024740Y015888D02*
X024890Y015888D01*
X024890Y015809D02*
X024740Y015809D01*
X024740Y015731D02*
X024890Y015731D01*
X024890Y015652D02*
X024740Y015652D01*
X024740Y015574D02*
X024890Y015574D01*
X024890Y015495D02*
X024740Y015495D01*
X024740Y015417D02*
X024890Y015417D01*
X024890Y015338D02*
X024740Y015338D01*
X024740Y015260D02*
X024890Y015260D01*
X024890Y015181D02*
X024740Y015181D01*
X024740Y015103D02*
X024890Y015103D01*
X024890Y015024D02*
X024740Y015024D01*
X024740Y014946D02*
X024890Y014946D01*
X024890Y014867D02*
X024740Y014867D01*
X024740Y014789D02*
X024890Y014789D01*
X024890Y014710D02*
X024740Y014710D01*
X024740Y014632D02*
X024890Y014632D01*
X024890Y014553D02*
X024740Y014553D01*
X024740Y014475D02*
X024890Y014475D01*
X024890Y014396D02*
X024740Y014396D01*
X024740Y014318D02*
X024890Y014318D01*
X024890Y014239D02*
X024740Y014239D01*
X024740Y014161D02*
X024890Y014161D01*
X024890Y014082D02*
X024740Y014082D01*
X024740Y014004D02*
X024890Y014004D01*
X024890Y013925D02*
X024740Y013925D01*
X024740Y013847D02*
X024890Y013847D01*
X024890Y013768D02*
X024740Y013768D01*
X024740Y013690D02*
X024890Y013690D01*
X024890Y013611D02*
X024740Y013611D01*
X024740Y013533D02*
X024890Y013533D01*
X024890Y013454D02*
X024740Y013454D01*
X024740Y013376D02*
X024890Y013376D01*
X024890Y013297D02*
X024740Y013297D01*
X024740Y013219D02*
X024890Y013219D01*
X024890Y013140D02*
X024740Y013140D01*
X024740Y013062D02*
X024890Y013062D01*
X024813Y012983D02*
X024740Y012983D01*
X022537Y012983D02*
X019843Y012983D01*
X020032Y013062D02*
X022348Y013062D01*
X022267Y013140D02*
X020113Y013140D01*
X020191Y013219D02*
X022189Y013219D01*
X022089Y013297D02*
X020233Y013297D01*
X020266Y013376D02*
X021970Y013376D01*
X021892Y013454D02*
X020298Y013454D01*
X019537Y012983D02*
X018767Y012983D01*
X018846Y013062D02*
X019348Y013062D01*
X019267Y013140D02*
X018924Y013140D01*
X019003Y013219D02*
X019189Y013219D01*
X018241Y011806D02*
X017987Y011806D01*
X017950Y011727D02*
X018163Y011727D01*
X018084Y011649D02*
X017871Y011649D01*
X018383Y011099D02*
X019628Y011099D01*
X020195Y011178D02*
X020935Y011178D01*
X020818Y011099D02*
X020312Y011099D01*
X020382Y011021D02*
X020748Y011021D01*
X020701Y010942D02*
X020429Y010942D01*
X020460Y010864D02*
X020670Y010864D01*
X020654Y010785D02*
X020476Y010785D01*
X020472Y010628D02*
X020658Y010628D01*
X020679Y010550D02*
X020451Y010550D01*
X020416Y010471D02*
X020714Y010471D01*
X020768Y010393D02*
X020362Y010393D01*
X020279Y010314D02*
X020851Y010314D01*
X020650Y010760D02*
X020650Y010760D01*
X017238Y009529D02*
X009398Y009529D01*
X009477Y009608D02*
X010488Y009608D01*
X010410Y009686D02*
X009555Y009686D01*
X009634Y009765D02*
X010331Y009765D01*
X010253Y009843D02*
X009712Y009843D01*
X009791Y009922D02*
X010174Y009922D01*
X010096Y010000D02*
X009869Y010000D01*
X009948Y010079D02*
X010017Y010079D01*
X008050Y010785D02*
X007330Y010785D01*
X007511Y010864D02*
X007869Y010864D01*
X007790Y010942D02*
X007590Y010942D01*
X007665Y011021D02*
X007715Y011021D01*
X007050Y010785D02*
X006330Y010785D01*
X006511Y010864D02*
X006869Y010864D01*
X006790Y010942D02*
X006590Y010942D01*
X006665Y011021D02*
X006715Y011021D01*
X006050Y010785D02*
X005330Y010785D01*
X005511Y010864D02*
X005869Y010864D01*
X005790Y010942D02*
X005590Y010942D01*
X005665Y011021D02*
X005715Y011021D01*
X005050Y010785D02*
X004330Y010785D01*
X004511Y010864D02*
X004869Y010864D01*
X004790Y010942D02*
X004590Y010942D01*
X004665Y011021D02*
X004715Y011021D01*
X004050Y010785D02*
X003330Y010785D01*
X003511Y010864D02*
X003869Y010864D01*
X003790Y010942D02*
X003590Y010942D01*
X003665Y011021D02*
X003715Y011021D01*
X003050Y010785D02*
X002523Y010785D01*
X002511Y010864D02*
X002869Y010864D01*
X002790Y010942D02*
X002590Y010942D01*
X002665Y011021D02*
X002715Y011021D01*
X001691Y010079D02*
X001689Y010079D01*
X001648Y010000D02*
X001732Y010000D01*
X001811Y009922D02*
X001569Y009922D01*
X001470Y009843D02*
X001910Y009843D01*
X001940Y009137D02*
X000540Y009137D01*
X000540Y009215D02*
X005330Y009215D01*
X005330Y009137D02*
X003440Y009137D01*
X003575Y009058D02*
X005305Y009058D01*
X005227Y008980D02*
X003653Y008980D01*
X003717Y008901D02*
X005163Y008901D01*
X005130Y008823D02*
X003750Y008823D01*
X003782Y008744D02*
X005098Y008744D01*
X005080Y008666D02*
X003800Y008666D01*
X003800Y008587D02*
X005080Y008587D01*
X005080Y008509D02*
X003800Y008509D01*
X003788Y008430D02*
X005092Y008430D01*
X006075Y009058D02*
X006305Y009058D01*
X006227Y008980D02*
X006153Y008980D01*
X006050Y009137D02*
X006440Y009137D01*
X006241Y009372D02*
X016979Y009372D01*
X016901Y009294D02*
X006163Y009294D01*
X006084Y009215D02*
X016864Y009215D01*
X016831Y009137D02*
X007940Y009137D01*
X008075Y009058D02*
X016800Y009058D01*
X016800Y008980D02*
X008153Y008980D01*
X008217Y008901D02*
X016800Y008901D01*
X016800Y008823D02*
X008250Y008823D01*
X008282Y008744D02*
X016831Y008744D01*
X016863Y008666D02*
X008300Y008666D01*
X008300Y008587D02*
X016900Y008587D01*
X016979Y008509D02*
X008300Y008509D01*
X008288Y008430D02*
X017057Y008430D01*
X017237Y008352D02*
X008256Y008352D01*
X008089Y008116D02*
X017087Y008116D01*
X017010Y008038D02*
X008095Y008038D01*
X008174Y007959D02*
X016959Y007959D01*
X016926Y007881D02*
X008226Y007881D01*
X008258Y007802D02*
X016907Y007802D01*
X016900Y007760D02*
X016900Y007760D01*
X017541Y006546D02*
X019839Y006546D01*
X019650Y006468D02*
X017730Y006468D01*
X017824Y006389D02*
X019556Y006389D01*
X019478Y006311D02*
X017902Y006311D01*
X017949Y006232D02*
X019431Y006232D01*
X019398Y006154D02*
X017982Y006154D01*
X018014Y006075D02*
X019366Y006075D01*
X019360Y005997D02*
X018020Y005997D01*
X018020Y005918D02*
X019360Y005918D01*
X019360Y005840D02*
X018020Y005840D01*
X017996Y005761D02*
X019384Y005761D01*
X019416Y005683D02*
X017964Y005683D01*
X017931Y005604D02*
X019449Y005604D01*
X019522Y005526D02*
X017858Y005526D01*
X017780Y005447D02*
X019600Y005447D01*
X019756Y005369D02*
X017624Y005369D01*
X020101Y006546D02*
X021029Y006546D01*
X020840Y006468D02*
X020290Y006468D01*
X020384Y006389D02*
X020746Y006389D01*
X020668Y006311D02*
X020462Y006311D01*
X020509Y006232D02*
X020621Y006232D01*
X020588Y006154D02*
X020542Y006154D01*
X020556Y005761D02*
X020574Y005761D01*
X020606Y005683D02*
X020524Y005683D01*
X020491Y005604D02*
X020639Y005604D01*
X020712Y005526D02*
X020418Y005526D01*
X020340Y005447D02*
X020790Y005447D01*
X020946Y005369D02*
X020184Y005369D01*
X020010Y007253D02*
X019930Y007253D01*
X019930Y007331D02*
X020010Y007331D01*
X020010Y007410D02*
X019930Y007410D01*
X019930Y007488D02*
X020010Y007488D01*
X020010Y007567D02*
X019930Y007567D01*
X019930Y007645D02*
X020010Y007645D01*
X020010Y007881D02*
X019930Y007881D01*
X019930Y007959D02*
X020010Y007959D01*
X020010Y008038D02*
X019930Y008038D01*
X019930Y008116D02*
X020010Y008116D01*
X020010Y008195D02*
X019930Y008195D01*
X021483Y008116D02*
X023397Y008116D01*
X023320Y008038D02*
X021560Y008038D01*
X021611Y007959D02*
X023269Y007959D01*
X023236Y007881D02*
X021644Y007881D01*
X021663Y007802D02*
X023217Y007802D01*
X023210Y007760D02*
X023210Y007760D01*
X023216Y007645D02*
X021664Y007645D01*
X021670Y007680D02*
X021670Y007680D01*
X021646Y007567D02*
X023234Y007567D01*
X023266Y007488D02*
X021614Y007488D01*
X021565Y007410D02*
X023315Y007410D01*
X023388Y007331D02*
X021492Y007331D01*
X021366Y007253D02*
X023514Y007253D01*
X017058Y009451D02*
X006320Y009451D01*
X006940Y009137D02*
X007440Y009137D01*
X007305Y009058D02*
X007075Y009058D01*
X007153Y008980D02*
X007227Y008980D01*
X005537Y009686D02*
X000540Y009686D01*
X000540Y009608D02*
X005458Y009608D01*
X005383Y009529D02*
X000540Y009529D01*
X000540Y009451D02*
X005350Y009451D01*
X005330Y009372D02*
X000540Y009372D01*
X000540Y009294D02*
X005330Y009294D01*
X002940Y009137D02*
X002440Y009137D01*
X002575Y009058D02*
X002805Y009058D01*
X002727Y008980D02*
X002653Y008980D01*
X001805Y009058D02*
X001369Y009058D01*
X001230Y009058D02*
X001150Y009058D01*
X001150Y008980D02*
X001230Y008980D01*
X001230Y008901D02*
X001150Y008901D01*
X001150Y008823D02*
X001230Y008823D01*
X001230Y008744D02*
X001150Y008744D01*
X001150Y008666D02*
X001230Y008666D01*
X001150Y008587D02*
X000540Y008587D01*
X000540Y008509D02*
X000685Y008509D01*
X000702Y008430D02*
X000540Y008430D01*
X000540Y008352D02*
X000734Y008352D01*
X000783Y008273D02*
X000540Y008273D01*
X000540Y008195D02*
X000854Y008195D01*
X000977Y008116D02*
X000540Y008116D01*
X000540Y008038D02*
X000965Y008038D01*
X000848Y007959D02*
X000540Y007959D01*
X000540Y007881D02*
X000778Y007881D01*
X000731Y007802D02*
X000540Y007802D01*
X000540Y007724D02*
X000700Y007724D01*
X000684Y007645D02*
X000540Y007645D01*
X000540Y007567D02*
X001150Y007567D01*
X001150Y007645D02*
X001230Y007645D01*
X001230Y007724D02*
X001150Y007724D01*
X001150Y007802D02*
X001230Y007802D01*
X001230Y007881D02*
X001150Y007881D01*
X001150Y007959D02*
X001230Y007959D01*
X001230Y008038D02*
X001150Y008038D01*
X001150Y008116D02*
X001230Y008116D01*
X001230Y008195D02*
X001150Y008195D01*
X001150Y008273D02*
X001230Y008273D01*
X001230Y008352D02*
X001150Y008352D01*
X001150Y008430D02*
X001230Y008430D01*
X001230Y008509D02*
X001150Y008509D01*
X000680Y008620D02*
X000680Y008620D01*
X000687Y008666D02*
X000540Y008666D01*
X000540Y008744D02*
X000707Y008744D01*
X000741Y008823D02*
X000540Y008823D01*
X000540Y008901D02*
X000793Y008901D01*
X000872Y008980D02*
X000540Y008980D01*
X000540Y009058D02*
X001011Y009058D01*
X001230Y009090D02*
X001230Y009090D01*
X001508Y008980D02*
X001727Y008980D01*
X001663Y008901D02*
X001587Y008901D01*
X000680Y007620D02*
X000680Y007620D01*
X000688Y007488D02*
X000540Y007488D01*
X000540Y007410D02*
X000709Y007410D01*
X000744Y007331D02*
X000540Y007331D01*
X000540Y007253D02*
X000798Y007253D01*
X000881Y007174D02*
X000540Y007174D01*
X000540Y007096D02*
X001031Y007096D01*
X001150Y007096D02*
X001230Y007096D01*
X001230Y007174D02*
X001150Y007174D01*
X001150Y007253D02*
X001230Y007253D01*
X001230Y007331D02*
X001150Y007331D01*
X001150Y007410D02*
X001230Y007410D01*
X001230Y007488D02*
X001150Y007488D01*
X001150Y007017D02*
X001230Y007017D01*
X001230Y006939D02*
X001150Y006939D01*
X001150Y006860D02*
X001230Y006860D01*
X001230Y006782D02*
X001150Y006782D01*
X001150Y006703D02*
X001230Y006703D01*
X001230Y006625D02*
X001150Y006625D01*
X001150Y006546D02*
X000540Y006546D01*
X000540Y006468D02*
X000691Y006468D01*
X000716Y006389D02*
X000540Y006389D01*
X000540Y006311D02*
X000755Y006311D01*
X000817Y006232D02*
X000540Y006232D01*
X000540Y006154D02*
X000909Y006154D01*
X000896Y005997D02*
X000540Y005997D01*
X000540Y006075D02*
X001063Y006075D01*
X001150Y006075D02*
X001230Y006075D01*
X001230Y005997D02*
X001150Y005997D01*
X001150Y005918D02*
X001230Y005918D01*
X001230Y005840D02*
X001150Y005840D01*
X001150Y005761D02*
X001230Y005761D01*
X001230Y005683D02*
X001150Y005683D01*
X001150Y005604D02*
X000540Y005604D01*
X000540Y005526D02*
X000682Y005526D01*
X000697Y005447D02*
X000540Y005447D01*
X000540Y005369D02*
X000725Y005369D01*
X000770Y005290D02*
X000540Y005290D01*
X000540Y005212D02*
X000837Y005212D01*
X000944Y005133D02*
X000540Y005133D01*
X000540Y005055D02*
X001000Y005055D01*
X001150Y005055D02*
X001230Y005055D01*
X001230Y005133D02*
X001150Y005133D01*
X001150Y005212D02*
X001230Y005212D01*
X001230Y005290D02*
X001150Y005290D01*
X001150Y005369D02*
X001230Y005369D01*
X001230Y005447D02*
X001150Y005447D01*
X001150Y005526D02*
X001230Y005526D01*
X000680Y005620D02*
X000680Y005620D01*
X000690Y005683D02*
X000540Y005683D01*
X000540Y005761D02*
X000713Y005761D01*
X000750Y005840D02*
X000540Y005840D01*
X000540Y005918D02*
X000807Y005918D01*
X001150Y006154D02*
X001230Y006154D01*
X001230Y006232D02*
X001150Y006232D01*
X001150Y006311D02*
X001230Y006311D01*
X001230Y006389D02*
X001150Y006389D01*
X001150Y006468D02*
X001230Y006468D01*
X000680Y006620D02*
X000680Y006620D01*
X000681Y006625D02*
X000540Y006625D01*
X000540Y006703D02*
X000694Y006703D01*
X000720Y006782D02*
X000540Y006782D01*
X000540Y006860D02*
X000763Y006860D01*
X000827Y006939D02*
X000540Y006939D01*
X000540Y007017D02*
X000924Y007017D01*
X000867Y004976D02*
X000540Y004976D01*
X000540Y004898D02*
X000790Y004898D01*
X000739Y004819D02*
X000540Y004819D01*
X000540Y004741D02*
X000706Y004741D01*
X000687Y004662D02*
X000540Y004662D01*
X000540Y004584D02*
X001150Y004584D01*
X001150Y004662D02*
X001230Y004662D01*
X001230Y004741D02*
X001150Y004741D01*
X001150Y004819D02*
X001230Y004819D01*
X001230Y004898D02*
X001150Y004898D01*
X001150Y004976D02*
X001230Y004976D01*
X001230Y004505D02*
X001150Y004505D01*
X001150Y004427D02*
X001230Y004427D01*
X001230Y004348D02*
X001150Y004348D01*
X001150Y004270D02*
X001230Y004270D01*
X001230Y004191D02*
X001150Y004191D01*
X001150Y004113D02*
X001230Y004113D01*
X001230Y004034D02*
X001150Y004034D01*
X001150Y003956D02*
X001230Y003956D01*
X001230Y003877D02*
X001150Y003877D01*
X001150Y003799D02*
X001230Y003799D01*
X001230Y003720D02*
X001150Y003720D01*
X001150Y003642D02*
X001230Y003642D01*
X001150Y003563D02*
X000540Y003563D01*
X000540Y003485D02*
X000689Y003485D01*
X000693Y003461D02*
X000680Y003540D01*
X000680Y003540D01*
X001150Y003540D01*
X001150Y003070D01*
X001150Y003070D01*
X001071Y003083D01*
X000994Y003107D01*
X000923Y003144D01*
X000858Y003191D01*
X000801Y003248D01*
X000754Y003313D01*
X000717Y003384D01*
X000693Y003461D01*
X000710Y003406D02*
X000540Y003406D01*
X000540Y003328D02*
X000746Y003328D01*
X000800Y003249D02*
X000540Y003249D01*
X000540Y003171D02*
X000886Y003171D01*
X001041Y003092D02*
X000540Y003092D01*
X000540Y003014D02*
X001964Y003014D01*
X001815Y003092D02*
X001339Y003092D01*
X001230Y003092D02*
X001150Y003092D01*
X001150Y003171D02*
X001230Y003171D01*
X001230Y003249D02*
X001150Y003249D01*
X001150Y003328D02*
X001230Y003328D01*
X001230Y003406D02*
X001150Y003406D01*
X001150Y003485D02*
X001230Y003485D01*
X001634Y003328D02*
X001634Y003328D01*
X001667Y003249D02*
X001580Y003249D01*
X001494Y003171D02*
X001737Y003171D01*
X002416Y003014D02*
X002964Y003014D01*
X002815Y003092D02*
X002565Y003092D01*
X002643Y003171D02*
X002737Y003171D01*
X003416Y003014D02*
X005464Y003014D01*
X005315Y003092D02*
X003565Y003092D01*
X003643Y003171D02*
X005237Y003171D01*
X005167Y003249D02*
X003713Y003249D01*
X003746Y003328D02*
X005134Y003328D01*
X005102Y003406D02*
X003778Y003406D01*
X003800Y003485D02*
X005080Y003485D01*
X005080Y003563D02*
X003800Y003563D01*
X003800Y003642D02*
X005080Y003642D01*
X005088Y003720D02*
X003792Y003720D01*
X005394Y002464D02*
X000540Y002464D01*
X000540Y002386D02*
X005205Y002386D01*
X005102Y002307D02*
X000540Y002307D01*
X000540Y002229D02*
X005023Y002229D01*
X004945Y002150D02*
X000540Y002150D01*
X000540Y002072D02*
X004887Y002072D01*
X004855Y001993D02*
X000540Y001993D01*
X000540Y001915D02*
X004822Y001915D01*
X004790Y001836D02*
X000540Y001836D01*
X000540Y001758D02*
X004760Y001758D01*
X004760Y001679D02*
X000540Y001679D01*
X000540Y001601D02*
X004760Y001601D01*
X004760Y001522D02*
X000540Y001522D01*
X000540Y001444D02*
X004760Y001444D01*
X004773Y001365D02*
X000540Y001365D01*
X000540Y001287D02*
X004805Y001287D01*
X004838Y001208D02*
X000540Y001208D01*
X000540Y001130D02*
X004870Y001130D01*
X004904Y001051D02*
X000540Y001051D01*
X000540Y000973D02*
X004982Y000973D01*
X006398Y000973D02*
X010832Y000973D01*
X010753Y001051D02*
X006476Y001051D01*
X006510Y001130D02*
X010695Y001130D01*
X010662Y001208D02*
X006542Y001208D01*
X006575Y001287D02*
X010630Y001287D01*
X010623Y001365D02*
X006607Y001365D01*
X006620Y001444D02*
X010623Y001444D01*
X010623Y001522D02*
X006620Y001522D01*
X006620Y001601D02*
X010623Y001601D01*
X010623Y001679D02*
X006620Y001679D01*
X006620Y001758D02*
X010623Y001758D01*
X010623Y001836D02*
X006590Y001836D01*
X006558Y001915D02*
X010647Y001915D01*
X010679Y001993D02*
X006525Y001993D01*
X006493Y002072D02*
X010716Y002072D01*
X010686Y002150D02*
X006435Y002150D01*
X006357Y002229D02*
X010654Y002229D01*
X010623Y002307D02*
X006278Y002307D01*
X006175Y002386D02*
X010623Y002386D01*
X010623Y002464D02*
X005986Y002464D01*
X006140Y002621D02*
X000540Y002621D01*
X000540Y002543D02*
X006218Y002543D01*
X006061Y002700D02*
X000540Y002700D01*
X000540Y002778D02*
X005983Y002778D01*
X005904Y002857D02*
X000540Y002857D01*
X000540Y002935D02*
X005826Y002935D01*
X008099Y004034D02*
X009885Y004034D01*
X009963Y004113D02*
X008085Y004113D01*
X008177Y003956D02*
X009806Y003956D01*
X009728Y003877D02*
X008227Y003877D01*
X008260Y003799D02*
X009649Y003799D01*
X009571Y003720D02*
X008292Y003720D01*
X010412Y002543D02*
X010623Y002543D01*
X010623Y002621D02*
X010490Y002621D01*
X010569Y002700D02*
X010623Y002700D01*
X015498Y000930D02*
X015511Y000935D01*
X015671Y001095D01*
X015745Y001274D01*
X015757Y001237D01*
X015790Y001171D01*
X015834Y001112D01*
X015886Y001060D01*
X015945Y001017D01*
X016011Y000983D01*
X016081Y000961D01*
X016150Y000950D01*
X016150Y001540D01*
X016230Y001540D01*
X016230Y001620D01*
X016150Y001620D01*
X016150Y002540D01*
X016230Y002540D01*
X016230Y002620D01*
X016150Y002620D01*
X016150Y003210D01*
X016081Y003199D01*
X016011Y003177D01*
X015945Y003143D01*
X015886Y003100D01*
X015834Y003048D01*
X015790Y002989D01*
X015757Y002923D01*
X015745Y002886D01*
X015671Y003065D01*
X015550Y003186D01*
X015550Y003470D01*
X022541Y003470D01*
X022827Y003183D01*
X022709Y003065D01*
X022690Y003019D01*
X022671Y003065D01*
X022511Y003225D01*
X022303Y003311D01*
X022077Y003311D01*
X021869Y003225D01*
X021709Y003065D01*
X021690Y003019D01*
X021671Y003065D01*
X021511Y003225D01*
X021303Y003311D01*
X021077Y003311D01*
X020869Y003225D01*
X020709Y003065D01*
X020690Y003019D01*
X020671Y003065D01*
X020511Y003225D01*
X020303Y003311D01*
X020077Y003311D01*
X019869Y003225D01*
X019709Y003065D01*
X019623Y002857D01*
X019623Y002303D01*
X019709Y002095D01*
X019724Y002080D01*
X019709Y002065D01*
X019623Y001857D01*
X019623Y001303D01*
X019709Y001095D01*
X019869Y000935D01*
X019882Y000930D01*
X018498Y000930D01*
X018511Y000935D01*
X018671Y001095D01*
X018757Y001303D01*
X018757Y001857D01*
X018671Y002065D01*
X018656Y002080D01*
X018671Y002095D01*
X018757Y002303D01*
X018757Y002857D01*
X018671Y003065D01*
X018511Y003225D01*
X018303Y003311D01*
X018077Y003311D01*
X017869Y003225D01*
X017709Y003065D01*
X017635Y002886D01*
X017623Y002923D01*
X017590Y002989D01*
X017546Y003048D01*
X017494Y003100D01*
X017435Y003143D01*
X017369Y003177D01*
X017299Y003199D01*
X017230Y003210D01*
X017230Y002620D01*
X017150Y002620D01*
X017150Y003210D01*
X017081Y003199D01*
X017011Y003177D01*
X016945Y003143D01*
X016886Y003100D01*
X016834Y003048D01*
X016790Y002989D01*
X016757Y002923D01*
X016734Y002853D01*
X016723Y002780D01*
X016723Y002620D01*
X017150Y002620D01*
X017150Y002540D01*
X017230Y002540D01*
X017230Y002210D01*
X017230Y001620D01*
X017150Y001620D01*
X017150Y002540D01*
X016723Y002540D01*
X016723Y002380D01*
X016734Y002307D01*
X016646Y002307D01*
X016657Y002380D01*
X016657Y002540D01*
X016230Y002540D01*
X016230Y001950D01*
X016230Y001620D01*
X016657Y001620D01*
X016657Y001780D01*
X016646Y001853D01*
X016623Y001923D01*
X016590Y001989D01*
X016546Y002048D01*
X016515Y002080D01*
X016546Y002112D01*
X016590Y002171D01*
X016623Y002237D01*
X016646Y002307D01*
X016657Y002386D02*
X016723Y002386D01*
X016723Y002464D02*
X016657Y002464D01*
X016657Y002620D02*
X016230Y002620D01*
X016230Y003210D01*
X016299Y003199D01*
X016369Y003177D01*
X016435Y003143D01*
X016494Y003100D01*
X016546Y003048D01*
X016590Y002989D01*
X016623Y002923D01*
X016646Y002853D01*
X016657Y002780D01*
X016657Y002620D01*
X016657Y002621D02*
X016723Y002621D01*
X016723Y002700D02*
X016657Y002700D01*
X016657Y002778D02*
X016723Y002778D01*
X016735Y002857D02*
X016645Y002857D01*
X016617Y002935D02*
X016763Y002935D01*
X016808Y003014D02*
X016572Y003014D01*
X016503Y003092D02*
X016877Y003092D01*
X016998Y003171D02*
X016382Y003171D01*
X016230Y003171D02*
X016150Y003171D01*
X016150Y003092D02*
X016230Y003092D01*
X016230Y003014D02*
X016150Y003014D01*
X016150Y002935D02*
X016230Y002935D01*
X016230Y002857D02*
X016150Y002857D01*
X016150Y002778D02*
X016230Y002778D01*
X016230Y002700D02*
X016150Y002700D01*
X016150Y002621D02*
X016230Y002621D01*
X016230Y002543D02*
X017150Y002543D01*
X017150Y002621D02*
X017230Y002621D01*
X017230Y002700D02*
X017150Y002700D01*
X017150Y002778D02*
X017230Y002778D01*
X017230Y002857D02*
X017150Y002857D01*
X017150Y002935D02*
X017230Y002935D01*
X017230Y003014D02*
X017150Y003014D01*
X017150Y003092D02*
X017230Y003092D01*
X017230Y003171D02*
X017150Y003171D01*
X017382Y003171D02*
X017815Y003171D01*
X017736Y003092D02*
X017503Y003092D01*
X017572Y003014D02*
X017688Y003014D01*
X017655Y002935D02*
X017617Y002935D01*
X017928Y003249D02*
X015550Y003249D01*
X015550Y003328D02*
X022683Y003328D01*
X022605Y003406D02*
X015550Y003406D01*
X015565Y003171D02*
X015998Y003171D01*
X015877Y003092D02*
X015644Y003092D01*
X015692Y003014D02*
X015808Y003014D01*
X015763Y002935D02*
X015725Y002935D01*
X016150Y002464D02*
X016230Y002464D01*
X016230Y002386D02*
X016150Y002386D01*
X016150Y002307D02*
X016230Y002307D01*
X016230Y002229D02*
X016150Y002229D01*
X016150Y002150D02*
X016230Y002150D01*
X016230Y002072D02*
X016150Y002072D01*
X016150Y001993D02*
X016230Y001993D01*
X016230Y001915D02*
X016150Y001915D01*
X016150Y001836D02*
X016230Y001836D01*
X016230Y001758D02*
X016150Y001758D01*
X016150Y001679D02*
X016230Y001679D01*
X016230Y001601D02*
X017150Y001601D01*
X017150Y001620D02*
X017150Y001540D01*
X017230Y001540D01*
X017230Y000950D01*
X017299Y000961D01*
X017369Y000983D01*
X017435Y001017D01*
X017494Y001060D01*
X017546Y001112D01*
X017590Y001171D01*
X017623Y001237D01*
X017635Y001274D01*
X017709Y001095D01*
X017869Y000935D01*
X017882Y000930D01*
X015498Y000930D01*
X015548Y000973D02*
X016044Y000973D01*
X016150Y000973D02*
X016230Y000973D01*
X016230Y000950D02*
X016299Y000961D01*
X016369Y000983D01*
X016435Y001017D01*
X016494Y001060D01*
X016546Y001112D01*
X016590Y001171D01*
X016623Y001237D01*
X016646Y001307D01*
X016657Y001380D01*
X016657Y001540D01*
X016230Y001540D01*
X016230Y000950D01*
X016230Y001051D02*
X016150Y001051D01*
X016150Y001130D02*
X016230Y001130D01*
X016230Y001208D02*
X016150Y001208D01*
X016150Y001287D02*
X016230Y001287D01*
X016230Y001365D02*
X016150Y001365D01*
X016150Y001444D02*
X016230Y001444D01*
X016230Y001522D02*
X016150Y001522D01*
X016657Y001522D02*
X016723Y001522D01*
X016723Y001540D02*
X016723Y001380D01*
X016734Y001307D01*
X016757Y001237D01*
X016790Y001171D01*
X016834Y001112D01*
X016886Y001060D01*
X016945Y001017D01*
X017011Y000983D01*
X017081Y000961D01*
X017150Y000950D01*
X017150Y001540D01*
X016723Y001540D01*
X016723Y001620D02*
X017150Y001620D01*
X017150Y001679D02*
X017230Y001679D01*
X017230Y001758D02*
X017150Y001758D01*
X017150Y001836D02*
X017230Y001836D01*
X017230Y001915D02*
X017150Y001915D01*
X017150Y001993D02*
X017230Y001993D01*
X017230Y002072D02*
X017150Y002072D01*
X017150Y002150D02*
X017230Y002150D01*
X017230Y002229D02*
X017150Y002229D01*
X017150Y002307D02*
X017230Y002307D01*
X017230Y002386D02*
X017150Y002386D01*
X017150Y002464D02*
X017230Y002464D01*
X016734Y002307D02*
X016757Y002237D01*
X016790Y002171D01*
X016834Y002112D01*
X016865Y002080D01*
X016834Y002048D01*
X016790Y001989D01*
X016757Y001923D01*
X016734Y001853D01*
X016723Y001780D01*
X016723Y001620D01*
X016723Y001679D02*
X016657Y001679D01*
X016657Y001758D02*
X016723Y001758D01*
X016731Y001836D02*
X016649Y001836D01*
X016626Y001915D02*
X016754Y001915D01*
X016794Y001993D02*
X016586Y001993D01*
X016523Y002072D02*
X016857Y002072D01*
X016806Y002150D02*
X016574Y002150D01*
X016619Y002229D02*
X016761Y002229D01*
X017150Y001522D02*
X017230Y001522D01*
X017230Y001444D02*
X017150Y001444D01*
X017150Y001365D02*
X017230Y001365D01*
X017230Y001287D02*
X017150Y001287D01*
X017150Y001208D02*
X017230Y001208D01*
X017230Y001130D02*
X017150Y001130D01*
X017150Y001051D02*
X017230Y001051D01*
X017230Y000973D02*
X017150Y000973D01*
X017044Y000973D02*
X016336Y000973D01*
X016482Y001051D02*
X016898Y001051D01*
X016821Y001130D02*
X016559Y001130D01*
X016608Y001208D02*
X016772Y001208D01*
X016741Y001287D02*
X016639Y001287D01*
X016655Y001365D02*
X016725Y001365D01*
X016723Y001444D02*
X016657Y001444D01*
X017336Y000973D02*
X017832Y000973D01*
X017753Y001051D02*
X017482Y001051D01*
X017559Y001130D02*
X017695Y001130D01*
X017662Y001208D02*
X017608Y001208D01*
X018548Y000973D02*
X019832Y000973D01*
X019753Y001051D02*
X018627Y001051D01*
X018685Y001130D02*
X019695Y001130D01*
X019662Y001208D02*
X018718Y001208D01*
X018750Y001287D02*
X019630Y001287D01*
X019623Y001365D02*
X018757Y001365D01*
X018757Y001444D02*
X019623Y001444D01*
X019623Y001522D02*
X018757Y001522D01*
X018757Y001601D02*
X019623Y001601D01*
X019623Y001679D02*
X018757Y001679D01*
X018757Y001758D02*
X019623Y001758D01*
X019623Y001836D02*
X018757Y001836D01*
X018733Y001915D02*
X019647Y001915D01*
X019679Y001993D02*
X018701Y001993D01*
X018664Y002072D02*
X019716Y002072D01*
X019686Y002150D02*
X018694Y002150D01*
X018726Y002229D02*
X019654Y002229D01*
X019623Y002307D02*
X018757Y002307D01*
X018757Y002386D02*
X019623Y002386D01*
X019623Y002464D02*
X018757Y002464D01*
X018757Y002543D02*
X019623Y002543D01*
X019623Y002621D02*
X018757Y002621D01*
X018757Y002700D02*
X019623Y002700D01*
X019623Y002778D02*
X018757Y002778D01*
X018757Y002857D02*
X019623Y002857D01*
X019655Y002935D02*
X018725Y002935D01*
X018692Y003014D02*
X019688Y003014D01*
X019736Y003092D02*
X018644Y003092D01*
X018565Y003171D02*
X019815Y003171D01*
X019928Y003249D02*
X018452Y003249D01*
X020452Y003249D02*
X020928Y003249D01*
X020815Y003171D02*
X020565Y003171D01*
X020644Y003092D02*
X020736Y003092D01*
X021452Y003249D02*
X021928Y003249D01*
X021815Y003171D02*
X021565Y003171D01*
X021644Y003092D02*
X021736Y003092D01*
X022452Y003249D02*
X022762Y003249D01*
X022815Y003171D02*
X022565Y003171D01*
X022644Y003092D02*
X022736Y003092D01*
X015898Y001051D02*
X015627Y001051D01*
X015685Y001130D02*
X015821Y001130D01*
X015772Y001208D02*
X015718Y001208D01*
X000984Y004113D02*
X000540Y004113D01*
X000540Y004191D02*
X000858Y004191D01*
X000785Y004270D02*
X000540Y004270D01*
X000540Y004348D02*
X000736Y004348D01*
X000704Y004427D02*
X000540Y004427D01*
X000540Y004505D02*
X000686Y004505D01*
X000680Y004620D02*
X000680Y004620D01*
X000540Y004034D02*
X000958Y004034D01*
X000844Y003956D02*
X000540Y003956D01*
X000540Y003877D02*
X000775Y003877D01*
X000729Y003799D02*
X000540Y003799D01*
X000540Y003720D02*
X000699Y003720D01*
X000683Y003642D02*
X000540Y003642D01*
X000680Y003620D02*
X000680Y003620D01*
X014997Y015574D02*
X015834Y015574D01*
X015755Y015652D02*
X015124Y015652D01*
X015157Y015731D02*
X015677Y015731D01*
X015642Y015809D02*
X015157Y015809D01*
X015157Y015888D02*
X015609Y015888D01*
X015580Y015966D02*
X015157Y015966D01*
X014720Y015966D02*
X014640Y015966D01*
X014640Y015888D02*
X014720Y015888D01*
X014720Y015809D02*
X014640Y015809D01*
X014640Y015731D02*
X014720Y015731D01*
X014720Y016202D02*
X014640Y016202D01*
X014640Y016280D02*
X014720Y016280D01*
X014720Y016359D02*
X014640Y016359D01*
X014640Y016437D02*
X014720Y016437D01*
X014720Y016516D02*
X014640Y016516D01*
X013413Y016594D02*
X012947Y016594D01*
X013061Y016516D02*
X013299Y016516D01*
X013221Y016437D02*
X013139Y016437D01*
X004510Y020912D02*
X004430Y020912D01*
X004430Y020990D02*
X004510Y020990D01*
X004510Y021069D02*
X004430Y021069D01*
X004430Y021147D02*
X004510Y021147D01*
X004224Y019499D02*
X002156Y019499D01*
X002293Y019420D02*
X004087Y019420D01*
X004009Y019342D02*
X002371Y019342D01*
X002436Y019263D02*
X003944Y019263D01*
X003936Y018635D02*
X002444Y018635D01*
X002389Y018557D02*
X003991Y018557D01*
X004069Y018478D02*
X002311Y018478D01*
X002199Y018400D02*
X004181Y018400D01*
X001621Y018400D02*
X000540Y018400D01*
X000540Y018478D02*
X001509Y018478D01*
X001431Y018557D02*
X000540Y018557D01*
X000540Y018635D02*
X001376Y018635D01*
X001344Y018714D02*
X000540Y018714D01*
X000540Y018792D02*
X001311Y018792D01*
X001300Y018871D02*
X000540Y018871D01*
X000540Y018949D02*
X001300Y018949D01*
X001300Y019028D02*
X000540Y019028D01*
X000540Y019106D02*
X001319Y019106D01*
X001351Y019185D02*
X000540Y019185D01*
X000540Y019263D02*
X001384Y019263D01*
X001449Y019342D02*
X000540Y019342D01*
X000540Y019420D02*
X001527Y019420D01*
X001664Y019499D02*
X000540Y019499D01*
D12*
X005560Y020580D02*
X005562Y020630D01*
X005568Y020680D01*
X005578Y020729D01*
X005592Y020777D01*
X005609Y020824D01*
X005630Y020869D01*
X005655Y020913D01*
X005683Y020954D01*
X005715Y020993D01*
X005749Y021030D01*
X005786Y021064D01*
X005826Y021094D01*
X005868Y021121D01*
X005912Y021145D01*
X005958Y021166D01*
X006005Y021182D01*
X006053Y021195D01*
X006103Y021204D01*
X006152Y021209D01*
X006203Y021210D01*
X006253Y021207D01*
X006302Y021200D01*
X006351Y021189D01*
X006399Y021174D01*
X006445Y021156D01*
X006490Y021134D01*
X006533Y021108D01*
X006574Y021079D01*
X006613Y021047D01*
X006649Y021012D01*
X006681Y020974D01*
X006711Y020934D01*
X006738Y020891D01*
X006761Y020847D01*
X006780Y020801D01*
X006796Y020753D01*
X006808Y020704D01*
X006816Y020655D01*
X006820Y020605D01*
X006820Y020555D01*
X006816Y020505D01*
X006808Y020456D01*
X006796Y020407D01*
X006780Y020359D01*
X006761Y020313D01*
X006738Y020269D01*
X006711Y020226D01*
X006681Y020186D01*
X006649Y020148D01*
X006613Y020113D01*
X006574Y020081D01*
X006533Y020052D01*
X006490Y020026D01*
X006445Y020004D01*
X006399Y019986D01*
X006351Y019971D01*
X006302Y019960D01*
X006253Y019953D01*
X006203Y019950D01*
X006152Y019951D01*
X006103Y019956D01*
X006053Y019965D01*
X006005Y019978D01*
X005958Y019994D01*
X005912Y020015D01*
X005868Y020039D01*
X005826Y020066D01*
X005786Y020096D01*
X005749Y020130D01*
X005715Y020167D01*
X005683Y020206D01*
X005655Y020247D01*
X005630Y020291D01*
X005609Y020336D01*
X005592Y020383D01*
X005578Y020431D01*
X005568Y020480D01*
X005562Y020530D01*
X005560Y020580D01*
X025560Y014580D02*
X025562Y014630D01*
X025568Y014680D01*
X025578Y014729D01*
X025592Y014777D01*
X025609Y014824D01*
X025630Y014869D01*
X025655Y014913D01*
X025683Y014954D01*
X025715Y014993D01*
X025749Y015030D01*
X025786Y015064D01*
X025826Y015094D01*
X025868Y015121D01*
X025912Y015145D01*
X025958Y015166D01*
X026005Y015182D01*
X026053Y015195D01*
X026103Y015204D01*
X026152Y015209D01*
X026203Y015210D01*
X026253Y015207D01*
X026302Y015200D01*
X026351Y015189D01*
X026399Y015174D01*
X026445Y015156D01*
X026490Y015134D01*
X026533Y015108D01*
X026574Y015079D01*
X026613Y015047D01*
X026649Y015012D01*
X026681Y014974D01*
X026711Y014934D01*
X026738Y014891D01*
X026761Y014847D01*
X026780Y014801D01*
X026796Y014753D01*
X026808Y014704D01*
X026816Y014655D01*
X026820Y014605D01*
X026820Y014555D01*
X026816Y014505D01*
X026808Y014456D01*
X026796Y014407D01*
X026780Y014359D01*
X026761Y014313D01*
X026738Y014269D01*
X026711Y014226D01*
X026681Y014186D01*
X026649Y014148D01*
X026613Y014113D01*
X026574Y014081D01*
X026533Y014052D01*
X026490Y014026D01*
X026445Y014004D01*
X026399Y013986D01*
X026351Y013971D01*
X026302Y013960D01*
X026253Y013953D01*
X026203Y013950D01*
X026152Y013951D01*
X026103Y013956D01*
X026053Y013965D01*
X026005Y013978D01*
X025958Y013994D01*
X025912Y014015D01*
X025868Y014039D01*
X025826Y014066D01*
X025786Y014096D01*
X025749Y014130D01*
X025715Y014167D01*
X025683Y014206D01*
X025655Y014247D01*
X025630Y014291D01*
X025609Y014336D01*
X025592Y014383D01*
X025578Y014431D01*
X025568Y014480D01*
X025562Y014530D01*
X025560Y014580D01*
X025560Y003580D02*
X025562Y003630D01*
X025568Y003680D01*
X025578Y003729D01*
X025592Y003777D01*
X025609Y003824D01*
X025630Y003869D01*
X025655Y003913D01*
X025683Y003954D01*
X025715Y003993D01*
X025749Y004030D01*
X025786Y004064D01*
X025826Y004094D01*
X025868Y004121D01*
X025912Y004145D01*
X025958Y004166D01*
X026005Y004182D01*
X026053Y004195D01*
X026103Y004204D01*
X026152Y004209D01*
X026203Y004210D01*
X026253Y004207D01*
X026302Y004200D01*
X026351Y004189D01*
X026399Y004174D01*
X026445Y004156D01*
X026490Y004134D01*
X026533Y004108D01*
X026574Y004079D01*
X026613Y004047D01*
X026649Y004012D01*
X026681Y003974D01*
X026711Y003934D01*
X026738Y003891D01*
X026761Y003847D01*
X026780Y003801D01*
X026796Y003753D01*
X026808Y003704D01*
X026816Y003655D01*
X026820Y003605D01*
X026820Y003555D01*
X026816Y003505D01*
X026808Y003456D01*
X026796Y003407D01*
X026780Y003359D01*
X026761Y003313D01*
X026738Y003269D01*
X026711Y003226D01*
X026681Y003186D01*
X026649Y003148D01*
X026613Y003113D01*
X026574Y003081D01*
X026533Y003052D01*
X026490Y003026D01*
X026445Y003004D01*
X026399Y002986D01*
X026351Y002971D01*
X026302Y002960D01*
X026253Y002953D01*
X026203Y002950D01*
X026152Y002951D01*
X026103Y002956D01*
X026053Y002965D01*
X026005Y002978D01*
X025958Y002994D01*
X025912Y003015D01*
X025868Y003039D01*
X025826Y003066D01*
X025786Y003096D01*
X025749Y003130D01*
X025715Y003167D01*
X025683Y003206D01*
X025655Y003247D01*
X025630Y003291D01*
X025609Y003336D01*
X025592Y003383D01*
X025578Y003431D01*
X025568Y003480D01*
X025562Y003530D01*
X025560Y003580D01*
X005060Y001580D02*
X005062Y001630D01*
X005068Y001680D01*
X005078Y001729D01*
X005092Y001777D01*
X005109Y001824D01*
X005130Y001869D01*
X005155Y001913D01*
X005183Y001954D01*
X005215Y001993D01*
X005249Y002030D01*
X005286Y002064D01*
X005326Y002094D01*
X005368Y002121D01*
X005412Y002145D01*
X005458Y002166D01*
X005505Y002182D01*
X005553Y002195D01*
X005603Y002204D01*
X005652Y002209D01*
X005703Y002210D01*
X005753Y002207D01*
X005802Y002200D01*
X005851Y002189D01*
X005899Y002174D01*
X005945Y002156D01*
X005990Y002134D01*
X006033Y002108D01*
X006074Y002079D01*
X006113Y002047D01*
X006149Y002012D01*
X006181Y001974D01*
X006211Y001934D01*
X006238Y001891D01*
X006261Y001847D01*
X006280Y001801D01*
X006296Y001753D01*
X006308Y001704D01*
X006316Y001655D01*
X006320Y001605D01*
X006320Y001555D01*
X006316Y001505D01*
X006308Y001456D01*
X006296Y001407D01*
X006280Y001359D01*
X006261Y001313D01*
X006238Y001269D01*
X006211Y001226D01*
X006181Y001186D01*
X006149Y001148D01*
X006113Y001113D01*
X006074Y001081D01*
X006033Y001052D01*
X005990Y001026D01*
X005945Y001004D01*
X005899Y000986D01*
X005851Y000971D01*
X005802Y000960D01*
X005753Y000953D01*
X005703Y000950D01*
X005652Y000951D01*
X005603Y000956D01*
X005553Y000965D01*
X005505Y000978D01*
X005458Y000994D01*
X005412Y001015D01*
X005368Y001039D01*
X005326Y001066D01*
X005286Y001096D01*
X005249Y001130D01*
X005215Y001167D01*
X005183Y001206D01*
X005155Y001247D01*
X005130Y001291D01*
X005109Y001336D01*
X005092Y001383D01*
X005078Y001431D01*
X005068Y001480D01*
X005062Y001530D01*
X005060Y001580D01*
D13*
X025240Y010580D03*
X026240Y010580D03*
X026240Y011580D03*
X025240Y011580D03*
X025240Y012580D03*
X026240Y012580D03*
D14*
X025190Y019416D02*
X025190Y019744D01*
X024190Y019744D02*
X024190Y019416D01*
X023190Y019416D02*
X023190Y019744D01*
X022190Y019744D02*
X022190Y019416D01*
X021190Y019416D02*
X021190Y019744D01*
X020190Y019744D02*
X020190Y019416D01*
X019190Y019416D02*
X019190Y019744D01*
X019190Y020416D02*
X019190Y020744D01*
X018190Y020744D02*
X018190Y020416D01*
X018190Y019744D02*
X018190Y019416D01*
X016590Y019416D02*
X016590Y019744D01*
X015590Y019744D02*
X015590Y019416D01*
X014590Y019416D02*
X014590Y019744D01*
X013590Y019744D02*
X013590Y019416D01*
X012590Y019416D02*
X012590Y019744D01*
X012590Y020416D02*
X012590Y020744D01*
X011590Y020744D02*
X011590Y020416D01*
X010590Y020416D02*
X010590Y020744D01*
X009590Y020744D02*
X009590Y020416D01*
X008590Y020416D02*
X008590Y020744D01*
X007590Y020744D02*
X007590Y020416D01*
X007590Y019744D02*
X007590Y019416D01*
X008590Y019416D02*
X008590Y019744D01*
X009590Y019744D02*
X009590Y019416D01*
X010590Y019416D02*
X010590Y019744D01*
X011590Y019744D02*
X011590Y019416D01*
X013590Y020416D02*
X013590Y020744D01*
X014590Y020744D02*
X014590Y020416D01*
X015590Y020416D02*
X015590Y020744D01*
X016590Y020744D02*
X016590Y020416D01*
X020190Y020416D02*
X020190Y020744D01*
X021190Y020744D02*
X021190Y020416D01*
X022190Y020416D02*
X022190Y020744D01*
X023190Y020744D02*
X023190Y020416D01*
X024190Y020416D02*
X024190Y020744D01*
X025190Y020744D02*
X025190Y020416D01*
X025190Y002744D02*
X025190Y002416D01*
X024190Y002416D02*
X024190Y002744D01*
X023190Y002744D02*
X023190Y002416D01*
X022190Y002416D02*
X022190Y002744D01*
X021190Y002744D02*
X021190Y002416D01*
X020190Y002416D02*
X020190Y002744D01*
X020190Y001744D02*
X020190Y001416D01*
X021190Y001416D02*
X021190Y001744D01*
X022190Y001744D02*
X022190Y001416D01*
X023190Y001416D02*
X023190Y001744D01*
X024190Y001744D02*
X024190Y001416D01*
X025190Y001416D02*
X025190Y001744D01*
X018190Y001744D02*
X018190Y001416D01*
X017190Y001416D02*
X017190Y001744D01*
X017190Y002416D02*
X017190Y002744D01*
X018190Y002744D02*
X018190Y002416D01*
X016190Y002416D02*
X016190Y002744D01*
X015190Y002744D02*
X015190Y002416D01*
X015190Y001744D02*
X015190Y001416D01*
X016190Y001416D02*
X016190Y001744D01*
X014190Y001744D02*
X014190Y001416D01*
X013190Y001416D02*
X013190Y001744D01*
X013190Y002416D02*
X013190Y002744D01*
X014190Y002744D02*
X014190Y002416D01*
X012190Y002416D02*
X012190Y002744D01*
X011190Y002744D02*
X011190Y002416D01*
X011190Y001744D02*
X011190Y001416D01*
X012190Y001416D02*
X012190Y001744D01*
D15*
X014680Y016080D03*
D16*
X013680Y016080D03*
X012680Y016080D03*
X011680Y016080D03*
X011680Y015080D03*
X012680Y015080D03*
X013680Y015080D03*
X014680Y015080D03*
D17*
X016190Y016080D03*
X017440Y016080D03*
X019690Y014580D03*
X019690Y013580D03*
X017440Y012080D03*
X016190Y012080D03*
X017410Y010720D03*
X019970Y010720D03*
X021160Y010720D03*
X023720Y010720D03*
X023720Y008940D03*
X023720Y007720D03*
X021160Y007720D03*
X019970Y007720D03*
X019970Y008940D03*
X021160Y008940D03*
X017410Y008940D03*
X017410Y007720D03*
X017410Y005940D03*
X019970Y005940D03*
X021160Y005940D03*
X023720Y005940D03*
X022690Y013580D03*
X022690Y014580D03*
X007690Y008580D03*
X006690Y008580D03*
X005690Y008580D03*
X005690Y007580D03*
X006690Y007580D03*
X007690Y007580D03*
X007690Y006580D03*
X006690Y006580D03*
X005690Y006580D03*
X005690Y005580D03*
X006690Y005580D03*
X007690Y005580D03*
X007690Y004580D03*
X006690Y004580D03*
X005690Y004580D03*
X005690Y003580D03*
X006690Y003580D03*
X007690Y003580D03*
X003190Y003580D03*
X002190Y003580D03*
X001190Y003580D03*
X001190Y004580D03*
X002190Y004580D03*
X003190Y004580D03*
X003190Y005580D03*
X002190Y005580D03*
X001190Y005580D03*
X001190Y006580D03*
X002190Y006580D03*
X003190Y006580D03*
X003190Y007580D03*
X002190Y007580D03*
X001190Y007580D03*
X001190Y008580D03*
X002190Y008580D03*
X003190Y008580D03*
X001910Y018940D03*
X004470Y018940D03*
X004470Y020720D03*
X001910Y020720D03*
D18*
X007690Y017830D03*
D19*
X007690Y016830D03*
D20*
X009690Y016830D01*
X009690Y010330D01*
X009190Y009830D01*
X006190Y009830D01*
X005690Y009330D01*
X005690Y008580D01*
X010190Y003830D02*
X009690Y003330D01*
X007940Y003330D01*
X007690Y003580D01*
X006440Y002830D02*
X010190Y002830D01*
X010690Y003330D01*
X013940Y003330D01*
X014190Y003080D01*
X014190Y002580D01*
X015190Y002580D02*
X015190Y003830D01*
X010190Y003830D01*
X006440Y002830D02*
X005690Y003580D01*
X015190Y003830D02*
X022690Y003830D01*
X023190Y003330D01*
X024190Y003330D01*
X026840Y005680D01*
X026840Y012180D01*
X026440Y012580D01*
X026240Y012580D01*
D21*
X025690Y012080D02*
X024690Y012080D01*
X024440Y012330D01*
X024440Y015830D01*
X023940Y016330D01*
X019190Y016330D01*
X017190Y014330D01*
X012940Y014330D01*
X012690Y014580D01*
X012690Y015070D01*
X012680Y015080D01*
X012190Y015590D02*
X012680Y016080D01*
X012190Y015590D02*
X012190Y011830D01*
X012690Y011330D01*
X018190Y011330D01*
X018440Y011580D01*
X025190Y011580D01*
X025690Y012080D02*
X026190Y011580D01*
X026240Y011580D01*
X025190Y012580D02*
X025190Y016680D01*
X024790Y017080D01*
X011940Y017080D01*
X011690Y016830D01*
X011690Y016080D01*
X010940Y015730D02*
X010940Y017830D01*
X011440Y018330D01*
X021940Y018330D01*
X023190Y019580D01*
X021440Y015580D02*
X019440Y015580D01*
X016190Y012330D01*
X016190Y012080D01*
X017440Y012080D02*
X018940Y013580D01*
X019690Y013580D01*
X021690Y014080D02*
X021690Y015330D01*
X021440Y015580D01*
X021690Y014080D02*
X022190Y013580D01*
X022690Y013580D01*
X025190Y010580D02*
X025190Y009830D01*
X025190Y006080D01*
X023690Y004580D01*
X023690Y004080D01*
X025190Y009830D02*
X010690Y009830D01*
X010190Y010330D01*
X010190Y018080D01*
X009690Y018580D01*
X004940Y018580D01*
X004440Y018910D01*
X004470Y018940D02*
X001910Y018940D01*
X010940Y015730D02*
X011590Y015080D01*
X013690Y017580D02*
X015440Y017580D01*
X025190Y010580D02*
X025240Y010580D01*
X006690Y008580D02*
X006190Y008080D01*
X002690Y008080D01*
X002190Y008580D01*
X002190Y007580D02*
X002690Y007080D01*
X006190Y007080D01*
X006690Y007580D01*
X006690Y006580D02*
X006190Y006080D01*
X002690Y006080D01*
X002190Y006580D01*
X002190Y005580D02*
X002690Y005080D01*
X006190Y005080D01*
X006690Y005580D01*
X006690Y004580D02*
X006190Y004080D01*
X002690Y004080D01*
X002190Y004580D01*
D22*
X023690Y004080D03*
X015440Y017580D03*
X013690Y017580D03*
D23*
X008190Y015330D03*
X007190Y015330D03*
X006190Y015330D03*
X005190Y015330D03*
X004190Y015330D03*
X003190Y015330D03*
X002190Y015330D03*
X001190Y015330D03*
X001190Y014330D03*
X002190Y014330D03*
X003190Y014330D03*
X004190Y014330D03*
X005190Y014330D03*
X006190Y014330D03*
X007190Y014330D03*
X008190Y014330D03*
X008190Y013330D03*
X007190Y013330D03*
X006190Y013330D03*
X005190Y013330D03*
X004190Y013330D03*
X003190Y013330D03*
X002190Y013330D03*
X001190Y013330D03*
X001190Y012330D03*
X002190Y012330D03*
X003190Y012330D03*
X004190Y012330D03*
X005190Y012330D03*
X006190Y012330D03*
X007190Y012330D03*
X008190Y012330D03*
X008190Y011330D03*
X007190Y011330D03*
X006190Y011330D03*
X005190Y011330D03*
X004190Y011330D03*
X003190Y011330D03*
X002190Y011330D03*
X001190Y011330D03*
X001190Y010330D03*
X002190Y010330D03*
X002190Y016330D03*
X001190Y016330D03*
X001190Y017330D03*
X002190Y017330D03*
X003190Y017330D03*
X004190Y017330D03*
X005190Y017330D03*
X005190Y016330D03*
X004190Y016330D03*
X003190Y016330D03*
M02*
