G75*
G70*
%OFA0B0*%
%FSLAX24Y24*%
%IPPOS*%
%LPD*%
%AMOC8*
5,1,8,0,0,1.08239X$1,22.5*
%
%ADD10C,0.0100*%
%ADD11C,0.0000*%
%ADD12OC8,0.0610*%
%ADD13C,0.0560*%
%ADD14R,0.0554X0.0554*%
%ADD15C,0.0554*%
%ADD16C,0.0740*%
%ADD17OC8,0.0520*%
%ADD18C,0.0520*%
%ADD19C,0.0200*%
%ADD20C,0.0240*%
%ADD21C,0.0080*%
%ADD22C,0.0160*%
%ADD23C,0.0120*%
%ADD24C,0.0516*%
%ADD25C,0.0634*%
D10*
X000584Y000580D02*
X025796Y000580D01*
X025835Y000582D01*
X025873Y000588D01*
X025910Y000597D01*
X025947Y000610D01*
X025982Y000627D01*
X026015Y000646D01*
X026046Y000669D01*
X026075Y000695D01*
X026101Y000724D01*
X026124Y000755D01*
X026143Y000788D01*
X026160Y000823D01*
X026173Y000860D01*
X026182Y000897D01*
X026188Y000935D01*
X026190Y000974D01*
X026190Y001580D01*
X027190Y002580D01*
X027190Y015480D01*
X026190Y016480D01*
X026190Y020980D01*
X025590Y021580D01*
X000584Y021580D01*
X000545Y021578D01*
X000507Y021572D01*
X000470Y021563D01*
X000433Y021550D01*
X000398Y021533D01*
X000365Y021514D01*
X000334Y021491D01*
X000305Y021465D01*
X000279Y021436D01*
X000256Y021405D01*
X000237Y021372D01*
X000220Y021337D01*
X000207Y021300D01*
X000198Y021263D01*
X000192Y021225D01*
X000190Y021186D01*
X000190Y000974D01*
X000192Y000935D01*
X000198Y000897D01*
X000207Y000860D01*
X000220Y000823D01*
X000237Y000788D01*
X000256Y000755D01*
X000279Y000724D01*
X000305Y000695D01*
X000334Y000669D01*
X000365Y000646D01*
X000398Y000627D01*
X000433Y000610D01*
X000470Y000597D01*
X000507Y000588D01*
X000545Y000582D01*
X000584Y000580D01*
X013190Y001580D02*
X013190Y002580D01*
X013690Y015080D02*
X013680Y015080D01*
X012690Y015080D02*
X012680Y015080D01*
X011690Y016080D02*
X011680Y016080D01*
X011690Y016080D02*
X012590Y016980D01*
X011190Y015830D02*
X011190Y019180D01*
X013190Y019180D02*
X013590Y019580D01*
X007590Y019580D02*
X007590Y020580D01*
X017440Y016080D02*
X017490Y016080D01*
D11*
X025560Y014580D02*
X025562Y014630D01*
X025568Y014680D01*
X025578Y014729D01*
X025592Y014777D01*
X025609Y014824D01*
X025630Y014869D01*
X025655Y014913D01*
X025683Y014954D01*
X025715Y014993D01*
X025749Y015030D01*
X025786Y015064D01*
X025826Y015094D01*
X025868Y015121D01*
X025912Y015145D01*
X025958Y015166D01*
X026005Y015182D01*
X026053Y015195D01*
X026103Y015204D01*
X026152Y015209D01*
X026203Y015210D01*
X026253Y015207D01*
X026302Y015200D01*
X026351Y015189D01*
X026399Y015174D01*
X026445Y015156D01*
X026490Y015134D01*
X026533Y015108D01*
X026574Y015079D01*
X026613Y015047D01*
X026649Y015012D01*
X026681Y014974D01*
X026711Y014934D01*
X026738Y014891D01*
X026761Y014847D01*
X026780Y014801D01*
X026796Y014753D01*
X026808Y014704D01*
X026816Y014655D01*
X026820Y014605D01*
X026820Y014555D01*
X026816Y014505D01*
X026808Y014456D01*
X026796Y014407D01*
X026780Y014359D01*
X026761Y014313D01*
X026738Y014269D01*
X026711Y014226D01*
X026681Y014186D01*
X026649Y014148D01*
X026613Y014113D01*
X026574Y014081D01*
X026533Y014052D01*
X026490Y014026D01*
X026445Y014004D01*
X026399Y013986D01*
X026351Y013971D01*
X026302Y013960D01*
X026253Y013953D01*
X026203Y013950D01*
X026152Y013951D01*
X026103Y013956D01*
X026053Y013965D01*
X026005Y013978D01*
X025958Y013994D01*
X025912Y014015D01*
X025868Y014039D01*
X025826Y014066D01*
X025786Y014096D01*
X025749Y014130D01*
X025715Y014167D01*
X025683Y014206D01*
X025655Y014247D01*
X025630Y014291D01*
X025609Y014336D01*
X025592Y014383D01*
X025578Y014431D01*
X025568Y014480D01*
X025562Y014530D01*
X025560Y014580D01*
X005560Y020580D02*
X005562Y020630D01*
X005568Y020680D01*
X005578Y020729D01*
X005592Y020777D01*
X005609Y020824D01*
X005630Y020869D01*
X005655Y020913D01*
X005683Y020954D01*
X005715Y020993D01*
X005749Y021030D01*
X005786Y021064D01*
X005826Y021094D01*
X005868Y021121D01*
X005912Y021145D01*
X005958Y021166D01*
X006005Y021182D01*
X006053Y021195D01*
X006103Y021204D01*
X006152Y021209D01*
X006203Y021210D01*
X006253Y021207D01*
X006302Y021200D01*
X006351Y021189D01*
X006399Y021174D01*
X006445Y021156D01*
X006490Y021134D01*
X006533Y021108D01*
X006574Y021079D01*
X006613Y021047D01*
X006649Y021012D01*
X006681Y020974D01*
X006711Y020934D01*
X006738Y020891D01*
X006761Y020847D01*
X006780Y020801D01*
X006796Y020753D01*
X006808Y020704D01*
X006816Y020655D01*
X006820Y020605D01*
X006820Y020555D01*
X006816Y020505D01*
X006808Y020456D01*
X006796Y020407D01*
X006780Y020359D01*
X006761Y020313D01*
X006738Y020269D01*
X006711Y020226D01*
X006681Y020186D01*
X006649Y020148D01*
X006613Y020113D01*
X006574Y020081D01*
X006533Y020052D01*
X006490Y020026D01*
X006445Y020004D01*
X006399Y019986D01*
X006351Y019971D01*
X006302Y019960D01*
X006253Y019953D01*
X006203Y019950D01*
X006152Y019951D01*
X006103Y019956D01*
X006053Y019965D01*
X006005Y019978D01*
X005958Y019994D01*
X005912Y020015D01*
X005868Y020039D01*
X005826Y020066D01*
X005786Y020096D01*
X005749Y020130D01*
X005715Y020167D01*
X005683Y020206D01*
X005655Y020247D01*
X005630Y020291D01*
X005609Y020336D01*
X005592Y020383D01*
X005578Y020431D01*
X005568Y020480D01*
X005562Y020530D01*
X005560Y020580D01*
X025560Y003580D02*
X025562Y003630D01*
X025568Y003680D01*
X025578Y003729D01*
X025592Y003777D01*
X025609Y003824D01*
X025630Y003869D01*
X025655Y003913D01*
X025683Y003954D01*
X025715Y003993D01*
X025749Y004030D01*
X025786Y004064D01*
X025826Y004094D01*
X025868Y004121D01*
X025912Y004145D01*
X025958Y004166D01*
X026005Y004182D01*
X026053Y004195D01*
X026103Y004204D01*
X026152Y004209D01*
X026203Y004210D01*
X026253Y004207D01*
X026302Y004200D01*
X026351Y004189D01*
X026399Y004174D01*
X026445Y004156D01*
X026490Y004134D01*
X026533Y004108D01*
X026574Y004079D01*
X026613Y004047D01*
X026649Y004012D01*
X026681Y003974D01*
X026711Y003934D01*
X026738Y003891D01*
X026761Y003847D01*
X026780Y003801D01*
X026796Y003753D01*
X026808Y003704D01*
X026816Y003655D01*
X026820Y003605D01*
X026820Y003555D01*
X026816Y003505D01*
X026808Y003456D01*
X026796Y003407D01*
X026780Y003359D01*
X026761Y003313D01*
X026738Y003269D01*
X026711Y003226D01*
X026681Y003186D01*
X026649Y003148D01*
X026613Y003113D01*
X026574Y003081D01*
X026533Y003052D01*
X026490Y003026D01*
X026445Y003004D01*
X026399Y002986D01*
X026351Y002971D01*
X026302Y002960D01*
X026253Y002953D01*
X026203Y002950D01*
X026152Y002951D01*
X026103Y002956D01*
X026053Y002965D01*
X026005Y002978D01*
X025958Y002994D01*
X025912Y003015D01*
X025868Y003039D01*
X025826Y003066D01*
X025786Y003096D01*
X025749Y003130D01*
X025715Y003167D01*
X025683Y003206D01*
X025655Y003247D01*
X025630Y003291D01*
X025609Y003336D01*
X025592Y003383D01*
X025578Y003431D01*
X025568Y003480D01*
X025562Y003530D01*
X025560Y003580D01*
X005060Y001580D02*
X005062Y001630D01*
X005068Y001680D01*
X005078Y001729D01*
X005092Y001777D01*
X005109Y001824D01*
X005130Y001869D01*
X005155Y001913D01*
X005183Y001954D01*
X005215Y001993D01*
X005249Y002030D01*
X005286Y002064D01*
X005326Y002094D01*
X005368Y002121D01*
X005412Y002145D01*
X005458Y002166D01*
X005505Y002182D01*
X005553Y002195D01*
X005603Y002204D01*
X005652Y002209D01*
X005703Y002210D01*
X005753Y002207D01*
X005802Y002200D01*
X005851Y002189D01*
X005899Y002174D01*
X005945Y002156D01*
X005990Y002134D01*
X006033Y002108D01*
X006074Y002079D01*
X006113Y002047D01*
X006149Y002012D01*
X006181Y001974D01*
X006211Y001934D01*
X006238Y001891D01*
X006261Y001847D01*
X006280Y001801D01*
X006296Y001753D01*
X006308Y001704D01*
X006316Y001655D01*
X006320Y001605D01*
X006320Y001555D01*
X006316Y001505D01*
X006308Y001456D01*
X006296Y001407D01*
X006280Y001359D01*
X006261Y001313D01*
X006238Y001269D01*
X006211Y001226D01*
X006181Y001186D01*
X006149Y001148D01*
X006113Y001113D01*
X006074Y001081D01*
X006033Y001052D01*
X005990Y001026D01*
X005945Y001004D01*
X005899Y000986D01*
X005851Y000971D01*
X005802Y000960D01*
X005753Y000953D01*
X005703Y000950D01*
X005652Y000951D01*
X005603Y000956D01*
X005553Y000965D01*
X005505Y000978D01*
X005458Y000994D01*
X005412Y001015D01*
X005368Y001039D01*
X005326Y001066D01*
X005286Y001096D01*
X005249Y001130D01*
X005215Y001167D01*
X005183Y001206D01*
X005155Y001247D01*
X005130Y001291D01*
X005109Y001336D01*
X005092Y001383D01*
X005078Y001431D01*
X005068Y001480D01*
X005062Y001530D01*
X005060Y001580D01*
D12*
X025240Y010580D03*
X026240Y010580D03*
X026240Y011580D03*
X025240Y011580D03*
X025240Y012580D03*
X026240Y012580D03*
D13*
X025190Y019440D02*
X025190Y019720D01*
X024190Y019720D02*
X024190Y019440D01*
X023190Y019440D02*
X023190Y019720D01*
X022190Y019720D02*
X022190Y019440D01*
X021190Y019440D02*
X021190Y019720D01*
X020190Y019720D02*
X020190Y019440D01*
X019190Y019440D02*
X019190Y019720D01*
X018190Y019720D02*
X018190Y019440D01*
X016590Y019440D02*
X016590Y019720D01*
X015590Y019720D02*
X015590Y019440D01*
X014590Y019440D02*
X014590Y019720D01*
X013590Y019720D02*
X013590Y019440D01*
X012590Y019440D02*
X012590Y019720D01*
X011590Y019720D02*
X011590Y019440D01*
X010590Y019440D02*
X010590Y019720D01*
X009590Y019720D02*
X009590Y019440D01*
X008590Y019440D02*
X008590Y019720D01*
X007590Y019720D02*
X007590Y019440D01*
X007590Y020440D02*
X007590Y020720D01*
X008590Y020720D02*
X008590Y020440D01*
X009590Y020440D02*
X009590Y020720D01*
X010590Y020720D02*
X010590Y020440D01*
X011590Y020440D02*
X011590Y020720D01*
X012590Y020720D02*
X012590Y020440D01*
X013590Y020440D02*
X013590Y020720D01*
X014590Y020720D02*
X014590Y020440D01*
X015590Y020440D02*
X015590Y020720D01*
X016590Y020720D02*
X016590Y020440D01*
X018190Y020440D02*
X018190Y020720D01*
X019190Y020720D02*
X019190Y020440D01*
X020190Y020440D02*
X020190Y020720D01*
X021190Y020720D02*
X021190Y020440D01*
X022190Y020440D02*
X022190Y020720D01*
X023190Y020720D02*
X023190Y020440D01*
X024190Y020440D02*
X024190Y020720D01*
X025190Y020720D02*
X025190Y020440D01*
X025190Y002720D02*
X025190Y002440D01*
X024190Y002440D02*
X024190Y002720D01*
X023190Y002720D02*
X023190Y002440D01*
X022190Y002440D02*
X022190Y002720D01*
X021190Y002720D02*
X021190Y002440D01*
X020190Y002440D02*
X020190Y002720D01*
X020190Y001720D02*
X020190Y001440D01*
X021190Y001440D02*
X021190Y001720D01*
X022190Y001720D02*
X022190Y001440D01*
X023190Y001440D02*
X023190Y001720D01*
X024190Y001720D02*
X024190Y001440D01*
X025190Y001440D02*
X025190Y001720D01*
X018190Y001720D02*
X018190Y001440D01*
X017190Y001440D02*
X017190Y001720D01*
X016190Y001720D02*
X016190Y001440D01*
X015190Y001440D02*
X015190Y001720D01*
X014190Y001720D02*
X014190Y001440D01*
X013190Y001440D02*
X013190Y001720D01*
X012190Y001720D02*
X012190Y001440D01*
X011190Y001440D02*
X011190Y001720D01*
X011190Y002440D02*
X011190Y002720D01*
X012190Y002720D02*
X012190Y002440D01*
X013190Y002440D02*
X013190Y002720D01*
X014190Y002720D02*
X014190Y002440D01*
X015190Y002440D02*
X015190Y002720D01*
X016190Y002720D02*
X016190Y002440D01*
X017190Y002440D02*
X017190Y002720D01*
X018190Y002720D02*
X018190Y002440D01*
D14*
X014680Y016080D03*
D15*
X013680Y016080D03*
X012680Y016080D03*
X011680Y016080D03*
X011680Y015080D03*
X012680Y015080D03*
X013680Y015080D03*
X014680Y015080D03*
D16*
X016190Y016080D03*
X017440Y016080D03*
X019690Y014580D03*
X019690Y013580D03*
X017440Y012080D03*
X016190Y012080D03*
X017410Y010720D03*
X019970Y010720D03*
X021160Y010720D03*
X023720Y010720D03*
X023720Y008940D03*
X023720Y007720D03*
X021160Y007720D03*
X019970Y007720D03*
X019970Y008940D03*
X021160Y008940D03*
X017410Y008940D03*
X017410Y007720D03*
X017410Y005940D03*
X019970Y005940D03*
X021160Y005940D03*
X023720Y005940D03*
X022690Y013580D03*
X022690Y014580D03*
X007690Y008580D03*
X006690Y008580D03*
X005690Y008580D03*
X005690Y007580D03*
X006690Y007580D03*
X007690Y007580D03*
X007690Y006580D03*
X006690Y006580D03*
X005690Y006580D03*
X005690Y005580D03*
X006690Y005580D03*
X007690Y005580D03*
X007690Y004580D03*
X006690Y004580D03*
X005690Y004580D03*
X005690Y003580D03*
X006690Y003580D03*
X007690Y003580D03*
X003190Y003580D03*
X002190Y003580D03*
X001190Y003580D03*
X001190Y004580D03*
X002190Y004580D03*
X003190Y004580D03*
X003190Y005580D03*
X002190Y005580D03*
X001190Y005580D03*
X001190Y006580D03*
X002190Y006580D03*
X003190Y006580D03*
X003190Y007580D03*
X002190Y007580D03*
X001190Y007580D03*
X001190Y008580D03*
X002190Y008580D03*
X003190Y008580D03*
X001910Y018940D03*
X004470Y018940D03*
X004470Y020720D03*
X001910Y020720D03*
D17*
X007690Y017830D03*
D18*
X007690Y016830D03*
D19*
X007690Y008580D02*
X007690Y007580D01*
X007690Y006580D01*
X007690Y005580D01*
X007690Y004580D01*
X007690Y003580D01*
D20*
X005690Y003580D02*
X005690Y004580D01*
X005690Y005580D01*
X005690Y006580D01*
X005690Y007580D01*
X005690Y008580D01*
X010690Y014080D02*
X010690Y016830D01*
X007690Y016830D01*
X010690Y014080D02*
X014190Y014080D01*
X014680Y014570D01*
X014680Y015080D01*
X014190Y002680D02*
X014190Y002580D01*
X014190Y001580D01*
X015190Y001580D02*
X015190Y002580D01*
X018190Y002580D02*
X018190Y001580D01*
D21*
X017670Y001601D02*
X017230Y001601D01*
X017230Y001620D02*
X017610Y001620D01*
X017610Y001753D01*
X017600Y001818D01*
X017579Y001881D01*
X017549Y001940D01*
X017510Y001994D01*
X017464Y002040D01*
X017410Y002079D01*
X017409Y002080D01*
X017410Y002081D01*
X017464Y002120D01*
X017510Y002166D01*
X017549Y002220D01*
X017579Y002279D01*
X017600Y002342D01*
X017610Y002407D01*
X017610Y002540D01*
X017230Y002540D01*
X017230Y002620D01*
X017150Y002620D01*
X017150Y003139D01*
X017092Y003130D01*
X017029Y003109D01*
X016970Y003079D01*
X016916Y003040D01*
X016870Y002994D01*
X016831Y002940D01*
X016801Y002881D01*
X016780Y002818D01*
X016770Y002753D01*
X016770Y002620D01*
X017150Y002620D01*
X017150Y002540D01*
X017230Y002540D01*
X017230Y002139D01*
X017230Y001620D01*
X017150Y001620D01*
X017150Y002540D01*
X016770Y002540D01*
X016770Y002407D01*
X016780Y002342D01*
X016801Y002279D01*
X016831Y002220D01*
X016870Y002166D01*
X016916Y002120D01*
X016970Y002081D01*
X016971Y002080D01*
X016970Y002079D01*
X016916Y002040D01*
X016870Y001994D01*
X016831Y001940D01*
X016801Y001881D01*
X016780Y001818D01*
X016770Y001753D01*
X016770Y001620D01*
X017150Y001620D01*
X017150Y001540D01*
X016770Y001540D01*
X016770Y001407D01*
X016780Y001342D01*
X016801Y001279D01*
X016831Y001220D01*
X016870Y001166D01*
X016906Y001130D01*
X016474Y001130D01*
X016510Y001166D01*
X016549Y001220D01*
X016579Y001279D01*
X016600Y001342D01*
X016610Y001407D01*
X016610Y001540D01*
X016230Y001540D01*
X016230Y001620D01*
X016610Y001620D01*
X016610Y001753D01*
X016600Y001818D01*
X016579Y001881D01*
X016549Y001940D01*
X016510Y001994D01*
X016464Y002040D01*
X016410Y002079D01*
X016409Y002080D01*
X016410Y002081D01*
X016464Y002120D01*
X016510Y002166D01*
X016549Y002220D01*
X016579Y002279D01*
X016600Y002342D01*
X016610Y002407D01*
X016610Y002540D01*
X016230Y002540D01*
X016230Y002620D01*
X016150Y002620D01*
X016150Y003139D01*
X016092Y003130D01*
X016029Y003109D01*
X015970Y003079D01*
X015916Y003040D01*
X015870Y002994D01*
X015831Y002940D01*
X015801Y002881D01*
X015780Y002818D01*
X015770Y002753D01*
X015770Y002620D01*
X016150Y002620D01*
X016150Y002540D01*
X015770Y002540D01*
X015770Y002407D01*
X015780Y002342D01*
X015801Y002279D01*
X015831Y002220D01*
X015870Y002166D01*
X015916Y002120D01*
X015970Y002081D01*
X015971Y002080D01*
X015970Y002079D01*
X015916Y002040D01*
X015870Y001994D01*
X015831Y001940D01*
X015801Y001881D01*
X015780Y001818D01*
X015770Y001753D01*
X015770Y001620D01*
X016150Y001620D01*
X016150Y002540D01*
X016230Y002540D01*
X016230Y002139D01*
X016230Y001620D01*
X016150Y001620D01*
X016150Y001540D01*
X015770Y001540D01*
X015770Y001407D01*
X015780Y001342D01*
X015801Y001279D01*
X015831Y001220D01*
X015870Y001166D01*
X015906Y001130D01*
X015615Y001130D01*
X015631Y001145D01*
X015710Y001337D01*
X015710Y001823D01*
X015631Y002015D01*
X015565Y002080D01*
X015631Y002145D01*
X015710Y002337D01*
X015710Y002823D01*
X015631Y003015D01*
X015485Y003161D01*
X015293Y003240D01*
X015087Y003240D01*
X014895Y003161D01*
X014749Y003015D01*
X014690Y002872D01*
X014631Y003015D01*
X014485Y003161D01*
X014293Y003240D01*
X014087Y003240D01*
X013895Y003161D01*
X013749Y003015D01*
X013690Y002872D01*
X013631Y003015D01*
X013485Y003161D01*
X013293Y003240D01*
X013087Y003240D01*
X012895Y003161D01*
X012749Y003015D01*
X012690Y002872D01*
X012631Y003015D01*
X012485Y003161D01*
X012293Y003240D01*
X012087Y003240D01*
X011895Y003161D01*
X011749Y003015D01*
X011690Y002872D01*
X011631Y003015D01*
X011485Y003161D01*
X011293Y003240D01*
X011087Y003240D01*
X010895Y003161D01*
X010749Y003015D01*
X010670Y002823D01*
X010670Y002337D01*
X010749Y002145D01*
X010815Y002080D01*
X010749Y002015D01*
X010670Y001823D01*
X010670Y001337D01*
X010749Y001145D01*
X010895Y000999D01*
X011062Y000930D01*
X006355Y000930D01*
X006478Y001053D01*
X006620Y001395D01*
X006620Y001765D01*
X006478Y002107D01*
X006217Y002368D01*
X005875Y002510D01*
X005505Y002510D01*
X005163Y002368D01*
X004902Y002107D01*
X004760Y001765D01*
X004760Y001395D01*
X004902Y001053D01*
X005025Y000930D01*
X000584Y000930D01*
X000575Y000931D01*
X000559Y000937D01*
X000547Y000949D01*
X000541Y000965D01*
X000540Y000974D01*
X000540Y021186D01*
X000541Y021195D01*
X000547Y021211D01*
X000559Y021223D01*
X000575Y021229D01*
X000584Y021230D01*
X005525Y021230D01*
X005402Y021107D01*
X005260Y020765D01*
X005260Y020395D01*
X005402Y020053D01*
X005663Y019792D01*
X006005Y019650D01*
X006375Y019650D01*
X006717Y019792D01*
X006978Y020053D01*
X007083Y020306D01*
X007149Y020145D01*
X007215Y020080D01*
X007149Y020015D01*
X007070Y019823D01*
X007070Y019337D01*
X007149Y019145D01*
X007295Y018999D01*
X007487Y018920D01*
X007693Y018920D01*
X007885Y018999D01*
X008031Y019145D01*
X008090Y019288D01*
X008149Y019145D01*
X008295Y018999D01*
X008487Y018920D01*
X008693Y018920D01*
X008885Y018999D01*
X009031Y019145D01*
X009090Y019288D01*
X009149Y019145D01*
X009295Y018999D01*
X009487Y018920D01*
X009693Y018920D01*
X009885Y018999D01*
X010031Y019145D01*
X010110Y019337D01*
X010110Y019823D01*
X010031Y020015D01*
X009965Y020080D01*
X010031Y020145D01*
X010110Y020337D01*
X010110Y020823D01*
X010031Y021015D01*
X009885Y021161D01*
X009718Y021230D01*
X011462Y021230D01*
X011295Y021161D01*
X011149Y021015D01*
X011070Y020823D01*
X011070Y020337D01*
X011149Y020145D01*
X011215Y020080D01*
X011149Y020015D01*
X011070Y019823D01*
X011070Y019484D01*
X011010Y019424D01*
X011010Y019540D01*
X010630Y019540D01*
X010630Y019620D01*
X010550Y019620D01*
X010550Y020021D01*
X010550Y020540D01*
X010630Y020540D01*
X010630Y020620D01*
X010550Y020620D01*
X010550Y021139D01*
X010492Y021130D01*
X010429Y021109D01*
X010370Y021079D01*
X010316Y021040D01*
X010270Y020994D01*
X010231Y020940D01*
X010201Y020881D01*
X010180Y020818D01*
X010170Y020753D01*
X010170Y020620D01*
X010550Y020620D01*
X010550Y020540D01*
X010170Y020540D01*
X010170Y020407D01*
X010180Y020342D01*
X010201Y020279D01*
X010231Y020220D01*
X010270Y020166D01*
X010316Y020120D01*
X010370Y020081D01*
X010371Y020080D01*
X010370Y020079D01*
X010316Y020040D01*
X010270Y019994D01*
X010231Y019940D01*
X010201Y019881D01*
X010180Y019818D01*
X010170Y019753D01*
X010170Y019620D01*
X010550Y019620D01*
X010550Y019540D01*
X010630Y019540D01*
X010630Y019021D01*
X010688Y019030D01*
X010751Y019051D01*
X010810Y019081D01*
X010864Y019120D01*
X010890Y019146D01*
X010890Y019120D01*
X010900Y019096D01*
X010900Y017129D01*
X010894Y017135D01*
X010762Y017190D01*
X008037Y017190D01*
X007973Y017254D01*
X007789Y017330D01*
X007591Y017330D01*
X007407Y017254D01*
X007266Y017113D01*
X007190Y016929D01*
X007190Y016731D01*
X007266Y016547D01*
X007407Y016406D01*
X007591Y016330D01*
X007789Y016330D01*
X007973Y016406D01*
X008037Y016470D01*
X010330Y016470D01*
X010330Y014008D01*
X010385Y013876D01*
X010486Y013775D01*
X010618Y013720D01*
X014262Y013720D01*
X014394Y013775D01*
X014495Y013876D01*
X014985Y014366D01*
X015040Y014498D01*
X015040Y014709D01*
X015118Y014787D01*
X015197Y014977D01*
X015197Y015183D01*
X015118Y015373D01*
X014973Y015518D01*
X014783Y015597D01*
X014577Y015597D01*
X014490Y015561D01*
X014490Y015663D01*
X014640Y015663D01*
X014640Y016040D01*
X014720Y016040D01*
X014720Y016120D01*
X014640Y016120D01*
X014640Y016497D01*
X014490Y016497D01*
X014490Y018920D01*
X014693Y018920D01*
X014885Y018999D01*
X015031Y019145D01*
X015090Y019288D01*
X015140Y019168D01*
X015140Y017984D01*
X015018Y017862D01*
X014942Y017679D01*
X014942Y017481D01*
X015018Y017298D01*
X015158Y017158D01*
X015341Y017082D01*
X015539Y017082D01*
X015722Y017158D01*
X015862Y017298D01*
X015890Y017365D01*
X015890Y016616D01*
X015844Y016597D01*
X015673Y016426D01*
X015580Y016201D01*
X015580Y015959D01*
X015673Y015734D01*
X015844Y015563D01*
X016069Y015470D01*
X016311Y015470D01*
X016536Y015563D01*
X016707Y015734D01*
X016800Y015959D01*
X016800Y016201D01*
X016707Y016426D01*
X016536Y016597D01*
X016490Y016616D01*
X016490Y018920D01*
X016693Y018920D01*
X016885Y018999D01*
X017031Y019145D01*
X017110Y019337D01*
X017110Y019823D01*
X017031Y020015D01*
X016965Y020080D01*
X017031Y020145D01*
X017110Y020337D01*
X017110Y020823D01*
X017031Y021015D01*
X016885Y021161D01*
X016718Y021230D01*
X018062Y021230D01*
X017895Y021161D01*
X017749Y021015D01*
X017670Y020823D01*
X017670Y020337D01*
X017749Y020145D01*
X017815Y020080D01*
X017749Y020015D01*
X017670Y019823D01*
X017670Y019484D01*
X017320Y019134D01*
X017236Y019050D01*
X017190Y018940D01*
X017190Y016637D01*
X017094Y016597D01*
X016923Y016426D01*
X016830Y016201D01*
X016830Y015959D01*
X016923Y015734D01*
X017094Y015563D01*
X017319Y015470D01*
X017561Y015470D01*
X017786Y015563D01*
X017957Y015734D01*
X018050Y015959D01*
X018050Y016201D01*
X017957Y016426D01*
X017790Y016593D01*
X017790Y018756D01*
X017993Y018959D01*
X018087Y018920D01*
X018293Y018920D01*
X018485Y018999D01*
X018631Y019145D01*
X018690Y019288D01*
X018749Y019145D01*
X018890Y019005D01*
X018890Y016204D01*
X018520Y015834D01*
X018436Y015750D01*
X018390Y015640D01*
X018390Y009240D01*
X017946Y009240D01*
X017927Y009286D01*
X017756Y009457D01*
X017531Y009550D01*
X017289Y009550D01*
X017064Y009457D01*
X016990Y009383D01*
X016990Y010140D01*
X016944Y010250D01*
X016694Y010500D01*
X016610Y010584D01*
X016500Y010630D01*
X003630Y010630D01*
X003520Y010584D01*
X003020Y010084D01*
X002936Y010000D01*
X002648Y010000D01*
X002662Y010014D02*
X002747Y010219D01*
X002747Y010441D01*
X002662Y010646D01*
X002506Y010802D01*
X002439Y010830D01*
X002506Y010858D01*
X002662Y011014D01*
X002690Y011081D01*
X002718Y011014D01*
X002874Y010858D01*
X003079Y010773D01*
X003301Y010773D01*
X003506Y010858D01*
X003662Y011014D01*
X003690Y011081D01*
X003718Y011014D01*
X003874Y010858D01*
X004079Y010773D01*
X004301Y010773D01*
X004506Y010858D01*
X004662Y011014D01*
X004690Y011081D01*
X004718Y011014D01*
X004874Y010858D01*
X005079Y010773D01*
X005301Y010773D01*
X005506Y010858D01*
X005662Y011014D01*
X005690Y011081D01*
X005718Y011014D01*
X005874Y010858D01*
X006079Y010773D01*
X006301Y010773D01*
X006506Y010858D01*
X006662Y011014D01*
X006690Y011081D01*
X006718Y011014D01*
X006874Y010858D01*
X007079Y010773D01*
X007301Y010773D01*
X007506Y010858D01*
X007662Y011014D01*
X007690Y011081D01*
X007718Y011014D01*
X007874Y010858D01*
X008079Y010773D01*
X008301Y010773D01*
X008506Y010858D01*
X008662Y011014D01*
X008747Y011219D01*
X008747Y011441D01*
X008662Y011646D01*
X008506Y011802D01*
X008439Y011830D01*
X008506Y011858D01*
X008662Y012014D01*
X008747Y012219D01*
X008747Y012441D01*
X008662Y012646D01*
X008506Y012802D01*
X008439Y012830D01*
X008506Y012858D01*
X008662Y013014D01*
X008747Y013219D01*
X008747Y013441D01*
X008662Y013646D01*
X008506Y013802D01*
X008439Y013830D01*
X008506Y013858D01*
X008662Y014014D01*
X008747Y014219D01*
X008747Y014441D01*
X008662Y014646D01*
X008506Y014802D01*
X008439Y014830D01*
X008506Y014858D01*
X008662Y015014D01*
X008747Y015219D01*
X008747Y015441D01*
X008662Y015646D01*
X008506Y015802D01*
X008301Y015887D01*
X008079Y015887D01*
X007874Y015802D01*
X007718Y015646D01*
X007690Y015579D01*
X007662Y015646D01*
X007506Y015802D01*
X007301Y015887D01*
X007079Y015887D01*
X006874Y015802D01*
X006718Y015646D01*
X006690Y015579D01*
X006662Y015646D01*
X006506Y015802D01*
X006301Y015887D01*
X006079Y015887D01*
X005874Y015802D01*
X005718Y015646D01*
X005690Y015579D01*
X005662Y015646D01*
X005506Y015802D01*
X005439Y015830D01*
X005506Y015858D01*
X005662Y016014D01*
X005747Y016219D01*
X005747Y016441D01*
X005662Y016646D01*
X005506Y016802D01*
X005439Y016830D01*
X005506Y016858D01*
X005662Y017014D01*
X005747Y017219D01*
X005747Y017441D01*
X005662Y017646D01*
X005506Y017802D01*
X005301Y017887D01*
X005079Y017887D01*
X004874Y017802D01*
X004718Y017646D01*
X004690Y017579D01*
X004662Y017646D01*
X004506Y017802D01*
X004301Y017887D01*
X004079Y017887D01*
X003874Y017802D01*
X003718Y017646D01*
X003690Y017579D01*
X003662Y017646D01*
X003506Y017802D01*
X003301Y017887D01*
X003079Y017887D01*
X002874Y017802D01*
X002718Y017646D01*
X002690Y017579D01*
X002662Y017646D01*
X002506Y017802D01*
X002301Y017887D01*
X002079Y017887D01*
X001874Y017802D01*
X001718Y017646D01*
X001690Y017579D01*
X001662Y017646D01*
X001506Y017802D01*
X001301Y017887D01*
X001079Y017887D01*
X000874Y017802D01*
X000718Y017646D01*
X000633Y017441D01*
X000633Y017219D01*
X000718Y017014D01*
X000874Y016858D01*
X000941Y016830D01*
X000874Y016802D01*
X000718Y016646D01*
X000633Y016441D01*
X000633Y016219D01*
X000718Y016014D01*
X000874Y015858D01*
X000941Y015830D01*
X000874Y015802D01*
X000718Y015646D01*
X000633Y015441D01*
X000633Y015219D01*
X000718Y015014D01*
X000874Y014858D01*
X000941Y014830D01*
X000874Y014802D01*
X000718Y014646D01*
X000633Y014441D01*
X000633Y014219D01*
X000718Y014014D01*
X000874Y013858D01*
X000941Y013830D01*
X000874Y013802D01*
X000718Y013646D01*
X000633Y013441D01*
X000633Y013219D01*
X000718Y013014D01*
X000874Y012858D01*
X000941Y012830D01*
X000874Y012802D01*
X000718Y012646D01*
X000633Y012441D01*
X000633Y012219D01*
X000718Y012014D01*
X000874Y011858D01*
X000941Y011830D01*
X000874Y011802D01*
X000718Y011646D01*
X000633Y011441D01*
X000633Y011219D01*
X000718Y011014D01*
X000874Y010858D01*
X000941Y010830D01*
X000874Y010802D01*
X000718Y010646D01*
X000633Y010441D01*
X000633Y010219D01*
X000718Y010014D01*
X000874Y009858D01*
X001079Y009773D01*
X001301Y009773D01*
X001506Y009858D01*
X001662Y010014D01*
X001690Y010081D01*
X001718Y010014D01*
X001874Y009858D01*
X002079Y009773D01*
X002301Y009773D01*
X002506Y009858D01*
X002662Y010014D01*
X002689Y010079D02*
X003014Y010079D01*
X003093Y010157D02*
X002721Y010157D01*
X002747Y010236D02*
X003171Y010236D01*
X003250Y010314D02*
X002747Y010314D01*
X002747Y010393D02*
X003328Y010393D01*
X003407Y010471D02*
X002735Y010471D01*
X002702Y010550D02*
X003485Y010550D01*
X003626Y010628D02*
X002670Y010628D01*
X002601Y010707D02*
X017370Y010707D01*
X017370Y010680D02*
X016900Y010680D01*
X016900Y010680D01*
X016913Y010601D01*
X016937Y010524D01*
X016974Y010453D01*
X017021Y010388D01*
X017078Y010331D01*
X017143Y010284D01*
X017214Y010247D01*
X017291Y010223D01*
X017370Y010210D01*
X017370Y010680D01*
X017450Y010680D01*
X017450Y010760D01*
X017920Y010760D01*
X017920Y010760D01*
X017907Y010839D01*
X017883Y010916D01*
X017846Y010987D01*
X017799Y011052D01*
X017742Y011109D01*
X017677Y011156D01*
X017606Y011193D01*
X017529Y011217D01*
X017450Y011230D01*
X017450Y011230D01*
X017450Y010760D01*
X017370Y010760D01*
X017370Y011230D01*
X017370Y011230D01*
X017291Y011217D01*
X017214Y011193D01*
X017143Y011156D01*
X017078Y011109D01*
X017021Y011052D01*
X016974Y010987D01*
X016937Y010916D01*
X016913Y010839D01*
X016900Y010760D01*
X017370Y010760D01*
X017370Y010680D01*
X017370Y010628D02*
X017450Y010628D01*
X017450Y010680D02*
X017450Y010210D01*
X017450Y010210D01*
X017529Y010223D01*
X017606Y010247D01*
X017677Y010284D01*
X017742Y010331D01*
X017799Y010388D01*
X017846Y010453D01*
X017883Y010524D01*
X017907Y010601D01*
X017920Y010680D01*
X017450Y010680D01*
X017450Y010707D02*
X018390Y010707D01*
X018390Y010785D02*
X017916Y010785D01*
X017900Y010864D02*
X018390Y010864D01*
X018390Y010942D02*
X017869Y010942D01*
X017822Y011021D02*
X018390Y011021D01*
X018390Y011099D02*
X017752Y011099D01*
X017635Y011178D02*
X018390Y011178D01*
X018390Y011256D02*
X008747Y011256D01*
X008747Y011335D02*
X018390Y011335D01*
X018390Y011413D02*
X008747Y011413D01*
X008726Y011492D02*
X016017Y011492D01*
X016069Y011470D02*
X016311Y011470D01*
X016536Y011563D01*
X016707Y011734D01*
X016800Y011959D01*
X016800Y012201D01*
X016707Y012426D01*
X016536Y012597D01*
X016311Y012690D01*
X016069Y012690D01*
X015844Y012597D01*
X015673Y012426D01*
X015580Y012201D01*
X015580Y011959D01*
X015673Y011734D01*
X015844Y011563D01*
X016069Y011470D01*
X015837Y011570D02*
X008694Y011570D01*
X008659Y011649D02*
X015759Y011649D01*
X015680Y011727D02*
X008581Y011727D01*
X008498Y011806D02*
X015643Y011806D01*
X015611Y011884D02*
X008532Y011884D01*
X008610Y011963D02*
X015580Y011963D01*
X015580Y012041D02*
X008673Y012041D01*
X008706Y012120D02*
X015580Y012120D01*
X015580Y012198D02*
X008738Y012198D01*
X008747Y012277D02*
X015611Y012277D01*
X015644Y012355D02*
X008747Y012355D01*
X008747Y012434D02*
X015681Y012434D01*
X015759Y012512D02*
X008718Y012512D01*
X008685Y012591D02*
X015838Y012591D01*
X016018Y012669D02*
X008639Y012669D01*
X008560Y012748D02*
X018390Y012748D01*
X018390Y012826D02*
X008448Y012826D01*
X008552Y012905D02*
X018390Y012905D01*
X018390Y012983D02*
X008631Y012983D01*
X008682Y013062D02*
X018390Y013062D01*
X018390Y013140D02*
X008714Y013140D01*
X008747Y013219D02*
X018390Y013219D01*
X018390Y013297D02*
X008747Y013297D01*
X008747Y013376D02*
X018390Y013376D01*
X018390Y013454D02*
X008742Y013454D01*
X008709Y013533D02*
X018390Y013533D01*
X018390Y013611D02*
X008677Y013611D01*
X008618Y013690D02*
X018390Y013690D01*
X018390Y013768D02*
X014378Y013768D01*
X014466Y013847D02*
X018390Y013847D01*
X018390Y013925D02*
X014544Y013925D01*
X014623Y014004D02*
X018390Y014004D01*
X018390Y014082D02*
X014701Y014082D01*
X014780Y014161D02*
X018390Y014161D01*
X018390Y014239D02*
X014858Y014239D01*
X014937Y014318D02*
X018390Y014318D01*
X018390Y014396D02*
X014998Y014396D01*
X015030Y014475D02*
X018390Y014475D01*
X018390Y014553D02*
X015040Y014553D01*
X015040Y014632D02*
X018390Y014632D01*
X018390Y014710D02*
X015041Y014710D01*
X015119Y014789D02*
X018390Y014789D01*
X018390Y014867D02*
X015152Y014867D01*
X015184Y014946D02*
X018390Y014946D01*
X018390Y015024D02*
X015197Y015024D01*
X015197Y015103D02*
X018390Y015103D01*
X018390Y015181D02*
X015197Y015181D01*
X015165Y015260D02*
X018390Y015260D01*
X018390Y015338D02*
X015133Y015338D01*
X015075Y015417D02*
X018390Y015417D01*
X018390Y015495D02*
X017622Y015495D01*
X017796Y015574D02*
X018390Y015574D01*
X018395Y015652D02*
X017875Y015652D01*
X017953Y015731D02*
X018428Y015731D01*
X018495Y015809D02*
X017988Y015809D01*
X018021Y015888D02*
X018573Y015888D01*
X018652Y015966D02*
X018050Y015966D01*
X018050Y016045D02*
X018730Y016045D01*
X018809Y016123D02*
X018050Y016123D01*
X018050Y016202D02*
X018887Y016202D01*
X018890Y016280D02*
X018017Y016280D01*
X017985Y016359D02*
X018890Y016359D01*
X018890Y016437D02*
X017946Y016437D01*
X017867Y016516D02*
X018890Y016516D01*
X018890Y016594D02*
X017790Y016594D01*
X017790Y016673D02*
X018890Y016673D01*
X018890Y016751D02*
X017790Y016751D01*
X017790Y016830D02*
X018890Y016830D01*
X018890Y016908D02*
X017790Y016908D01*
X017790Y016987D02*
X018890Y016987D01*
X018890Y017065D02*
X017790Y017065D01*
X017790Y017144D02*
X018890Y017144D01*
X018890Y017222D02*
X017790Y017222D01*
X017790Y017301D02*
X018890Y017301D01*
X018890Y017379D02*
X017790Y017379D01*
X017790Y017458D02*
X018890Y017458D01*
X018890Y017536D02*
X017790Y017536D01*
X017790Y017615D02*
X018890Y017615D01*
X018890Y017693D02*
X017790Y017693D01*
X017790Y017772D02*
X018890Y017772D01*
X018890Y017850D02*
X017790Y017850D01*
X017790Y017929D02*
X018890Y017929D01*
X018890Y018007D02*
X017790Y018007D01*
X017790Y018086D02*
X018890Y018086D01*
X018890Y018164D02*
X017790Y018164D01*
X017790Y018243D02*
X018890Y018243D01*
X018890Y018321D02*
X017790Y018321D01*
X017790Y018400D02*
X018890Y018400D01*
X018890Y018478D02*
X017790Y018478D01*
X017790Y018557D02*
X018890Y018557D01*
X018890Y018635D02*
X017790Y018635D01*
X017790Y018714D02*
X018890Y018714D01*
X018890Y018792D02*
X017826Y018792D01*
X017905Y018871D02*
X018890Y018871D01*
X018890Y018949D02*
X018364Y018949D01*
X018513Y019028D02*
X018867Y019028D01*
X018789Y019106D02*
X018591Y019106D01*
X018647Y019185D02*
X018733Y019185D01*
X018700Y019263D02*
X018680Y019263D01*
X018016Y018949D02*
X017983Y018949D01*
X017449Y019263D02*
X017080Y019263D01*
X017110Y019342D02*
X017527Y019342D01*
X017606Y019420D02*
X017110Y019420D01*
X017110Y019499D02*
X017670Y019499D01*
X017670Y019577D02*
X017110Y019577D01*
X017110Y019656D02*
X017670Y019656D01*
X017670Y019734D02*
X017110Y019734D01*
X017110Y019813D02*
X017670Y019813D01*
X017698Y019891D02*
X017082Y019891D01*
X017049Y019970D02*
X017731Y019970D01*
X017783Y020048D02*
X016997Y020048D01*
X017012Y020127D02*
X017768Y020127D01*
X017724Y020205D02*
X017056Y020205D01*
X017088Y020284D02*
X017692Y020284D01*
X017670Y020362D02*
X017110Y020362D01*
X017110Y020441D02*
X017670Y020441D01*
X017670Y020519D02*
X017110Y020519D01*
X017110Y020598D02*
X017670Y020598D01*
X017670Y020676D02*
X017110Y020676D01*
X017110Y020755D02*
X017670Y020755D01*
X017674Y020833D02*
X017106Y020833D01*
X017073Y020912D02*
X017707Y020912D01*
X017739Y020990D02*
X017041Y020990D01*
X016977Y021069D02*
X017803Y021069D01*
X017882Y021147D02*
X016898Y021147D01*
X016728Y021226D02*
X018052Y021226D01*
X017370Y019185D02*
X017047Y019185D01*
X016991Y019106D02*
X017292Y019106D01*
X017226Y019028D02*
X016913Y019028D01*
X016764Y018949D02*
X017194Y018949D01*
X017190Y018871D02*
X016490Y018871D01*
X016490Y018792D02*
X017190Y018792D01*
X017190Y018714D02*
X016490Y018714D01*
X016490Y018635D02*
X017190Y018635D01*
X017190Y018557D02*
X016490Y018557D01*
X016490Y018478D02*
X017190Y018478D01*
X017190Y018400D02*
X016490Y018400D01*
X016490Y018321D02*
X017190Y018321D01*
X017190Y018243D02*
X016490Y018243D01*
X016490Y018164D02*
X017190Y018164D01*
X017190Y018086D02*
X016490Y018086D01*
X016490Y018007D02*
X017190Y018007D01*
X017190Y017929D02*
X016490Y017929D01*
X016490Y017850D02*
X017190Y017850D01*
X017190Y017772D02*
X016490Y017772D01*
X016490Y017693D02*
X017190Y017693D01*
X017190Y017615D02*
X016490Y017615D01*
X016490Y017536D02*
X017190Y017536D01*
X017190Y017458D02*
X016490Y017458D01*
X016490Y017379D02*
X017190Y017379D01*
X017190Y017301D02*
X016490Y017301D01*
X016490Y017222D02*
X017190Y017222D01*
X017190Y017144D02*
X016490Y017144D01*
X016490Y017065D02*
X017190Y017065D01*
X017190Y016987D02*
X016490Y016987D01*
X016490Y016908D02*
X017190Y016908D01*
X017190Y016830D02*
X016490Y016830D01*
X016490Y016751D02*
X017190Y016751D01*
X017190Y016673D02*
X016490Y016673D01*
X016539Y016594D02*
X017091Y016594D01*
X017013Y016516D02*
X016617Y016516D01*
X016696Y016437D02*
X016934Y016437D01*
X016895Y016359D02*
X016735Y016359D01*
X016767Y016280D02*
X016863Y016280D01*
X016830Y016202D02*
X016800Y016202D01*
X016800Y016123D02*
X016830Y016123D01*
X016830Y016045D02*
X016800Y016045D01*
X016800Y015966D02*
X016830Y015966D01*
X016859Y015888D02*
X016771Y015888D01*
X016738Y015809D02*
X016892Y015809D01*
X016927Y015731D02*
X016703Y015731D01*
X016625Y015652D02*
X017005Y015652D01*
X017084Y015574D02*
X016546Y015574D01*
X016372Y015495D02*
X017258Y015495D01*
X016008Y015495D02*
X014996Y015495D01*
X014976Y015663D02*
X014720Y015663D01*
X014720Y016040D01*
X015097Y016040D01*
X015097Y015784D01*
X015088Y015749D01*
X015069Y015717D01*
X015043Y015691D01*
X015011Y015672D01*
X014976Y015663D01*
X015077Y015731D02*
X015677Y015731D01*
X015642Y015809D02*
X015097Y015809D01*
X015097Y015888D02*
X015609Y015888D01*
X015580Y015966D02*
X015097Y015966D01*
X015097Y016120D02*
X014720Y016120D01*
X014720Y016497D01*
X014976Y016497D01*
X015011Y016488D01*
X015043Y016469D01*
X015069Y016443D01*
X015088Y016411D01*
X015097Y016376D01*
X015097Y016120D01*
X015097Y016123D02*
X015580Y016123D01*
X015580Y016045D02*
X014720Y016045D01*
X014720Y016123D02*
X014640Y016123D01*
X014640Y016120D02*
X014490Y016120D01*
X014490Y016040D01*
X014640Y016040D01*
X014640Y016120D01*
X014640Y016045D02*
X014490Y016045D01*
X014640Y015966D02*
X014720Y015966D01*
X014720Y015888D02*
X014640Y015888D01*
X014640Y015809D02*
X014720Y015809D01*
X014720Y015731D02*
X014640Y015731D01*
X014490Y015652D02*
X015755Y015652D01*
X015834Y015574D02*
X014840Y015574D01*
X014520Y015574D02*
X014490Y015574D01*
X014640Y016202D02*
X014720Y016202D01*
X014720Y016280D02*
X014640Y016280D01*
X014640Y016359D02*
X014720Y016359D01*
X014720Y016437D02*
X014640Y016437D01*
X014490Y016516D02*
X015763Y016516D01*
X015841Y016594D02*
X014490Y016594D01*
X014490Y016673D02*
X015890Y016673D01*
X015890Y016751D02*
X014490Y016751D01*
X014490Y016830D02*
X015890Y016830D01*
X015890Y016908D02*
X014490Y016908D01*
X014490Y016987D02*
X015890Y016987D01*
X015890Y017065D02*
X014490Y017065D01*
X014490Y017144D02*
X015192Y017144D01*
X015094Y017222D02*
X014490Y017222D01*
X014490Y017301D02*
X015017Y017301D01*
X014984Y017379D02*
X014490Y017379D01*
X014490Y017458D02*
X014952Y017458D01*
X014942Y017536D02*
X014490Y017536D01*
X014490Y017615D02*
X014942Y017615D01*
X014948Y017693D02*
X014490Y017693D01*
X014490Y017772D02*
X014980Y017772D01*
X015013Y017850D02*
X014490Y017850D01*
X014490Y017929D02*
X015084Y017929D01*
X015140Y018007D02*
X014490Y018007D01*
X014490Y018086D02*
X015140Y018086D01*
X015140Y018164D02*
X014490Y018164D01*
X014490Y018243D02*
X015140Y018243D01*
X015140Y018321D02*
X014490Y018321D01*
X014490Y018400D02*
X015140Y018400D01*
X015140Y018478D02*
X014490Y018478D01*
X014490Y018557D02*
X015140Y018557D01*
X015140Y018635D02*
X014490Y018635D01*
X014490Y018714D02*
X015140Y018714D01*
X015140Y018792D02*
X014490Y018792D01*
X014490Y018871D02*
X015140Y018871D01*
X015140Y018949D02*
X014764Y018949D01*
X014913Y019028D02*
X015140Y019028D01*
X015140Y019106D02*
X014991Y019106D01*
X015047Y019185D02*
X015133Y019185D01*
X015100Y019263D02*
X015080Y019263D01*
X015863Y017301D02*
X015890Y017301D01*
X015890Y017222D02*
X015786Y017222D01*
X015688Y017144D02*
X015890Y017144D01*
X015684Y016437D02*
X015073Y016437D01*
X015097Y016359D02*
X015645Y016359D01*
X015613Y016280D02*
X015097Y016280D01*
X015097Y016202D02*
X015580Y016202D01*
X018990Y015456D02*
X019444Y015910D01*
X019490Y016020D01*
X019490Y019005D01*
X019631Y019145D01*
X019690Y019288D01*
X019749Y019145D01*
X019890Y019005D01*
X019890Y016104D01*
X019884Y016068D01*
X019890Y016044D01*
X019890Y016020D01*
X019904Y015987D01*
X019912Y015952D01*
X019926Y015932D01*
X019936Y015910D01*
X019961Y015885D01*
X020290Y015432D01*
X020290Y013725D01*
X020207Y013926D01*
X020036Y014097D01*
X019942Y014136D01*
X019957Y014144D01*
X020022Y014191D01*
X020079Y014248D01*
X020126Y014313D01*
X020163Y014384D01*
X020187Y014461D01*
X020200Y014540D01*
X019730Y014540D01*
X019730Y014620D01*
X020200Y014620D01*
X020200Y014620D01*
X020187Y014699D01*
X020163Y014776D01*
X020126Y014847D01*
X020079Y014912D01*
X020022Y014969D01*
X019957Y015016D01*
X019886Y015053D01*
X019809Y015077D01*
X019730Y015090D01*
X019730Y014620D01*
X019650Y014620D01*
X019650Y015090D01*
X019650Y015090D01*
X019571Y015077D01*
X019494Y015053D01*
X019423Y015016D01*
X019358Y014969D01*
X019301Y014912D01*
X019254Y014847D01*
X019217Y014776D01*
X019193Y014699D01*
X019180Y014620D01*
X019650Y014620D01*
X019650Y014540D01*
X019180Y014540D01*
X019180Y014540D01*
X019193Y014461D01*
X019217Y014384D01*
X019254Y014313D01*
X019301Y014248D01*
X019358Y014191D01*
X019423Y014144D01*
X019438Y014136D01*
X019344Y014097D01*
X019173Y013926D01*
X019080Y013701D01*
X019080Y013459D01*
X019173Y013234D01*
X019344Y013063D01*
X019569Y012970D01*
X019811Y012970D01*
X020036Y013063D01*
X020207Y013234D01*
X020290Y013435D01*
X020290Y011118D01*
X020237Y011156D01*
X020166Y011193D01*
X020089Y011217D01*
X020010Y011230D01*
X020010Y010760D01*
X019930Y010760D01*
X019930Y011230D01*
X019930Y011230D01*
X019851Y011217D01*
X019774Y011193D01*
X019703Y011156D01*
X019638Y011109D01*
X019581Y011052D01*
X019534Y010987D01*
X019497Y010916D01*
X019473Y010839D01*
X019460Y010760D01*
X019930Y010760D01*
X019930Y010680D01*
X020010Y010680D01*
X020010Y010210D01*
X020010Y010210D01*
X020089Y010223D01*
X020166Y010247D01*
X020237Y010284D01*
X020290Y010322D01*
X020290Y009468D01*
X020091Y009550D01*
X019849Y009550D01*
X019624Y009457D01*
X019453Y009286D01*
X019434Y009240D01*
X018990Y009240D01*
X018990Y015456D01*
X018990Y015417D02*
X020290Y015417D01*
X020290Y015338D02*
X018990Y015338D01*
X018990Y015260D02*
X020290Y015260D01*
X020290Y015181D02*
X018990Y015181D01*
X018990Y015103D02*
X020290Y015103D01*
X020290Y015024D02*
X019942Y015024D01*
X020046Y014946D02*
X020290Y014946D01*
X020290Y014867D02*
X020112Y014867D01*
X020156Y014789D02*
X020290Y014789D01*
X020290Y014710D02*
X020184Y014710D01*
X020198Y014632D02*
X020290Y014632D01*
X020290Y014553D02*
X019730Y014553D01*
X019730Y014632D02*
X019650Y014632D01*
X019650Y014710D02*
X019730Y014710D01*
X019730Y014789D02*
X019650Y014789D01*
X019650Y014867D02*
X019730Y014867D01*
X019730Y014946D02*
X019650Y014946D01*
X019650Y015024D02*
X019730Y015024D01*
X019730Y015090D02*
X019730Y015090D01*
X019438Y015024D02*
X018990Y015024D01*
X018990Y014946D02*
X019334Y014946D01*
X019268Y014867D02*
X018990Y014867D01*
X018990Y014789D02*
X019224Y014789D01*
X019196Y014710D02*
X018990Y014710D01*
X018990Y014632D02*
X019182Y014632D01*
X019180Y014620D02*
X019180Y014620D01*
X019190Y014475D02*
X018990Y014475D01*
X018990Y014553D02*
X019650Y014553D01*
X019310Y014239D02*
X018990Y014239D01*
X018990Y014161D02*
X019400Y014161D01*
X019329Y014082D02*
X018990Y014082D01*
X018990Y014004D02*
X019251Y014004D01*
X019173Y013925D02*
X018990Y013925D01*
X018990Y013847D02*
X019140Y013847D01*
X019108Y013768D02*
X018990Y013768D01*
X018990Y013690D02*
X019080Y013690D01*
X019080Y013611D02*
X018990Y013611D01*
X018990Y013533D02*
X019080Y013533D01*
X019082Y013454D02*
X018990Y013454D01*
X018990Y013376D02*
X019114Y013376D01*
X019147Y013297D02*
X018990Y013297D01*
X018990Y013219D02*
X019189Y013219D01*
X019267Y013140D02*
X018990Y013140D01*
X018990Y013062D02*
X019348Y013062D01*
X019537Y012983D02*
X018990Y012983D01*
X018990Y012905D02*
X020290Y012905D01*
X020290Y012983D02*
X019843Y012983D01*
X020032Y013062D02*
X020290Y013062D01*
X020290Y013140D02*
X020113Y013140D01*
X020191Y013219D02*
X020290Y013219D01*
X020290Y013297D02*
X020233Y013297D01*
X020266Y013376D02*
X020290Y013376D01*
X020890Y013376D02*
X021370Y013376D01*
X021370Y013454D02*
X020890Y013454D01*
X020890Y013533D02*
X021370Y013533D01*
X021370Y013611D02*
X020890Y013611D01*
X020890Y013690D02*
X021370Y013690D01*
X021370Y013768D02*
X020890Y013768D01*
X020890Y013847D02*
X021370Y013847D01*
X021370Y013925D02*
X020890Y013925D01*
X020890Y014004D02*
X021370Y014004D01*
X021370Y014082D02*
X020890Y014082D01*
X020890Y014161D02*
X021370Y014161D01*
X021370Y014239D02*
X020890Y014239D01*
X020890Y014318D02*
X021370Y014318D01*
X021370Y014396D02*
X020890Y014396D01*
X020890Y014475D02*
X021370Y014475D01*
X021370Y014553D02*
X020890Y014553D01*
X020890Y014632D02*
X021370Y014632D01*
X021370Y014710D02*
X020890Y014710D01*
X020890Y014789D02*
X021370Y014789D01*
X021370Y014867D02*
X020890Y014867D01*
X020890Y014946D02*
X021370Y014946D01*
X021370Y015024D02*
X020890Y015024D01*
X020890Y015103D02*
X021370Y015103D01*
X021370Y015181D02*
X020890Y015181D01*
X020890Y015260D02*
X021370Y015260D01*
X021370Y015338D02*
X020890Y015338D01*
X020890Y015417D02*
X021370Y015417D01*
X021370Y015495D02*
X020890Y015495D01*
X020890Y015506D02*
X020896Y015542D01*
X020890Y015566D01*
X020890Y015590D01*
X020876Y015623D01*
X020868Y015658D01*
X020854Y015678D01*
X020844Y015700D01*
X020819Y015725D01*
X020490Y016178D01*
X020490Y019005D01*
X020631Y019145D01*
X020690Y019288D01*
X020749Y019145D01*
X020890Y019005D01*
X020890Y017020D01*
X020936Y016910D01*
X021370Y016476D01*
X021370Y011516D01*
X021419Y011399D01*
X021870Y010947D01*
X021870Y009240D01*
X021696Y009240D01*
X021677Y009286D01*
X021506Y009457D01*
X021281Y009550D01*
X021039Y009550D01*
X020890Y009488D01*
X020890Y010286D01*
X020893Y010284D01*
X020964Y010247D01*
X021041Y010223D01*
X021120Y010210D01*
X021120Y010680D01*
X021200Y010680D01*
X021200Y010760D01*
X021120Y010760D01*
X021120Y011230D01*
X021120Y011230D01*
X021041Y011217D01*
X020964Y011193D01*
X020893Y011156D01*
X020890Y011154D01*
X020890Y015506D01*
X020890Y015574D02*
X021370Y015574D01*
X021370Y015652D02*
X020869Y015652D01*
X020815Y015731D02*
X021370Y015731D01*
X021370Y015809D02*
X020758Y015809D01*
X020701Y015888D02*
X021370Y015888D01*
X021370Y015966D02*
X020644Y015966D01*
X020587Y016045D02*
X021370Y016045D01*
X021370Y016123D02*
X020530Y016123D01*
X020490Y016202D02*
X021370Y016202D01*
X021370Y016280D02*
X020490Y016280D01*
X020490Y016359D02*
X021370Y016359D01*
X021370Y016437D02*
X020490Y016437D01*
X020490Y016516D02*
X021330Y016516D01*
X021252Y016594D02*
X020490Y016594D01*
X020490Y016673D02*
X021173Y016673D01*
X021095Y016751D02*
X020490Y016751D01*
X020490Y016830D02*
X021016Y016830D01*
X020938Y016908D02*
X020490Y016908D01*
X020490Y016987D02*
X020904Y016987D01*
X020890Y017065D02*
X020490Y017065D01*
X020490Y017144D02*
X020890Y017144D01*
X020890Y017222D02*
X020490Y017222D01*
X020490Y017301D02*
X020890Y017301D01*
X020890Y017379D02*
X020490Y017379D01*
X020490Y017458D02*
X020890Y017458D01*
X020890Y017536D02*
X020490Y017536D01*
X020490Y017615D02*
X020890Y017615D01*
X020890Y017693D02*
X020490Y017693D01*
X020490Y017772D02*
X020890Y017772D01*
X020890Y017850D02*
X020490Y017850D01*
X020490Y017929D02*
X020890Y017929D01*
X020890Y018007D02*
X020490Y018007D01*
X020490Y018086D02*
X020890Y018086D01*
X020890Y018164D02*
X020490Y018164D01*
X020490Y018243D02*
X020890Y018243D01*
X020890Y018321D02*
X020490Y018321D01*
X020490Y018400D02*
X020890Y018400D01*
X020890Y018478D02*
X020490Y018478D01*
X020490Y018557D02*
X020890Y018557D01*
X020890Y018635D02*
X020490Y018635D01*
X020490Y018714D02*
X020890Y018714D01*
X020890Y018792D02*
X020490Y018792D01*
X020490Y018871D02*
X020890Y018871D01*
X020890Y018949D02*
X020490Y018949D01*
X020513Y019028D02*
X020867Y019028D01*
X020789Y019106D02*
X020591Y019106D01*
X020647Y019185D02*
X020733Y019185D01*
X020700Y019263D02*
X020680Y019263D01*
X019867Y019028D02*
X019513Y019028D01*
X019490Y018949D02*
X019890Y018949D01*
X019890Y018871D02*
X019490Y018871D01*
X019490Y018792D02*
X019890Y018792D01*
X019890Y018714D02*
X019490Y018714D01*
X019490Y018635D02*
X019890Y018635D01*
X019890Y018557D02*
X019490Y018557D01*
X019490Y018478D02*
X019890Y018478D01*
X019890Y018400D02*
X019490Y018400D01*
X019490Y018321D02*
X019890Y018321D01*
X019890Y018243D02*
X019490Y018243D01*
X019490Y018164D02*
X019890Y018164D01*
X019890Y018086D02*
X019490Y018086D01*
X019490Y018007D02*
X019890Y018007D01*
X019890Y017929D02*
X019490Y017929D01*
X019490Y017850D02*
X019890Y017850D01*
X019890Y017772D02*
X019490Y017772D01*
X019490Y017693D02*
X019890Y017693D01*
X019890Y017615D02*
X019490Y017615D01*
X019490Y017536D02*
X019890Y017536D01*
X019890Y017458D02*
X019490Y017458D01*
X019490Y017379D02*
X019890Y017379D01*
X019890Y017301D02*
X019490Y017301D01*
X019490Y017222D02*
X019890Y017222D01*
X019890Y017144D02*
X019490Y017144D01*
X019490Y017065D02*
X019890Y017065D01*
X019890Y016987D02*
X019490Y016987D01*
X019490Y016908D02*
X019890Y016908D01*
X019890Y016830D02*
X019490Y016830D01*
X019490Y016751D02*
X019890Y016751D01*
X019890Y016673D02*
X019490Y016673D01*
X019490Y016594D02*
X019890Y016594D01*
X019890Y016516D02*
X019490Y016516D01*
X019490Y016437D02*
X019890Y016437D01*
X019890Y016359D02*
X019490Y016359D01*
X019490Y016280D02*
X019890Y016280D01*
X019890Y016202D02*
X019490Y016202D01*
X019490Y016123D02*
X019890Y016123D01*
X019890Y016045D02*
X019490Y016045D01*
X019468Y015966D02*
X019909Y015966D01*
X019958Y015888D02*
X019422Y015888D01*
X019343Y015809D02*
X020016Y015809D01*
X020073Y015731D02*
X019265Y015731D01*
X019186Y015652D02*
X020130Y015652D01*
X020187Y015574D02*
X019108Y015574D01*
X019029Y015495D02*
X020244Y015495D01*
X022010Y015495D02*
X024140Y015495D01*
X024140Y015417D02*
X022010Y015417D01*
X022010Y015338D02*
X024140Y015338D01*
X024140Y015260D02*
X022010Y015260D01*
X022010Y015181D02*
X024140Y015181D01*
X024140Y015103D02*
X022010Y015103D01*
X022010Y015024D02*
X022438Y015024D01*
X022423Y015016D02*
X022358Y014969D01*
X022301Y014912D01*
X022254Y014847D01*
X022217Y014776D01*
X022193Y014699D01*
X022180Y014620D01*
X022650Y014620D01*
X022650Y015090D01*
X022650Y015090D01*
X022571Y015077D01*
X022494Y015053D01*
X022423Y015016D01*
X022334Y014946D02*
X022010Y014946D01*
X022010Y014867D02*
X022268Y014867D01*
X022224Y014789D02*
X022010Y014789D01*
X022010Y014710D02*
X022196Y014710D01*
X022182Y014632D02*
X022010Y014632D01*
X022010Y014553D02*
X022650Y014553D01*
X022650Y014540D02*
X022180Y014540D01*
X022180Y014540D01*
X022193Y014461D01*
X022217Y014384D01*
X022254Y014313D01*
X022301Y014248D01*
X022358Y014191D01*
X022423Y014144D01*
X022438Y014136D01*
X022344Y014097D01*
X022173Y013926D01*
X022080Y013701D01*
X022080Y013459D01*
X022173Y013234D01*
X022344Y013063D01*
X022569Y012970D01*
X022811Y012970D01*
X023036Y013063D01*
X023207Y013234D01*
X023300Y013459D01*
X023300Y013701D01*
X023207Y013926D01*
X023036Y014097D01*
X022942Y014136D01*
X022957Y014144D01*
X023022Y014191D01*
X023079Y014248D01*
X023126Y014313D01*
X023163Y014384D01*
X023187Y014461D01*
X023200Y014540D01*
X022730Y014540D01*
X022730Y014620D01*
X023200Y014620D01*
X023200Y014620D01*
X023187Y014699D01*
X023163Y014776D01*
X023126Y014847D01*
X023079Y014912D01*
X023022Y014969D01*
X022957Y015016D01*
X022886Y015053D01*
X022809Y015077D01*
X022730Y015090D01*
X022730Y014620D01*
X022650Y014620D01*
X022650Y014540D01*
X022730Y014553D02*
X024140Y014553D01*
X024140Y014475D02*
X023190Y014475D01*
X023200Y014540D02*
X023200Y014540D01*
X023198Y014632D02*
X024140Y014632D01*
X024140Y014710D02*
X023184Y014710D01*
X023156Y014789D02*
X024140Y014789D01*
X024140Y014867D02*
X023112Y014867D01*
X023046Y014946D02*
X024140Y014946D01*
X024140Y015024D02*
X022942Y015024D01*
X022730Y015024D02*
X022650Y015024D01*
X022650Y014946D02*
X022730Y014946D01*
X022730Y014867D02*
X022650Y014867D01*
X022650Y014789D02*
X022730Y014789D01*
X022730Y014710D02*
X022650Y014710D01*
X022650Y014632D02*
X022730Y014632D01*
X023166Y014396D02*
X024140Y014396D01*
X024140Y014318D02*
X023129Y014318D01*
X023070Y014239D02*
X024140Y014239D01*
X024140Y014161D02*
X022980Y014161D01*
X023051Y014082D02*
X024140Y014082D01*
X024140Y014004D02*
X023129Y014004D01*
X023207Y013925D02*
X024140Y013925D01*
X024140Y013847D02*
X023240Y013847D01*
X023272Y013768D02*
X024140Y013768D01*
X024140Y013690D02*
X023300Y013690D01*
X023300Y013611D02*
X024140Y013611D01*
X024140Y013533D02*
X023300Y013533D01*
X023298Y013454D02*
X024140Y013454D01*
X024140Y013376D02*
X023266Y013376D01*
X023233Y013297D02*
X024140Y013297D01*
X024140Y013219D02*
X023191Y013219D01*
X023113Y013140D02*
X024140Y013140D01*
X024140Y013062D02*
X023032Y013062D01*
X022843Y012983D02*
X024140Y012983D01*
X024140Y012905D02*
X022010Y012905D01*
X022010Y012983D02*
X022537Y012983D01*
X022348Y013062D02*
X022010Y013062D01*
X022010Y013140D02*
X022267Y013140D01*
X022189Y013219D02*
X022010Y013219D01*
X022010Y013297D02*
X022147Y013297D01*
X022114Y013376D02*
X022010Y013376D01*
X022010Y013454D02*
X022082Y013454D01*
X022080Y013533D02*
X022010Y013533D01*
X022010Y013611D02*
X022080Y013611D01*
X022080Y013690D02*
X022010Y013690D01*
X022010Y013768D02*
X022108Y013768D01*
X022140Y013847D02*
X022010Y013847D01*
X022010Y013925D02*
X022173Y013925D01*
X022251Y014004D02*
X022010Y014004D01*
X022010Y014082D02*
X022329Y014082D01*
X022400Y014161D02*
X022010Y014161D01*
X022010Y014239D02*
X022310Y014239D01*
X022251Y014318D02*
X022010Y014318D01*
X022010Y014396D02*
X022214Y014396D01*
X022190Y014475D02*
X022010Y014475D01*
X022180Y014620D02*
X022180Y014620D01*
X022730Y015090D02*
X022730Y015090D01*
X022010Y015574D02*
X024140Y015574D01*
X024140Y015652D02*
X022010Y015652D01*
X022010Y015731D02*
X024140Y015731D01*
X024140Y015809D02*
X022010Y015809D01*
X022010Y015888D02*
X024140Y015888D01*
X024140Y015956D02*
X024140Y011010D01*
X024109Y011052D01*
X024052Y011109D01*
X023987Y011156D01*
X023916Y011193D01*
X023839Y011217D01*
X023760Y011230D01*
X023760Y010760D01*
X023680Y010760D01*
X023680Y011230D01*
X023680Y011230D01*
X023601Y011217D01*
X023524Y011193D01*
X023453Y011156D01*
X023388Y011109D01*
X023331Y011052D01*
X023284Y010987D01*
X023247Y010916D01*
X023223Y010839D01*
X023210Y010760D01*
X023680Y010760D01*
X023680Y010680D01*
X023760Y010680D01*
X023760Y010210D01*
X023760Y010210D01*
X023839Y010223D01*
X023916Y010247D01*
X023987Y010284D01*
X024052Y010331D01*
X024109Y010388D01*
X024140Y010430D01*
X024140Y009383D01*
X024066Y009457D01*
X023841Y009550D01*
X023599Y009550D01*
X023374Y009457D01*
X023203Y009286D01*
X023184Y009240D01*
X022510Y009240D01*
X022510Y011144D01*
X022461Y011261D01*
X022371Y011351D01*
X022010Y011713D01*
X022010Y016644D01*
X021961Y016761D01*
X021871Y016851D01*
X021823Y016871D01*
X021490Y017204D01*
X021490Y019005D01*
X021631Y019145D01*
X021690Y019288D01*
X021749Y019145D01*
X021890Y019005D01*
X021890Y018270D01*
X021936Y018160D01*
X024140Y015956D01*
X024130Y015966D02*
X022010Y015966D01*
X022010Y016045D02*
X024051Y016045D01*
X023973Y016123D02*
X022010Y016123D01*
X022010Y016202D02*
X023894Y016202D01*
X023816Y016280D02*
X022010Y016280D01*
X022010Y016359D02*
X023737Y016359D01*
X023659Y016437D02*
X022010Y016437D01*
X022010Y016516D02*
X023580Y016516D01*
X023502Y016594D02*
X022010Y016594D01*
X021998Y016673D02*
X023423Y016673D01*
X023345Y016751D02*
X021966Y016751D01*
X021893Y016830D02*
X023266Y016830D01*
X023188Y016908D02*
X021786Y016908D01*
X021708Y016987D02*
X023109Y016987D01*
X023031Y017065D02*
X021629Y017065D01*
X021551Y017144D02*
X022952Y017144D01*
X022874Y017222D02*
X021490Y017222D01*
X021490Y017301D02*
X022795Y017301D01*
X022717Y017379D02*
X021490Y017379D01*
X021490Y017458D02*
X022638Y017458D01*
X022560Y017536D02*
X021490Y017536D01*
X021490Y017615D02*
X022481Y017615D01*
X022403Y017693D02*
X021490Y017693D01*
X021490Y017772D02*
X022324Y017772D01*
X022246Y017850D02*
X021490Y017850D01*
X021490Y017929D02*
X022167Y017929D01*
X022089Y018007D02*
X021490Y018007D01*
X021490Y018086D02*
X022010Y018086D01*
X021934Y018164D02*
X021490Y018164D01*
X021490Y018243D02*
X021902Y018243D01*
X021890Y018321D02*
X021490Y018321D01*
X021490Y018400D02*
X021890Y018400D01*
X021890Y018478D02*
X021490Y018478D01*
X021490Y018557D02*
X021890Y018557D01*
X021890Y018635D02*
X021490Y018635D01*
X021490Y018714D02*
X021890Y018714D01*
X021890Y018792D02*
X021490Y018792D01*
X021490Y018871D02*
X021890Y018871D01*
X021890Y018949D02*
X021490Y018949D01*
X021513Y019028D02*
X021867Y019028D01*
X021789Y019106D02*
X021591Y019106D01*
X021647Y019185D02*
X021733Y019185D01*
X021700Y019263D02*
X021680Y019263D01*
X022490Y019005D02*
X022631Y019145D01*
X022690Y019288D01*
X022749Y019145D01*
X022895Y018999D01*
X023087Y018920D01*
X023293Y018920D01*
X023485Y018999D01*
X023631Y019145D01*
X023690Y019288D01*
X023749Y019145D01*
X023895Y018999D01*
X024087Y018920D01*
X024293Y018920D01*
X024485Y018999D01*
X024631Y019145D01*
X024690Y019288D01*
X024749Y019145D01*
X024895Y018999D01*
X025087Y018920D01*
X025293Y018920D01*
X025485Y018999D01*
X025631Y019145D01*
X025710Y019337D01*
X025710Y019823D01*
X025631Y020015D01*
X025565Y020080D01*
X025631Y020145D01*
X025710Y020337D01*
X025710Y020823D01*
X025631Y021015D01*
X025485Y021161D01*
X025318Y021230D01*
X025445Y021230D01*
X025840Y020835D01*
X025840Y016410D01*
X025893Y016282D01*
X025992Y016183D01*
X026840Y015335D01*
X026840Y015245D01*
X026717Y015368D01*
X026375Y015510D01*
X026005Y015510D01*
X025663Y015368D01*
X025402Y015107D01*
X025260Y014765D01*
X025260Y014395D01*
X025402Y014053D01*
X025663Y013792D01*
X026005Y013650D01*
X026375Y013650D01*
X026717Y013792D01*
X026840Y013915D01*
X026840Y004245D01*
X026717Y004368D01*
X026375Y004510D01*
X026005Y004510D01*
X025663Y004368D01*
X025490Y004195D01*
X025490Y004390D01*
X025444Y004500D01*
X024694Y005250D01*
X024610Y005334D01*
X024500Y005380D01*
X023962Y005380D01*
X024066Y005423D01*
X024237Y005594D01*
X024314Y005780D01*
X024694Y006160D01*
X024740Y006270D01*
X024740Y010309D01*
X025014Y010035D01*
X025466Y010035D01*
X025785Y010354D01*
X025785Y010806D01*
X025511Y011080D01*
X025740Y011309D01*
X026014Y011035D01*
X026466Y011035D01*
X026785Y011354D01*
X026785Y011806D01*
X026511Y012080D01*
X026785Y012354D01*
X026785Y012806D01*
X026466Y013125D01*
X026014Y013125D01*
X025740Y012851D01*
X025466Y013125D01*
X025014Y013125D01*
X024740Y012851D01*
X024740Y016140D01*
X024694Y016250D01*
X024610Y016334D01*
X022490Y018454D01*
X022490Y019005D01*
X022513Y019028D02*
X022867Y019028D01*
X022789Y019106D02*
X022591Y019106D01*
X022647Y019185D02*
X022733Y019185D01*
X022700Y019263D02*
X022680Y019263D01*
X022490Y018949D02*
X023016Y018949D01*
X023364Y018949D02*
X024016Y018949D01*
X023867Y019028D02*
X023513Y019028D01*
X023591Y019106D02*
X023789Y019106D01*
X023733Y019185D02*
X023647Y019185D01*
X023680Y019263D02*
X023700Y019263D01*
X024364Y018949D02*
X025016Y018949D01*
X024867Y019028D02*
X024513Y019028D01*
X024591Y019106D02*
X024789Y019106D01*
X024733Y019185D02*
X024647Y019185D01*
X024680Y019263D02*
X024700Y019263D01*
X025364Y018949D02*
X025840Y018949D01*
X025840Y018871D02*
X022490Y018871D01*
X022490Y018792D02*
X025840Y018792D01*
X025840Y018714D02*
X022490Y018714D01*
X022490Y018635D02*
X025840Y018635D01*
X025840Y018557D02*
X022490Y018557D01*
X022490Y018478D02*
X025840Y018478D01*
X025840Y018400D02*
X022545Y018400D01*
X022623Y018321D02*
X025840Y018321D01*
X025840Y018243D02*
X022702Y018243D01*
X022780Y018164D02*
X025840Y018164D01*
X025840Y018086D02*
X022859Y018086D01*
X022937Y018007D02*
X025840Y018007D01*
X025840Y017929D02*
X023016Y017929D01*
X023094Y017850D02*
X025840Y017850D01*
X025840Y017772D02*
X023173Y017772D01*
X023251Y017693D02*
X025840Y017693D01*
X025840Y017615D02*
X023330Y017615D01*
X023408Y017536D02*
X025840Y017536D01*
X025840Y017458D02*
X023487Y017458D01*
X023565Y017379D02*
X025840Y017379D01*
X025840Y017301D02*
X023644Y017301D01*
X023722Y017222D02*
X025840Y017222D01*
X025840Y017144D02*
X023801Y017144D01*
X023879Y017065D02*
X025840Y017065D01*
X025840Y016987D02*
X023958Y016987D01*
X024036Y016908D02*
X025840Y016908D01*
X025840Y016830D02*
X024115Y016830D01*
X024193Y016751D02*
X025840Y016751D01*
X025840Y016673D02*
X024272Y016673D01*
X024350Y016594D02*
X025840Y016594D01*
X025840Y016516D02*
X024429Y016516D01*
X024507Y016437D02*
X025840Y016437D01*
X025861Y016359D02*
X024586Y016359D01*
X024664Y016280D02*
X025895Y016280D01*
X025973Y016202D02*
X024714Y016202D01*
X024740Y016123D02*
X026052Y016123D01*
X025992Y016183D02*
X025992Y016183D01*
X026130Y016045D02*
X024740Y016045D01*
X024740Y015966D02*
X026209Y015966D01*
X026287Y015888D02*
X024740Y015888D01*
X024740Y015809D02*
X026366Y015809D01*
X026444Y015731D02*
X024740Y015731D01*
X024740Y015652D02*
X026523Y015652D01*
X026601Y015574D02*
X024740Y015574D01*
X024740Y015495D02*
X025969Y015495D01*
X025780Y015417D02*
X024740Y015417D01*
X024740Y015338D02*
X025633Y015338D01*
X025554Y015260D02*
X024740Y015260D01*
X024740Y015181D02*
X025476Y015181D01*
X025400Y015103D02*
X024740Y015103D01*
X024740Y015024D02*
X025367Y015024D01*
X025335Y014946D02*
X024740Y014946D01*
X024740Y014867D02*
X025302Y014867D01*
X025270Y014789D02*
X024740Y014789D01*
X024740Y014710D02*
X025260Y014710D01*
X025260Y014632D02*
X024740Y014632D01*
X024740Y014553D02*
X025260Y014553D01*
X025260Y014475D02*
X024740Y014475D01*
X024740Y014396D02*
X025260Y014396D01*
X025292Y014318D02*
X024740Y014318D01*
X024740Y014239D02*
X025325Y014239D01*
X025357Y014161D02*
X024740Y014161D01*
X024740Y014082D02*
X025390Y014082D01*
X025451Y014004D02*
X024740Y014004D01*
X024740Y013925D02*
X025530Y013925D01*
X025608Y013847D02*
X024740Y013847D01*
X024740Y013768D02*
X025720Y013768D01*
X025910Y013690D02*
X024740Y013690D01*
X024740Y013611D02*
X026840Y013611D01*
X026840Y013533D02*
X024740Y013533D01*
X024740Y013454D02*
X026840Y013454D01*
X026840Y013376D02*
X024740Y013376D01*
X024740Y013297D02*
X026840Y013297D01*
X026840Y013219D02*
X024740Y013219D01*
X024740Y013140D02*
X026840Y013140D01*
X026840Y013062D02*
X026529Y013062D01*
X026608Y012983D02*
X026840Y012983D01*
X026840Y012905D02*
X026686Y012905D01*
X026765Y012826D02*
X026840Y012826D01*
X026840Y012748D02*
X026785Y012748D01*
X026785Y012669D02*
X026840Y012669D01*
X026840Y012591D02*
X026785Y012591D01*
X026785Y012512D02*
X026840Y012512D01*
X026840Y012434D02*
X026785Y012434D01*
X026785Y012355D02*
X026840Y012355D01*
X026840Y012277D02*
X026707Y012277D01*
X026629Y012198D02*
X026840Y012198D01*
X026840Y012120D02*
X026550Y012120D01*
X026550Y012041D02*
X026840Y012041D01*
X026840Y011963D02*
X026628Y011963D01*
X026707Y011884D02*
X026840Y011884D01*
X026840Y011806D02*
X026785Y011806D01*
X026785Y011727D02*
X026840Y011727D01*
X026840Y011649D02*
X026785Y011649D01*
X026785Y011570D02*
X026840Y011570D01*
X026840Y011492D02*
X026785Y011492D01*
X026785Y011413D02*
X026840Y011413D01*
X026840Y011335D02*
X026765Y011335D01*
X026840Y011256D02*
X026687Y011256D01*
X026608Y011178D02*
X026840Y011178D01*
X026840Y011099D02*
X026530Y011099D01*
X026429Y011021D02*
X026840Y011021D01*
X026840Y010942D02*
X026507Y010942D01*
X026586Y010864D02*
X026840Y010864D01*
X026840Y010785D02*
X026664Y010785D01*
X026685Y010764D02*
X026424Y011025D01*
X026280Y011025D01*
X026280Y010620D01*
X026200Y010620D01*
X026200Y011025D01*
X026056Y011025D01*
X025795Y010764D01*
X025795Y010620D01*
X026200Y010620D01*
X026200Y010540D01*
X025795Y010540D01*
X025795Y010396D01*
X026056Y010135D01*
X026200Y010135D01*
X026200Y010540D01*
X026280Y010540D01*
X026280Y010620D01*
X026685Y010620D01*
X026685Y010764D01*
X026685Y010707D02*
X026840Y010707D01*
X026840Y010628D02*
X026685Y010628D01*
X026685Y010540D02*
X026280Y010540D01*
X026280Y010135D01*
X026424Y010135D01*
X026685Y010396D01*
X026685Y010540D01*
X026685Y010471D02*
X026840Y010471D01*
X026840Y010393D02*
X026682Y010393D01*
X026604Y010314D02*
X026840Y010314D01*
X026840Y010236D02*
X026525Y010236D01*
X026447Y010157D02*
X026840Y010157D01*
X026840Y010079D02*
X025509Y010079D01*
X025588Y010157D02*
X026033Y010157D01*
X025955Y010236D02*
X025666Y010236D01*
X025745Y010314D02*
X025876Y010314D01*
X025798Y010393D02*
X025785Y010393D01*
X025785Y010471D02*
X025795Y010471D01*
X025785Y010550D02*
X026200Y010550D01*
X026200Y010628D02*
X026280Y010628D01*
X026280Y010550D02*
X026840Y010550D01*
X026840Y010000D02*
X024740Y010000D01*
X024740Y009922D02*
X026840Y009922D01*
X026840Y009843D02*
X024740Y009843D01*
X024740Y009765D02*
X026840Y009765D01*
X026840Y009686D02*
X024740Y009686D01*
X024740Y009608D02*
X026840Y009608D01*
X026840Y009529D02*
X024740Y009529D01*
X024740Y009451D02*
X026840Y009451D01*
X026840Y009372D02*
X024740Y009372D01*
X024740Y009294D02*
X026840Y009294D01*
X026840Y009215D02*
X024740Y009215D01*
X024740Y009137D02*
X026840Y009137D01*
X026840Y009058D02*
X024740Y009058D01*
X024740Y008980D02*
X026840Y008980D01*
X026840Y008901D02*
X024740Y008901D01*
X024740Y008823D02*
X026840Y008823D01*
X026840Y008744D02*
X024740Y008744D01*
X024740Y008666D02*
X026840Y008666D01*
X026840Y008587D02*
X024740Y008587D01*
X024740Y008509D02*
X026840Y008509D01*
X026840Y008430D02*
X024740Y008430D01*
X024740Y008352D02*
X026840Y008352D01*
X026840Y008273D02*
X024740Y008273D01*
X024740Y008195D02*
X026840Y008195D01*
X026840Y008116D02*
X024740Y008116D01*
X024740Y008038D02*
X026840Y008038D01*
X026840Y007959D02*
X024740Y007959D01*
X024740Y007881D02*
X026840Y007881D01*
X026840Y007802D02*
X024740Y007802D01*
X024740Y007724D02*
X026840Y007724D01*
X026840Y007645D02*
X024740Y007645D01*
X024740Y007567D02*
X026840Y007567D01*
X026840Y007488D02*
X024740Y007488D01*
X024740Y007410D02*
X026840Y007410D01*
X026840Y007331D02*
X024740Y007331D01*
X024740Y007253D02*
X026840Y007253D01*
X026840Y007174D02*
X024740Y007174D01*
X024740Y007096D02*
X026840Y007096D01*
X026840Y007017D02*
X024740Y007017D01*
X024740Y006939D02*
X026840Y006939D01*
X026840Y006860D02*
X024740Y006860D01*
X024740Y006782D02*
X026840Y006782D01*
X026840Y006703D02*
X024740Y006703D01*
X024740Y006625D02*
X026840Y006625D01*
X026840Y006546D02*
X024740Y006546D01*
X024740Y006468D02*
X026840Y006468D01*
X026840Y006389D02*
X024740Y006389D01*
X024740Y006311D02*
X026840Y006311D01*
X026840Y006232D02*
X024724Y006232D01*
X024688Y006154D02*
X026840Y006154D01*
X026840Y006075D02*
X024609Y006075D01*
X024531Y005997D02*
X026840Y005997D01*
X026840Y005918D02*
X024452Y005918D01*
X024374Y005840D02*
X026840Y005840D01*
X026840Y005761D02*
X024306Y005761D01*
X024274Y005683D02*
X026840Y005683D01*
X026840Y005604D02*
X024241Y005604D01*
X024168Y005526D02*
X026840Y005526D01*
X026840Y005447D02*
X024090Y005447D01*
X024527Y005369D02*
X026840Y005369D01*
X026840Y005290D02*
X024654Y005290D01*
X024694Y005250D02*
X024694Y005250D01*
X024733Y005212D02*
X026840Y005212D01*
X026840Y005133D02*
X024811Y005133D01*
X024890Y005055D02*
X026840Y005055D01*
X026840Y004976D02*
X024968Y004976D01*
X025047Y004898D02*
X026840Y004898D01*
X026840Y004819D02*
X025125Y004819D01*
X025204Y004741D02*
X026840Y004741D01*
X026840Y004662D02*
X025282Y004662D01*
X025361Y004584D02*
X026840Y004584D01*
X026840Y004505D02*
X026387Y004505D01*
X026576Y004427D02*
X026840Y004427D01*
X026840Y004348D02*
X026737Y004348D01*
X026816Y004270D02*
X026840Y004270D01*
X025993Y004505D02*
X025439Y004505D01*
X025475Y004427D02*
X025804Y004427D01*
X025643Y004348D02*
X025490Y004348D01*
X025490Y004270D02*
X025564Y004270D01*
X023184Y006240D02*
X021696Y006240D01*
X021677Y006286D01*
X021506Y006457D01*
X021281Y006550D01*
X021039Y006550D01*
X020860Y006476D01*
X020869Y006501D01*
X020890Y006550D01*
X020890Y006556D01*
X020892Y006562D01*
X020890Y006616D01*
X020890Y007286D01*
X020893Y007284D01*
X020964Y007247D01*
X021041Y007223D01*
X021120Y007210D01*
X021120Y007680D01*
X021200Y007680D01*
X021200Y007760D01*
X021120Y007760D01*
X021120Y008230D01*
X021120Y008230D01*
X021041Y008217D01*
X020964Y008193D01*
X020893Y008156D01*
X020890Y008154D01*
X020890Y008392D01*
X021039Y008330D01*
X021281Y008330D01*
X021506Y008423D01*
X021677Y008594D01*
X021696Y008640D01*
X022078Y008640D01*
X022126Y008620D01*
X022254Y008620D01*
X022302Y008640D01*
X023184Y008640D01*
X023203Y008594D01*
X023374Y008423D01*
X023599Y008330D01*
X023841Y008330D01*
X024066Y008423D01*
X024140Y008497D01*
X024140Y008010D01*
X024109Y008052D01*
X024052Y008109D01*
X023987Y008156D01*
X023916Y008193D01*
X023839Y008217D01*
X023760Y008230D01*
X023760Y007760D01*
X023680Y007760D01*
X023680Y008230D01*
X023680Y008230D01*
X023601Y008217D01*
X023524Y008193D01*
X023453Y008156D01*
X023388Y008109D01*
X023331Y008052D01*
X023284Y007987D01*
X023247Y007916D01*
X023223Y007839D01*
X023210Y007760D01*
X023680Y007760D01*
X023680Y007680D01*
X023760Y007680D01*
X023760Y007210D01*
X023760Y007210D01*
X023839Y007223D01*
X023916Y007247D01*
X023987Y007284D01*
X024052Y007331D01*
X024109Y007388D01*
X024140Y007430D01*
X024140Y006454D01*
X024104Y006418D01*
X024066Y006457D01*
X023841Y006550D01*
X023599Y006550D01*
X023374Y006457D01*
X023203Y006286D01*
X023184Y006240D01*
X023228Y006311D02*
X021652Y006311D01*
X021574Y006389D02*
X023306Y006389D01*
X023400Y006468D02*
X021480Y006468D01*
X021291Y006546D02*
X023589Y006546D01*
X023851Y006546D02*
X024140Y006546D01*
X024140Y006468D02*
X024040Y006468D01*
X024140Y006625D02*
X020890Y006625D01*
X020890Y006703D02*
X024140Y006703D01*
X024140Y006782D02*
X020890Y006782D01*
X020890Y006860D02*
X024140Y006860D01*
X024140Y006939D02*
X020890Y006939D01*
X020890Y007017D02*
X024140Y007017D01*
X024140Y007096D02*
X020890Y007096D01*
X020890Y007174D02*
X024140Y007174D01*
X024140Y007253D02*
X023926Y007253D01*
X024052Y007331D02*
X024140Y007331D01*
X024140Y007410D02*
X024125Y007410D01*
X023760Y007410D02*
X023680Y007410D01*
X023680Y007488D02*
X023760Y007488D01*
X023760Y007567D02*
X023680Y007567D01*
X023680Y007645D02*
X023760Y007645D01*
X023680Y007680D02*
X023680Y007210D01*
X023680Y007210D01*
X023601Y007223D01*
X023524Y007247D01*
X023453Y007284D01*
X023388Y007331D01*
X023331Y007388D01*
X023284Y007453D01*
X023247Y007524D01*
X023223Y007601D01*
X023210Y007680D01*
X023210Y007680D01*
X023680Y007680D01*
X023680Y007724D02*
X021200Y007724D01*
X021200Y007760D02*
X021670Y007760D01*
X021670Y007760D01*
X021657Y007839D01*
X021633Y007916D01*
X021596Y007987D01*
X021549Y008052D01*
X021492Y008109D01*
X021427Y008156D01*
X021356Y008193D01*
X021279Y008217D01*
X021200Y008230D01*
X021200Y007760D01*
X021200Y007802D02*
X021120Y007802D01*
X021120Y007881D02*
X021200Y007881D01*
X021200Y007959D02*
X021120Y007959D01*
X021120Y008038D02*
X021200Y008038D01*
X021200Y008116D02*
X021120Y008116D01*
X021120Y008195D02*
X021200Y008195D01*
X021200Y008230D02*
X021200Y008230D01*
X021350Y008195D02*
X023530Y008195D01*
X023680Y008195D02*
X023760Y008195D01*
X023760Y008230D02*
X023760Y008230D01*
X023760Y008116D02*
X023680Y008116D01*
X023680Y008038D02*
X023760Y008038D01*
X023760Y007959D02*
X023680Y007959D01*
X023680Y007881D02*
X023760Y007881D01*
X023760Y007802D02*
X023680Y007802D01*
X023320Y008038D02*
X021560Y008038D01*
X021611Y007959D02*
X023269Y007959D01*
X023236Y007881D02*
X021644Y007881D01*
X021663Y007802D02*
X023217Y007802D01*
X023210Y007760D02*
X023210Y007760D01*
X023216Y007645D02*
X021664Y007645D01*
X021670Y007680D02*
X021670Y007680D01*
X021200Y007680D01*
X021200Y007210D01*
X021200Y007210D01*
X021279Y007223D01*
X021356Y007247D01*
X021427Y007284D01*
X021492Y007331D01*
X021549Y007388D01*
X021596Y007453D01*
X021633Y007524D01*
X021657Y007601D01*
X021670Y007680D01*
X021646Y007567D02*
X023234Y007567D01*
X023266Y007488D02*
X021614Y007488D01*
X021565Y007410D02*
X023315Y007410D01*
X023388Y007331D02*
X021492Y007331D01*
X021366Y007253D02*
X023514Y007253D01*
X023680Y007253D02*
X023760Y007253D01*
X023760Y007331D02*
X023680Y007331D01*
X024120Y008038D02*
X024140Y008038D01*
X024140Y008116D02*
X024043Y008116D01*
X024140Y008195D02*
X023910Y008195D01*
X023893Y008352D02*
X024140Y008352D01*
X024140Y008430D02*
X024073Y008430D01*
X024140Y008273D02*
X020890Y008273D01*
X020890Y008195D02*
X020970Y008195D01*
X020987Y008352D02*
X020890Y008352D01*
X020290Y008352D02*
X020143Y008352D01*
X020091Y008330D02*
X020290Y008412D01*
X020290Y008118D01*
X020237Y008156D01*
X020166Y008193D01*
X020089Y008217D01*
X020010Y008230D01*
X020010Y007760D01*
X019930Y007760D01*
X019930Y008230D01*
X019930Y008230D01*
X019851Y008217D01*
X019774Y008193D01*
X019703Y008156D01*
X019638Y008109D01*
X019581Y008052D01*
X019534Y007987D01*
X019497Y007916D01*
X019473Y007839D01*
X019460Y007760D01*
X019930Y007760D01*
X019930Y007680D01*
X020010Y007680D01*
X020010Y007210D01*
X020010Y007210D01*
X020089Y007223D01*
X020166Y007247D01*
X020237Y007284D01*
X020290Y007322D01*
X020290Y006728D01*
X020116Y006540D01*
X020091Y006550D01*
X019849Y006550D01*
X019624Y006457D01*
X019453Y006286D01*
X019434Y006240D01*
X017946Y006240D01*
X017927Y006286D01*
X017756Y006457D01*
X017531Y006550D01*
X017289Y006550D01*
X017064Y006457D01*
X016990Y006383D01*
X016990Y007430D01*
X017021Y007388D01*
X017078Y007331D01*
X017143Y007284D01*
X017214Y007247D01*
X017291Y007223D01*
X017370Y007210D01*
X017370Y007680D01*
X017450Y007680D01*
X017450Y007760D01*
X017370Y007760D01*
X017370Y008230D01*
X017370Y008230D01*
X017291Y008217D01*
X017214Y008193D01*
X017143Y008156D01*
X017078Y008109D01*
X017021Y008052D01*
X016990Y008010D01*
X016990Y008497D01*
X017064Y008423D01*
X017289Y008330D01*
X017531Y008330D01*
X017756Y008423D01*
X017927Y008594D01*
X017946Y008640D01*
X019434Y008640D01*
X019453Y008594D01*
X019624Y008423D01*
X019849Y008330D01*
X020091Y008330D01*
X020010Y008230D02*
X020010Y008230D01*
X020010Y008195D02*
X019930Y008195D01*
X019930Y008116D02*
X020010Y008116D01*
X020010Y008038D02*
X019930Y008038D01*
X019930Y007959D02*
X020010Y007959D01*
X020010Y007881D02*
X019930Y007881D01*
X019930Y007802D02*
X020010Y007802D01*
X019930Y007724D02*
X017450Y007724D01*
X017450Y007760D02*
X017920Y007760D01*
X017920Y007760D01*
X017907Y007839D01*
X017883Y007916D01*
X017846Y007987D01*
X017799Y008052D01*
X017742Y008109D01*
X017677Y008156D01*
X017606Y008193D01*
X017529Y008217D01*
X017450Y008230D01*
X017450Y007760D01*
X017450Y007802D02*
X017370Y007802D01*
X017370Y007881D02*
X017450Y007881D01*
X017450Y007959D02*
X017370Y007959D01*
X017370Y008038D02*
X017450Y008038D01*
X017450Y008116D02*
X017370Y008116D01*
X017370Y008195D02*
X017450Y008195D01*
X017450Y008230D02*
X017450Y008230D01*
X017600Y008195D02*
X019780Y008195D01*
X019647Y008116D02*
X017733Y008116D01*
X017810Y008038D02*
X019570Y008038D01*
X019519Y007959D02*
X017861Y007959D01*
X017894Y007881D02*
X019486Y007881D01*
X019467Y007802D02*
X017913Y007802D01*
X017920Y007680D02*
X017450Y007680D01*
X017450Y007210D01*
X017450Y007210D01*
X017529Y007223D01*
X017606Y007247D01*
X017677Y007284D01*
X017742Y007331D01*
X017799Y007388D01*
X017846Y007453D01*
X017883Y007524D01*
X017907Y007601D01*
X017920Y007680D01*
X017920Y007680D01*
X017914Y007645D02*
X019466Y007645D01*
X019460Y007680D02*
X019473Y007601D01*
X019497Y007524D01*
X019534Y007453D01*
X019581Y007388D01*
X019638Y007331D01*
X019703Y007284D01*
X019774Y007247D01*
X019851Y007223D01*
X019930Y007210D01*
X019930Y007680D01*
X019460Y007680D01*
X019460Y007680D01*
X019460Y007760D02*
X019460Y007760D01*
X019484Y007567D02*
X017896Y007567D01*
X017864Y007488D02*
X019516Y007488D01*
X019565Y007410D02*
X017815Y007410D01*
X017742Y007331D02*
X019638Y007331D01*
X019764Y007253D02*
X017616Y007253D01*
X017450Y007253D02*
X017370Y007253D01*
X017370Y007210D02*
X017370Y007210D01*
X017370Y007331D02*
X017450Y007331D01*
X017450Y007410D02*
X017370Y007410D01*
X017370Y007488D02*
X017450Y007488D01*
X017450Y007567D02*
X017370Y007567D01*
X017370Y007645D02*
X017450Y007645D01*
X017204Y007253D02*
X016990Y007253D01*
X016990Y007331D02*
X017078Y007331D01*
X017005Y007410D02*
X016990Y007410D01*
X016990Y007174D02*
X020290Y007174D01*
X020290Y007096D02*
X016990Y007096D01*
X016990Y007017D02*
X020290Y007017D01*
X020290Y006939D02*
X016990Y006939D01*
X016990Y006860D02*
X020290Y006860D01*
X020290Y006782D02*
X016990Y006782D01*
X016990Y006703D02*
X020267Y006703D01*
X020195Y006625D02*
X016990Y006625D01*
X016990Y006546D02*
X017279Y006546D01*
X017090Y006468D02*
X016990Y006468D01*
X016990Y006389D02*
X016996Y006389D01*
X017541Y006546D02*
X019839Y006546D01*
X019650Y006468D02*
X017730Y006468D01*
X017824Y006389D02*
X019556Y006389D01*
X019478Y006311D02*
X017902Y006311D01*
X020101Y006546D02*
X020122Y006546D01*
X020888Y006546D02*
X021029Y006546D01*
X021120Y007210D02*
X021120Y007210D01*
X021120Y007253D02*
X021200Y007253D01*
X021200Y007331D02*
X021120Y007331D01*
X021120Y007410D02*
X021200Y007410D01*
X021200Y007488D02*
X021120Y007488D01*
X021120Y007567D02*
X021200Y007567D01*
X021200Y007645D02*
X021120Y007645D01*
X020954Y007253D02*
X020890Y007253D01*
X020290Y007253D02*
X020176Y007253D01*
X020010Y007253D02*
X019930Y007253D01*
X019930Y007210D02*
X019930Y007210D01*
X019930Y007331D02*
X020010Y007331D01*
X020010Y007410D02*
X019930Y007410D01*
X019930Y007488D02*
X020010Y007488D01*
X020010Y007567D02*
X019930Y007567D01*
X019930Y007645D02*
X020010Y007645D01*
X020160Y008195D02*
X020290Y008195D01*
X020290Y008273D02*
X016990Y008273D01*
X016990Y008195D02*
X017220Y008195D01*
X017087Y008116D02*
X016990Y008116D01*
X016990Y008038D02*
X017010Y008038D01*
X016990Y008352D02*
X017237Y008352D01*
X017057Y008430D02*
X016990Y008430D01*
X017583Y008352D02*
X019797Y008352D01*
X019617Y008430D02*
X017763Y008430D01*
X017841Y008509D02*
X019539Y008509D01*
X019460Y008587D02*
X017920Y008587D01*
X017919Y009294D02*
X018390Y009294D01*
X018390Y009372D02*
X017841Y009372D01*
X017762Y009451D02*
X018390Y009451D01*
X018390Y009529D02*
X017582Y009529D01*
X017238Y009529D02*
X016990Y009529D01*
X016990Y009451D02*
X017058Y009451D01*
X016990Y009608D02*
X018390Y009608D01*
X018390Y009686D02*
X016990Y009686D01*
X016990Y009765D02*
X018390Y009765D01*
X018390Y009843D02*
X016990Y009843D01*
X016990Y009922D02*
X018390Y009922D01*
X018390Y010000D02*
X016990Y010000D01*
X016990Y010079D02*
X018390Y010079D01*
X018390Y010157D02*
X016983Y010157D01*
X016950Y010236D02*
X017251Y010236D01*
X017370Y010236D02*
X017450Y010236D01*
X017450Y010314D02*
X017370Y010314D01*
X017370Y010393D02*
X017450Y010393D01*
X017450Y010471D02*
X017370Y010471D01*
X017370Y010550D02*
X017450Y010550D01*
X017450Y010785D02*
X017370Y010785D01*
X017370Y010864D02*
X017450Y010864D01*
X017450Y010942D02*
X017370Y010942D01*
X017370Y011021D02*
X017450Y011021D01*
X017450Y011099D02*
X017370Y011099D01*
X017370Y011178D02*
X017450Y011178D01*
X017185Y011178D02*
X008730Y011178D01*
X008697Y011099D02*
X017068Y011099D01*
X016998Y011021D02*
X008665Y011021D01*
X008590Y010942D02*
X016951Y010942D01*
X016920Y010864D02*
X008511Y010864D01*
X008330Y010785D02*
X016904Y010785D01*
X016900Y010760D02*
X016900Y010760D01*
X016908Y010628D02*
X016504Y010628D01*
X016645Y010550D02*
X016929Y010550D01*
X016964Y010471D02*
X016723Y010471D01*
X016802Y010393D02*
X017018Y010393D01*
X017101Y010314D02*
X016880Y010314D01*
X017370Y010210D02*
X017370Y010210D01*
X017569Y010236D02*
X018390Y010236D01*
X018390Y010314D02*
X017719Y010314D01*
X017802Y010393D02*
X018390Y010393D01*
X018390Y010471D02*
X017856Y010471D01*
X017891Y010550D02*
X018390Y010550D01*
X018390Y010628D02*
X017912Y010628D01*
X017920Y010680D02*
X017920Y010680D01*
X018990Y010707D02*
X019930Y010707D01*
X019930Y010680D02*
X019460Y010680D01*
X019460Y010680D01*
X019473Y010601D01*
X019497Y010524D01*
X019534Y010453D01*
X019581Y010388D01*
X019638Y010331D01*
X019703Y010284D01*
X019774Y010247D01*
X019851Y010223D01*
X019930Y010210D01*
X019930Y010680D01*
X019930Y010628D02*
X020010Y010628D01*
X020010Y010550D02*
X019930Y010550D01*
X019930Y010471D02*
X020010Y010471D01*
X020010Y010393D02*
X019930Y010393D01*
X019930Y010314D02*
X020010Y010314D01*
X020010Y010236D02*
X019930Y010236D01*
X019930Y010210D02*
X019930Y010210D01*
X019811Y010236D02*
X018990Y010236D01*
X018990Y010314D02*
X019661Y010314D01*
X019578Y010393D02*
X018990Y010393D01*
X018990Y010471D02*
X019524Y010471D01*
X019489Y010550D02*
X018990Y010550D01*
X018990Y010628D02*
X019468Y010628D01*
X019460Y010760D02*
X019460Y010760D01*
X019464Y010785D02*
X018990Y010785D01*
X018990Y010864D02*
X019480Y010864D01*
X019511Y010942D02*
X018990Y010942D01*
X018990Y011021D02*
X019558Y011021D01*
X019628Y011099D02*
X018990Y011099D01*
X018990Y011178D02*
X019745Y011178D01*
X019930Y011178D02*
X020010Y011178D01*
X020010Y011230D02*
X020010Y011230D01*
X020010Y011099D02*
X019930Y011099D01*
X019930Y011021D02*
X020010Y011021D01*
X020010Y010942D02*
X019930Y010942D01*
X019930Y010864D02*
X020010Y010864D01*
X020010Y010785D02*
X019930Y010785D01*
X020195Y011178D02*
X020290Y011178D01*
X020290Y011256D02*
X018990Y011256D01*
X018990Y011335D02*
X020290Y011335D01*
X020290Y011413D02*
X018990Y011413D01*
X018990Y011492D02*
X020290Y011492D01*
X020290Y011570D02*
X018990Y011570D01*
X018990Y011649D02*
X020290Y011649D01*
X020290Y011727D02*
X018990Y011727D01*
X018990Y011806D02*
X020290Y011806D01*
X020290Y011884D02*
X018990Y011884D01*
X018990Y011963D02*
X020290Y011963D01*
X020290Y012041D02*
X018990Y012041D01*
X018990Y012120D02*
X020290Y012120D01*
X020290Y012198D02*
X018990Y012198D01*
X018990Y012277D02*
X020290Y012277D01*
X020290Y012355D02*
X018990Y012355D01*
X018990Y012434D02*
X020290Y012434D01*
X020290Y012512D02*
X018990Y012512D01*
X018990Y012591D02*
X020290Y012591D01*
X020290Y012669D02*
X018990Y012669D01*
X018990Y012748D02*
X020290Y012748D01*
X020290Y012826D02*
X018990Y012826D01*
X018390Y012669D02*
X017612Y012669D01*
X017561Y012690D02*
X017319Y012690D01*
X017094Y012597D01*
X016923Y012426D01*
X016830Y012201D01*
X016830Y011959D01*
X016923Y011734D01*
X017094Y011563D01*
X017319Y011470D01*
X017561Y011470D01*
X017786Y011563D01*
X017957Y011734D01*
X018050Y011959D01*
X018050Y012201D01*
X017957Y012426D01*
X017786Y012597D01*
X017561Y012690D01*
X017792Y012591D02*
X018390Y012591D01*
X018390Y012512D02*
X017871Y012512D01*
X017949Y012434D02*
X018390Y012434D01*
X018390Y012355D02*
X017986Y012355D01*
X018019Y012277D02*
X018390Y012277D01*
X018390Y012198D02*
X018050Y012198D01*
X018050Y012120D02*
X018390Y012120D01*
X018390Y012041D02*
X018050Y012041D01*
X018050Y011963D02*
X018390Y011963D01*
X018390Y011884D02*
X018019Y011884D01*
X017987Y011806D02*
X018390Y011806D01*
X018390Y011727D02*
X017950Y011727D01*
X017871Y011649D02*
X018390Y011649D01*
X018390Y011570D02*
X017793Y011570D01*
X017613Y011492D02*
X018390Y011492D01*
X017267Y011492D02*
X016363Y011492D01*
X016543Y011570D02*
X017087Y011570D01*
X017009Y011649D02*
X016621Y011649D01*
X016700Y011727D02*
X016930Y011727D01*
X016893Y011806D02*
X016737Y011806D01*
X016769Y011884D02*
X016861Y011884D01*
X016830Y011963D02*
X016800Y011963D01*
X016800Y012041D02*
X016830Y012041D01*
X016830Y012120D02*
X016800Y012120D01*
X016800Y012198D02*
X016830Y012198D01*
X016861Y012277D02*
X016769Y012277D01*
X016736Y012355D02*
X016894Y012355D01*
X016931Y012434D02*
X016699Y012434D01*
X016621Y012512D02*
X017009Y012512D01*
X017088Y012591D02*
X016542Y012591D01*
X016362Y012669D02*
X017268Y012669D01*
X018990Y014318D02*
X019251Y014318D01*
X019214Y014396D02*
X018990Y014396D01*
X019980Y014161D02*
X020290Y014161D01*
X020290Y014239D02*
X020070Y014239D01*
X020129Y014318D02*
X020290Y014318D01*
X020290Y014396D02*
X020166Y014396D01*
X020190Y014475D02*
X020290Y014475D01*
X020200Y014540D02*
X020200Y014540D01*
X020290Y014082D02*
X020051Y014082D01*
X020129Y014004D02*
X020290Y014004D01*
X020290Y013925D02*
X020207Y013925D01*
X020240Y013847D02*
X020290Y013847D01*
X020290Y013768D02*
X020272Y013768D01*
X020890Y013297D02*
X021370Y013297D01*
X021370Y013219D02*
X020890Y013219D01*
X020890Y013140D02*
X021370Y013140D01*
X021370Y013062D02*
X020890Y013062D01*
X020890Y012983D02*
X021370Y012983D01*
X021370Y012905D02*
X020890Y012905D01*
X020890Y012826D02*
X021370Y012826D01*
X021370Y012748D02*
X020890Y012748D01*
X020890Y012669D02*
X021370Y012669D01*
X021370Y012591D02*
X020890Y012591D01*
X020890Y012512D02*
X021370Y012512D01*
X021370Y012434D02*
X020890Y012434D01*
X020890Y012355D02*
X021370Y012355D01*
X021370Y012277D02*
X020890Y012277D01*
X020890Y012198D02*
X021370Y012198D01*
X021370Y012120D02*
X020890Y012120D01*
X020890Y012041D02*
X021370Y012041D01*
X021370Y011963D02*
X020890Y011963D01*
X020890Y011884D02*
X021370Y011884D01*
X021370Y011806D02*
X020890Y011806D01*
X020890Y011727D02*
X021370Y011727D01*
X021370Y011649D02*
X020890Y011649D01*
X020890Y011570D02*
X021370Y011570D01*
X021380Y011492D02*
X020890Y011492D01*
X020890Y011413D02*
X021413Y011413D01*
X021483Y011335D02*
X020890Y011335D01*
X020890Y011256D02*
X021561Y011256D01*
X021640Y011178D02*
X021385Y011178D01*
X021356Y011193D02*
X021279Y011217D01*
X021200Y011230D01*
X021200Y010760D01*
X021670Y010760D01*
X021670Y010760D01*
X021657Y010839D01*
X021633Y010916D01*
X021596Y010987D01*
X021549Y011052D01*
X021492Y011109D01*
X021427Y011156D01*
X021356Y011193D01*
X021200Y011178D02*
X021120Y011178D01*
X021120Y011099D02*
X021200Y011099D01*
X021200Y011021D02*
X021120Y011021D01*
X021120Y010942D02*
X021200Y010942D01*
X021200Y010864D02*
X021120Y010864D01*
X021120Y010785D02*
X021200Y010785D01*
X021200Y010707D02*
X021870Y010707D01*
X021870Y010785D02*
X021666Y010785D01*
X021650Y010864D02*
X021870Y010864D01*
X021870Y010942D02*
X021619Y010942D01*
X021572Y011021D02*
X021797Y011021D01*
X021718Y011099D02*
X021502Y011099D01*
X021200Y011230D02*
X021200Y011230D01*
X020935Y011178D02*
X020890Y011178D01*
X021200Y010680D02*
X021670Y010680D01*
X021670Y010680D01*
X021657Y010601D01*
X021633Y010524D01*
X021596Y010453D01*
X021549Y010388D01*
X021492Y010331D01*
X021427Y010284D01*
X021356Y010247D01*
X021279Y010223D01*
X021200Y010210D01*
X021200Y010210D01*
X021200Y010680D01*
X021200Y010628D02*
X021120Y010628D01*
X021120Y010550D02*
X021200Y010550D01*
X021200Y010471D02*
X021120Y010471D01*
X021120Y010393D02*
X021200Y010393D01*
X021200Y010314D02*
X021120Y010314D01*
X021120Y010236D02*
X021200Y010236D01*
X021120Y010210D02*
X021120Y010210D01*
X021001Y010236D02*
X020890Y010236D01*
X020890Y010157D02*
X021870Y010157D01*
X021870Y010079D02*
X020890Y010079D01*
X020890Y010000D02*
X021870Y010000D01*
X021870Y009922D02*
X020890Y009922D01*
X020890Y009843D02*
X021870Y009843D01*
X021870Y009765D02*
X020890Y009765D01*
X020890Y009686D02*
X021870Y009686D01*
X021870Y009608D02*
X020890Y009608D01*
X020890Y009529D02*
X020988Y009529D01*
X021332Y009529D02*
X021870Y009529D01*
X021870Y009451D02*
X021512Y009451D01*
X021591Y009372D02*
X021870Y009372D01*
X021870Y009294D02*
X021669Y009294D01*
X021670Y008587D02*
X023210Y008587D01*
X023289Y008509D02*
X021591Y008509D01*
X021513Y008430D02*
X023367Y008430D01*
X023547Y008352D02*
X021333Y008352D01*
X021483Y008116D02*
X023397Y008116D01*
X023211Y009294D02*
X022510Y009294D01*
X022510Y009372D02*
X023289Y009372D01*
X023368Y009451D02*
X022510Y009451D01*
X022510Y009529D02*
X023548Y009529D01*
X023892Y009529D02*
X024140Y009529D01*
X024140Y009451D02*
X024072Y009451D01*
X024140Y009608D02*
X022510Y009608D01*
X022510Y009686D02*
X024140Y009686D01*
X024140Y009765D02*
X022510Y009765D01*
X022510Y009843D02*
X024140Y009843D01*
X024140Y009922D02*
X022510Y009922D01*
X022510Y010000D02*
X024140Y010000D01*
X024140Y010079D02*
X022510Y010079D01*
X022510Y010157D02*
X024140Y010157D01*
X024140Y010236D02*
X023879Y010236D01*
X023760Y010236D02*
X023680Y010236D01*
X023680Y010210D02*
X023680Y010680D01*
X023210Y010680D01*
X023210Y010680D01*
X023223Y010601D01*
X023247Y010524D01*
X023284Y010453D01*
X023331Y010388D01*
X023388Y010331D01*
X023453Y010284D01*
X023524Y010247D01*
X023601Y010223D01*
X023680Y010210D01*
X023680Y010210D01*
X023680Y010314D02*
X023760Y010314D01*
X023760Y010393D02*
X023680Y010393D01*
X023680Y010471D02*
X023760Y010471D01*
X023760Y010550D02*
X023680Y010550D01*
X023680Y010628D02*
X023760Y010628D01*
X023680Y010707D02*
X022510Y010707D01*
X022510Y010785D02*
X023214Y010785D01*
X023210Y010760D02*
X023210Y010760D01*
X023230Y010864D02*
X022510Y010864D01*
X022510Y010942D02*
X023261Y010942D01*
X023308Y011021D02*
X022510Y011021D01*
X022510Y011099D02*
X023378Y011099D01*
X023495Y011178D02*
X022496Y011178D01*
X022463Y011256D02*
X024140Y011256D01*
X024140Y011178D02*
X023945Y011178D01*
X024062Y011099D02*
X024140Y011099D01*
X024132Y011021D02*
X024140Y011021D01*
X023760Y011021D02*
X023680Y011021D01*
X023680Y011099D02*
X023760Y011099D01*
X023760Y011178D02*
X023680Y011178D01*
X023760Y011230D02*
X023760Y011230D01*
X023760Y010942D02*
X023680Y010942D01*
X023680Y010864D02*
X023760Y010864D01*
X023760Y010785D02*
X023680Y010785D01*
X023274Y010471D02*
X022510Y010471D01*
X022510Y010393D02*
X023328Y010393D01*
X023411Y010314D02*
X022510Y010314D01*
X022510Y010236D02*
X023561Y010236D01*
X023239Y010550D02*
X022510Y010550D01*
X022510Y010628D02*
X023218Y010628D01*
X024029Y010314D02*
X024140Y010314D01*
X024140Y010393D02*
X024112Y010393D01*
X024740Y010236D02*
X024814Y010236D01*
X024740Y010157D02*
X024892Y010157D01*
X024971Y010079D02*
X024740Y010079D01*
X025785Y010628D02*
X025795Y010628D01*
X025785Y010707D02*
X025795Y010707D01*
X025785Y010785D02*
X025816Y010785D01*
X025894Y010864D02*
X025727Y010864D01*
X025649Y010942D02*
X025973Y010942D01*
X026051Y011021D02*
X025570Y011021D01*
X025530Y011099D02*
X025950Y011099D01*
X025872Y011178D02*
X025608Y011178D01*
X025687Y011256D02*
X025793Y011256D01*
X026200Y011021D02*
X026280Y011021D01*
X026280Y010942D02*
X026200Y010942D01*
X026200Y010864D02*
X026280Y010864D01*
X026280Y010785D02*
X026200Y010785D01*
X026200Y010707D02*
X026280Y010707D01*
X026280Y010471D02*
X026200Y010471D01*
X026200Y010393D02*
X026280Y010393D01*
X026280Y010314D02*
X026200Y010314D01*
X026200Y010236D02*
X026280Y010236D01*
X026280Y010157D02*
X026200Y010157D01*
X024140Y011335D02*
X022388Y011335D01*
X022310Y011413D02*
X024140Y011413D01*
X024140Y011492D02*
X022231Y011492D01*
X022153Y011570D02*
X024140Y011570D01*
X024140Y011649D02*
X022074Y011649D01*
X022010Y011727D02*
X024140Y011727D01*
X024140Y011806D02*
X022010Y011806D01*
X022010Y011884D02*
X024140Y011884D01*
X024140Y011963D02*
X022010Y011963D01*
X022010Y012041D02*
X024140Y012041D01*
X024140Y012120D02*
X022010Y012120D01*
X022010Y012198D02*
X024140Y012198D01*
X024140Y012277D02*
X022010Y012277D01*
X022010Y012355D02*
X024140Y012355D01*
X024140Y012434D02*
X022010Y012434D01*
X022010Y012512D02*
X024140Y012512D01*
X024140Y012591D02*
X022010Y012591D01*
X022010Y012669D02*
X024140Y012669D01*
X024140Y012748D02*
X022010Y012748D01*
X022010Y012826D02*
X024140Y012826D01*
X024740Y012905D02*
X024794Y012905D01*
X024740Y012983D02*
X024872Y012983D01*
X024951Y013062D02*
X024740Y013062D01*
X025529Y013062D02*
X025951Y013062D01*
X025872Y012983D02*
X025608Y012983D01*
X025686Y012905D02*
X025794Y012905D01*
X026470Y013690D02*
X026840Y013690D01*
X026840Y013768D02*
X026660Y013768D01*
X026772Y013847D02*
X026840Y013847D01*
X026826Y015260D02*
X026840Y015260D01*
X026837Y015338D02*
X026747Y015338D01*
X026758Y015417D02*
X026600Y015417D01*
X026680Y015495D02*
X026411Y015495D01*
X025840Y019028D02*
X025513Y019028D01*
X025591Y019106D02*
X025840Y019106D01*
X025840Y019185D02*
X025647Y019185D01*
X025680Y019263D02*
X025840Y019263D01*
X025840Y019342D02*
X025710Y019342D01*
X025710Y019420D02*
X025840Y019420D01*
X025840Y019499D02*
X025710Y019499D01*
X025710Y019577D02*
X025840Y019577D01*
X025840Y019656D02*
X025710Y019656D01*
X025710Y019734D02*
X025840Y019734D01*
X025840Y019813D02*
X025710Y019813D01*
X025682Y019891D02*
X025840Y019891D01*
X025840Y019970D02*
X025649Y019970D01*
X025597Y020048D02*
X025840Y020048D01*
X025840Y020127D02*
X025612Y020127D01*
X025656Y020205D02*
X025840Y020205D01*
X025840Y020284D02*
X025688Y020284D01*
X025710Y020362D02*
X025840Y020362D01*
X025840Y020441D02*
X025710Y020441D01*
X025710Y020519D02*
X025840Y020519D01*
X025840Y020598D02*
X025710Y020598D01*
X025710Y020676D02*
X025840Y020676D01*
X025840Y020755D02*
X025710Y020755D01*
X025706Y020833D02*
X025840Y020833D01*
X025763Y020912D02*
X025673Y020912D01*
X025685Y020990D02*
X025641Y020990D01*
X025606Y021069D02*
X025577Y021069D01*
X025528Y021147D02*
X025498Y021147D01*
X025449Y021226D02*
X025328Y021226D01*
X019789Y019106D02*
X019591Y019106D01*
X019647Y019185D02*
X019733Y019185D01*
X019700Y019263D02*
X019680Y019263D01*
X011452Y021226D02*
X009728Y021226D01*
X009898Y021147D02*
X011282Y021147D01*
X011203Y021069D02*
X010825Y021069D01*
X010810Y021079D02*
X010751Y021109D01*
X010688Y021130D01*
X010630Y021139D01*
X010630Y020620D01*
X011010Y020620D01*
X011010Y020753D01*
X011000Y020818D01*
X010979Y020881D01*
X010949Y020940D01*
X010910Y020994D01*
X010864Y021040D01*
X010810Y021079D01*
X010913Y020990D02*
X011139Y020990D01*
X011107Y020912D02*
X010964Y020912D01*
X010995Y020833D02*
X011074Y020833D01*
X011070Y020755D02*
X011010Y020755D01*
X011010Y020676D02*
X011070Y020676D01*
X011070Y020598D02*
X010630Y020598D01*
X010630Y020540D02*
X011010Y020540D01*
X011010Y020407D01*
X011000Y020342D01*
X010979Y020279D01*
X010949Y020220D01*
X010910Y020166D01*
X010864Y020120D01*
X010810Y020081D01*
X010809Y020080D01*
X010810Y020079D01*
X010864Y020040D01*
X010910Y019994D01*
X010949Y019940D01*
X010979Y019881D01*
X011000Y019818D01*
X011010Y019753D01*
X011010Y019620D01*
X010630Y019620D01*
X010630Y020540D01*
X010630Y020519D02*
X010550Y020519D01*
X010550Y020441D02*
X010630Y020441D01*
X010630Y020362D02*
X010550Y020362D01*
X010550Y020284D02*
X010630Y020284D01*
X010630Y020205D02*
X010550Y020205D01*
X010550Y020127D02*
X010630Y020127D01*
X010630Y020048D02*
X010550Y020048D01*
X010550Y019970D02*
X010630Y019970D01*
X010630Y019891D02*
X010550Y019891D01*
X010550Y019813D02*
X010630Y019813D01*
X010630Y019734D02*
X010550Y019734D01*
X010550Y019656D02*
X010630Y019656D01*
X010630Y019577D02*
X011070Y019577D01*
X011070Y019499D02*
X011010Y019499D01*
X011010Y019656D02*
X011070Y019656D01*
X011070Y019734D02*
X011010Y019734D01*
X011001Y019813D02*
X011070Y019813D01*
X011098Y019891D02*
X010974Y019891D01*
X010928Y019970D02*
X011131Y019970D01*
X011183Y020048D02*
X010853Y020048D01*
X010871Y020127D02*
X011168Y020127D01*
X011124Y020205D02*
X010938Y020205D01*
X010981Y020284D02*
X011092Y020284D01*
X011070Y020362D02*
X011003Y020362D01*
X011010Y020441D02*
X011070Y020441D01*
X011070Y020519D02*
X011010Y020519D01*
X010630Y020676D02*
X010550Y020676D01*
X010550Y020598D02*
X010110Y020598D01*
X010110Y020676D02*
X010170Y020676D01*
X010170Y020755D02*
X010110Y020755D01*
X010106Y020833D02*
X010185Y020833D01*
X010216Y020912D02*
X010073Y020912D01*
X010041Y020990D02*
X010267Y020990D01*
X010355Y021069D02*
X009977Y021069D01*
X010110Y020519D02*
X010170Y020519D01*
X010170Y020441D02*
X010110Y020441D01*
X010110Y020362D02*
X010177Y020362D01*
X010199Y020284D02*
X010088Y020284D01*
X010056Y020205D02*
X010242Y020205D01*
X010309Y020127D02*
X010012Y020127D01*
X009997Y020048D02*
X010327Y020048D01*
X010252Y019970D02*
X010049Y019970D01*
X010082Y019891D02*
X010206Y019891D01*
X010179Y019813D02*
X010110Y019813D01*
X010110Y019734D02*
X010170Y019734D01*
X010170Y019656D02*
X010110Y019656D01*
X010110Y019577D02*
X010550Y019577D01*
X010550Y019540D02*
X010170Y019540D01*
X010170Y019407D01*
X010180Y019342D01*
X010201Y019279D01*
X010231Y019220D01*
X010270Y019166D01*
X010316Y019120D01*
X010370Y019081D01*
X010429Y019051D01*
X010492Y019030D01*
X010550Y019021D01*
X010550Y019540D01*
X010550Y019499D02*
X010630Y019499D01*
X010630Y019420D02*
X010550Y019420D01*
X010550Y019342D02*
X010630Y019342D01*
X010630Y019263D02*
X010550Y019263D01*
X010550Y019185D02*
X010630Y019185D01*
X010630Y019106D02*
X010550Y019106D01*
X010550Y019028D02*
X010630Y019028D01*
X010671Y019028D02*
X010900Y019028D01*
X010896Y019106D02*
X010845Y019106D01*
X010900Y018949D02*
X009764Y018949D01*
X009913Y019028D02*
X010509Y019028D01*
X010335Y019106D02*
X009991Y019106D01*
X010047Y019185D02*
X010256Y019185D01*
X010209Y019263D02*
X010080Y019263D01*
X010110Y019342D02*
X010180Y019342D01*
X010170Y019420D02*
X010110Y019420D01*
X010110Y019499D02*
X010170Y019499D01*
X009416Y018949D02*
X008764Y018949D01*
X008913Y019028D02*
X009267Y019028D01*
X009189Y019106D02*
X008991Y019106D01*
X009047Y019185D02*
X009133Y019185D01*
X009100Y019263D02*
X009080Y019263D01*
X008416Y018949D02*
X007764Y018949D01*
X007913Y019028D02*
X008267Y019028D01*
X008189Y019106D02*
X007991Y019106D01*
X008047Y019185D02*
X008133Y019185D01*
X008100Y019263D02*
X008080Y019263D01*
X007416Y018949D02*
X005080Y018949D01*
X005080Y018871D02*
X010900Y018871D01*
X010900Y018792D02*
X005069Y018792D01*
X005080Y018819D02*
X004987Y018594D01*
X004816Y018423D01*
X004591Y018330D01*
X004349Y018330D01*
X004124Y018423D01*
X003953Y018594D01*
X003860Y018819D01*
X003860Y019061D01*
X003953Y019286D01*
X004124Y019457D01*
X004349Y019550D01*
X004591Y019550D01*
X004816Y019457D01*
X004987Y019286D01*
X005080Y019061D01*
X005080Y018819D01*
X005036Y018714D02*
X010900Y018714D01*
X010900Y018635D02*
X005004Y018635D01*
X004949Y018557D02*
X010900Y018557D01*
X010900Y018478D02*
X004871Y018478D01*
X004759Y018400D02*
X010900Y018400D01*
X010900Y018321D02*
X000540Y018321D01*
X000540Y018243D02*
X010900Y018243D01*
X010900Y018164D02*
X007922Y018164D01*
X007856Y018230D02*
X007730Y018230D01*
X007730Y017870D01*
X007650Y017870D01*
X007650Y018230D01*
X007524Y018230D01*
X007290Y017996D01*
X007290Y017870D01*
X007650Y017870D01*
X007650Y017790D01*
X007290Y017790D01*
X007290Y017664D01*
X007524Y017430D01*
X007650Y017430D01*
X007650Y017790D01*
X007730Y017790D01*
X007730Y017870D01*
X008090Y017870D01*
X008090Y017996D01*
X007856Y018230D01*
X007730Y018164D02*
X007650Y018164D01*
X007650Y018086D02*
X007730Y018086D01*
X007730Y018007D02*
X007650Y018007D01*
X007650Y017929D02*
X007730Y017929D01*
X007730Y017850D02*
X010900Y017850D01*
X010900Y017772D02*
X008090Y017772D01*
X008090Y017790D02*
X007730Y017790D01*
X007730Y017430D01*
X007856Y017430D01*
X008090Y017664D01*
X008090Y017790D01*
X008090Y017693D02*
X010900Y017693D01*
X010900Y017615D02*
X008040Y017615D01*
X007962Y017536D02*
X010900Y017536D01*
X010900Y017458D02*
X007883Y017458D01*
X007730Y017458D02*
X007650Y017458D01*
X007650Y017536D02*
X007730Y017536D01*
X007730Y017615D02*
X007650Y017615D01*
X007650Y017693D02*
X007730Y017693D01*
X007730Y017772D02*
X007650Y017772D01*
X007650Y017850D02*
X005390Y017850D01*
X005536Y017772D02*
X007290Y017772D01*
X007290Y017693D02*
X005615Y017693D01*
X005675Y017615D02*
X007340Y017615D01*
X007418Y017536D02*
X005708Y017536D01*
X005740Y017458D02*
X007497Y017458D01*
X007519Y017301D02*
X005747Y017301D01*
X005747Y017379D02*
X010900Y017379D01*
X010900Y017301D02*
X007861Y017301D01*
X008005Y017222D02*
X010900Y017222D01*
X010900Y017144D02*
X010874Y017144D01*
X010330Y016437D02*
X008004Y016437D01*
X007858Y016359D02*
X010330Y016359D01*
X010330Y016280D02*
X005747Y016280D01*
X005747Y016359D02*
X007522Y016359D01*
X007376Y016437D02*
X005747Y016437D01*
X005716Y016516D02*
X007297Y016516D01*
X007247Y016594D02*
X005684Y016594D01*
X005635Y016673D02*
X007214Y016673D01*
X007190Y016751D02*
X005557Y016751D01*
X005440Y016830D02*
X007190Y016830D01*
X007190Y016908D02*
X005556Y016908D01*
X005635Y016987D02*
X007214Y016987D01*
X007246Y017065D02*
X005683Y017065D01*
X005716Y017144D02*
X007296Y017144D01*
X007375Y017222D02*
X005747Y017222D01*
X004844Y017772D02*
X004536Y017772D01*
X004615Y017693D02*
X004765Y017693D01*
X004705Y017615D02*
X004675Y017615D01*
X004390Y017850D02*
X004990Y017850D01*
X004181Y018400D02*
X002199Y018400D01*
X002256Y018423D02*
X002427Y018594D01*
X002520Y018819D01*
X002520Y019061D01*
X002427Y019286D01*
X002256Y019457D01*
X002031Y019550D01*
X001789Y019550D01*
X001564Y019457D01*
X001393Y019286D01*
X001300Y019061D01*
X001300Y018819D01*
X001393Y018594D01*
X001564Y018423D01*
X001789Y018330D01*
X002031Y018330D01*
X002256Y018423D01*
X002311Y018478D02*
X004069Y018478D01*
X003991Y018557D02*
X002389Y018557D01*
X002444Y018635D02*
X003936Y018635D01*
X003904Y018714D02*
X002476Y018714D01*
X002509Y018792D02*
X003871Y018792D01*
X003860Y018871D02*
X002520Y018871D01*
X002520Y018949D02*
X003860Y018949D01*
X003860Y019028D02*
X002520Y019028D01*
X002501Y019106D02*
X003879Y019106D01*
X003911Y019185D02*
X002469Y019185D01*
X002436Y019263D02*
X003944Y019263D01*
X004009Y019342D02*
X002371Y019342D01*
X002293Y019420D02*
X004087Y019420D01*
X004224Y019499D02*
X002156Y019499D01*
X001664Y019499D02*
X000540Y019499D01*
X000540Y019577D02*
X007070Y019577D01*
X007070Y019499D02*
X004716Y019499D01*
X004853Y019420D02*
X007070Y019420D01*
X007070Y019342D02*
X004931Y019342D01*
X004996Y019263D02*
X007100Y019263D01*
X007133Y019185D02*
X005029Y019185D01*
X005061Y019106D02*
X007189Y019106D01*
X007267Y019028D02*
X005080Y019028D01*
X005802Y019734D02*
X000540Y019734D01*
X000540Y019656D02*
X005992Y019656D01*
X005642Y019813D02*
X000540Y019813D01*
X000540Y019891D02*
X005564Y019891D01*
X005485Y019970D02*
X000540Y019970D01*
X000540Y020048D02*
X005407Y020048D01*
X005371Y020127D02*
X000540Y020127D01*
X000540Y020205D02*
X005339Y020205D01*
X005306Y020284D02*
X004737Y020284D01*
X004802Y020331D01*
X004859Y020388D01*
X004906Y020453D01*
X004943Y020524D01*
X004967Y020601D01*
X004980Y020680D01*
X004510Y020680D01*
X004510Y020760D01*
X004980Y020760D01*
X004980Y020760D01*
X004967Y020839D01*
X004943Y020916D01*
X004906Y020987D01*
X004859Y021052D01*
X004802Y021109D01*
X004737Y021156D01*
X004666Y021193D01*
X004589Y021217D01*
X004510Y021230D01*
X004510Y021230D01*
X004510Y020760D01*
X004430Y020760D01*
X004430Y021230D01*
X004430Y021230D01*
X004351Y021217D01*
X004274Y021193D01*
X004203Y021156D01*
X004138Y021109D01*
X004081Y021052D01*
X004034Y020987D01*
X003997Y020916D01*
X003973Y020839D01*
X003960Y020760D01*
X004430Y020760D01*
X004430Y020680D01*
X004510Y020680D01*
X004510Y020210D01*
X004510Y020210D01*
X004589Y020223D01*
X004666Y020247D01*
X004737Y020284D01*
X004833Y020362D02*
X005274Y020362D01*
X005260Y020441D02*
X004897Y020441D01*
X004940Y020519D02*
X005260Y020519D01*
X005260Y020598D02*
X004966Y020598D01*
X004979Y020676D02*
X005260Y020676D01*
X005260Y020755D02*
X004510Y020755D01*
X004510Y020833D02*
X004430Y020833D01*
X004430Y020755D02*
X001950Y020755D01*
X001950Y020760D02*
X002420Y020760D01*
X002420Y020760D01*
X002407Y020839D01*
X002383Y020916D01*
X002346Y020987D01*
X002299Y021052D01*
X002242Y021109D01*
X002177Y021156D01*
X002106Y021193D01*
X002029Y021217D01*
X001950Y021230D01*
X001950Y021230D01*
X001950Y020760D01*
X001950Y020680D01*
X002420Y020680D01*
X002420Y020680D01*
X002407Y020601D01*
X002383Y020524D01*
X002346Y020453D01*
X002299Y020388D01*
X002242Y020331D01*
X002177Y020284D01*
X002106Y020247D01*
X002029Y020223D01*
X001950Y020210D01*
X001950Y020210D01*
X001950Y020680D01*
X001870Y020680D01*
X001870Y020210D01*
X001870Y020210D01*
X001791Y020223D01*
X001714Y020247D01*
X001643Y020284D01*
X001578Y020331D01*
X001521Y020388D01*
X001474Y020453D01*
X001437Y020524D01*
X001413Y020601D01*
X001400Y020680D01*
X001400Y020680D01*
X001870Y020680D01*
X001870Y020760D01*
X001870Y021230D01*
X001870Y021230D01*
X001791Y021217D01*
X001714Y021193D01*
X001643Y021156D01*
X001578Y021109D01*
X001521Y021052D01*
X001474Y020987D01*
X001437Y020916D01*
X001413Y020839D01*
X001400Y020760D01*
X001870Y020760D01*
X001950Y020760D01*
X001950Y020833D02*
X001870Y020833D01*
X001870Y020755D02*
X000540Y020755D01*
X000540Y020833D02*
X001412Y020833D01*
X001400Y020760D02*
X001400Y020760D01*
X001401Y020676D02*
X000540Y020676D01*
X000540Y020598D02*
X001414Y020598D01*
X001440Y020519D02*
X000540Y020519D01*
X000540Y020441D02*
X001483Y020441D01*
X001547Y020362D02*
X000540Y020362D01*
X000540Y020284D02*
X001643Y020284D01*
X001870Y020284D02*
X001950Y020284D01*
X001950Y020362D02*
X001870Y020362D01*
X001870Y020441D02*
X001950Y020441D01*
X001950Y020519D02*
X001870Y020519D01*
X001870Y020598D02*
X001950Y020598D01*
X001950Y020676D02*
X001870Y020676D01*
X001870Y020912D02*
X001950Y020912D01*
X001950Y020990D02*
X001870Y020990D01*
X001870Y021069D02*
X001950Y021069D01*
X001950Y021147D02*
X001870Y021147D01*
X001870Y021226D02*
X001950Y021226D01*
X001978Y021226D02*
X004402Y021226D01*
X004430Y021226D02*
X004510Y021226D01*
X004538Y021226D02*
X005520Y021226D01*
X005442Y021147D02*
X004750Y021147D01*
X004843Y021069D02*
X005386Y021069D01*
X005353Y020990D02*
X004904Y020990D01*
X004944Y020912D02*
X005321Y020912D01*
X005288Y020833D02*
X004968Y020833D01*
X004980Y020680D02*
X004980Y020680D01*
X004510Y020676D02*
X004430Y020676D01*
X004430Y020680D02*
X004430Y020210D01*
X004430Y020210D01*
X004351Y020223D01*
X004274Y020247D01*
X004203Y020284D01*
X004138Y020331D01*
X004081Y020388D01*
X004034Y020453D01*
X003997Y020524D01*
X003973Y020601D01*
X003960Y020680D01*
X003960Y020680D01*
X004430Y020680D01*
X004430Y020598D02*
X004510Y020598D01*
X004510Y020519D02*
X004430Y020519D01*
X004430Y020441D02*
X004510Y020441D01*
X004510Y020362D02*
X004430Y020362D01*
X004430Y020284D02*
X004510Y020284D01*
X004203Y020284D02*
X002177Y020284D01*
X002273Y020362D02*
X004107Y020362D01*
X004043Y020441D02*
X002337Y020441D01*
X002380Y020519D02*
X004000Y020519D01*
X003974Y020598D02*
X002406Y020598D01*
X002419Y020676D02*
X003961Y020676D01*
X003960Y020760D02*
X003960Y020760D01*
X003972Y020833D02*
X002408Y020833D01*
X002384Y020912D02*
X003996Y020912D01*
X004036Y020990D02*
X002344Y020990D01*
X002283Y021069D02*
X004097Y021069D01*
X004190Y021147D02*
X002190Y021147D01*
X001842Y021226D02*
X000566Y021226D01*
X000540Y021147D02*
X001630Y021147D01*
X001537Y021069D02*
X000540Y021069D01*
X000540Y020990D02*
X001476Y020990D01*
X001436Y020912D02*
X000540Y020912D01*
X000540Y019420D02*
X001527Y019420D01*
X001449Y019342D02*
X000540Y019342D01*
X000540Y019263D02*
X001384Y019263D01*
X001351Y019185D02*
X000540Y019185D01*
X000540Y019106D02*
X001319Y019106D01*
X001300Y019028D02*
X000540Y019028D01*
X000540Y018949D02*
X001300Y018949D01*
X001300Y018871D02*
X000540Y018871D01*
X000540Y018792D02*
X001311Y018792D01*
X001344Y018714D02*
X000540Y018714D01*
X000540Y018635D02*
X001376Y018635D01*
X001431Y018557D02*
X000540Y018557D01*
X000540Y018478D02*
X001509Y018478D01*
X001621Y018400D02*
X000540Y018400D01*
X000540Y018164D02*
X007458Y018164D01*
X007380Y018086D02*
X000540Y018086D01*
X000540Y018007D02*
X007301Y018007D01*
X007290Y017929D02*
X000540Y017929D01*
X000540Y017850D02*
X000990Y017850D01*
X000844Y017772D02*
X000540Y017772D01*
X000540Y017693D02*
X000765Y017693D01*
X000705Y017615D02*
X000540Y017615D01*
X000540Y017536D02*
X000672Y017536D01*
X000640Y017458D02*
X000540Y017458D01*
X000540Y017379D02*
X000633Y017379D01*
X000633Y017301D02*
X000540Y017301D01*
X000540Y017222D02*
X000633Y017222D01*
X000664Y017144D02*
X000540Y017144D01*
X000540Y017065D02*
X000697Y017065D01*
X000745Y016987D02*
X000540Y016987D01*
X000540Y016908D02*
X000824Y016908D01*
X000940Y016830D02*
X000540Y016830D01*
X000540Y016751D02*
X000823Y016751D01*
X000745Y016673D02*
X000540Y016673D01*
X000540Y016594D02*
X000696Y016594D01*
X000664Y016516D02*
X000540Y016516D01*
X000540Y016437D02*
X000633Y016437D01*
X000633Y016359D02*
X000540Y016359D01*
X000540Y016280D02*
X000633Y016280D01*
X000640Y016202D02*
X000540Y016202D01*
X000540Y016123D02*
X000673Y016123D01*
X000705Y016045D02*
X000540Y016045D01*
X000540Y015966D02*
X000766Y015966D01*
X000845Y015888D02*
X000540Y015888D01*
X000540Y015809D02*
X000891Y015809D01*
X000803Y015731D02*
X000540Y015731D01*
X000540Y015652D02*
X000724Y015652D01*
X000688Y015574D02*
X000540Y015574D01*
X000540Y015495D02*
X000655Y015495D01*
X000633Y015417D02*
X000540Y015417D01*
X000540Y015338D02*
X000633Y015338D01*
X000633Y015260D02*
X000540Y015260D01*
X000540Y015181D02*
X000649Y015181D01*
X000681Y015103D02*
X000540Y015103D01*
X000540Y015024D02*
X000714Y015024D01*
X000787Y014946D02*
X000540Y014946D01*
X000540Y014867D02*
X000865Y014867D01*
X000861Y014789D02*
X000540Y014789D01*
X000540Y014710D02*
X000782Y014710D01*
X000712Y014632D02*
X000540Y014632D01*
X000540Y014553D02*
X000679Y014553D01*
X000647Y014475D02*
X000540Y014475D01*
X000540Y014396D02*
X000633Y014396D01*
X000633Y014318D02*
X000540Y014318D01*
X000540Y014239D02*
X000633Y014239D01*
X000657Y014161D02*
X000540Y014161D01*
X000540Y014082D02*
X000690Y014082D01*
X000729Y014004D02*
X000540Y014004D01*
X000540Y013925D02*
X000807Y013925D01*
X000901Y013847D02*
X000540Y013847D01*
X000540Y013768D02*
X000840Y013768D01*
X000762Y013690D02*
X000540Y013690D01*
X000540Y013611D02*
X000703Y013611D01*
X000671Y013533D02*
X000540Y013533D01*
X000540Y013454D02*
X000638Y013454D01*
X000633Y013376D02*
X000540Y013376D01*
X000540Y013297D02*
X000633Y013297D01*
X000633Y013219D02*
X000540Y013219D01*
X000540Y013140D02*
X000666Y013140D01*
X000698Y013062D02*
X000540Y013062D01*
X000540Y012983D02*
X000749Y012983D01*
X000828Y012905D02*
X000540Y012905D01*
X000540Y012826D02*
X000932Y012826D01*
X000820Y012748D02*
X000540Y012748D01*
X000540Y012669D02*
X000741Y012669D01*
X000695Y012591D02*
X000540Y012591D01*
X000540Y012512D02*
X000662Y012512D01*
X000633Y012434D02*
X000540Y012434D01*
X000540Y012355D02*
X000633Y012355D01*
X000633Y012277D02*
X000540Y012277D01*
X000540Y012198D02*
X000642Y012198D01*
X000674Y012120D02*
X000540Y012120D01*
X000540Y012041D02*
X000707Y012041D01*
X000770Y011963D02*
X000540Y011963D01*
X000540Y011884D02*
X000848Y011884D01*
X000882Y011806D02*
X000540Y011806D01*
X000540Y011727D02*
X000799Y011727D01*
X000721Y011649D02*
X000540Y011649D01*
X000540Y011570D02*
X000686Y011570D01*
X000654Y011492D02*
X000540Y011492D01*
X000540Y011413D02*
X000633Y011413D01*
X000633Y011335D02*
X000540Y011335D01*
X000540Y011256D02*
X000633Y011256D01*
X000650Y011178D02*
X000540Y011178D01*
X000540Y011099D02*
X000683Y011099D01*
X000715Y011021D02*
X000540Y011021D01*
X000540Y010942D02*
X000790Y010942D01*
X000869Y010864D02*
X000540Y010864D01*
X000540Y010785D02*
X000857Y010785D01*
X000779Y010707D02*
X000540Y010707D01*
X000540Y010628D02*
X000710Y010628D01*
X000678Y010550D02*
X000540Y010550D01*
X000540Y010471D02*
X000645Y010471D01*
X000633Y010393D02*
X000540Y010393D01*
X000540Y010314D02*
X000633Y010314D01*
X000633Y010236D02*
X000540Y010236D01*
X000540Y010157D02*
X000659Y010157D01*
X000691Y010079D02*
X000540Y010079D01*
X000540Y010000D02*
X000732Y010000D01*
X000811Y009922D02*
X000540Y009922D01*
X000540Y009843D02*
X000910Y009843D01*
X000540Y009765D02*
X002890Y009765D01*
X002890Y009843D02*
X002470Y009843D01*
X002569Y009922D02*
X002903Y009922D01*
X002890Y009890D02*
X002890Y009116D01*
X002844Y009097D01*
X002690Y008943D01*
X002536Y009097D01*
X002311Y009190D01*
X002069Y009190D01*
X001844Y009097D01*
X001673Y008926D01*
X001634Y008832D01*
X001626Y008847D01*
X001579Y008912D01*
X001522Y008969D01*
X001457Y009016D01*
X001386Y009053D01*
X001309Y009077D01*
X001230Y009090D01*
X001230Y008620D01*
X001150Y008620D01*
X001150Y009090D01*
X001150Y009090D01*
X001071Y009077D01*
X000994Y009053D01*
X000923Y009016D01*
X000858Y008969D01*
X000801Y008912D01*
X000754Y008847D01*
X000717Y008776D01*
X000693Y008699D01*
X000680Y008620D01*
X001150Y008620D01*
X001150Y008540D01*
X000680Y008540D01*
X000680Y008540D01*
X000693Y008461D01*
X000717Y008384D01*
X000754Y008313D01*
X000801Y008248D01*
X000858Y008191D01*
X000923Y008144D01*
X000994Y008107D01*
X001071Y008083D01*
X001087Y008080D01*
X001071Y008077D01*
X000994Y008053D01*
X000923Y008016D01*
X000858Y007969D01*
X000801Y007912D01*
X000754Y007847D01*
X000717Y007776D01*
X000693Y007699D01*
X000680Y007620D01*
X001150Y007620D01*
X001150Y008090D01*
X001150Y008540D01*
X001230Y008540D01*
X001230Y007620D01*
X001150Y007620D01*
X001150Y007540D01*
X001230Y007540D01*
X001230Y006620D01*
X001150Y006620D01*
X001150Y007070D01*
X001150Y007540D01*
X000680Y007540D01*
X000680Y007540D01*
X000693Y007461D01*
X000717Y007384D01*
X000754Y007313D01*
X000801Y007248D01*
X000858Y007191D01*
X000923Y007144D01*
X000994Y007107D01*
X001071Y007083D01*
X001087Y007080D01*
X001071Y007077D01*
X000994Y007053D01*
X000923Y007016D01*
X000858Y006969D01*
X000801Y006912D01*
X000754Y006847D01*
X000717Y006776D01*
X000693Y006699D01*
X000680Y006620D01*
X001150Y006620D01*
X001150Y006540D01*
X000680Y006540D01*
X000680Y006540D01*
X000693Y006461D01*
X000717Y006384D01*
X000754Y006313D01*
X000801Y006248D01*
X000858Y006191D01*
X000923Y006144D01*
X000994Y006107D01*
X001071Y006083D01*
X001087Y006080D01*
X001071Y006077D01*
X000994Y006053D01*
X000923Y006016D01*
X000858Y005969D01*
X000801Y005912D01*
X000754Y005847D01*
X000717Y005776D01*
X000693Y005699D01*
X000680Y005620D01*
X001150Y005620D01*
X001150Y006090D01*
X001150Y006540D01*
X001230Y006540D01*
X001230Y005620D01*
X001150Y005620D01*
X001150Y005540D01*
X001230Y005540D01*
X001230Y004620D01*
X001150Y004620D01*
X001150Y005090D01*
X001150Y005540D01*
X000680Y005540D01*
X000680Y005540D01*
X000693Y005461D01*
X000717Y005384D01*
X000754Y005313D01*
X000801Y005248D01*
X000858Y005191D01*
X000923Y005144D01*
X000994Y005107D01*
X001071Y005083D01*
X001087Y005080D01*
X001071Y005077D01*
X000994Y005053D01*
X000923Y005016D01*
X000858Y004969D01*
X000801Y004912D01*
X000754Y004847D01*
X000717Y004776D01*
X000693Y004699D01*
X000680Y004620D01*
X001150Y004620D01*
X001150Y004540D01*
X000680Y004540D01*
X000680Y004540D01*
X000693Y004461D01*
X000717Y004384D01*
X000754Y004313D01*
X000801Y004248D01*
X000858Y004191D01*
X000923Y004144D01*
X000994Y004107D01*
X001071Y004083D01*
X001087Y004080D01*
X001071Y004077D01*
X000994Y004053D01*
X000923Y004016D01*
X000858Y003969D01*
X000801Y003912D01*
X000754Y003847D01*
X000717Y003776D01*
X000693Y003699D01*
X000680Y003620D01*
X001150Y003620D01*
X001150Y004070D01*
X001150Y004540D01*
X001230Y004540D01*
X001230Y003620D01*
X001150Y003620D01*
X001150Y003540D01*
X001230Y003540D01*
X001230Y003070D01*
X001230Y003070D01*
X001309Y003083D01*
X001386Y003107D01*
X001457Y003144D01*
X001522Y003191D01*
X001579Y003248D01*
X001626Y003313D01*
X001634Y003328D01*
X001673Y003234D01*
X001844Y003063D01*
X002069Y002970D01*
X002311Y002970D01*
X002357Y002989D01*
X002686Y002660D01*
X002770Y002576D01*
X002880Y002530D01*
X006000Y002530D01*
X006110Y002576D01*
X006523Y002989D01*
X006569Y002970D01*
X006811Y002970D01*
X007036Y003063D01*
X007190Y003217D01*
X007344Y003063D01*
X007569Y002970D01*
X007811Y002970D01*
X008036Y003063D01*
X008207Y003234D01*
X008300Y003459D01*
X008300Y003701D01*
X008207Y003926D01*
X008053Y004080D01*
X008207Y004234D01*
X008300Y004459D01*
X008300Y004701D01*
X008207Y004926D01*
X008053Y005080D01*
X008207Y005234D01*
X008300Y005459D01*
X008300Y005701D01*
X008207Y005926D01*
X008053Y006080D01*
X008207Y006234D01*
X008300Y006459D01*
X008300Y006701D01*
X008207Y006926D01*
X008053Y007080D01*
X008207Y007234D01*
X008300Y007459D01*
X008300Y007701D01*
X008207Y007926D01*
X008053Y008080D01*
X008207Y008234D01*
X008300Y008459D01*
X008300Y008701D01*
X008267Y008780D01*
X015066Y008780D01*
X015140Y008706D01*
X015140Y004020D01*
X015186Y003910D01*
X015520Y003576D01*
X015630Y003530D01*
X019816Y003530D01*
X019890Y003456D01*
X019890Y003155D01*
X019749Y003015D01*
X019670Y002823D01*
X019670Y002337D01*
X019749Y002145D01*
X019815Y002080D01*
X019749Y002015D01*
X019670Y001823D01*
X019670Y001337D01*
X019749Y001145D01*
X019765Y001130D01*
X018615Y001130D01*
X018631Y001145D01*
X018710Y001337D01*
X018710Y001823D01*
X018631Y002015D01*
X018565Y002080D01*
X018631Y002145D01*
X018710Y002337D01*
X018710Y002823D01*
X018631Y003015D01*
X018485Y003161D01*
X018293Y003240D01*
X018087Y003240D01*
X017895Y003161D01*
X017749Y003015D01*
X017670Y002823D01*
X017670Y002337D01*
X017749Y002145D01*
X017815Y002080D01*
X017749Y002015D01*
X017670Y001823D01*
X017670Y001337D01*
X017749Y001145D01*
X017765Y001130D01*
X017474Y001130D01*
X017510Y001166D01*
X017549Y001220D01*
X017579Y001279D01*
X017600Y001342D01*
X017610Y001407D01*
X017610Y001540D01*
X017230Y001540D01*
X017230Y001620D01*
X017230Y001679D02*
X017150Y001679D01*
X017150Y001601D02*
X016230Y001601D01*
X016230Y001679D02*
X016150Y001679D01*
X016150Y001601D02*
X015710Y001601D01*
X015710Y001679D02*
X015770Y001679D01*
X015771Y001758D02*
X015710Y001758D01*
X015705Y001836D02*
X015786Y001836D01*
X015818Y001915D02*
X015672Y001915D01*
X015640Y001993D02*
X015869Y001993D01*
X015959Y002072D02*
X015574Y002072D01*
X015633Y002150D02*
X015886Y002150D01*
X015826Y002229D02*
X015665Y002229D01*
X015698Y002307D02*
X015792Y002307D01*
X015773Y002386D02*
X015710Y002386D01*
X015710Y002464D02*
X015770Y002464D01*
X015710Y002543D02*
X016150Y002543D01*
X016150Y002621D02*
X016230Y002621D01*
X016230Y002620D02*
X016230Y003139D01*
X016288Y003130D01*
X016351Y003109D01*
X016410Y003079D01*
X016464Y003040D01*
X016510Y002994D01*
X016549Y002940D01*
X016579Y002881D01*
X016600Y002818D01*
X016610Y002753D01*
X016610Y002620D01*
X016230Y002620D01*
X016230Y002543D02*
X017150Y002543D01*
X017150Y002621D02*
X017230Y002621D01*
X017230Y002620D02*
X017230Y003139D01*
X017288Y003130D01*
X017351Y003109D01*
X017410Y003079D01*
X017464Y003040D01*
X017510Y002994D01*
X017549Y002940D01*
X017579Y002881D01*
X017600Y002818D01*
X017610Y002753D01*
X017610Y002620D01*
X017230Y002620D01*
X017230Y002543D02*
X017670Y002543D01*
X017670Y002621D02*
X017610Y002621D01*
X017610Y002700D02*
X017670Y002700D01*
X017670Y002778D02*
X017606Y002778D01*
X017587Y002857D02*
X017684Y002857D01*
X017716Y002935D02*
X017552Y002935D01*
X017490Y003014D02*
X017749Y003014D01*
X017827Y003092D02*
X017385Y003092D01*
X017230Y003092D02*
X017150Y003092D01*
X017150Y003014D02*
X017230Y003014D01*
X017230Y002935D02*
X017150Y002935D01*
X017150Y002857D02*
X017230Y002857D01*
X017230Y002778D02*
X017150Y002778D01*
X017150Y002700D02*
X017230Y002700D01*
X017230Y002464D02*
X017150Y002464D01*
X017150Y002386D02*
X017230Y002386D01*
X017230Y002307D02*
X017150Y002307D01*
X017150Y002229D02*
X017230Y002229D01*
X017230Y002150D02*
X017150Y002150D01*
X017150Y002072D02*
X017230Y002072D01*
X017230Y001993D02*
X017150Y001993D01*
X017150Y001915D02*
X017230Y001915D01*
X017230Y001836D02*
X017150Y001836D01*
X017150Y001758D02*
X017230Y001758D01*
X017511Y001993D02*
X017740Y001993D01*
X017708Y001915D02*
X017562Y001915D01*
X017594Y001836D02*
X017675Y001836D01*
X017670Y001758D02*
X017609Y001758D01*
X017610Y001679D02*
X017670Y001679D01*
X017670Y001522D02*
X017610Y001522D01*
X017610Y001444D02*
X017670Y001444D01*
X017670Y001365D02*
X017603Y001365D01*
X017582Y001287D02*
X017691Y001287D01*
X017723Y001208D02*
X017541Y001208D01*
X016839Y001208D02*
X016541Y001208D01*
X016582Y001287D02*
X016798Y001287D01*
X016777Y001365D02*
X016603Y001365D01*
X016610Y001444D02*
X016770Y001444D01*
X016770Y001522D02*
X016610Y001522D01*
X016610Y001679D02*
X016770Y001679D01*
X016771Y001758D02*
X016609Y001758D01*
X016594Y001836D02*
X016786Y001836D01*
X016818Y001915D02*
X016562Y001915D01*
X016511Y001993D02*
X016869Y001993D01*
X016959Y002072D02*
X016421Y002072D01*
X016494Y002150D02*
X016886Y002150D01*
X016826Y002229D02*
X016554Y002229D01*
X016588Y002307D02*
X016792Y002307D01*
X016773Y002386D02*
X016607Y002386D01*
X016610Y002464D02*
X016770Y002464D01*
X016770Y002621D02*
X016610Y002621D01*
X016610Y002700D02*
X016770Y002700D01*
X016774Y002778D02*
X016606Y002778D01*
X016587Y002857D02*
X016793Y002857D01*
X016828Y002935D02*
X016552Y002935D01*
X016490Y003014D02*
X016890Y003014D01*
X016995Y003092D02*
X016385Y003092D01*
X016230Y003092D02*
X016150Y003092D01*
X016150Y003014D02*
X016230Y003014D01*
X016230Y002935D02*
X016150Y002935D01*
X016150Y002857D02*
X016230Y002857D01*
X016230Y002778D02*
X016150Y002778D01*
X016150Y002700D02*
X016230Y002700D01*
X016230Y002464D02*
X016150Y002464D01*
X016150Y002386D02*
X016230Y002386D01*
X016230Y002307D02*
X016150Y002307D01*
X016150Y002229D02*
X016230Y002229D01*
X016230Y002150D02*
X016150Y002150D01*
X016150Y002072D02*
X016230Y002072D01*
X016230Y001993D02*
X016150Y001993D01*
X016150Y001915D02*
X016230Y001915D01*
X016230Y001836D02*
X016150Y001836D01*
X016150Y001758D02*
X016230Y001758D01*
X015770Y001522D02*
X015710Y001522D01*
X015710Y001444D02*
X015770Y001444D01*
X015777Y001365D02*
X015710Y001365D01*
X015689Y001287D02*
X015798Y001287D01*
X015839Y001208D02*
X015657Y001208D01*
X017421Y002072D02*
X017806Y002072D01*
X017747Y002150D02*
X017494Y002150D01*
X017554Y002229D02*
X017715Y002229D01*
X017682Y002307D02*
X017588Y002307D01*
X017607Y002386D02*
X017670Y002386D01*
X017670Y002464D02*
X017610Y002464D01*
X018574Y002072D02*
X019806Y002072D01*
X019747Y002150D02*
X018633Y002150D01*
X018665Y002229D02*
X019715Y002229D01*
X019682Y002307D02*
X018698Y002307D01*
X018710Y002386D02*
X019670Y002386D01*
X019670Y002464D02*
X018710Y002464D01*
X018710Y002543D02*
X019670Y002543D01*
X019670Y002621D02*
X018710Y002621D01*
X018710Y002700D02*
X019670Y002700D01*
X019670Y002778D02*
X018710Y002778D01*
X018696Y002857D02*
X019684Y002857D01*
X019716Y002935D02*
X018664Y002935D01*
X018631Y003014D02*
X019749Y003014D01*
X019827Y003092D02*
X018553Y003092D01*
X018461Y003171D02*
X019890Y003171D01*
X019890Y003249D02*
X008213Y003249D01*
X008246Y003328D02*
X019890Y003328D01*
X019890Y003406D02*
X008278Y003406D01*
X008300Y003485D02*
X019861Y003485D01*
X017919Y003171D02*
X015461Y003171D01*
X015553Y003092D02*
X015995Y003092D01*
X015890Y003014D02*
X015631Y003014D01*
X015664Y002935D02*
X015828Y002935D01*
X015793Y002857D02*
X015696Y002857D01*
X015710Y002778D02*
X015774Y002778D01*
X015770Y002700D02*
X015710Y002700D01*
X015710Y002621D02*
X015770Y002621D01*
X014919Y003171D02*
X014461Y003171D01*
X014553Y003092D02*
X014827Y003092D01*
X014749Y003014D02*
X014631Y003014D01*
X014664Y002935D02*
X014716Y002935D01*
X013919Y003171D02*
X013461Y003171D01*
X013553Y003092D02*
X013827Y003092D01*
X013749Y003014D02*
X013631Y003014D01*
X013664Y002935D02*
X013716Y002935D01*
X012919Y003171D02*
X012461Y003171D01*
X012553Y003092D02*
X012827Y003092D01*
X012749Y003014D02*
X012631Y003014D01*
X012664Y002935D02*
X012716Y002935D01*
X011919Y003171D02*
X011461Y003171D01*
X011553Y003092D02*
X011827Y003092D01*
X011749Y003014D02*
X011631Y003014D01*
X011664Y002935D02*
X011716Y002935D01*
X010919Y003171D02*
X008143Y003171D01*
X008065Y003092D02*
X010827Y003092D01*
X010749Y003014D02*
X007916Y003014D01*
X007464Y003014D02*
X006916Y003014D01*
X007065Y003092D02*
X007315Y003092D01*
X007237Y003171D02*
X007143Y003171D01*
X006469Y002935D02*
X010716Y002935D01*
X010684Y002857D02*
X006391Y002857D01*
X006312Y002778D02*
X010670Y002778D01*
X010670Y002700D02*
X006234Y002700D01*
X006155Y002621D02*
X010670Y002621D01*
X010670Y002543D02*
X006030Y002543D01*
X005986Y002464D02*
X010670Y002464D01*
X010670Y002386D02*
X006175Y002386D01*
X006278Y002307D02*
X010682Y002307D01*
X010715Y002229D02*
X006357Y002229D01*
X006435Y002150D02*
X010747Y002150D01*
X010806Y002072D02*
X006493Y002072D01*
X006525Y001993D02*
X010740Y001993D01*
X010708Y001915D02*
X006558Y001915D01*
X006590Y001836D02*
X010675Y001836D01*
X010670Y001758D02*
X006620Y001758D01*
X006620Y001679D02*
X010670Y001679D01*
X010670Y001601D02*
X006620Y001601D01*
X006620Y001522D02*
X010670Y001522D01*
X010670Y001444D02*
X006620Y001444D01*
X006607Y001365D02*
X010670Y001365D01*
X010691Y001287D02*
X006575Y001287D01*
X006542Y001208D02*
X010723Y001208D01*
X010765Y001130D02*
X006510Y001130D01*
X006476Y001051D02*
X010844Y001051D01*
X010960Y000973D02*
X006398Y000973D01*
X004982Y000973D02*
X000540Y000973D01*
X000540Y001051D02*
X004904Y001051D01*
X004870Y001130D02*
X000540Y001130D01*
X000540Y001208D02*
X004838Y001208D01*
X004805Y001287D02*
X000540Y001287D01*
X000540Y001365D02*
X004773Y001365D01*
X004760Y001444D02*
X000540Y001444D01*
X000540Y001522D02*
X004760Y001522D01*
X004760Y001601D02*
X000540Y001601D01*
X000540Y001679D02*
X004760Y001679D01*
X004760Y001758D02*
X000540Y001758D01*
X000540Y001836D02*
X004790Y001836D01*
X004822Y001915D02*
X000540Y001915D01*
X000540Y001993D02*
X004855Y001993D01*
X004887Y002072D02*
X000540Y002072D01*
X000540Y002150D02*
X004945Y002150D01*
X005023Y002229D02*
X000540Y002229D01*
X000540Y002307D02*
X005102Y002307D01*
X005205Y002386D02*
X000540Y002386D01*
X000540Y002464D02*
X005394Y002464D01*
X002850Y002543D02*
X000540Y002543D01*
X000540Y002621D02*
X002725Y002621D01*
X002646Y002700D02*
X000540Y002700D01*
X000540Y002778D02*
X002568Y002778D01*
X002489Y002857D02*
X000540Y002857D01*
X000540Y002935D02*
X002411Y002935D01*
X001964Y003014D02*
X000540Y003014D01*
X000540Y003092D02*
X001041Y003092D01*
X001071Y003083D02*
X001150Y003070D01*
X001150Y003540D01*
X000680Y003540D01*
X000680Y003540D01*
X000693Y003461D01*
X000717Y003384D01*
X000754Y003313D01*
X000801Y003248D01*
X000858Y003191D01*
X000923Y003144D01*
X000994Y003107D01*
X001071Y003083D01*
X001150Y003092D02*
X001230Y003092D01*
X001230Y003171D02*
X001150Y003171D01*
X001150Y003249D02*
X001230Y003249D01*
X001230Y003328D02*
X001150Y003328D01*
X001150Y003406D02*
X001230Y003406D01*
X001230Y003485D02*
X001150Y003485D01*
X001150Y003563D02*
X000540Y003563D01*
X000540Y003485D02*
X000689Y003485D01*
X000710Y003406D02*
X000540Y003406D01*
X000540Y003328D02*
X000746Y003328D01*
X000800Y003249D02*
X000540Y003249D01*
X000540Y003171D02*
X000886Y003171D01*
X001150Y003070D02*
X001150Y003070D01*
X001339Y003092D02*
X001815Y003092D01*
X001737Y003171D02*
X001494Y003171D01*
X001580Y003249D02*
X001667Y003249D01*
X001634Y003328D02*
X001634Y003328D01*
X001230Y003642D02*
X001150Y003642D01*
X001150Y003720D02*
X001230Y003720D01*
X001230Y003799D02*
X001150Y003799D01*
X001150Y003877D02*
X001230Y003877D01*
X001230Y003956D02*
X001150Y003956D01*
X001150Y004034D02*
X001230Y004034D01*
X001230Y004113D02*
X001150Y004113D01*
X001150Y004191D02*
X001230Y004191D01*
X001230Y004270D02*
X001150Y004270D01*
X001150Y004348D02*
X001230Y004348D01*
X001230Y004427D02*
X001150Y004427D01*
X001150Y004505D02*
X001230Y004505D01*
X001150Y004584D02*
X000540Y004584D01*
X000540Y004662D02*
X000687Y004662D01*
X000680Y004620D02*
X000680Y004620D01*
X000686Y004505D02*
X000540Y004505D01*
X000540Y004427D02*
X000704Y004427D01*
X000736Y004348D02*
X000540Y004348D01*
X000540Y004270D02*
X000785Y004270D01*
X000858Y004191D02*
X000540Y004191D01*
X000540Y004113D02*
X000984Y004113D01*
X000958Y004034D02*
X000540Y004034D01*
X000540Y003956D02*
X000844Y003956D01*
X000775Y003877D02*
X000540Y003877D01*
X000540Y003799D02*
X000729Y003799D01*
X000699Y003720D02*
X000540Y003720D01*
X000540Y003642D02*
X000683Y003642D01*
X000680Y003620D02*
X000680Y003620D01*
X000706Y004741D02*
X000540Y004741D01*
X000540Y004819D02*
X000739Y004819D01*
X000790Y004898D02*
X000540Y004898D01*
X000540Y004976D02*
X000867Y004976D01*
X001000Y005055D02*
X000540Y005055D01*
X000540Y005133D02*
X000944Y005133D01*
X000837Y005212D02*
X000540Y005212D01*
X000540Y005290D02*
X000770Y005290D01*
X000725Y005369D02*
X000540Y005369D01*
X000540Y005447D02*
X000697Y005447D01*
X000682Y005526D02*
X000540Y005526D01*
X000540Y005604D02*
X001150Y005604D01*
X001150Y005526D02*
X001230Y005526D01*
X001230Y005447D02*
X001150Y005447D01*
X001150Y005369D02*
X001230Y005369D01*
X001230Y005290D02*
X001150Y005290D01*
X001150Y005212D02*
X001230Y005212D01*
X001230Y005133D02*
X001150Y005133D01*
X001150Y005055D02*
X001230Y005055D01*
X001230Y004976D02*
X001150Y004976D01*
X001150Y004898D02*
X001230Y004898D01*
X001230Y004819D02*
X001150Y004819D01*
X001150Y004741D02*
X001230Y004741D01*
X001230Y004662D02*
X001150Y004662D01*
X000680Y005620D02*
X000680Y005620D01*
X000690Y005683D02*
X000540Y005683D01*
X000540Y005761D02*
X000713Y005761D01*
X000750Y005840D02*
X000540Y005840D01*
X000540Y005918D02*
X000807Y005918D01*
X000896Y005997D02*
X000540Y005997D01*
X000540Y006075D02*
X001063Y006075D01*
X001150Y006075D02*
X001230Y006075D01*
X001230Y005997D02*
X001150Y005997D01*
X001150Y005918D02*
X001230Y005918D01*
X001230Y005840D02*
X001150Y005840D01*
X001150Y005761D02*
X001230Y005761D01*
X001230Y005683D02*
X001150Y005683D01*
X001150Y006154D02*
X001230Y006154D01*
X001230Y006232D02*
X001150Y006232D01*
X001150Y006311D02*
X001230Y006311D01*
X001230Y006389D02*
X001150Y006389D01*
X001150Y006468D02*
X001230Y006468D01*
X001150Y006546D02*
X000540Y006546D01*
X000540Y006468D02*
X000691Y006468D01*
X000716Y006389D02*
X000540Y006389D01*
X000540Y006311D02*
X000755Y006311D01*
X000817Y006232D02*
X000540Y006232D01*
X000540Y006154D02*
X000909Y006154D01*
X000680Y006620D02*
X000680Y006620D01*
X000681Y006625D02*
X000540Y006625D01*
X000540Y006703D02*
X000694Y006703D01*
X000720Y006782D02*
X000540Y006782D01*
X000540Y006860D02*
X000763Y006860D01*
X000827Y006939D02*
X000540Y006939D01*
X000540Y007017D02*
X000924Y007017D01*
X001031Y007096D02*
X000540Y007096D01*
X000540Y007174D02*
X000881Y007174D01*
X000798Y007253D02*
X000540Y007253D01*
X000540Y007331D02*
X000744Y007331D01*
X000709Y007410D02*
X000540Y007410D01*
X000540Y007488D02*
X000688Y007488D01*
X000680Y007620D02*
X000680Y007620D01*
X000684Y007645D02*
X000540Y007645D01*
X000540Y007567D02*
X001150Y007567D01*
X001150Y007645D02*
X001230Y007645D01*
X001230Y007724D02*
X001150Y007724D01*
X001150Y007802D02*
X001230Y007802D01*
X001230Y007881D02*
X001150Y007881D01*
X001150Y007959D02*
X001230Y007959D01*
X001230Y008038D02*
X001150Y008038D01*
X001150Y008116D02*
X001230Y008116D01*
X001230Y008195D02*
X001150Y008195D01*
X001150Y008273D02*
X001230Y008273D01*
X001230Y008352D02*
X001150Y008352D01*
X001150Y008430D02*
X001230Y008430D01*
X001230Y008509D02*
X001150Y008509D01*
X001150Y008587D02*
X000540Y008587D01*
X000540Y008509D02*
X000685Y008509D01*
X000702Y008430D02*
X000540Y008430D01*
X000540Y008352D02*
X000734Y008352D01*
X000783Y008273D02*
X000540Y008273D01*
X000540Y008195D02*
X000854Y008195D01*
X000977Y008116D02*
X000540Y008116D01*
X000540Y008038D02*
X000965Y008038D01*
X000848Y007959D02*
X000540Y007959D01*
X000540Y007881D02*
X000778Y007881D01*
X000731Y007802D02*
X000540Y007802D01*
X000540Y007724D02*
X000700Y007724D01*
X001150Y007488D02*
X001230Y007488D01*
X001230Y007410D02*
X001150Y007410D01*
X001150Y007331D02*
X001230Y007331D01*
X001230Y007253D02*
X001150Y007253D01*
X001150Y007174D02*
X001230Y007174D01*
X001230Y007096D02*
X001150Y007096D01*
X001150Y007017D02*
X001230Y007017D01*
X001230Y006939D02*
X001150Y006939D01*
X001150Y006860D02*
X001230Y006860D01*
X001230Y006782D02*
X001150Y006782D01*
X001150Y006703D02*
X001230Y006703D01*
X001230Y006625D02*
X001150Y006625D01*
X001150Y008666D02*
X001230Y008666D01*
X001230Y008744D02*
X001150Y008744D01*
X001150Y008823D02*
X001230Y008823D01*
X001230Y008901D02*
X001150Y008901D01*
X001150Y008980D02*
X001230Y008980D01*
X001230Y009058D02*
X001150Y009058D01*
X001230Y009090D02*
X001230Y009090D01*
X001369Y009058D02*
X001805Y009058D01*
X001727Y008980D02*
X001508Y008980D01*
X001587Y008901D02*
X001663Y008901D01*
X001940Y009137D02*
X000540Y009137D01*
X000540Y009215D02*
X002890Y009215D01*
X002890Y009137D02*
X002440Y009137D01*
X002575Y009058D02*
X002805Y009058D01*
X002727Y008980D02*
X002653Y008980D01*
X002890Y009294D02*
X000540Y009294D01*
X000540Y009372D02*
X002890Y009372D01*
X002890Y009451D02*
X000540Y009451D01*
X000540Y009529D02*
X002890Y009529D01*
X002890Y009608D02*
X000540Y009608D01*
X000540Y009686D02*
X002890Y009686D01*
X002890Y009890D02*
X002936Y010000D01*
X003050Y010785D02*
X002523Y010785D01*
X002511Y010864D02*
X002869Y010864D01*
X002790Y010942D02*
X002590Y010942D01*
X002665Y011021D02*
X002715Y011021D01*
X003330Y010785D02*
X004050Y010785D01*
X003869Y010864D02*
X003511Y010864D01*
X003590Y010942D02*
X003790Y010942D01*
X003715Y011021D02*
X003665Y011021D01*
X004330Y010785D02*
X005050Y010785D01*
X004869Y010864D02*
X004511Y010864D01*
X004590Y010942D02*
X004790Y010942D01*
X004715Y011021D02*
X004665Y011021D01*
X005330Y010785D02*
X006050Y010785D01*
X005869Y010864D02*
X005511Y010864D01*
X005590Y010942D02*
X005790Y010942D01*
X005715Y011021D02*
X005665Y011021D01*
X006330Y010785D02*
X007050Y010785D01*
X006869Y010864D02*
X006511Y010864D01*
X006590Y010942D02*
X006790Y010942D01*
X006715Y011021D02*
X006665Y011021D01*
X007330Y010785D02*
X008050Y010785D01*
X007869Y010864D02*
X007511Y010864D01*
X007590Y010942D02*
X007790Y010942D01*
X007715Y011021D02*
X007665Y011021D01*
X008282Y008744D02*
X015102Y008744D01*
X015140Y008666D02*
X008300Y008666D01*
X008300Y008587D02*
X015140Y008587D01*
X015140Y008509D02*
X008300Y008509D01*
X008288Y008430D02*
X015140Y008430D01*
X015140Y008352D02*
X008256Y008352D01*
X008223Y008273D02*
X015140Y008273D01*
X015140Y008195D02*
X008167Y008195D01*
X008089Y008116D02*
X015140Y008116D01*
X015140Y008038D02*
X008095Y008038D01*
X008174Y007959D02*
X015140Y007959D01*
X015140Y007881D02*
X008226Y007881D01*
X008258Y007802D02*
X015140Y007802D01*
X015140Y007724D02*
X008291Y007724D01*
X008300Y007645D02*
X015140Y007645D01*
X015140Y007567D02*
X008300Y007567D01*
X008300Y007488D02*
X015140Y007488D01*
X015140Y007410D02*
X008280Y007410D01*
X008247Y007331D02*
X015140Y007331D01*
X015140Y007253D02*
X008215Y007253D01*
X008147Y007174D02*
X015140Y007174D01*
X015140Y007096D02*
X008068Y007096D01*
X008116Y007017D02*
X015140Y007017D01*
X015140Y006939D02*
X008194Y006939D01*
X008234Y006860D02*
X015140Y006860D01*
X015140Y006782D02*
X008267Y006782D01*
X008299Y006703D02*
X015140Y006703D01*
X015140Y006625D02*
X008300Y006625D01*
X008300Y006546D02*
X015140Y006546D01*
X015140Y006468D02*
X008300Y006468D01*
X008271Y006389D02*
X015140Y006389D01*
X015140Y006311D02*
X008239Y006311D01*
X008205Y006232D02*
X015140Y006232D01*
X015140Y006154D02*
X008126Y006154D01*
X008058Y006075D02*
X015140Y006075D01*
X015140Y005997D02*
X008136Y005997D01*
X008210Y005918D02*
X015140Y005918D01*
X015140Y005840D02*
X008243Y005840D01*
X008275Y005761D02*
X015140Y005761D01*
X015140Y005683D02*
X008300Y005683D01*
X008300Y005604D02*
X015140Y005604D01*
X015140Y005526D02*
X008300Y005526D01*
X008295Y005447D02*
X015140Y005447D01*
X015140Y005369D02*
X008263Y005369D01*
X008230Y005290D02*
X015140Y005290D01*
X015140Y005212D02*
X008184Y005212D01*
X008106Y005133D02*
X015140Y005133D01*
X015140Y005055D02*
X008078Y005055D01*
X008157Y004976D02*
X015140Y004976D01*
X015140Y004898D02*
X008219Y004898D01*
X008251Y004819D02*
X015140Y004819D01*
X015140Y004741D02*
X008284Y004741D01*
X008300Y004662D02*
X015140Y004662D01*
X015140Y004584D02*
X008300Y004584D01*
X008300Y004505D02*
X015140Y004505D01*
X015140Y004427D02*
X008287Y004427D01*
X008254Y004348D02*
X015140Y004348D01*
X015140Y004270D02*
X008222Y004270D01*
X008164Y004191D02*
X015140Y004191D01*
X015140Y004113D02*
X008085Y004113D01*
X008099Y004034D02*
X015140Y004034D01*
X015167Y003956D02*
X008177Y003956D01*
X008227Y003877D02*
X015219Y003877D01*
X015297Y003799D02*
X008260Y003799D01*
X008292Y003720D02*
X015376Y003720D01*
X015454Y003642D02*
X008300Y003642D01*
X008300Y003563D02*
X015551Y003563D01*
X018640Y001993D02*
X019740Y001993D01*
X019708Y001915D02*
X018672Y001915D01*
X018705Y001836D02*
X019675Y001836D01*
X019670Y001758D02*
X018710Y001758D01*
X018710Y001679D02*
X019670Y001679D01*
X019670Y001601D02*
X018710Y001601D01*
X018710Y001522D02*
X019670Y001522D01*
X019670Y001444D02*
X018710Y001444D01*
X018710Y001365D02*
X019670Y001365D01*
X019691Y001287D02*
X018689Y001287D01*
X018657Y001208D02*
X019723Y001208D01*
X019461Y009294D02*
X018990Y009294D01*
X018990Y009372D02*
X019539Y009372D01*
X019618Y009451D02*
X018990Y009451D01*
X018990Y009529D02*
X019798Y009529D01*
X020142Y009529D02*
X020290Y009529D01*
X020290Y009608D02*
X018990Y009608D01*
X018990Y009686D02*
X020290Y009686D01*
X020290Y009765D02*
X018990Y009765D01*
X018990Y009843D02*
X020290Y009843D01*
X020290Y009922D02*
X018990Y009922D01*
X018990Y010000D02*
X020290Y010000D01*
X020290Y010079D02*
X018990Y010079D01*
X018990Y010157D02*
X020290Y010157D01*
X020290Y010236D02*
X020129Y010236D01*
X020279Y010314D02*
X020290Y010314D01*
X021319Y010236D02*
X021870Y010236D01*
X021870Y010314D02*
X021469Y010314D01*
X021552Y010393D02*
X021870Y010393D01*
X021870Y010471D02*
X021606Y010471D01*
X021641Y010550D02*
X021870Y010550D01*
X021870Y010628D02*
X021662Y010628D01*
X010502Y013768D02*
X008540Y013768D01*
X008479Y013847D02*
X010414Y013847D01*
X010365Y013925D02*
X008573Y013925D01*
X008651Y014004D02*
X010332Y014004D01*
X010330Y014082D02*
X008690Y014082D01*
X008723Y014161D02*
X010330Y014161D01*
X010330Y014239D02*
X008747Y014239D01*
X008747Y014318D02*
X010330Y014318D01*
X010330Y014396D02*
X008747Y014396D01*
X008733Y014475D02*
X010330Y014475D01*
X010330Y014553D02*
X008701Y014553D01*
X008668Y014632D02*
X010330Y014632D01*
X010330Y014710D02*
X008598Y014710D01*
X008519Y014789D02*
X010330Y014789D01*
X010330Y014867D02*
X008515Y014867D01*
X008593Y014946D02*
X010330Y014946D01*
X010330Y015024D02*
X008666Y015024D01*
X008699Y015103D02*
X010330Y015103D01*
X010330Y015181D02*
X008731Y015181D01*
X008747Y015260D02*
X010330Y015260D01*
X010330Y015338D02*
X008747Y015338D01*
X008747Y015417D02*
X010330Y015417D01*
X010330Y015495D02*
X008725Y015495D01*
X008692Y015574D02*
X010330Y015574D01*
X010330Y015652D02*
X008656Y015652D01*
X008577Y015731D02*
X010330Y015731D01*
X010330Y015809D02*
X008489Y015809D01*
X007891Y015809D02*
X007489Y015809D01*
X007577Y015731D02*
X007803Y015731D01*
X007724Y015652D02*
X007656Y015652D01*
X006891Y015809D02*
X006489Y015809D01*
X006577Y015731D02*
X006803Y015731D01*
X006724Y015652D02*
X006656Y015652D01*
X005891Y015809D02*
X005489Y015809D01*
X005535Y015888D02*
X010330Y015888D01*
X010330Y015966D02*
X005614Y015966D01*
X005675Y016045D02*
X010330Y016045D01*
X010330Y016123D02*
X005707Y016123D01*
X005740Y016202D02*
X010330Y016202D01*
X010900Y017929D02*
X008090Y017929D01*
X008079Y018007D02*
X010900Y018007D01*
X010900Y018086D02*
X008000Y018086D01*
X007070Y019656D02*
X006388Y019656D01*
X006578Y019734D02*
X007070Y019734D01*
X007070Y019813D02*
X006738Y019813D01*
X006816Y019891D02*
X007098Y019891D01*
X007131Y019970D02*
X006895Y019970D01*
X006973Y020048D02*
X007183Y020048D01*
X007168Y020127D02*
X007009Y020127D01*
X007041Y020205D02*
X007124Y020205D01*
X007092Y020284D02*
X007074Y020284D01*
X004510Y020912D02*
X004430Y020912D01*
X004430Y020990D02*
X004510Y020990D01*
X004510Y021069D02*
X004430Y021069D01*
X004430Y021147D02*
X004510Y021147D01*
X003990Y017850D02*
X003390Y017850D01*
X003536Y017772D02*
X003844Y017772D01*
X003765Y017693D02*
X003615Y017693D01*
X003675Y017615D02*
X003705Y017615D01*
X002990Y017850D02*
X002390Y017850D01*
X002536Y017772D02*
X002844Y017772D01*
X002765Y017693D02*
X002615Y017693D01*
X002675Y017615D02*
X002705Y017615D01*
X001990Y017850D02*
X001390Y017850D01*
X001536Y017772D02*
X001844Y017772D01*
X001765Y017693D02*
X001615Y017693D01*
X001675Y017615D02*
X001705Y017615D01*
X005577Y015731D02*
X005803Y015731D01*
X005724Y015652D02*
X005656Y015652D01*
X010550Y020755D02*
X010630Y020755D01*
X010630Y020833D02*
X010550Y020833D01*
X010550Y020912D02*
X010630Y020912D01*
X010630Y020990D02*
X010550Y020990D01*
X010550Y021069D02*
X010630Y021069D01*
X001691Y010079D02*
X001689Y010079D01*
X001648Y010000D02*
X001732Y010000D01*
X001811Y009922D02*
X001569Y009922D01*
X001470Y009843D02*
X001910Y009843D01*
X001011Y009058D02*
X000540Y009058D01*
X000540Y008980D02*
X000872Y008980D01*
X000793Y008901D02*
X000540Y008901D01*
X000540Y008823D02*
X000741Y008823D01*
X000707Y008744D02*
X000540Y008744D01*
X000540Y008666D02*
X000687Y008666D01*
X000680Y008620D02*
X000680Y008620D01*
D22*
X009590Y019580D02*
X009590Y020580D01*
X021690Y016580D02*
X021690Y011580D01*
X022190Y011080D01*
X022190Y008940D01*
D23*
X023720Y008940D01*
X022190Y008940D02*
X021160Y008940D01*
X019970Y008940D02*
X018690Y008940D01*
X018690Y015580D01*
X019190Y016080D01*
X019190Y019580D01*
X019190Y020580D01*
X018190Y020580D02*
X018190Y019580D01*
X017490Y018880D01*
X017490Y016080D01*
X016190Y016080D02*
X016190Y019180D01*
X016590Y019580D01*
X016590Y020580D01*
X015590Y020580D02*
X015590Y019580D01*
X015440Y019430D01*
X015440Y017580D01*
X013690Y017580D02*
X013680Y017570D01*
X013680Y016080D01*
X013190Y015830D02*
X012690Y015330D01*
X012690Y015090D01*
X012680Y015080D01*
X011940Y015580D02*
X011440Y015580D01*
X011190Y015830D01*
X011940Y015580D02*
X012440Y016080D01*
X012680Y016080D01*
X013190Y015830D02*
X013190Y019180D01*
X013590Y019580D02*
X013590Y020580D01*
X014590Y020580D02*
X014590Y019580D01*
X014190Y019180D01*
X014190Y015580D01*
X013690Y015080D01*
X012590Y016980D02*
X012590Y019580D01*
X012590Y020580D01*
X011590Y020580D02*
X011590Y019580D01*
X011190Y019180D01*
X008590Y019580D02*
X008590Y020580D01*
X020190Y020580D02*
X020190Y019580D01*
X020190Y016080D01*
X020590Y015530D01*
X020590Y006610D01*
X019970Y005940D01*
X017410Y005940D01*
X016690Y005330D02*
X016940Y005080D01*
X024440Y005080D01*
X025190Y004330D01*
X025190Y002580D01*
X025190Y001580D01*
X024190Y001580D02*
X024190Y002580D01*
X024190Y004330D01*
X023690Y004830D01*
X016690Y004830D01*
X016440Y005080D01*
X016440Y009830D01*
X016190Y010080D01*
X003940Y010080D01*
X003690Y009830D01*
X003690Y008080D01*
X003190Y007580D01*
X003940Y007330D02*
X003190Y006580D01*
X004190Y006580D02*
X004190Y009330D01*
X004440Y009580D01*
X015690Y009580D01*
X015940Y009330D01*
X015940Y004580D01*
X016190Y004330D01*
X021440Y004330D01*
X022190Y003580D01*
X022190Y002580D01*
X022190Y001580D01*
X023190Y001580D02*
X023190Y002580D01*
X023190Y004080D01*
X022690Y004580D01*
X016440Y004580D01*
X016190Y004830D01*
X016190Y009580D01*
X015940Y009830D01*
X004190Y009830D01*
X003940Y009580D01*
X003940Y007330D01*
X004190Y006580D02*
X003190Y005580D01*
X003190Y004580D02*
X004440Y005830D01*
X004440Y009080D01*
X004690Y009330D01*
X015440Y009330D01*
X015690Y009080D01*
X015690Y004330D01*
X015940Y004080D01*
X020690Y004080D01*
X021190Y003580D01*
X021190Y002580D01*
X021190Y001580D01*
X020190Y001580D02*
X020190Y002580D01*
X020190Y003580D01*
X019940Y003830D01*
X015690Y003830D01*
X015440Y004080D01*
X015440Y008830D01*
X015190Y009080D01*
X004940Y009080D01*
X004690Y008830D01*
X004690Y005080D01*
X003190Y003580D01*
X002940Y002830D02*
X005940Y002830D01*
X006690Y003580D01*
X002940Y002830D02*
X002190Y003580D01*
X003190Y008580D02*
X003190Y009830D01*
X003690Y010330D01*
X016440Y010330D01*
X016690Y010080D01*
X016690Y005330D01*
X021160Y005940D02*
X023720Y005940D01*
X024050Y005940D01*
X024440Y006330D01*
X024440Y016080D01*
X022190Y018330D01*
X022190Y019580D01*
X022190Y020580D01*
X023190Y020580D02*
X023190Y019580D01*
X024190Y019580D02*
X024190Y020580D01*
X025190Y020580D02*
X025190Y019580D01*
X021190Y019580D02*
X021190Y017080D01*
X021690Y016580D01*
X021190Y019580D02*
X021190Y020580D01*
X018690Y008940D02*
X017410Y008940D01*
X023690Y004080D02*
X023690Y000830D01*
X013690Y000830D01*
X013190Y001330D01*
X013190Y002580D01*
X012190Y002580D02*
X012190Y001580D01*
X011190Y001580D02*
X011190Y002580D01*
D24*
X023690Y004080D03*
X015440Y017580D03*
X013690Y017580D03*
D25*
X008190Y015330D03*
X007190Y015330D03*
X006190Y015330D03*
X005190Y015330D03*
X004190Y015330D03*
X003190Y015330D03*
X002190Y015330D03*
X001190Y015330D03*
X001190Y014330D03*
X002190Y014330D03*
X003190Y014330D03*
X004190Y014330D03*
X005190Y014330D03*
X006190Y014330D03*
X007190Y014330D03*
X008190Y014330D03*
X008190Y013330D03*
X007190Y013330D03*
X006190Y013330D03*
X005190Y013330D03*
X004190Y013330D03*
X003190Y013330D03*
X002190Y013330D03*
X001190Y013330D03*
X001190Y012330D03*
X002190Y012330D03*
X003190Y012330D03*
X004190Y012330D03*
X005190Y012330D03*
X006190Y012330D03*
X007190Y012330D03*
X008190Y012330D03*
X008190Y011330D03*
X007190Y011330D03*
X006190Y011330D03*
X005190Y011330D03*
X004190Y011330D03*
X003190Y011330D03*
X002190Y011330D03*
X001190Y011330D03*
X001190Y010330D03*
X002190Y010330D03*
X002190Y016330D03*
X001190Y016330D03*
X001190Y017330D03*
X002190Y017330D03*
X003190Y017330D03*
X004190Y017330D03*
X005190Y017330D03*
X005190Y016330D03*
X004190Y016330D03*
X003190Y016330D03*
M02*
