%
M48
M72
T01C0.0236
T02C0.0320
T03C0.0335
T04C0.0354
T05C0.0374
T06C0.0400
T07C0.1260
%
T01
X23690Y4080
X15440Y17580
X13690Y17580
T02
X19690Y14580
X19690Y13580
X22690Y13580
X22690Y14580
X7690Y16830
X7690Y17830
T03
X7590Y19580
X8590Y19580
X9590Y19580
X10590Y19580
X11590Y19580
X12590Y19580
X13590Y19580
X14590Y19580
X15590Y19580
X16590Y19580
X16590Y20580
X15590Y20580
X14590Y20580
X13590Y20580
X12590Y20580
X11590Y20580
X10590Y20580
X9590Y20580
X8590Y20580
X7590Y20580
X18190Y20580
X19190Y20580
X20190Y20580
X21190Y20580
X22190Y20580
X23190Y20580
X24190Y20580
X25190Y20580
X25190Y19580
X24190Y19580
X23190Y19580
X22190Y19580
X21190Y19580
X20190Y19580
X19190Y19580
X18190Y19580
X18190Y2580
X17190Y2580
X16190Y2580
X15190Y2580
X14190Y2580
X13190Y2580
X12190Y2580
X11190Y2580
X11190Y1580
X12190Y1580
X13190Y1580
X14190Y1580
X15190Y1580
X16190Y1580
X17190Y1580
X18190Y1580
X20190Y1580
X21190Y1580
X22190Y1580
X23190Y1580
X24190Y1580
X25190Y1580
X25190Y2580
X24190Y2580
X23190Y2580
X22190Y2580
X21190Y2580
X20190Y2580
T04
X8190Y11330
X7190Y11330
X6190Y11330
X5190Y11330
X4190Y11330
X3190Y11330
X2190Y11330
X1190Y11330
X1190Y12330
X2190Y12330
X3190Y12330
X4190Y12330
X5190Y12330
X6190Y12330
X7190Y12330
X8190Y12330
X8190Y13330
X7190Y13330
X6190Y13330
X5190Y13330
X4190Y13330
X3190Y13330
X2190Y13330
X1190Y13330
X1190Y14330
X2190Y14330
X3190Y14330
X4190Y14330
X5190Y14330
X6190Y14330
X7190Y14330
X8190Y14330
X8190Y15330
X7190Y15330
X6190Y15330
X5190Y15330
X4190Y15330
X3190Y15330
X2190Y15330
X1190Y15330
X1190Y16330
X2190Y16330
X3190Y16330
X4190Y16330
X5190Y16330
X5190Y17330
X4190Y17330
X3190Y17330
X2190Y17330
X1190Y17330
X11680Y16080
X12680Y16080
X13680Y16080
X14680Y16080
X14680Y15080
X13680Y15080
X12680Y15080
X11680Y15080
X16190Y16080
X17440Y16080
X17440Y12080
X16190Y12080
X2190Y10330
X1190Y10330
T05
X25240Y10580
X26240Y10580
X26240Y11580
X25240Y11580
X25240Y12580
X26240Y12580
T06
X23720Y10720
X21160Y10720
X19970Y10720
X17410Y10720
X17410Y8940
X17410Y7720
X19970Y7720
X21160Y7720
X21160Y8940
X19970Y8940
X23720Y8940
X23720Y7720
X23720Y5940
X21160Y5940
X19970Y5940
X17410Y5940
X7690Y5580
X6690Y5580
X5690Y5580
X5690Y4580
X6690Y4580
X7690Y4580
X7690Y3580
X6690Y3580
X5690Y3580
X3190Y3580
X2190Y3580
X1190Y3580
X1190Y4580
X2190Y4580
X3190Y4580
X3190Y5580
X2190Y5580
X1190Y5580
X1190Y6580
X2190Y6580
X3190Y6580
X3190Y7580
X2190Y7580
X1190Y7580
X1190Y8580
X2190Y8580
X3190Y8580
X5690Y8580
X6690Y8580
X7690Y8580
X7690Y7580
X6690Y7580
X5690Y7580
X5690Y6580
X6690Y6580
X7690Y6580
X4470Y18940
X1910Y18940
X1910Y20720
X4470Y20720
T07
X5690Y1580
X26190Y3580
X26190Y14580
X6190Y20580
M30
