G75*
G70*
%OFA0B0*%
%FSLAX24Y24*%
%IPPOS*%
%LPD*%
%AMOC8*
5,1,8,0,0,1.08239X$1,22.5*
%
%ADD10C,0.0100*%
%ADD11C,0.0000*%
%ADD12C,0.0070*%
D10*
X000584Y000580D02*
X025796Y000580D01*
X025835Y000582D01*
X025873Y000588D01*
X025910Y000597D01*
X025947Y000610D01*
X025982Y000627D01*
X026015Y000646D01*
X026046Y000669D01*
X026075Y000695D01*
X026101Y000724D01*
X026124Y000755D01*
X026143Y000788D01*
X026160Y000823D01*
X026173Y000860D01*
X026182Y000897D01*
X026188Y000935D01*
X026190Y000974D01*
X026190Y001580D01*
X027190Y002580D01*
X027190Y015480D01*
X026190Y016480D01*
X026190Y020980D01*
X025590Y021580D01*
X000584Y021580D01*
X000545Y021578D01*
X000507Y021572D01*
X000470Y021563D01*
X000433Y021550D01*
X000398Y021533D01*
X000365Y021514D01*
X000334Y021491D01*
X000305Y021465D01*
X000279Y021436D01*
X000256Y021405D01*
X000237Y021372D01*
X000220Y021337D01*
X000207Y021300D01*
X000198Y021263D01*
X000192Y021225D01*
X000190Y021186D01*
X000190Y000974D01*
X000192Y000935D01*
X000198Y000897D01*
X000207Y000860D01*
X000220Y000823D01*
X000237Y000788D01*
X000256Y000755D01*
X000279Y000724D01*
X000305Y000695D01*
X000334Y000669D01*
X000365Y000646D01*
X000398Y000627D01*
X000433Y000610D01*
X000470Y000597D01*
X000507Y000588D01*
X000545Y000582D01*
X000584Y000580D01*
D11*
X005060Y001580D02*
X005062Y001630D01*
X005068Y001680D01*
X005078Y001729D01*
X005092Y001777D01*
X005109Y001824D01*
X005130Y001869D01*
X005155Y001913D01*
X005183Y001954D01*
X005215Y001993D01*
X005249Y002030D01*
X005286Y002064D01*
X005326Y002094D01*
X005368Y002121D01*
X005412Y002145D01*
X005458Y002166D01*
X005505Y002182D01*
X005553Y002195D01*
X005603Y002204D01*
X005652Y002209D01*
X005703Y002210D01*
X005753Y002207D01*
X005802Y002200D01*
X005851Y002189D01*
X005899Y002174D01*
X005945Y002156D01*
X005990Y002134D01*
X006033Y002108D01*
X006074Y002079D01*
X006113Y002047D01*
X006149Y002012D01*
X006181Y001974D01*
X006211Y001934D01*
X006238Y001891D01*
X006261Y001847D01*
X006280Y001801D01*
X006296Y001753D01*
X006308Y001704D01*
X006316Y001655D01*
X006320Y001605D01*
X006320Y001555D01*
X006316Y001505D01*
X006308Y001456D01*
X006296Y001407D01*
X006280Y001359D01*
X006261Y001313D01*
X006238Y001269D01*
X006211Y001226D01*
X006181Y001186D01*
X006149Y001148D01*
X006113Y001113D01*
X006074Y001081D01*
X006033Y001052D01*
X005990Y001026D01*
X005945Y001004D01*
X005899Y000986D01*
X005851Y000971D01*
X005802Y000960D01*
X005753Y000953D01*
X005703Y000950D01*
X005652Y000951D01*
X005603Y000956D01*
X005553Y000965D01*
X005505Y000978D01*
X005458Y000994D01*
X005412Y001015D01*
X005368Y001039D01*
X005326Y001066D01*
X005286Y001096D01*
X005249Y001130D01*
X005215Y001167D01*
X005183Y001206D01*
X005155Y001247D01*
X005130Y001291D01*
X005109Y001336D01*
X005092Y001383D01*
X005078Y001431D01*
X005068Y001480D01*
X005062Y001530D01*
X005060Y001580D01*
X025560Y003580D02*
X025562Y003630D01*
X025568Y003680D01*
X025578Y003729D01*
X025592Y003777D01*
X025609Y003824D01*
X025630Y003869D01*
X025655Y003913D01*
X025683Y003954D01*
X025715Y003993D01*
X025749Y004030D01*
X025786Y004064D01*
X025826Y004094D01*
X025868Y004121D01*
X025912Y004145D01*
X025958Y004166D01*
X026005Y004182D01*
X026053Y004195D01*
X026103Y004204D01*
X026152Y004209D01*
X026203Y004210D01*
X026253Y004207D01*
X026302Y004200D01*
X026351Y004189D01*
X026399Y004174D01*
X026445Y004156D01*
X026490Y004134D01*
X026533Y004108D01*
X026574Y004079D01*
X026613Y004047D01*
X026649Y004012D01*
X026681Y003974D01*
X026711Y003934D01*
X026738Y003891D01*
X026761Y003847D01*
X026780Y003801D01*
X026796Y003753D01*
X026808Y003704D01*
X026816Y003655D01*
X026820Y003605D01*
X026820Y003555D01*
X026816Y003505D01*
X026808Y003456D01*
X026796Y003407D01*
X026780Y003359D01*
X026761Y003313D01*
X026738Y003269D01*
X026711Y003226D01*
X026681Y003186D01*
X026649Y003148D01*
X026613Y003113D01*
X026574Y003081D01*
X026533Y003052D01*
X026490Y003026D01*
X026445Y003004D01*
X026399Y002986D01*
X026351Y002971D01*
X026302Y002960D01*
X026253Y002953D01*
X026203Y002950D01*
X026152Y002951D01*
X026103Y002956D01*
X026053Y002965D01*
X026005Y002978D01*
X025958Y002994D01*
X025912Y003015D01*
X025868Y003039D01*
X025826Y003066D01*
X025786Y003096D01*
X025749Y003130D01*
X025715Y003167D01*
X025683Y003206D01*
X025655Y003247D01*
X025630Y003291D01*
X025609Y003336D01*
X025592Y003383D01*
X025578Y003431D01*
X025568Y003480D01*
X025562Y003530D01*
X025560Y003580D01*
X025560Y014580D02*
X025562Y014630D01*
X025568Y014680D01*
X025578Y014729D01*
X025592Y014777D01*
X025609Y014824D01*
X025630Y014869D01*
X025655Y014913D01*
X025683Y014954D01*
X025715Y014993D01*
X025749Y015030D01*
X025786Y015064D01*
X025826Y015094D01*
X025868Y015121D01*
X025912Y015145D01*
X025958Y015166D01*
X026005Y015182D01*
X026053Y015195D01*
X026103Y015204D01*
X026152Y015209D01*
X026203Y015210D01*
X026253Y015207D01*
X026302Y015200D01*
X026351Y015189D01*
X026399Y015174D01*
X026445Y015156D01*
X026490Y015134D01*
X026533Y015108D01*
X026574Y015079D01*
X026613Y015047D01*
X026649Y015012D01*
X026681Y014974D01*
X026711Y014934D01*
X026738Y014891D01*
X026761Y014847D01*
X026780Y014801D01*
X026796Y014753D01*
X026808Y014704D01*
X026816Y014655D01*
X026820Y014605D01*
X026820Y014555D01*
X026816Y014505D01*
X026808Y014456D01*
X026796Y014407D01*
X026780Y014359D01*
X026761Y014313D01*
X026738Y014269D01*
X026711Y014226D01*
X026681Y014186D01*
X026649Y014148D01*
X026613Y014113D01*
X026574Y014081D01*
X026533Y014052D01*
X026490Y014026D01*
X026445Y014004D01*
X026399Y013986D01*
X026351Y013971D01*
X026302Y013960D01*
X026253Y013953D01*
X026203Y013950D01*
X026152Y013951D01*
X026103Y013956D01*
X026053Y013965D01*
X026005Y013978D01*
X025958Y013994D01*
X025912Y014015D01*
X025868Y014039D01*
X025826Y014066D01*
X025786Y014096D01*
X025749Y014130D01*
X025715Y014167D01*
X025683Y014206D01*
X025655Y014247D01*
X025630Y014291D01*
X025609Y014336D01*
X025592Y014383D01*
X025578Y014431D01*
X025568Y014480D01*
X025562Y014530D01*
X025560Y014580D01*
X005560Y020580D02*
X005562Y020630D01*
X005568Y020680D01*
X005578Y020729D01*
X005592Y020777D01*
X005609Y020824D01*
X005630Y020869D01*
X005655Y020913D01*
X005683Y020954D01*
X005715Y020993D01*
X005749Y021030D01*
X005786Y021064D01*
X005826Y021094D01*
X005868Y021121D01*
X005912Y021145D01*
X005958Y021166D01*
X006005Y021182D01*
X006053Y021195D01*
X006103Y021204D01*
X006152Y021209D01*
X006203Y021210D01*
X006253Y021207D01*
X006302Y021200D01*
X006351Y021189D01*
X006399Y021174D01*
X006445Y021156D01*
X006490Y021134D01*
X006533Y021108D01*
X006574Y021079D01*
X006613Y021047D01*
X006649Y021012D01*
X006681Y020974D01*
X006711Y020934D01*
X006738Y020891D01*
X006761Y020847D01*
X006780Y020801D01*
X006796Y020753D01*
X006808Y020704D01*
X006816Y020655D01*
X006820Y020605D01*
X006820Y020555D01*
X006816Y020505D01*
X006808Y020456D01*
X006796Y020407D01*
X006780Y020359D01*
X006761Y020313D01*
X006738Y020269D01*
X006711Y020226D01*
X006681Y020186D01*
X006649Y020148D01*
X006613Y020113D01*
X006574Y020081D01*
X006533Y020052D01*
X006490Y020026D01*
X006445Y020004D01*
X006399Y019986D01*
X006351Y019971D01*
X006302Y019960D01*
X006253Y019953D01*
X006203Y019950D01*
X006152Y019951D01*
X006103Y019956D01*
X006053Y019965D01*
X006005Y019978D01*
X005958Y019994D01*
X005912Y020015D01*
X005868Y020039D01*
X005826Y020066D01*
X005786Y020096D01*
X005749Y020130D01*
X005715Y020167D01*
X005683Y020206D01*
X005655Y020247D01*
X005630Y020291D01*
X005609Y020336D01*
X005592Y020383D01*
X005578Y020431D01*
X005568Y020480D01*
X005562Y020530D01*
X005560Y020580D01*
D12*
X010475Y013594D02*
X010790Y013594D01*
X010895Y013489D01*
X010790Y013384D01*
X010475Y013384D01*
X010475Y013174D02*
X010895Y013174D01*
X010895Y013279D01*
X010790Y013384D01*
X010790Y012950D02*
X010895Y012845D01*
X010895Y012634D01*
X010790Y012529D01*
X010580Y012529D01*
X010475Y012634D01*
X010475Y012845D01*
X010580Y012950D01*
X010790Y012950D01*
X010895Y012305D02*
X010895Y011990D01*
X010790Y011885D01*
X010580Y011885D01*
X010475Y011990D01*
X010475Y012305D01*
X010475Y011668D02*
X010475Y011562D01*
X010580Y011562D01*
X010580Y011668D01*
X010475Y011668D01*
X010580Y011338D02*
X010685Y011233D01*
X010685Y011023D01*
X010790Y010918D01*
X010895Y011023D01*
X010895Y011338D01*
X010580Y011338D02*
X010475Y011233D01*
X010475Y010918D01*
X010475Y010698D02*
X010580Y010593D01*
X011000Y010593D01*
X010895Y010488D02*
X010895Y010698D01*
X010475Y010269D02*
X010475Y010059D01*
X010475Y010164D02*
X010895Y010164D01*
X010895Y010059D01*
X010895Y009837D02*
X010685Y009521D01*
X010475Y009837D01*
X011106Y010164D02*
X011211Y010164D01*
X011106Y009521D02*
X010475Y009521D01*
X010475Y009192D02*
X011106Y009192D01*
X010790Y008877D01*
X010790Y009297D01*
X010895Y008653D02*
X011000Y008653D01*
X011106Y008548D01*
X011106Y008337D01*
X011000Y008232D01*
X011106Y008013D02*
X011000Y007908D01*
X010475Y007908D01*
X010475Y008232D02*
X010895Y008653D01*
X010475Y008653D02*
X010475Y008232D01*
X010790Y008013D02*
X010790Y007803D01*
X010895Y007581D02*
X010895Y007476D01*
X010685Y007265D01*
X010475Y007265D02*
X010895Y007265D01*
X010790Y007041D02*
X010475Y007041D01*
X010790Y007041D02*
X010895Y006936D01*
X010895Y006621D01*
X010475Y006621D01*
X010475Y006404D02*
X010475Y006299D01*
X010580Y006299D01*
X010580Y006404D01*
X010475Y006404D01*
X010580Y006074D02*
X010895Y006074D01*
X010580Y006074D02*
X010475Y005969D01*
X010580Y005864D01*
X010475Y005759D01*
X010580Y005654D01*
X010895Y005654D01*
X010895Y005430D02*
X010580Y005430D01*
X010475Y005325D01*
X010580Y005220D01*
X010475Y005115D01*
X010580Y005010D01*
X010895Y005010D01*
X010895Y004785D02*
X010580Y004785D01*
X010475Y004680D01*
X010580Y004575D01*
X010475Y004470D01*
X010580Y004365D01*
X010895Y004365D01*
X013725Y004365D02*
X014145Y004365D01*
X013935Y004365D02*
X014145Y004575D01*
X014145Y004680D01*
X014040Y004902D02*
X013830Y004902D01*
X013725Y005007D01*
X013725Y005217D01*
X013935Y005322D02*
X013935Y004902D01*
X014040Y004902D02*
X014145Y005007D01*
X014145Y005217D01*
X014040Y005322D01*
X013935Y005322D01*
X014145Y005547D02*
X013725Y005757D01*
X014145Y005967D01*
X013830Y006191D02*
X013830Y006296D01*
X013725Y006296D01*
X013725Y006191D01*
X013830Y006191D01*
X014725Y006299D02*
X014725Y006719D01*
X015040Y006943D02*
X015040Y007364D01*
X014725Y007258D02*
X015356Y007258D01*
X015040Y006943D01*
X015145Y006719D02*
X015250Y006719D01*
X015356Y006614D01*
X015356Y006404D01*
X015250Y006299D01*
X015356Y006074D02*
X015356Y005654D01*
X014725Y005654D01*
X015040Y005654D02*
X015040Y005864D01*
X015040Y005430D02*
X014935Y005325D01*
X014935Y005010D01*
X014935Y005220D02*
X014725Y005430D01*
X015040Y005430D02*
X015250Y005430D01*
X015356Y005325D01*
X015356Y005010D01*
X014725Y005010D01*
X014725Y004785D02*
X015356Y004785D01*
X015356Y004365D02*
X014725Y004365D01*
X014725Y004785D02*
X015356Y004365D01*
X014725Y006299D02*
X015145Y006719D01*
X014356Y007368D02*
X013725Y007368D01*
X013725Y007158D02*
X013725Y007578D01*
X013725Y007803D02*
X013725Y007908D01*
X013830Y007908D01*
X013830Y007803D01*
X013725Y007803D01*
X013830Y008125D02*
X014250Y008545D01*
X013830Y008545D01*
X013725Y008440D01*
X013725Y008230D01*
X013830Y008125D01*
X014250Y008125D01*
X014356Y008230D01*
X014356Y008440D01*
X014250Y008545D01*
X014725Y008548D02*
X014725Y008337D01*
X014830Y008232D01*
X015250Y008653D01*
X014830Y008653D01*
X014725Y008548D01*
X014725Y008877D02*
X014725Y009297D01*
X014725Y009087D02*
X015356Y009087D01*
X015145Y008877D01*
X015250Y008653D02*
X015356Y008548D01*
X015356Y008337D01*
X015250Y008232D01*
X014830Y008232D01*
X014725Y008008D02*
X014725Y007588D01*
X015356Y007588D01*
X014356Y007368D02*
X014145Y007158D01*
X014830Y010166D02*
X014725Y010271D01*
X014725Y010481D01*
X014830Y010586D01*
X014935Y010586D01*
X015040Y010481D01*
X015040Y010271D01*
X015145Y010166D01*
X015250Y010166D01*
X015356Y010271D01*
X015356Y010481D01*
X015250Y010586D01*
X015356Y010810D02*
X014725Y010810D01*
X015040Y010810D02*
X015145Y010916D01*
X015145Y011126D01*
X015040Y011231D01*
X014725Y011231D01*
X014725Y011455D02*
X014725Y011665D01*
X014725Y011560D02*
X015145Y011560D01*
X015145Y011455D01*
X015356Y011560D02*
X015461Y011560D01*
X015040Y011885D02*
X015145Y011990D01*
X015145Y012200D01*
X015040Y012305D01*
X014935Y012305D01*
X014935Y011885D01*
X014830Y011885D02*
X015040Y011885D01*
X014830Y011885D02*
X014725Y011990D01*
X014725Y012200D01*
X014725Y012529D02*
X014725Y012739D01*
X014725Y012634D02*
X015356Y012634D01*
X015356Y012529D01*
X015040Y012959D02*
X015145Y013064D01*
X015145Y013379D01*
X015356Y013379D02*
X014725Y013379D01*
X014725Y013064D01*
X014830Y012959D01*
X015040Y012959D01*
M02*
